<?xml version="1.0" encoding="UTF-8"?>
<svg id="Layer_2" data-name="Layer 2" xmlns="http://www.w3.org/2000/svg" xmlns:xlink="http://www.w3.org/1999/xlink" viewBox="0 0 48 48">
  <defs>
    <style>
      .cls-1 {
        fill: #bdbdbd;
        stroke: #252b42;
      }

      .cls-2 {
        clip-path: url(#clippath);
      }

      .cls-3 {
        fill: none;
      }

      .cls-4 {
        fill: #e8e8e8;
      }
    </style>
    <clipPath id="clippath">
      <rect class="cls-3" x="12" y="13" width="24" height="22.96"/>
    </clipPath>
  </defs>
  <g id="Layer_2-2" data-name="Layer 2">
    <g id="Layer_1-2" data-name="Layer 1-2">
      <path class="cls-4" d="M24,0h0c13.25,0,24,10.75,24,24h0c0,13.25-10.75,24-24,24h0C10.75,48,0,37.25,0,24H0C0,10.75,10.75,0,24,0Z"/>
      <g class="cls-2">
        <g>
          <path class="cls-1" d="M21.68,34.23c0,.68-.54,1.22-1.19,1.22s-1.19-.54-1.19-1.22,.54-1.22,1.19-1.22,1.19,.54,1.19,1.22Z"/>
          <path class="cls-1" d="M31.94,34.23c0,.68-.54,1.22-1.19,1.22s-1.19-.54-1.19-1.22,.54-1.22,1.19-1.22,1.19,.54,1.19,1.22Z"/>
          <path class="cls-1" d="M34.92,15.89h0s-.05-.05-.09-.07c-.03-.02-.07-.02-.1-.02h-14.93l.17,.53h14.4l-.13,.61-2,9.18-.09,.39h-12.02l-.11-.35-3.43-11.07h0s-.04-.08-.06-.11c-.03-.03-.06-.05-.1-.06h0l-3.07-.96h0s-.06-.01-.09,0c-.03,0-.06,.01-.09,.03-.06,.03-.11,.09-.13,.16s-.01,.15,.02,.21c.03,.06,.09,.11,.15,.13h0l2.69,.84,.25,.08,.08,.25,3.44,11.1,.1,.32-.26,.21-1.21,1.01-.07,.07c-.22,.27-.35,.61-.36,.96,0,.36,.11,.71,.32,.99,.16,.19,.35,.34,.57,.44s.46,.15,.71,.13h12.54c.06,0,.13-.03,.17-.07,.05-.05,.08-.12,.08-.19s-.03-.14-.08-.19c-.05-.05-.11-.07-.17-.07h-12.65c-.17,0-.34-.06-.49-.15s-.27-.22-.35-.37m16.4-13.92l-16.4,13.92m16.4-13.92h0s.04,.08,.05,.12c0,.04,0,.08,0,.12m-.07-.24l.07,.24m-16.47,13.69c-.08-.15-.13-.32-.13-.49s.04-.34,.13-.49l.04-.08,.07-.06,1.81-1.53,.14-.12h11.78c.06,0,.11-.02,.16-.05,.05-.04,.08-.09,.09-.15h0l2.38-10.71m-16.47,13.69l16.47-13.69"/>
        </g>
      </g>
    </g>
  </g>
</svg>