<svg width="25" height="34" viewBox="0 0 25 34" fill="none" xmlns="http://www.w3.org/2000/svg">
<path d="M4.75824 1.00194C6.65234 4.65439 7.18375 7.24101 6.8875 11.366C6.49851 16.7823 0.527189 18.5056 1.03203 23.9119C1.35981 27.422 2.34346 29.582 4.75824 32.0941M13.2753 1.00194C15.2487 4.61 15.7909 7.24884 15.4046 11.366C14.8789 16.9681 7.76787 18.3321 8.48445 23.9119C8.9589 27.6064 10.3174 29.9265 13.2753 32.0941M21.7923 1.00194C23.6864 4.65439 24.2178 7.24101 23.9216 11.366C23.5326 16.7823 17.5613 18.5056 18.0661 23.9119C18.3939 27.422 19.3776 29.582 21.7923 32.0941" stroke="#302318" stroke-width="2" stroke-linecap="round"/>
</svg>
