<svg width="79" height="137" viewBox="0 0 79 137" fill="none" xmlns="http://www.w3.org/2000/svg">
<path d="M71.8776 0H6.60479C5.72925 0.00726864 4.86384 0.174367 4.058 0.491743C3.25216 0.80912 2.5217 1.27055 1.90836 1.84968C1.29502 2.4288 0.810813 3.11427 0.483421 3.8669C0.156028 4.61953 -0.00813409 5.42458 0.000309954 6.23603V130.768C-0.0146132 132.406 0.672598 133.982 1.91097 135.15C3.14934 136.319 4.83757 136.984 6.60479 137H71.8776C73.6452 136.984 75.3338 136.319 76.5729 135.151C77.8119 133.982 78.5 132.406 78.4861 130.768V6.23603C78.494 5.4244 78.3294 4.61927 78.0015 3.86662C77.6737 3.11396 77.1891 2.42853 76.5754 1.84946C75.9618 1.27038 75.2311 0.809004 74.425 0.491673C73.6189 0.174342 72.7533 0.00727038 71.8776 0ZM74.3538 126.916C74.3538 130.193 71.7056 132.848 68.4414 132.848H10.037C6.76481 132.848 4.11661 130.193 4.11661 126.916V10.9668C4.11661 4.2933 6.76481 3.96333 10.037 3.96333H21.7379C22.418 3.96333 22.974 4.67888 22.974 5.56497V5.93573C22.974 8.01193 24.2021 8.01935 25.7062 8.01935H52.7562C54.2763 8.01935 55.4964 8.01935 55.4964 5.93573V5.56497C55.4964 4.67888 56.0444 3.96333 56.7365 3.96333H68.4334C71.6976 3.96333 74.3458 4.84942 74.3458 10.9668L74.3538 126.916Z" fill="#263238"/>
<path d="M74.3582 11.0559V127.012C74.3582 130.289 71.71 132.944 68.4458 132.944H10.0414C6.7692 132.944 4.12101 130.293 4.12101 127.012V11.0559C4.12101 4.38236 6.7692 4.05239 10.0414 4.05239H21.7423C22.4224 4.05239 22.9784 4.77165 22.9784 5.65774V6.0285C22.9784 8.10841 24.2065 8.11582 25.7106 8.11582H52.7686C54.2887 8.11582 55.5088 8.11582 55.5088 6.0285V5.65774C55.5088 4.77165 56.0568 4.05239 56.7489 4.05239H68.4458C71.73 4.05239 74.3582 4.94219 74.3582 11.0559Z" fill="white"/>
<path d="M74.3581 11.0595V21.5778H4.12492V11.0595C4.12492 4.38602 6.77311 4.05605 10.0454 4.05605H21.7462C22.4263 4.05605 22.9823 4.7716 22.9823 5.6577V6.02845C22.9823 8.10466 24.2104 8.11207 25.7145 8.11207H52.7685C54.2886 8.11207 55.5087 8.11207 55.5087 6.02845V5.6577C55.5087 4.7716 56.0567 4.05605 56.7488 4.05605H68.4457C71.7299 4.05605 74.3581 4.94215 74.3581 11.0595Z" fill="#5D4037"/>
<path d="M42.928 5.42785H35.5514C35.4312 5.42687 35.3162 5.38191 35.2316 5.30275C35.1469 5.22359 35.0994 5.11665 35.0994 5.00519C35.0994 4.89374 35.1469 4.78679 35.2316 4.70763C35.3162 4.62848 35.4312 4.58351 35.5514 4.58254H42.928C43.0489 4.58254 43.1649 4.62707 43.2504 4.70633C43.336 4.78559 43.384 4.8931 43.384 5.00519C43.384 5.11729 43.336 5.22479 43.2504 5.30406C43.1649 5.38332 43.0489 5.42785 42.928 5.42785Z" fill="white"/>
<path d="M19.7262 6.55493L19.6142 6.66245C19.591 6.68033 19.5695 6.70019 19.5502 6.72177C19.4072 6.58893 19.2373 6.48355 19.0502 6.41164C18.8632 6.33973 18.6627 6.30272 18.4602 6.30272C18.2577 6.30272 18.0571 6.33973 17.8701 6.41164C17.683 6.48355 17.5131 6.58893 17.3701 6.72177L17.3101 6.66245L17.1981 6.55864L17.3421 6.44C17.4433 6.36464 17.5534 6.29998 17.6701 6.24721C17.8095 6.18335 17.9575 6.13721 18.1101 6.11003L18.3301 6.08408H18.5262H18.6742C18.8112 6.09698 18.9458 6.12691 19.0742 6.17306C19.1695 6.20276 19.2608 6.24257 19.3462 6.2917C19.4384 6.33957 19.5254 6.39544 19.6062 6.45854L19.7262 6.55864V6.55493Z" fill="white"/>
<path d="M17.7258 7.048L17.5458 6.88487C17.7408 6.69993 17.9972 6.5811 18.2738 6.54749C18.4713 6.52061 18.6729 6.53678 18.8624 6.5947C19.052 6.65262 19.2244 6.75071 19.3659 6.88116L19.1859 7.048C18.9913 6.87026 18.7291 6.77063 18.4559 6.77063C18.1826 6.77063 17.9204 6.87026 17.7258 7.048Z" fill="white"/>
<path d="M19.0103 7.21488L18.8343 7.37801C18.7849 7.33255 18.7261 7.29667 18.6616 7.27248C18.597 7.24829 18.5279 7.23627 18.4583 7.23712C18.3889 7.2364 18.3201 7.24886 18.2561 7.27373C18.1921 7.2986 18.1343 7.33535 18.0862 7.38172L17.9062 7.21488C17.9784 7.14717 18.0644 7.09342 18.1591 7.05673C18.2539 7.02004 18.3556 7.00115 18.4583 7.00115C18.561 7.00115 18.6626 7.02004 18.7574 7.05673C18.8522 7.09342 18.9381 7.14717 19.0103 7.21488Z" fill="white"/>
<path d="M18.622 7.52995C18.6228 7.56016 18.6138 7.58991 18.5963 7.61539C18.5788 7.64087 18.5534 7.66093 18.5236 7.673C18.4937 7.68508 18.4606 7.68862 18.4285 7.68318C18.3964 7.67774 18.3668 7.66356 18.3435 7.64246C18.3201 7.62136 18.3041 7.59429 18.2975 7.5647C18.2908 7.53512 18.2938 7.50437 18.3061 7.47637C18.3184 7.44838 18.3394 7.42442 18.3664 7.40755C18.3935 7.39068 18.4254 7.38166 18.458 7.38165C18.4793 7.38115 18.5006 7.38462 18.5204 7.39186C18.5403 7.39909 18.5584 7.40993 18.5737 7.42375C18.589 7.43757 18.6011 7.45409 18.6094 7.47233C18.6177 7.49056 18.622 7.51016 18.622 7.52995Z" fill="white"/>
<path d="M8.70503 6.88857C8.70424 6.80247 8.73111 6.71809 8.78224 6.64619C8.83336 6.57429 8.90641 6.51812 8.9921 6.48483C9.07778 6.45154 9.17221 6.44264 9.26337 6.45926C9.35454 6.47588 9.4383 6.51727 9.50399 6.57815C9.56969 6.63904 9.61435 6.71667 9.63228 6.80116C9.65021 6.88565 9.6406 6.97317 9.60468 7.05259C9.56877 7.132 9.50816 7.19971 9.43058 7.24709C9.353 7.29447 9.26197 7.31938 9.16906 7.31865C9.04599 7.31865 8.92796 7.27333 8.84094 7.19268C8.75391 7.11203 8.70503 7.00264 8.70503 6.88857Z" fill="white"/>
<path d="M10.1731 6.88862C10.1731 6.80356 10.2003 6.72041 10.2513 6.64969C10.3023 6.57896 10.3748 6.52384 10.4596 6.49129C10.5444 6.45874 10.6377 6.45022 10.7277 6.46682C10.8177 6.48341 10.9004 6.52437 10.9653 6.58452C11.0302 6.64466 11.0743 6.7213 11.0923 6.80472C11.1102 6.88815 11.101 6.97462 11.0658 7.05321C11.0307 7.13179 10.9713 7.19896 10.8949 7.24622C10.8186 7.29347 10.7289 7.3187 10.6371 7.3187C10.5141 7.3187 10.396 7.27338 10.309 7.19273C10.222 7.11208 10.1731 7.00269 10.1731 6.88862Z" fill="white"/>
<path d="M11.6373 6.88857C11.6365 6.80247 11.6634 6.71809 11.7145 6.64619C11.7656 6.57429 11.8387 6.51812 11.9244 6.48483C12.0101 6.45154 12.1045 6.44264 12.1957 6.45926C12.2868 6.47588 12.3706 6.51727 12.4363 6.57815C12.502 6.63904 12.5466 6.71667 12.5646 6.80116C12.5825 6.88565 12.5729 6.97317 12.537 7.05259C12.501 7.132 12.4404 7.19971 12.3629 7.24709C12.2853 7.29447 12.1942 7.31938 12.1013 7.31865C11.9783 7.31865 11.8602 7.27333 11.7732 7.19268C11.6862 7.11203 11.6373 7.00264 11.6373 6.88857Z" fill="white"/>
<path d="M13.1015 6.88859C13.1007 6.80264 13.1275 6.71841 13.1784 6.64659C13.2294 6.57477 13.3022 6.5186 13.3876 6.4852C13.4731 6.4518 13.5673 6.44268 13.6584 6.45899C13.7494 6.47531 13.8332 6.51633 13.899 6.57684C13.9649 6.63736 14.0099 6.71464 14.0282 6.79888C14.0466 6.88313 14.0376 6.97054 14.0023 7.05002C13.967 7.12949 13.907 7.19746 13.83 7.24529C13.7529 7.29312 13.6623 7.31866 13.5695 7.31866C13.4461 7.31867 13.3276 7.27347 13.24 7.19292C13.1523 7.11237 13.1025 7.00299 13.1015 6.88859Z" fill="white"/>
<path d="M14.5696 6.88857C14.5688 6.80247 14.5957 6.71809 14.6468 6.64619C14.6979 6.57429 14.771 6.51812 14.8566 6.48483C14.9423 6.45154 15.0368 6.44264 15.1279 6.45926C15.2191 6.47588 15.3028 6.51727 15.3685 6.57815C15.4342 6.63904 15.4789 6.71667 15.4968 6.80116C15.5148 6.88565 15.5052 6.97317 15.4692 7.05259C15.4333 7.132 15.3727 7.19971 15.2951 7.24709C15.2176 7.29447 15.1265 7.31938 15.0336 7.31865C14.9105 7.31865 14.7925 7.27333 14.7055 7.19268C14.6185 7.11203 14.5696 7.00264 14.5696 6.88857Z" fill="white"/>
<path d="M69.0895 7.81546H65.3012V6.18786H69.0895V7.81546ZM65.4893 7.6375H68.8895V6.36582H65.4893V7.6375Z" fill="white"/>
<path d="M68.057 6.466H65.6128V7.54118H68.057V6.466Z" fill="white"/>
<path d="M69.4252 6.566H69.0892V7.43726H69.4252V6.566Z" fill="white"/>
<path d="M10.7812 17.5551L8.70501 15.7532L10.7812 13.9514L11.1012 14.2665L9.39306 15.7532L11.1012 17.2362L10.7812 17.5551Z" fill="white"/>
<path d="M67.9894 17.6848H66.5893V17.2325C66.5888 17.2141 66.5829 17.1961 66.5724 17.1805C66.5618 17.1648 66.547 17.1521 66.5293 17.1435C66.4755 17.1181 66.4234 17.0897 66.3733 17.0583C66.3552 17.0481 66.3345 17.0428 66.3133 17.0428C66.2922 17.0428 66.2714 17.0481 66.2533 17.0583L65.8333 17.2844L65.1332 16.1722L65.5573 15.946C65.574 15.9353 65.5876 15.9209 65.5967 15.904C65.6058 15.8872 65.6101 15.8684 65.6093 15.8496C65.6093 15.8199 65.6093 15.794 65.6093 15.768C65.6093 15.7421 65.6093 15.7124 65.6093 15.6865C65.6104 15.6671 65.6063 15.6477 65.5972 15.6302C65.5881 15.6127 65.5744 15.5976 65.5573 15.5864L65.1332 15.3602L65.8333 14.248L66.2533 14.4741C66.2708 14.4839 66.2909 14.4891 66.3113 14.4891C66.3318 14.4891 66.3518 14.4839 66.3693 14.4741L66.5293 14.3926C66.5473 14.3834 66.5623 14.37 66.5728 14.3537C66.5834 14.3374 66.5891 14.3188 66.5893 14.2999V13.8216H67.9894V14.2702C67.9897 14.2892 67.9954 14.3078 68.006 14.324C68.0165 14.3403 68.0315 14.3537 68.0494 14.3629C68.1032 14.3871 68.1553 14.4143 68.2055 14.4445C68.2237 14.4542 68.2444 14.4594 68.2655 14.4594C68.2865 14.4594 68.3072 14.4542 68.3255 14.4445L68.7455 14.2183L69.4456 15.3306L69.0215 15.553C69.0032 15.5631 68.9884 15.5779 68.9792 15.5958C68.9699 15.6136 68.9666 15.6335 68.9695 15.6531V15.8162C68.9668 15.8353 68.9704 15.8546 68.9796 15.8718C68.9889 15.889 69.0035 15.9032 69.0215 15.9126L69.4456 16.1388L68.7455 17.251L68.3215 17.0249C68.304 17.0151 68.2839 17.0099 68.2635 17.0099C68.243 17.0099 68.223 17.0151 68.2055 17.0249C68.1554 17.0563 68.1033 17.0848 68.0494 17.1102C68.0318 17.1187 68.017 17.1315 68.0064 17.1471C67.9959 17.1627 67.99 17.1807 67.9894 17.1991V17.6848ZM66.8894 17.4068H67.6894V17.2325C67.6885 17.1624 67.7091 17.0935 67.7487 17.0338C67.7884 16.974 67.8455 16.926 67.9134 16.8951C67.9575 16.8738 68.0002 16.8503 68.0415 16.8247C68.1059 16.7864 68.1809 16.766 68.2575 16.766C68.3341 16.766 68.409 16.7864 68.4735 16.8247L68.6335 16.91L69.0335 16.2686L68.8695 16.1833C68.8001 16.147 68.744 16.0923 68.7084 16.0262C68.6727 15.9602 68.6592 15.8858 68.6695 15.8125V15.6754C68.6596 15.6017 68.6737 15.527 68.7101 15.4609C68.7465 15.3948 68.8034 15.3404 68.8735 15.3046L69.0335 15.2193L68.6335 14.5779L68.4735 14.6632C68.409 14.7015 68.3341 14.7219 68.2575 14.7219C68.1809 14.7219 68.1059 14.7015 68.0415 14.6632C68.0016 14.6366 67.9587 14.6142 67.9134 14.5965C67.8449 14.5654 67.7874 14.5167 67.7477 14.4563C67.708 14.3958 67.6878 14.3261 67.6894 14.2554V14.0848H66.8894V14.2554C66.8907 14.3265 66.8699 14.3965 66.8294 14.457C66.789 14.5175 66.7307 14.5659 66.6613 14.5965C66.617 14.6159 66.5743 14.6382 66.5333 14.6632C66.4693 14.7008 66.3951 14.7207 66.3193 14.7207C66.2436 14.7207 66.1693 14.7008 66.1053 14.6632L65.9413 14.5779L65.5413 15.2193L65.7013 15.3046C65.7714 15.3404 65.8283 15.3948 65.8647 15.4609C65.9011 15.527 65.9152 15.6017 65.9053 15.6754V15.8125C65.9152 15.8862 65.9011 15.9608 65.8647 16.0269C65.8283 16.093 65.7714 16.1475 65.7013 16.1833L65.5413 16.2686L65.9413 16.91L66.1053 16.8247C66.1698 16.7864 66.2447 16.766 66.3213 16.766C66.3979 16.766 66.4729 16.7864 66.5373 16.8247C66.5786 16.8503 66.6213 16.8738 66.6654 16.8951C66.7333 16.926 66.7904 16.974 66.8301 17.0338C66.8697 17.0935 66.8903 17.1624 66.8894 17.2325V17.4068ZM67.2894 16.7246C67.081 16.7253 66.877 16.6687 66.7034 16.5618C66.5298 16.4549 66.3943 16.3027 66.3142 16.1244C66.2341 15.946 66.2129 15.7497 66.2533 15.5602C66.2938 15.3707 66.3941 15.1966 66.5415 15.06C66.6889 14.9234 66.8767 14.8305 67.0811 14.793C67.2856 14.7555 67.4975 14.7751 67.6899 14.8494C67.8823 14.9236 68.0465 15.0492 68.1618 15.2101C68.2771 15.371 68.3383 15.56 68.3375 15.7532C68.3375 16.0108 68.2271 16.2579 68.0305 16.4401C67.8339 16.6222 67.5674 16.7246 67.2894 16.7246ZM67.2894 15.0562C67.1405 15.0555 66.9947 15.0957 66.8705 15.1719C66.7463 15.248 66.6493 15.3566 66.5917 15.4839C66.5342 15.6112 66.5187 15.7515 66.5473 15.8869C66.5759 16.0224 66.6472 16.1469 66.7522 16.2447C66.8572 16.3426 66.9912 16.4094 67.1372 16.4365C67.2832 16.4637 67.4346 16.4502 67.5723 16.3975C67.7099 16.3449 67.8276 16.2555 67.9104 16.1408C67.9932 16.0261 68.0374 15.8912 68.0374 15.7532C68.039 15.6611 68.0209 15.5695 67.9841 15.4839C67.9472 15.3983 67.8924 15.3203 67.8229 15.2545C67.7533 15.1886 67.6703 15.1362 67.5788 15.1002C67.4872 15.0643 67.3888 15.0456 67.2894 15.0451V15.0562Z" fill="white"/>
<path d="M50.656 114.633H27.9943V121.213H50.656V114.633Z" fill="#5D4037"/>
<path d="M34.6471 119.434C34.4172 119.437 34.1897 119.39 33.9831 119.297C33.7862 119.206 33.6108 119.08 33.4671 118.926C33.322 118.775 33.2081 118.6 33.131 118.411C33.0552 118.222 33.0159 118.022 33.015 117.821C33.0132 117.614 33.0554 117.409 33.139 117.217C33.2194 117.027 33.336 116.853 33.483 116.701C33.629 116.548 33.8056 116.422 34.0031 116.331C34.2076 116.244 34.4302 116.199 34.6551 116.201C34.8863 116.197 35.1152 116.244 35.3232 116.338C35.5175 116.431 35.6912 116.556 35.8352 116.709C35.9782 116.859 36.0907 117.033 36.1673 117.22C36.2431 117.408 36.2824 117.606 36.2833 117.806C36.2841 118.013 36.2434 118.218 36.1632 118.411C36.0843 118.598 35.9675 118.771 35.8192 118.918C35.6728 119.067 35.4961 119.186 35.2992 119.271C35.0981 119.37 34.8751 119.426 34.6471 119.434ZM33.5631 117.832C33.5619 117.978 33.5876 118.124 33.6391 118.262C33.6873 118.397 33.7618 118.523 33.8591 118.633C33.9515 118.74 34.0674 118.827 34.1991 118.889C34.3418 118.951 34.4975 118.983 34.6551 118.983C34.8128 118.983 34.9685 118.951 35.1112 118.889C35.2423 118.823 35.3568 118.732 35.4472 118.622C35.5422 118.512 35.6141 118.386 35.6592 118.251C35.7068 118.116 35.7311 117.974 35.7312 117.832C35.7327 117.685 35.707 117.538 35.6552 117.398C35.6065 117.264 35.532 117.138 35.4352 117.028C35.3416 116.923 35.2259 116.837 35.0952 116.776C34.9547 116.711 34.8 116.677 34.6431 116.677C34.4863 116.677 34.3316 116.711 34.1911 116.776C34.0602 116.84 33.9445 116.928 33.8511 117.035C33.757 117.146 33.684 117.272 33.6351 117.406C33.5867 117.543 33.5624 117.687 33.5631 117.832Z" fill="white"/>
<path d="M36.839 119.412V116.26H38.2711C38.418 116.259 38.5632 116.289 38.6952 116.349C38.8222 116.406 38.9363 116.486 39.0312 116.583C39.1243 116.68 39.1975 116.791 39.2472 116.913C39.2986 117.031 39.3257 117.156 39.3272 117.283C39.3264 117.41 39.3006 117.536 39.2512 117.654C39.2058 117.775 39.1351 117.886 39.0432 117.98C38.9546 118.079 38.8441 118.159 38.7192 118.214C38.5947 118.271 38.4578 118.3 38.3191 118.299H37.3991V119.412H36.839ZM37.3791 117.869H38.2671C38.3393 117.87 38.4106 117.855 38.4752 117.825C38.5386 117.797 38.5936 117.755 38.6352 117.702C38.6821 117.645 38.7186 117.581 38.7432 117.513C38.768 117.438 38.7802 117.359 38.7792 117.28C38.7819 117.198 38.767 117.116 38.7352 117.039C38.7088 116.97 38.668 116.907 38.6152 116.853C38.567 116.804 38.5085 116.763 38.4431 116.735C38.3793 116.707 38.3096 116.693 38.2391 116.694H37.3791V117.869Z" fill="white"/>
<path d="M42.1671 118.97V119.412H39.8309V116.26H42.1271V116.701H40.3669V117.599H41.891V118.014H40.3669V118.978L42.1671 118.97Z" fill="white"/>
<path d="M43.264 117.187V119.412H42.728V116.26H43.148L45.0962 118.537V116.26H45.6402V119.415H45.1922L43.264 117.187Z" fill="white"/>
</svg>
