<svg width="24" height="24" viewBox="0 0 24 24" fill="none" xmlns="http://www.w3.org/2000/svg">
<path d="M7.87879 9C7.3265 9 6.87879 9.44772 6.87879 10C6.87879 10.5523 7.3265 11 7.87879 11V9ZM16.1212 11C16.6735 11 17.1212 10.5523 17.1212 10C17.1212 9.44772 16.6735 9 16.1212 9V11ZM7.87879 13.5C7.3265 13.5 6.87879 13.9477 6.87879 14.5C6.87879 15.0523 7.3265 15.5 7.87879 15.5V13.5ZM11.2727 15.5C11.825 15.5 12.2727 15.0523 12.2727 14.5C12.2727 13.9477 11.825 13.5 11.2727 13.5V15.5ZM3 7V17H5V7H3ZM7 21H17V19H7V21ZM21 17V7H19V17H21ZM17 3H7V5H17V3ZM7.87879 11H16.1212V9H7.87879V11ZM7.87879 15.5H11.2727V13.5H7.87879V15.5ZM21 7C21 4.79086 19.2091 3 17 3V5C18.1046 5 19 5.89543 19 7H21ZM17 21C19.2091 21 21 19.2091 21 17H19C19 18.1046 18.1046 19 17 19V21ZM3 17C3 19.2091 4.79086 21 7 21V19C5.89543 19 5 18.1046 5 17H3ZM5 7C5 5.89543 5.89543 5 7 5V3C4.79086 3 3 4.79086 3 7H5Z" fill="#CACACA"/>
</svg>
