<svg width="96" height="129" viewBox="0 0 96 129" fill="none" xmlns="http://www.w3.org/2000/svg">
<path d="M23.2332 30.206L4.34103 108.234C3.70024 110.881 5.29441 113.554 7.92755 114.248L48.8803 125.04C49.9128 125.312 50.9769 124.726 51.2981 123.707L52.4426 120.079L31.2515 31.84L23.2332 30.206Z" fill="#594941" stroke="#594941" stroke-linecap="round" stroke-linejoin="round"/>
<path d="M25.5245 30.5458L8.73656 106.85C8.51358 107.863 9.10252 108.879 10.0929 109.189L51.9131 122.278C52.8717 122.578 53.904 122.121 54.3261 121.21L87.3797 49.8408L25.5245 30.5458Z" fill="#EFDAC2"/>
<path d="M25.6018 22.0374C24.5922 21.7301 23.5175 22.26 23.1464 23.248L21.6871 27.134C21.283 28.2102 21.8668 29.4049 22.9643 29.7472L25.5245 30.5458L87.3797 49.8408L90.6897 50.8733C91.7186 51.1943 92.8169 50.6424 93.1734 49.6252L94.708 45.2469C95.0843 44.1733 94.4908 43.0024 93.4025 42.6712L25.6018 22.0374Z" fill="#EFDAC2"/>
<path d="M25.5245 30.5458L22.9643 29.7472C21.8668 29.4049 21.283 28.2102 21.6871 27.134L23.1464 23.248C23.5175 22.26 24.5922 21.7301 25.6018 22.0374L93.4025 42.6712C94.4909 43.0024 95.0843 44.1733 94.708 45.2469L93.1734 49.6252C92.8169 50.6424 91.7186 51.1943 90.6897 50.8733L87.3797 49.8408M25.5245 30.5458L8.73656 106.85C8.51358 107.863 9.10252 108.879 10.0929 109.189L51.9131 122.278C52.8717 122.578 53.904 122.121 54.3261 121.21L87.3797 49.8408M25.5245 30.5458L87.3797 49.8408" stroke="#302318" stroke-width="2" stroke-linecap="round" stroke-linejoin="round"/>
<path d="M23.4919 27.5794C23.2191 27.1902 23.5919 26.6757 24.0467 26.8137L88.7425 46.4389C88.9534 46.5028 89.0975 46.6972 89.0975 46.9175V48.2373C89.0975 48.5762 88.7676 48.8169 88.4449 48.7136L23.9663 28.0785C23.8622 28.0452 23.7719 27.9787 23.7092 27.8893L23.4919 27.5794Z" fill="#594941"/>
<path d="M88.4449 48.7136L88.7498 47.7609L88.4449 48.7136ZM88.7425 46.4389L88.4522 47.3961L88.7425 46.4389ZM23.7563 27.7709L88.4522 47.3961L89.0329 45.4816L24.3371 25.8564L23.7563 27.7709ZM88.0972 46.9175V48.2373H90.0978V46.9175H88.0972ZM88.7498 47.7609L24.2712 27.1258L23.6614 29.0312L88.14 49.6664L88.7498 47.7609ZM24.5283 27.3151L24.311 27.0052L22.6728 28.1536L22.8901 28.4635L24.5283 27.3151ZM24.2712 27.1258C24.3753 27.1591 24.4656 27.2256 24.5283 27.3151L22.8901 28.4635C23.0782 28.7319 23.3492 28.9313 23.6614 29.0312L24.2712 27.1258ZM88.0972 48.2373C88.0972 47.8984 88.4271 47.6576 88.7498 47.7609L88.14 49.6664C89.1082 49.9762 90.0978 49.2539 90.0978 48.2373H88.0972ZM88.4522 47.3961C88.2413 47.3322 88.0972 47.1378 88.0972 46.9175H90.0978C90.0978 46.2566 89.6654 45.6735 89.0329 45.4816L88.4522 47.3961ZM24.3371 25.8564C22.9727 25.4425 21.8544 26.9861 22.6728 28.1536L24.311 27.0052C24.5839 27.3943 24.2111 27.9089 23.7563 27.7709L24.3371 25.8564Z" fill="#594941"/>
<path d="M30.1059 34.0188L23.3597 88.8001C22.9329 92.2657 24.5486 95.6655 27.5051 97.5233L54.7334 114.632L51.8697 120.624L11.2056 107.007L27.2422 33.4741L30.1059 34.0188Z" fill="#E4CEB4"/>
<path d="M30.1059 34.0188L31.0987 34.141C31.1631 33.6179 30.8106 33.1346 30.2928 33.0361L30.1059 34.0188ZM54.7334 114.632L55.6359 115.064C55.855 114.605 55.6957 114.056 55.2656 113.785L54.7334 114.632ZM51.8697 120.624L51.5521 121.573C52.0311 121.733 52.5544 121.511 52.7723 121.055L51.8697 120.624ZM11.2056 107.007L10.2283 106.794C10.1195 107.293 10.4039 107.793 10.888 107.955L11.2056 107.007ZM27.2422 33.4741L27.4291 32.4914C26.8966 32.3901 26.3803 32.7313 26.2649 33.2609L27.2422 33.4741ZM29.113 33.8965L22.3669 88.6778L24.3525 88.9223L31.0987 34.141L29.113 33.8965ZM26.9729 98.3702L54.2012 115.479L55.2656 113.785L28.0373 96.6763L26.9729 98.3702ZM53.8309 114.201L50.9672 120.193L52.7723 121.055L55.6359 115.064L53.8309 114.201ZM52.1874 119.675L11.5233 106.058L10.888 107.955L51.5521 121.573L52.1874 119.675ZM12.183 107.22L28.2195 33.6872L26.2649 33.2609L10.2283 106.794L12.183 107.22ZM27.0553 34.4568L29.9189 35.0015L30.2928 33.0361L27.4291 32.4914L27.0553 34.4568ZM22.3669 88.6778C21.8927 92.5285 23.6878 96.3061 26.9729 98.3702L28.0373 96.6763C25.4093 95.0249 23.9731 92.0029 24.3525 88.9223L22.3669 88.6778Z" fill="#E4CEB4"/>
<path d="M78.8819 72.0997C79.1354 71.5486 78.844 70.9005 78.2636 70.7244L23.7055 54.1722L18.1665 79.9844C18.0593 80.4836 18.3454 80.9834 18.8301 81.1439L67.334 97.2024L78.8819 72.0997Z" fill="#795548"/>
<path d="M89.6706 41.0997L88.1125 36.1606C88.0124 35.8432 87.7609 35.5963 87.4417 35.5021L38.1245 20.9463L34.6881 23.6697L89.6706 41.0997Z" fill="#594941"/>
<path d="M67.334 97.2024L68.2194 97.6679C68.2276 97.6523 68.2353 97.6365 68.2427 97.6205L67.334 97.2024ZM29.5335 22.0357L29.0559 21.1567C28.7035 21.3482 28.4996 21.7317 28.5378 22.1309C28.576 22.5302 28.8489 22.868 29.2312 22.9892L29.5335 22.0357ZM89.6706 41.0997L89.3683 42.0532C89.7242 42.1661 90.1132 42.0713 90.3774 41.8075C90.6416 41.5437 90.7368 41.1548 90.6245 40.7988L89.6706 41.0997ZM38.1245 20.9463L38.4077 19.9869C38.3906 19.9818 38.3733 19.9772 38.3559 19.9731L38.1245 20.9463ZM88.1125 36.1606L87.1586 36.4615L88.1125 36.1606ZM87.4417 35.5021L87.1586 36.4615L87.4417 35.5021ZM33.2062 20.0398L33.6838 20.9187L33.2062 20.0398ZM78.2636 70.7244L77.9731 71.6816L78.2636 70.7244ZM78.8819 72.0997L77.9731 71.6816L78.8819 72.0997ZM64.8177 100.218L65.12 99.264L64.8177 100.218ZM66.0054 99.7295L65.12 99.264L66.0054 99.7295ZM12.5493 82.692L13.5259 82.9082L12.5493 82.692ZM13.2236 83.8617L12.9214 84.8153L13.2236 83.8617ZM18.1665 79.9844L17.1884 79.7745L18.1665 79.9844ZM18.8301 81.1439L18.5157 82.0935L18.8301 81.1439ZM18.9776 53.6528L18.0009 53.4366L18.9776 53.6528ZM20.2969 52.9292L20.6396 51.9895L20.2969 52.9292ZM18.0009 53.4366L11.5726 82.4758L13.5259 82.9082L19.9542 53.869L18.0009 53.4366ZM12.9214 84.8153L64.5154 101.171L65.12 99.264L13.5259 82.9082L12.9214 84.8153ZM78.554 69.7672L23.9959 53.215L23.4151 55.1294L77.9731 71.6816L78.554 69.7672ZM24.0482 53.2324L20.6396 51.9895L19.9542 53.869L23.3628 55.112L24.0482 53.2324ZM22.7275 53.9623L17.1884 79.7745L19.1445 80.1943L24.6836 54.3821L22.7275 53.9623ZM66.8908 100.195L68.2194 97.6679L66.4485 96.7369L65.12 99.264L66.8908 100.195ZM68.2427 97.6205L79.7907 72.5178L77.9731 71.6816L66.4252 96.7844L68.2427 97.6205ZM18.5157 82.0935L67.0196 98.1521L67.6483 96.2528L19.1445 80.1943L18.5157 82.0935ZM30.0112 22.9146L33.6838 20.9187L32.7286 19.1608L29.0559 21.1567L30.0112 22.9146ZM87.1586 36.4615L88.7166 41.4006L90.6245 40.7988L89.0665 35.8597L87.1586 36.4615ZM33.6838 20.9187L37.8932 21.9195L38.3559 19.9731L34.1466 18.9723L33.6838 20.9187ZM37.8414 21.9057L87.1586 36.4615L87.7249 34.5427L38.4077 19.9869L37.8414 21.9057ZM89.9729 40.1462L34.9904 22.7162L34.3858 24.6233L89.3683 42.0532L89.9729 40.1462ZM34.9904 22.7162L29.8358 21.0821L29.2312 22.9892L34.3858 24.6233L34.9904 22.7162ZM37.5032 20.1623L34.0668 22.8858L35.3094 24.4537L38.7458 21.7302L37.5032 20.1623ZM89.0665 35.8597C88.8663 35.2248 88.3633 34.7312 87.7249 34.5427L87.1586 36.4615L87.1586 36.4615L89.0665 35.8597ZM33.6838 20.9187L34.1466 18.9723C33.6668 18.8582 33.1618 18.9254 32.7286 19.1608L33.6838 20.9187ZM77.9731 71.6816L79.7907 72.5178C80.2977 71.4156 79.7149 70.1194 78.554 69.7672L77.9731 71.6816ZM64.5154 101.171C65.4391 101.464 66.4398 101.053 66.8908 100.195L65.12 99.264L64.5154 101.171ZM11.5726 82.4758C11.3487 83.4872 11.9339 84.5023 12.9214 84.8153L13.5259 82.9082H13.5259L11.5726 82.4758ZM17.1884 79.7745C16.9742 80.773 17.5463 81.7726 18.5157 82.0935L19.1445 80.1943L17.1884 79.7745ZM19.9542 53.869H19.9542L20.6396 51.9895C19.5034 51.5752 18.2623 52.2558 18.0009 53.4366L19.9542 53.869Z" fill="#302318"/>
<path d="M8.81434 117.356C0.0267014 114.744 0.719379 109.628 0.791063 109.213C0.794537 109.192 0.79837 109.176 0.802985 109.156L11.7781 61.7978M12.2507 118.99L49.4785 128.25" stroke="#302318" stroke-width="1.5" stroke-linecap="round"/>
<path d="M63.3938 28.3629C62.741 28.1962 62.4363 27.4448 62.7887 26.8705L78.3687 1.4777C78.6142 1.07767 79.1047 0.902064 79.5483 1.05546L83.9044 2.56192C84.5111 2.77175 84.7659 3.49073 84.4267 4.03582L68.8667 29.0394C68.6363 29.4096 68.1925 29.588 67.77 29.4801L63.3938 28.3629Z" fill="white"/>
<path d="M68.8667 29.0394L69.716 29.5679L68.8667 29.0394ZM67.77 29.4801L67.5226 30.4493L67.77 29.4801ZM84.4267 4.03582L85.276 4.56434L84.4267 4.03582ZM78.3687 1.4777L79.2213 2.00083L78.3687 1.4777ZM79.5483 1.05546L79.2213 2.00083L79.5483 1.05546ZM62.7887 26.8705L63.6413 27.3936L62.7887 26.8705ZM63.3938 28.3629L63.1464 29.3321L63.3938 28.3629ZM63.6413 27.3936L79.2213 2.00083L77.5161 0.954568L61.936 26.3474L63.6413 27.3936ZM79.2213 2.00083L83.5774 3.5073L84.2313 1.61654L79.8752 0.110082L79.2213 2.00083ZM83.5774 3.5073L68.0174 28.5108L69.716 29.5679L85.276 4.56434L83.5774 3.5073ZM68.0174 28.5108L63.6413 27.3936L63.1464 29.3321L67.5226 30.4493L68.0174 28.5108ZM68.0174 28.5108H68.0174L67.5226 30.4493C68.3677 30.6651 69.2552 30.3084 69.716 29.5679L68.0174 28.5108ZM83.5774 3.5073L83.5774 3.5073L85.276 4.56434C85.9544 3.47417 85.4448 2.03621 84.2313 1.61654L83.5774 3.5073ZM79.2213 2.00083V2.00083L79.8752 0.110082C78.9881 -0.196706 78.007 0.154503 77.5161 0.954568L79.2213 2.00083ZM61.936 26.3474C61.2313 27.496 61.8407 28.9988 63.1464 29.3321L63.6413 27.3936H63.6413L61.936 26.3474Z" fill="#302318"/>
<path d="M26.0973 56.8956L26.6701 75.415L67.3342 92.3002L66.1887 95.5684L19.6966 79.7724L24.3791 56.3509L26.0973 56.8956Z" fill="#5D4037"/>
<path d="M26.0973 56.8956L27.0972 56.8647C27.084 56.4403 26.8044 56.0704 26.3996 55.9421L26.0973 56.8956ZM26.6701 75.415L25.6702 75.4459C25.6824 75.8387 25.9235 76.1881 26.2864 76.3388L26.6701 75.415ZM67.3342 92.3002L68.2782 92.6311C68.4536 92.1305 68.2077 91.5799 67.7178 91.3764L67.3342 92.3002ZM66.1887 95.5684L65.8669 96.5155C66.3864 96.692 66.9512 96.4171 67.1327 95.8992L66.1887 95.5684ZM19.6966 79.7724L18.7157 79.5763C18.6172 80.0688 18.8992 80.558 19.3748 80.7196L19.6966 79.7724ZM24.3791 56.3509L24.6814 55.3974C24.4103 55.3114 24.1155 55.3449 23.8706 55.4895C23.6258 55.634 23.454 55.876 23.3982 56.1548L24.3791 56.3509ZM25.0975 56.9265L25.6702 75.4459L27.6699 75.384L27.0972 56.8647L25.0975 56.9265ZM26.2864 76.3388L66.9505 93.2241L67.7178 91.3764L27.0537 74.4911L26.2864 76.3388ZM66.3901 91.9694L65.2447 95.2375L67.1327 95.8992L68.2782 92.6311L66.3901 91.9694ZM66.5105 94.6212L20.0184 78.8253L19.3748 80.7196L65.8669 96.5155L66.5105 94.6212ZM20.6775 79.9686L25.36 56.547L23.3982 56.1548L18.7157 79.5763L20.6775 79.9686ZM24.0768 57.3045L25.795 57.8491L26.3996 55.9421L24.6814 55.3974L24.0768 57.3045Z" fill="#5D4037"/>
</svg>
