<svg width="143" height="144" viewBox="0 0 143 144" fill="none" xmlns="http://www.w3.org/2000/svg">
<path d="M128.169 76.6414L132.869 76.5465L135.186 76.5092C135.958 76.4923 136.722 76.5092 137.493 76.4889L137.334 76.6414L137.317 72.8475L137.493 73.017L132.831 72.9933C131.274 72.9933 129.721 72.956 128.169 72.939L128.264 72.8475C128.264 73.468 128.232 74.0918 128.218 74.7224L128.169 76.6414ZM128.169 76.6414L128.116 74.7631C128.116 74.1291 128.077 73.4917 128.07 72.8475V72.7424H128.169C129.721 72.7424 131.274 72.6915 132.831 72.6881L137.493 72.6678H137.669V72.8373L137.648 76.6313V76.811H137.493C136.704 76.811 135.919 76.811 135.134 76.794L132.788 76.7567L128.169 76.6414Z" fill="#EBEBEB"/>
<path d="M133.369 81.4256L138.07 81.3307L140.387 81.2934C141.158 81.2764 141.926 81.2934 142.693 81.273L142.535 81.4256V77.6317L142.711 77.8012L138.049 77.7775C136.493 77.7775 134.94 77.7402 133.387 77.7232L133.482 77.6317C133.482 78.2521 133.45 78.876 133.436 79.5066L133.369 81.4256ZM133.369 81.4256L133.32 79.5473C133.302 78.9133 133.278 78.2759 133.271 77.6317V77.5401H133.369C134.922 77.5232 136.475 77.4893 138.031 77.4859L142.693 77.4655H142.87V77.6351L142.848 81.429V81.5816H142.693C141.908 81.5816 141.12 81.5816 140.334 81.5646L137.989 81.5273L133.369 81.4256Z" fill="#EBEBEB"/>
<path d="M122.947 81.4222H132.271V77.6283H122.947V81.4222Z" fill="#EBEBEB"/>
<path d="M0.324629 107.614L5.02898 107.519L7.34594 107.481C8.11356 107.481 8.88119 107.481 9.64881 107.461L9.49388 107.614L9.47275 103.82L9.64881 103.989L4.98672 103.965C3.43386 103.965 1.88101 103.928 0.324629 103.911L0.419703 103.82C0.419703 104.44 0.391532 105.064 0.373926 105.695L0.324629 107.614ZM0.324629 107.614L0.275333 105.735C0.257727 105.101 0.236599 104.464 0.229556 103.82V103.728H0.324629C1.88101 103.711 3.43386 103.677 4.98672 103.674L9.64881 103.654H9.82487V103.823V107.617V107.77H9.66642C8.88119 107.77 8.09243 107.77 7.31072 107.753L4.95855 107.709L0.324629 107.614Z" fill="#EBEBEB"/>
<path d="M5.52861 112.394H14.8528V108.6H5.52861V112.394Z" fill="#EBEBEB"/>
<path d="M24.4828 36.7561L29.1871 36.6612L31.5041 36.6239C32.2717 36.6069 33.0393 36.6239 33.8069 36.6069L33.652 36.7561L33.6309 32.9622L33.8069 33.1317L29.1449 33.1113C27.592 33.1113 26.0356 33.074 24.4828 33.0537L24.5778 32.9622C24.5778 33.5826 24.5497 34.2098 24.5321 34.8405L24.4828 36.7561ZM24.4828 36.7561L24.4335 34.8812C24.4335 34.2471 24.3947 33.6063 24.3877 32.9622V32.8706H24.4828C26.0356 32.8537 27.592 32.8164 29.1449 32.8164L33.8069 32.7926H33.983V32.9622L33.9654 36.7561V36.9087H33.8105C33.0252 36.9087 32.2365 36.9087 31.4548 36.8883L29.1096 36.851L24.4828 36.7561Z" fill="#EBEBEB"/>
<path d="M5.47879 3.96351L14.803 3.96351V0.169573L5.47879 0.169573V3.96351Z" fill="#EBEBEB"/>
<path d="M0.281263 8.74752L4.98209 8.66276L7.29905 8.62546C8.0702 8.62546 8.8343 8.62546 9.60545 8.62546L9.44699 8.77464V4.9807L9.62305 5.15022L4.95744 5.10276C3.40106 5.10276 1.8482 5.06546 0.295347 5.04512L0.39042 4.95358C0.39042 5.57403 0.35873 6.19788 0.344645 6.8319L0.281263 8.74752ZM0.281263 8.74752L0.228445 6.87259C0.228445 6.23857 0.189711 5.59777 0.182668 4.95358V4.86204H0.281263C1.83412 4.86204 3.38698 4.80779 4.94335 4.8044L9.60545 4.78405H9.78151V4.95358L9.76038 8.74752V8.90009H9.60545C8.81669 8.90009 8.03146 8.90009 7.24623 8.87975L4.9011 8.84245L0.281263 8.74752Z" fill="#EBEBEB"/>
<path d="M128.169 3.96346L132.869 3.86853L135.186 3.83123C135.958 3.83123 136.722 3.83123 137.493 3.83123L137.334 3.98041L137.317 0.186476L137.493 0.355999L132.831 0.335656C131.274 0.335656 129.721 0.298362 128.169 0.278019L128.264 0.186476C128.264 0.806932 128.232 1.43078 128.218 2.0648L128.169 3.96346ZM128.169 3.96346L128.116 2.08853C128.116 1.45451 128.077 0.813714 128.07 0.169524V0.0779807H128.169C129.721 0.0779807 131.274 0.0237325 132.831 0.020342L137.493 0H137.669V0.186476L137.648 3.98041V4.13299H137.493C136.704 4.13299 135.919 4.13299 135.134 4.11264L132.778 4.0584L128.169 3.96346Z" fill="#EBEBEB"/>
<path d="M113.429 51.4065H122.753V47.6125H113.429V51.4065Z" fill="#EBEBEB"/>
<path d="M14.1935 23.7162C14.3684 23.6131 14.5695 23.5585 14.7745 23.5585C14.9796 23.5585 15.1806 23.6131 15.3555 23.7162L15.6548 23.8823C15.7569 23.9332 15.8591 23.984 15.9647 24.0315C16.1506 24.1135 16.3094 24.2433 16.4237 24.4066C16.538 24.5699 16.6034 24.7604 16.6126 24.9571L16.6549 26.3336L21.3169 26.1946L21.2712 24.8181C21.2665 24.6203 21.3186 24.4251 21.4217 24.254C21.5248 24.0829 21.675 23.9426 21.8557 23.8484C22.0591 23.7458 22.2566 23.6326 22.4473 23.5094C22.6147 23.3956 22.8116 23.3287 23.016 23.3162C23.2205 23.3036 23.4246 23.3458 23.6057 23.4382L24.8628 24.0857L27.0671 20.129L25.81 19.4781C25.6298 19.3846 25.48 19.2448 25.3774 19.0742C25.2748 18.9035 25.2234 18.7089 25.229 18.5118C25.2365 18.2856 25.2295 18.0591 25.2079 17.8337C25.1852 17.6347 25.2215 17.4337 25.3125 17.2537C25.4034 17.0737 25.5454 16.9222 25.722 16.8166L26.9368 16.1215L24.472 12.3072L23.2677 13.0226C23.0935 13.1258 22.893 13.1804 22.6885 13.1804C22.4839 13.1804 22.2834 13.1258 22.1092 13.0226C22.0141 12.965 21.912 12.9107 21.8134 12.8599C21.7148 12.809 21.6092 12.7548 21.5036 12.7107C21.3171 12.6284 21.158 12.4981 21.0436 12.3341C20.9293 12.1702 20.8643 11.979 20.8557 11.7817L20.8028 10.395L16.1408 10.534L16.1865 11.8902C16.1928 12.0883 16.1414 12.2841 16.0381 12.4554C15.9348 12.6268 15.7837 12.7669 15.602 12.8599C15.3986 12.9625 15.2011 13.0757 15.0104 13.1989C14.8433 13.3134 14.6464 13.3807 14.4417 13.3933C14.2371 13.4059 14.0328 13.3632 13.852 13.2701L12.5949 12.6225L10.3906 16.6097L11.6477 17.2607C11.8278 17.354 11.9773 17.4939 12.0793 17.6647C12.1814 17.8354 12.2319 18.0301 12.2252 18.227C12.2207 18.4533 12.2289 18.6796 12.2498 18.9051C12.272 19.104 12.2356 19.3049 12.1447 19.4848C12.0537 19.6647 11.912 19.8163 11.7357 19.9222L10.5209 20.6478L12.9857 24.4621L14.1935 23.7162ZM15.359 16.6301C15.7149 15.9882 16.2605 15.4624 16.9267 15.119C17.593 14.7757 18.35 14.6304 19.102 14.7013C19.8541 14.7723 20.5674 15.0564 21.1518 15.5177C21.7361 15.9791 22.1653 16.5969 22.3849 17.2931C22.6046 17.9893 22.6049 18.7325 22.3859 19.4289C22.1668 20.1253 21.7382 20.7434 21.1542 21.2052C20.5703 21.667 19.8572 21.9517 19.1052 22.0233C18.3532 22.0948 17.5961 21.9501 16.9295 21.6073C16.0365 21.1471 15.3697 20.3645 15.0753 19.4314C14.7808 18.4983 14.8829 17.4908 15.359 16.6301Z" fill="#EBEBEB"/>
<path d="M136.3 69.8743C136.373 69.7546 136.479 69.657 136.606 69.5923C136.734 69.5276 136.878 69.4985 137.021 69.5081H137.504C137.644 69.5009 137.784 69.5309 137.908 69.5949C138.033 69.6588 138.136 69.7543 138.208 69.8709L138.708 70.7084L141.525 69.1352L141.025 68.3011C140.953 68.181 140.918 68.044 140.923 67.9056C140.928 67.7672 140.973 67.6329 141.053 67.5179C141.142 67.3846 141.223 67.2489 141.296 67.1111C141.361 66.9855 141.462 66.8801 141.587 66.807C141.711 66.7339 141.855 66.6959 142 66.6974H143V63.5511H142C141.855 63.5533 141.712 63.516 141.587 63.4435C141.462 63.3709 141.362 63.266 141.296 63.1408C141.224 63.0007 141.142 62.8648 141.053 62.734C140.973 62.6189 140.928 62.4846 140.923 62.3462C140.918 62.2078 140.953 62.0708 141.025 61.9508L141.525 61.1133L138.708 59.5435L138.204 60.381C138.133 60.4982 138.03 60.5944 137.906 60.6589C137.781 60.7235 137.641 60.754 137.5 60.7471C137.419 60.7471 137.338 60.7471 137.257 60.7471C137.176 60.7471 137.099 60.7471 137.018 60.7471C136.874 60.7556 136.731 60.726 136.604 60.6614C136.476 60.5968 136.37 60.4998 136.296 60.381L135.796 59.5435L132.979 61.1133L133.479 61.9474C133.551 62.0675 133.586 62.2044 133.581 62.3428C133.576 62.4812 133.531 62.6155 133.451 62.7306C133.364 62.8639 133.283 62.9995 133.208 63.1374C133.143 63.2632 133.042 63.3688 132.918 63.442C132.793 63.5152 132.65 63.553 132.504 63.5511H131.504V66.6974H132.504C132.649 66.6959 132.793 66.7339 132.917 66.807C133.042 66.8801 133.143 66.9855 133.208 67.1111C133.28 67.2512 133.362 67.387 133.451 67.5179C133.531 67.6329 133.576 67.7672 133.581 67.9056C133.586 68.044 133.551 68.181 133.479 68.3011L132.979 69.1352L135.796 70.7084L136.3 69.8743ZM134.585 65.1276C134.584 64.6179 134.74 64.1193 135.034 63.6951C135.328 63.2709 135.745 62.9401 136.234 62.7446C136.723 62.5491 137.261 62.4975 137.781 62.5966C138.3 62.6956 138.777 62.9408 139.152 63.301C139.526 63.6612 139.782 64.1204 139.885 64.6203C139.989 65.1202 139.936 65.6385 139.734 66.1095C139.531 66.5806 139.188 66.9832 138.748 67.2665C138.308 67.5498 137.79 67.701 137.261 67.701C136.553 67.6992 135.874 67.4275 135.373 66.9453C134.872 66.4631 134.59 65.8096 134.588 65.1276H134.585Z" fill="#EBEBEB"/>
<path d="M0.866221 29.9108C0.990769 29.9808 1.09243 30.083 1.15965 30.2059C1.22687 30.3288 1.25697 30.4673 1.24651 30.6058C1.24651 30.6804 1.24651 30.7584 1.24651 30.8364C1.24651 30.9144 1.24651 30.9923 1.24651 31.0703C1.25398 31.2057 1.22282 31.3405 1.1564 31.46C1.08999 31.5795 0.990849 31.6793 0.869741 31.7484L0 32.2299L1.63385 34.9422L2.49302 34.4845C2.61799 34.4163 2.76013 34.3827 2.9037 34.3875C3.04727 34.3923 3.18665 34.4353 3.30642 34.5117C3.44375 34.5964 3.5846 34.6778 3.72897 34.749C3.85721 34.81 3.9653 34.9041 4.04117 35.0209C4.11703 35.1376 4.15768 35.2724 4.15856 35.4101V36.373H7.42273V35.4101C7.42288 35.2727 7.46283 35.138 7.5381 35.0212C7.61336 34.9044 7.72096 34.8101 7.84879 34.749C7.99437 34.678 8.13547 34.5987 8.27134 34.5117C8.39111 34.4353 8.5305 34.3923 8.67407 34.3875C8.81763 34.3827 8.95977 34.4163 9.08474 34.4845L9.95448 34.966L11.5848 32.2536L10.7151 31.7688C10.5941 31.6992 10.4949 31.5995 10.428 31.4801C10.361 31.3608 10.3288 31.2262 10.3348 31.0907C10.3348 31.0127 10.3348 30.9381 10.3348 30.8601C10.3348 30.7821 10.3348 30.7041 10.3348 30.6296C10.3255 30.4912 10.3562 30.3531 10.4233 30.2305C10.4904 30.1078 10.5914 30.0054 10.7151 29.9345L11.5848 29.4531L9.95448 26.7407L9.08826 27.2221C8.96354 27.2911 8.82128 27.3251 8.67754 27.3203C8.53381 27.3155 8.39433 27.2721 8.27486 27.195C8.13871 27.1114 7.99786 27.0334 7.85232 26.9611C7.72164 26.8985 7.61199 26.8016 7.53599 26.6817C7.45998 26.5617 7.42072 26.4235 7.42273 26.283V25.3201H4.1656V26.283C4.16719 26.4234 4.12776 26.5614 4.0518 26.6813C3.97584 26.8012 3.86642 26.8982 3.73601 26.9611C3.59049 27.031 3.4494 27.1091 3.31347 27.195C3.19331 27.272 3.05327 27.3154 2.909 27.3202C2.76473 27.325 2.62192 27.291 2.49654 27.2221L1.63385 26.7407L0 29.4531L0.866221 29.9108ZM5.79592 28.2596C6.32536 28.2589 6.84311 28.4095 7.28366 28.6922C7.72421 28.975 8.06776 29.3772 8.27085 29.8479C8.47394 30.3187 8.52744 30.8369 8.42458 31.337C8.32172 31.8371 8.06712 32.2965 7.693 32.6572C7.31888 33.0179 6.84204 33.2637 6.32283 33.3634C5.80361 33.4631 5.26536 33.4122 4.77615 33.2173C4.28695 33.0224 3.86879 32.6921 3.57457 32.2683C3.28036 31.8445 3.12332 31.3462 3.12332 30.8364C3.12425 30.1538 3.40601 29.4995 3.90692 29.0165C4.40783 28.5336 5.08707 28.2614 5.79592 28.2596Z" fill="#EBEBEB"/>
<path d="M29.9442 143.593C44.0628 143.593 55.5082 142.016 55.5082 140.071C55.5082 138.125 44.0628 136.548 29.9442 136.548C15.8255 136.548 4.38013 138.125 4.38013 140.071C4.38013 142.016 15.8255 143.593 29.9442 143.593Z" fill="#EBEBEB"/>
<path d="M0.182668 132.218L18.0141 132.137L35.8456 132.107L71.5084 132.049L107.171 132.103L125.003 132.134L142.834 132.218L125.003 132.3L107.171 132.33L71.5084 132.388L35.8456 132.33L18.0141 132.3L0.182668 132.218Z" fill="#263238"/>
<path d="M101.267 2.41425H41.7582C40.9582 2.41912 40.1672 2.576 39.4304 2.87588C38.6936 3.17576 38.0255 3.61274 37.4644 4.16177C36.9034 4.7108 36.4604 5.36108 36.1609 6.0753C35.8615 6.78952 35.7114 7.55365 35.7193 8.32384V126.312C35.7052 127.865 36.332 129.359 37.4617 130.466C38.5915 131.574 40.1319 132.204 41.7441 132.219H101.253C102.052 132.213 102.843 132.056 103.58 131.756C104.317 131.457 104.985 131.02 105.547 130.472C106.108 129.923 106.552 129.273 106.852 128.56C107.153 127.846 107.305 127.082 107.299 126.312V8.32384C107.306 7.55446 107.155 6.79128 106.856 6.0779C106.556 5.36451 106.114 4.71489 105.554 4.16613C104.994 3.61737 104.327 3.18021 103.591 2.87962C102.856 2.57903 102.066 2.4209 101.267 2.41425ZM103.531 122.664C103.531 125.77 101.115 128.282 98.1364 128.282H44.885C41.899 128.282 39.4835 125.77 39.4835 122.664V12.7925C39.4835 6.46587 41.899 6.15733 44.885 6.15733H55.5508C56.1705 6.15733 56.6776 6.83543 56.6776 7.67626V8.03905C56.6776 10.0191 57.7973 10.0191 59.1847 10.0191H83.8332C85.217 10.0191 86.3297 10.0191 86.3297 8.04243V7.67626C86.3297 6.83543 86.8262 6.15733 87.4565 6.15733H98.1258C101.105 6.15733 103.52 6.99817 103.52 12.7925L103.531 122.664Z" fill="#263238"/>
<path d="M74.8715 7.55424H68.1425C68.0879 7.55424 68.0339 7.54389 67.9835 7.52378C67.9331 7.50368 67.8873 7.47421 67.8487 7.43706C67.8101 7.39991 67.7795 7.3558 67.7586 7.30726C67.7377 7.25873 67.727 7.2067 67.727 7.15416C67.727 7.04806 67.7708 6.9463 67.8487 6.87127C67.9266 6.79624 68.0323 6.75409 68.1425 6.75409H74.8715C74.9817 6.75409 75.0874 6.79624 75.1653 6.87127C75.2433 6.9463 75.287 7.04806 75.287 7.15416C75.287 7.2067 75.2763 7.25873 75.2554 7.30726C75.2345 7.3558 75.2039 7.39991 75.1653 7.43706C75.1267 7.47421 75.0809 7.50368 75.0305 7.52378C74.9801 7.54389 74.9261 7.55424 74.8715 7.55424Z" fill="white"/>
<path d="M103.552 12.7926V122.664C103.552 125.77 101.137 128.282 98.1577 128.282H44.8853C41.8993 128.282 39.4837 125.77 39.4837 122.664V12.7926C39.4837 6.46602 41.8993 6.15749 44.8853 6.15749H55.551C56.1708 6.15749 56.6778 6.83558 56.6778 7.67642V8.0392C56.6778 10.0192 57.7976 10.0192 59.1849 10.0192H83.8334C85.2208 10.0192 86.33 10.0192 86.33 8.04259V7.67642C86.33 6.83558 86.83 6.15749 87.4603 6.15749H98.1296C101.119 6.15749 103.552 6.99832 103.552 12.7926Z" fill="white"/>
<path d="M45.9653 16.9864L44.0709 15.281L45.9653 13.5722L46.2576 13.8739L44.7012 15.281L46.2576 16.688L45.9653 16.9864Z" fill="#C7C7C7"/>
<path d="M98.5727 14.2163C98.5727 14.2874 98.5508 14.3569 98.5098 14.416C98.4688 14.4751 98.4105 14.5211 98.3423 14.5483C98.2741 14.5755 98.1991 14.5827 98.1266 14.5688C98.0542 14.5549 97.9877 14.5207 97.9355 14.4704C97.8833 14.4202 97.8478 14.3561 97.8334 14.2864C97.819 14.2167 97.8264 14.1445 97.8546 14.0788C97.8829 14.0131 97.9307 13.957 97.9921 13.9175C98.0535 13.878 98.1256 13.8569 98.1995 13.8569C98.2486 13.8565 98.2974 13.8655 98.3429 13.8834C98.3884 13.9013 98.4297 13.9277 98.4644 13.9612C98.4992 13.9946 98.5267 14.0344 98.5453 14.0782C98.5639 14.1221 98.5732 14.169 98.5727 14.2163Z" fill="#C7C7C7"/>
<path d="M98.5727 15.4913C98.5727 15.5624 98.5508 15.6319 98.5098 15.691C98.4688 15.7501 98.4105 15.7962 98.3423 15.8234C98.2741 15.8506 98.1991 15.8577 98.1266 15.8438C98.0542 15.8299 97.9877 15.7957 97.9355 15.7455C97.8833 15.6952 97.8478 15.6312 97.8334 15.5614C97.819 15.4917 97.8264 15.4195 97.8546 15.3538C97.8829 15.2881 97.9307 15.232 97.9921 15.1925C98.0535 15.153 98.1256 15.1319 98.1995 15.1319C98.2486 15.1315 98.2974 15.1405 98.3429 15.1584C98.3884 15.1763 98.4297 15.2027 98.4644 15.2362C98.4992 15.2697 98.5267 15.3095 98.5453 15.3533C98.5639 15.3971 98.5732 15.444 98.5727 15.4913Z" fill="#C7C7C7"/>
<path d="M98.5727 16.7661C98.5727 16.8372 98.5508 16.9067 98.5098 16.9658C98.4688 17.0249 98.4105 17.0709 98.3423 17.0981C98.2741 17.1253 98.1991 17.1325 98.1266 17.1186C98.0542 17.1047 97.9877 17.0705 97.9355 17.0202C97.8833 16.97 97.8478 16.9059 97.8334 16.8362C97.819 16.7665 97.8264 16.6942 97.8546 16.6286C97.8829 16.5629 97.9307 16.5068 97.9921 16.4673C98.0535 16.4278 98.1256 16.4067 98.1995 16.4067C98.2486 16.4063 98.2974 16.4152 98.3429 16.4331C98.3884 16.451 98.4297 16.4775 98.4644 16.511C98.4992 16.5444 98.5267 16.5842 98.5453 16.628C98.5639 16.6718 98.5732 16.7188 98.5727 16.7661Z" fill="#C7C7C7"/>
<path d="M53.7095 8.62556L53.6073 8.72388L53.5475 8.77813C53.2836 8.52553 52.9266 8.38376 52.5545 8.38376C52.1824 8.38376 51.8254 8.52553 51.5615 8.77813L51.5052 8.72049L51.4031 8.62216L51.5334 8.51028C51.6278 8.43981 51.7292 8.37849 51.8362 8.32719C51.9628 8.26568 52.098 8.22227 52.2376 8.19836C52.3027 8.18574 52.3686 8.17668 52.4348 8.17123H52.6108H52.7447C52.8709 8.18578 52.9949 8.21422 53.1144 8.256C53.1995 8.28703 53.2819 8.32443 53.3609 8.36788C53.4444 8.41395 53.5234 8.46729 53.5968 8.52723L53.7059 8.62216L53.7095 8.62556Z" fill="#C7C7C7"/>
<path d="M51.889 9.09012L51.7235 8.93416C51.9444 8.72297 52.2431 8.60446 52.5545 8.60446C52.8658 8.60446 53.1645 8.72297 53.3855 8.93416L53.22 9.09012C53.0432 8.92076 52.8039 8.82569 52.5545 8.82569C52.3051 8.82569 52.0658 8.92076 51.889 9.09012Z" fill="#C7C7C7"/>
<path d="M53.0584 9.24941L52.8964 9.40198C52.8499 9.35811 52.7949 9.32354 52.7344 9.30026C52.674 9.27699 52.6094 9.26546 52.5443 9.26636C52.4788 9.26513 52.4138 9.27683 52.3533 9.30074C52.2927 9.32465 52.2379 9.36026 52.1922 9.40537C52.1394 9.35112 52.083 9.30027 52.0302 9.24941C52.0961 9.18166 52.1757 9.12765 52.2641 9.09073C52.3525 9.05381 52.4479 9.03476 52.5443 9.03476C52.6407 9.03476 52.736 9.05381 52.8245 9.09073C52.9129 9.12765 52.9925 9.18166 53.0584 9.24941Z" fill="#C7C7C7"/>
<path d="M52.7025 9.54451C52.7025 9.58228 52.6869 9.6185 52.6592 9.64521C52.6314 9.67191 52.5938 9.68691 52.5546 9.68691C52.5353 9.68692 52.5163 9.68322 52.4985 9.67602C52.4808 9.66882 52.4647 9.65828 52.4512 9.64501C52.4378 9.63174 52.4272 9.61601 52.4202 9.59875C52.4131 9.58149 52.4098 9.56305 52.4102 9.54451C52.4102 9.50765 52.4254 9.47229 52.4525 9.44622C52.4796 9.42015 52.5163 9.40551 52.5546 9.40551C52.5738 9.40505 52.593 9.40832 52.6109 9.4151C52.6289 9.42188 52.6452 9.43205 52.659 9.445C52.6727 9.45796 52.6837 9.47343 52.6912 9.49052C52.6986 9.50762 52.7025 9.52597 52.7025 9.54451Z" fill="#C7C7C7"/>
<path d="M43.6597 8.92385C43.6597 8.84256 43.6848 8.76312 43.7318 8.69558C43.7787 8.62804 43.8455 8.57547 43.9235 8.54452C44.0016 8.51357 44.0874 8.50564 44.1702 8.52175C44.2529 8.53785 44.3288 8.57727 44.3883 8.63498C44.4477 8.69269 44.488 8.76611 44.5041 8.84591C44.5201 8.92571 44.5112 9.00831 44.4784 9.08321C44.4456 9.15811 44.3904 9.22194 44.3199 9.26661C44.2494 9.31128 44.1667 9.33477 44.0822 9.3341C44.0265 9.3341 43.9712 9.32346 43.9197 9.30281C43.8682 9.28215 43.8215 9.25187 43.7822 9.21373C43.7429 9.17559 43.7119 9.13034 43.6908 9.08059C43.6698 9.03083 43.6592 8.97756 43.6597 8.92385Z" fill="#C7C7C7"/>
<path d="M44.9941 8.92392C44.9955 8.84308 45.0217 8.76444 45.0693 8.69787C45.117 8.63131 45.184 8.57978 45.2619 8.54977C45.3399 8.51976 45.4253 8.51259 45.5075 8.52918C45.5897 8.54577 45.665 8.58536 45.7238 8.643C45.7827 8.70063 45.8226 8.77374 45.8385 8.85313C45.8544 8.93252 45.8455 9.01465 45.8131 9.08922C45.7806 9.16379 45.726 9.22747 45.6561 9.27225C45.5862 9.31704 45.5041 9.34094 45.4202 9.34095C45.3636 9.34096 45.3076 9.33012 45.2555 9.30908C45.2033 9.28804 45.156 9.25722 45.1164 9.2184C45.0767 9.17959 45.0455 9.13356 45.0245 9.083C45.0035 9.03244 44.9932 8.97836 44.9941 8.92392Z" fill="#C7C7C7"/>
<path d="M46.3324 8.92392C46.3338 8.84308 46.3599 8.76444 46.4076 8.69787C46.4552 8.63131 46.5222 8.57978 46.6002 8.54977C46.6782 8.51976 46.7636 8.51259 46.8458 8.52918C46.928 8.54577 47.0032 8.58536 47.0621 8.643C47.121 8.70063 47.1609 8.77374 47.1768 8.85313C47.1926 8.93252 47.1838 9.01465 47.1513 9.08922C47.1189 9.16379 47.0643 9.22747 46.9944 9.27225C46.9245 9.31704 46.8424 9.34094 46.7584 9.34095C46.7019 9.34096 46.6459 9.33012 46.5937 9.30908C46.5416 9.28804 46.4943 9.25722 46.4546 9.2184C46.415 9.17959 46.3837 9.13356 46.3628 9.083C46.3418 9.03244 46.3314 8.97836 46.3324 8.92392Z" fill="#C7C7C7"/>
<path d="M47.6707 8.9239C47.6721 8.84292 47.6984 8.76415 47.7462 8.69752C47.794 8.63088 47.8612 8.57936 47.9394 8.54945C48.0175 8.51954 48.1032 8.51258 48.1854 8.52944C48.2677 8.54631 48.3429 8.58624 48.4017 8.64421C48.4604 8.70219 48.5 8.7756 48.5155 8.85521C48.531 8.93482 48.5216 9.01706 48.4887 9.09156C48.4557 9.16607 48.4005 9.22951 48.3302 9.27388C48.2598 9.31826 48.1774 9.34159 48.0933 9.34093C48.0369 9.34095 47.981 9.3301 47.9291 9.30902C47.8771 9.28794 47.83 9.25706 47.7907 9.21819C47.7513 9.17933 47.7204 9.13327 47.6998 9.08273C47.6792 9.03219 47.6693 8.97818 47.6707 8.9239Z" fill="#C7C7C7"/>
<path d="M49.008 8.9239C49.0094 8.84292 49.0356 8.76415 49.0835 8.69752C49.1313 8.63088 49.1985 8.57936 49.2767 8.54945C49.3548 8.51954 49.4404 8.51258 49.5227 8.52944C49.605 8.54631 49.6802 8.58624 49.739 8.64421C49.7977 8.70219 49.8373 8.7756 49.8528 8.85521C49.8683 8.93482 49.8589 9.01706 49.8259 9.09156C49.793 9.16607 49.7378 9.22951 49.6674 9.27388C49.5971 9.31826 49.5147 9.34159 49.4305 9.34093C49.3741 9.34095 49.3183 9.3301 49.2664 9.30902C49.2144 9.28794 49.1673 9.25706 49.128 9.21819C49.0886 9.17933 49.0577 9.13327 49.0371 9.08273C49.0165 9.03219 49.0066 8.97818 49.008 8.9239Z" fill="#C7C7C7"/>
<path d="M98.7312 9.81888H95.2698V8.27282H98.7312V9.81888ZM95.4529 9.64597H98.5516V8.44574H95.4529V9.64597Z" fill="#C7C7C7"/>
<path d="M97.7879 8.53755H95.559V9.55469H97.7879V8.53755Z" fill="#C7C7C7"/>
<path d="M99.0381 8.6323H98.7317V9.45618H99.0381V8.6323Z" fill="#C7C7C7"/>
<path d="M49.2164 121.566H48.727V123.719H47.8185V122.62H46.2058V123.719H45.2973V121.566H44.8114L47.0121 119.372L49.2164 121.566Z" fill="#EBEBEB"/>
<path d="M98.21 119.372H92.9V120.101H98.21V119.372Z" fill="#EBEBEB"/>
<path d="M98.21 121.179H92.9V121.908H98.21V121.179Z" fill="#EBEBEB"/>
<path d="M98.21 122.986H92.9V123.715H98.21V122.986Z" fill="#EBEBEB"/>
<path d="M73.0193 121.254L71.5087 122.806L69.9981 121.254L70.2657 121.016L71.5087 122.291L72.7517 121.016L73.0193 121.254Z" fill="#EBEBEB"/>
<path d="M71.5094 124.41C70.9668 124.41 70.4365 124.256 69.9854 123.965C69.5343 123.675 69.1827 123.263 68.9751 122.78C68.7675 122.297 68.7132 121.766 68.819 121.254C68.9249 120.742 69.1861 120.271 69.5697 119.902C69.9534 119.532 70.4421 119.281 70.9742 119.179C71.5063 119.077 72.0578 119.129 72.5591 119.329C73.0603 119.529 73.4887 119.868 73.7901 120.302C74.0915 120.736 74.2524 121.247 74.2524 121.769C74.2505 122.469 73.9609 123.14 73.4469 123.635C72.9329 124.13 72.2363 124.409 71.5094 124.41ZM71.5094 119.477C71.0386 119.477 70.5783 119.612 70.1869 119.864C69.7955 120.115 69.4904 120.473 69.3102 120.892C69.13 121.311 69.0829 121.772 69.1747 122.216C69.2666 122.661 69.4933 123.069 69.8262 123.39C70.1591 123.71 70.5832 123.929 71.045 124.017C71.5067 124.106 71.9853 124.06 72.4203 123.887C72.8552 123.713 73.227 123.42 73.4885 123.043C73.7501 122.666 73.8897 122.223 73.8897 121.769C73.8897 121.161 73.6389 120.578 73.1925 120.149C72.7461 119.719 72.1407 119.477 71.5094 119.477Z" fill="#EBEBEB"/>
<path d="M67.4138 112.279C67.4138 112.454 67.3602 112.624 67.2596 112.769C67.159 112.914 67.016 113.027 66.8487 113.094C66.6814 113.16 66.4973 113.178 66.3197 113.144C66.1421 113.11 65.979 113.026 65.851 112.903C65.7229 112.779 65.6357 112.622 65.6004 112.451C65.5651 112.28 65.5832 112.103 65.6525 111.942C65.7218 111.781 65.8391 111.643 65.9897 111.546C66.1403 111.449 66.3173 111.398 66.4983 111.398C66.6187 111.397 66.738 111.42 66.8492 111.464C66.9605 111.508 67.0616 111.573 67.1467 111.655C67.2318 111.737 67.2993 111.834 67.3451 111.941C67.391 112.048 67.4143 112.163 67.4138 112.279Z" fill="#DBDBDB"/>
<path d="M72.9946 112.279C72.9946 112.543 72.9132 112.801 72.7608 113.021C72.6083 113.241 72.3916 113.412 72.1381 113.513C71.8846 113.614 71.6057 113.641 71.3366 113.589C71.0674 113.538 70.8202 113.41 70.6262 113.224C70.4322 113.037 70.3 112.799 70.2465 112.54C70.193 112.28 70.2205 112.012 70.3255 111.768C70.4305 111.524 70.6083 111.315 70.8364 111.168C71.0646 111.022 71.3328 110.943 71.6072 110.943C71.9752 110.943 72.328 111.084 72.5882 111.334C72.8484 111.585 72.9946 111.925 72.9946 112.279Z" fill="#5D4037"/>
<path d="M77.6325 112.279C77.6325 112.454 77.5788 112.624 77.4782 112.769C77.3776 112.914 77.2347 113.027 77.0674 113.094C76.9001 113.16 76.716 113.178 76.5384 113.144C76.3608 113.11 76.1977 113.026 76.0696 112.903C75.9416 112.779 75.8544 112.622 75.8191 112.451C75.7838 112.28 75.8019 112.103 75.8712 111.942C75.9405 111.781 76.0578 111.643 76.2084 111.546C76.3589 111.449 76.5359 111.398 76.717 111.398C76.8374 111.397 76.9566 111.42 77.0679 111.464C77.1792 111.508 77.2803 111.573 77.3654 111.655C77.4505 111.737 77.518 111.834 77.5638 111.941C77.6096 112.048 77.633 112.163 77.6325 112.279Z" fill="#DBDBDB"/>
<path d="M83.6679 87.7184H58.956V95.2859H83.6679V87.7184Z" fill="#5D4037"/>
<path d="M65.8747 92.5634V90.5292C65.8742 90.5041 65.879 90.4792 65.8887 90.456C65.8985 90.4327 65.913 90.4116 65.9314 90.3939C65.9498 90.3762 65.9717 90.3622 65.9959 90.3528C66.02 90.3434 66.0459 90.3388 66.0719 90.3393C66.0981 90.3388 66.1241 90.3434 66.1484 90.3528C66.1728 90.3621 66.1949 90.376 66.2136 90.3937C66.2323 90.4114 66.2471 90.4324 66.2573 90.4557C66.2674 90.479 66.2726 90.5039 66.2726 90.5292V92.3837H67.2515C67.3047 92.3837 67.3558 92.4041 67.3934 92.4404C67.4311 92.4766 67.4522 92.5257 67.4522 92.577C67.4522 92.6283 67.4311 92.6774 67.3934 92.7137C67.3558 92.7499 67.3047 92.7703 67.2515 92.7703H66.0719C66.0444 92.7704 66.0173 92.765 65.9921 92.7544C65.967 92.7438 65.9444 92.7283 65.9258 92.7088C65.9073 92.6893 65.8931 92.6664 65.8843 92.6413C65.8755 92.6163 65.8722 92.5898 65.8747 92.5634Z" fill="white"/>
<path d="M69.7488 90.6243C69.9834 90.8608 70.1144 91.1753 70.1144 91.5024C70.1144 91.8295 69.9834 92.144 69.7488 92.3806C69.6403 92.4967 69.5079 92.5899 69.36 92.6541C69.2121 92.7183 69.0519 92.7522 68.8896 92.7535C68.7236 92.7532 68.5594 92.7199 68.4074 92.6557C68.2553 92.5916 68.1186 92.4979 68.0058 92.3806C67.7751 92.1421 67.6469 91.8283 67.6469 91.5024C67.6469 91.1765 67.7751 90.8628 68.0058 90.6243C68.1181 90.5063 68.2547 90.4122 68.4068 90.348C68.559 90.2838 68.7235 90.2509 68.8896 90.2513C69.052 90.2521 69.2124 90.2856 69.3604 90.3499C69.5084 90.4141 69.6407 90.5076 69.7488 90.6243ZM69.703 91.5024C69.703 91.2775 69.615 91.0608 69.4566 90.8955C69.385 90.8188 69.2976 90.7571 69.2001 90.7145C69.1025 90.6719 68.9968 90.6493 68.8896 90.648C68.7796 90.6476 68.6708 90.6694 68.5701 90.712C68.4694 90.7546 68.3791 90.8172 68.3051 90.8955C68.1455 91.0601 68.0573 91.2772 68.0586 91.5024C68.0564 91.7268 68.1447 91.9432 68.3051 92.1059C68.3789 92.1848 68.4691 92.2478 68.5698 92.291C68.6704 92.3342 68.7794 92.3567 68.8896 92.3568C68.997 92.3549 69.1028 92.3317 69.2004 92.2885C69.2979 92.2453 69.3852 92.1831 69.4566 92.1059C69.6103 91.9402 69.6933 91.7246 69.689 91.5024H69.703Z" fill="white"/>
<path d="M70.6995 91.5059C70.7053 91.2678 70.7796 91.0359 70.9143 90.8362C71.049 90.6364 71.2387 90.4766 71.4622 90.3746C71.6857 90.2727 71.9343 90.2325 72.1801 90.2586C72.426 90.2848 72.6594 90.3762 72.8545 90.5226C72.8974 90.555 72.9253 90.6025 72.9319 90.6546C72.9385 90.7068 72.9233 90.7593 72.8897 90.8007C72.8561 90.842 72.8068 90.8688 72.7526 90.8752C72.6985 90.8816 72.6439 90.8669 72.6009 90.8346C72.4386 90.7136 72.2392 90.6481 72.034 90.6481C71.9133 90.6463 71.7934 90.6679 71.6815 90.7116C71.5696 90.7553 71.468 90.8201 71.3826 90.9024C71.2971 90.9792 71.2289 91.072 71.1823 91.1753C71.1356 91.2785 71.1116 91.3899 71.1116 91.5025C71.1116 91.6151 71.1356 91.7264 71.1823 91.8297C71.2289 91.9329 71.2971 92.0258 71.3826 92.1026C71.468 92.1848 71.5696 92.2497 71.6815 92.2934C71.7934 92.3371 71.9133 92.3587 72.034 92.3569C72.2076 92.3557 72.3778 92.31 72.527 92.2247V91.75H72.0094C71.9552 91.7483 71.9037 91.7265 71.8657 91.6893C71.8277 91.6521 71.806 91.6022 71.8051 91.55C71.8061 91.4984 71.828 91.4492 71.8662 91.4131C71.9044 91.3769 71.9558 91.3567 72.0094 91.3567H72.7136C72.7407 91.3558 72.7678 91.3601 72.7931 91.3694C72.8185 91.3786 72.8417 91.3927 72.8614 91.4107C72.881 91.4287 72.8968 91.4502 72.9077 91.4742C72.9186 91.4981 72.9244 91.5238 72.9249 91.55V92.3196C72.9269 92.3388 72.9269 92.3581 72.9249 92.3772C72.9122 92.4124 72.8873 92.4423 72.8545 92.462C72.6603 92.6085 72.4276 92.7002 72.1824 92.7267C71.9373 92.7533 71.6893 92.7137 71.4661 92.6124C71.2429 92.5111 71.0534 92.3521 70.9187 92.1531C70.7839 91.9541 70.7092 91.723 70.703 91.4855L70.6995 91.5059Z" fill="white"/>
<path d="M73.7765 90.5126C73.7761 90.4875 73.7808 90.4626 73.7906 90.4393C73.8003 90.4161 73.8148 90.395 73.8332 90.3773C73.8517 90.3595 73.8736 90.3456 73.8977 90.3362C73.9218 90.3268 73.9477 90.3222 73.9737 90.3227C74.0001 90.3222 74.0263 90.3268 74.0508 90.3361C74.0753 90.3454 74.0977 90.3593 74.1167 90.3769C74.1357 90.3945 74.1508 90.4156 74.1613 90.4388C74.1719 90.4621 74.1775 90.4872 74.178 90.5126V92.5468C74.1761 92.5978 74.1538 92.6461 74.1157 92.6815C74.0776 92.7169 74.0267 92.7367 73.9737 92.7367C73.9477 92.7372 73.9218 92.7326 73.8977 92.7232C73.8736 92.7138 73.8517 92.6998 73.8332 92.6821C73.8148 92.6644 73.8003 92.6433 73.7906 92.62C73.7808 92.5968 73.7761 92.5719 73.7765 92.5468V90.5126Z" fill="white"/>
<path d="M75.2484 92.5636C75.2484 92.6139 75.2276 92.6622 75.1906 92.6978C75.1537 92.7334 75.1035 92.7534 75.0512 92.7534C74.9989 92.7534 74.9488 92.7334 74.9118 92.6978C74.8748 92.6622 74.854 92.6139 74.854 92.5636V90.5293C74.8533 90.4984 74.8603 90.4679 74.8744 90.4401C74.8885 90.4124 74.9093 90.3883 74.935 90.3699C74.9777 90.3421 75.0297 90.3308 75.0806 90.3384C75.1316 90.3459 75.1777 90.3717 75.2097 90.4106L76.3752 91.9635V90.5429C76.3752 90.5184 76.3802 90.4941 76.3899 90.4715C76.3997 90.4489 76.4139 90.4283 76.4319 90.411C76.4499 90.3937 76.4712 90.3799 76.4947 90.3706C76.5182 90.3612 76.5434 90.3564 76.5688 90.3564C76.6205 90.3564 76.6702 90.3759 76.707 90.4108C76.7439 90.4457 76.7651 90.4931 76.766 90.5429V92.5771C76.7651 92.6272 76.7441 92.675 76.7073 92.7104C76.6705 92.7459 76.6209 92.7661 76.5688 92.767C76.5402 92.7666 76.5121 92.76 76.4864 92.7477C76.4608 92.7354 76.4385 92.7176 76.421 92.6958L76.4033 92.6755L75.2484 91.1328V92.5636Z" fill="white"/>
<path d="M77.4954 29.1379V31.6163H75.6749V29.1379C75.6749 26.7646 73.8122 24.8625 71.5234 24.8625C69.2346 24.8625 67.3719 26.7781 67.3719 29.1379V35.3425H65.5232V29.1379C65.5232 25.7474 68.2029 23.0113 71.5093 23.0113C74.8157 23.0113 77.4954 25.761 77.4954 29.1379Z" fill="#C7C7C7"/>
<path d="M65.5369 31.6231L67.3574 31.6943V35.3425H65.5369V31.6231Z" fill="#A6A6A6"/>
<path d="M79.8154 33.2642H63.2023V47.7754H79.8154V33.2642Z" fill="#5D4037"/>
<path opacity="0.1" d="M79.8158 33.2642H71.5093V47.7754H79.8158V33.2642Z" fill="black"/>
<path d="M72.2134 41.0521L72.9176 44.2256H69.9669L70.6711 41.0521C70.3979 40.8888 70.1875 40.6443 70.0716 40.3555C69.9557 40.0668 69.9407 39.7495 70.0288 39.4518C70.117 39.1541 70.3035 38.8921 70.5601 38.7056C70.8168 38.5191 71.1295 38.4182 71.4511 38.4182C71.7726 38.4182 72.0853 38.5191 72.342 38.7056C72.5986 38.8921 72.7851 39.1541 72.8733 39.4518C72.9614 39.7495 72.9464 40.0668 72.8305 40.3555C72.7146 40.6443 72.5042 40.8888 72.231 41.0521H72.2134Z" fill="#263238"/>
<path d="M92.9039 63.7886H50.1175V70.8408H92.9039V63.7886Z" fill="white"/>
<path d="M93.0766 71.0101H49.9417V63.6189H93.0766V71.0101ZM50.2938 70.6711H92.7245V63.9579H50.2938V70.6711Z" fill="#EBEBEB"/>
<path d="M54.5577 65.7347H54.2056V68.7488H54.5577V65.7347Z" fill="#37474F"/>
<path d="M55.9489 67.0705H52.8185V67.4096H55.9489V67.0705Z" fill="#37474F"/>
<path d="M55.3659 66.0531L53.1516 68.1836L53.4005 68.4235L55.6148 66.2929L55.3659 66.0531Z" fill="#37474F"/>
<path d="M53.3977 66.0547L53.1487 66.2944L55.3622 68.4258L55.6112 68.186L53.3977 66.0547Z" fill="#37474F"/>
<path d="M59.8678 65.7347H59.5157V68.7488H59.8678V65.7347Z" fill="#37474F"/>
<path d="M61.258 67.0705H58.1276V67.4096H61.258V67.0705Z" fill="#37474F"/>
<path d="M60.675 66.0565L58.4607 68.1871L58.7096 68.4269L60.9239 66.2963L60.675 66.0565Z" fill="#37474F"/>
<path d="M58.7097 66.0537L58.4607 66.2935L60.6742 68.4248L60.9232 68.185L58.7097 66.0537Z" fill="#37474F"/>
<path d="M65.1779 65.7347H64.8258V68.7488H65.1779V65.7347Z" fill="#37474F"/>
<path d="M66.569 67.0705H63.4387V67.4096H66.569V67.0705Z" fill="#37474F"/>
<path d="M65.9841 66.0567L63.7698 68.1873L64.0187 68.4271L66.233 66.2966L65.9841 66.0567Z" fill="#37474F"/>
<path d="M64.0207 66.0525L63.7718 66.2922L65.9853 68.4236L66.2342 68.1838L64.0207 66.0525Z" fill="#37474F"/>
<path d="M70.4909 65.7347H70.1388V68.7488H70.4909V65.7347Z" fill="#37474F"/>
<path d="M71.8781 67.0705H68.7478V67.4096H71.8781V67.0705Z" fill="#37474F"/>
<path d="M71.2961 66.057L69.0818 68.1875L69.3307 68.4274L71.545 66.2968L71.2961 66.057Z" fill="#37474F"/>
<path d="M69.3338 66.0557L69.0848 66.2954L71.2983 68.4267L71.5473 68.187L69.3338 66.0557Z" fill="#37474F"/>
<path d="M75.801 65.7347H75.4489V68.7488H75.801V65.7347Z" fill="#37474F"/>
<path d="M77.1882 67.0705H74.0578V67.4096H77.1882V67.0705Z" fill="#37474F"/>
<path d="M76.6052 66.057L74.3909 68.1875L74.6398 68.4274L76.8541 66.2968L76.6052 66.057Z" fill="#37474F"/>
<path d="M74.6419 66.0513L74.3929 66.291L76.6064 68.4223L76.8554 68.1826L74.6419 66.0513Z" fill="#37474F"/>
<path d="M81.1111 65.7347H80.7589V68.7488H81.1111V65.7347Z" fill="#37474F"/>
<path d="M82.5022 67.0705H79.3718V67.4096H82.5022V67.0705Z" fill="#37474F"/>
<path d="M81.9163 66.0548L79.702 68.1854L79.9509 68.4252L82.1652 66.2946L81.9163 66.0548Z" fill="#37474F"/>
<path d="M79.9529 66.0503L79.704 66.29L81.9175 68.4214L82.1664 68.1816L79.9529 66.0503Z" fill="#37474F"/>
<path d="M89.2493 68.4029C88.8672 68.3808 88.4948 68.2783 88.1584 68.1026C87.8219 67.9268 87.5296 67.6821 87.3021 67.3858L87.2246 67.2841L87.3021 67.1857C87.5152 66.8794 87.8033 66.6284 88.1411 66.4548C88.4789 66.2812 88.8559 66.1904 89.2388 66.1904C89.6216 66.1904 89.9986 66.2812 90.3364 66.4548C90.6742 66.6284 90.9623 66.8794 91.1754 67.1857L91.2494 67.2841L91.1754 67.3858C90.9503 67.6798 90.6614 67.9231 90.3288 68.0987C89.9962 68.2744 89.6278 68.3782 89.2493 68.4029ZM87.6718 67.2976C87.8534 67.5385 88.0916 67.7346 88.367 67.8698C88.6425 68.0051 88.9472 68.0756 89.2564 68.0756C89.5655 68.0756 89.8703 68.0051 90.1457 67.8698C90.4211 67.7346 90.6593 67.5385 90.8409 67.2976C90.6593 67.0567 90.4211 66.8606 90.1457 66.7254C89.8703 66.5902 89.5655 66.5197 89.2564 66.5197C88.9472 66.5197 88.6425 66.5902 88.367 66.7254C88.0916 66.8606 87.8534 67.0567 87.6718 67.2976Z" fill="#EBEBEB"/>
<path d="M89.2448 68.0605C89.6823 68.0605 90.037 67.7189 90.037 67.2976C90.037 66.8763 89.6823 66.5347 89.2448 66.5347C88.8072 66.5347 88.4525 66.8763 88.4525 67.2976C88.4525 67.7189 88.8072 68.0605 89.2448 68.0605Z" fill="#EBEBEB"/>
<path d="M90.55 65.7681L87.7365 68.4772L87.9855 68.7169L90.799 66.0078L90.55 65.7681Z" fill="#EBEBEB"/>
<path d="M60.0049 56.4448H59.4415V57.3976C59.4415 57.4623 59.4148 57.5244 59.3673 57.5702C59.3197 57.6159 59.2552 57.6417 59.188 57.6417C59.1208 57.6417 59.0563 57.6159 59.0087 57.5702C58.9612 57.5244 58.9345 57.4623 58.9345 57.3976V54.8038C58.9345 54.7719 58.9411 54.7404 58.9538 54.7109C58.9666 54.6815 58.9853 54.6548 59.0089 54.6324C59.0325 54.61 59.0605 54.5924 59.0912 54.5805C59.122 54.5686 59.1549 54.5627 59.188 54.5631H60.0049C60.1382 54.5554 60.2717 54.574 60.3972 54.6178C60.5227 54.6616 60.6375 54.7297 60.7347 54.8178C60.8319 54.9059 60.9093 55.0123 60.9623 55.1303C61.0152 55.2483 61.0425 55.3754 61.0425 55.504C61.0425 55.6325 61.0152 55.7597 60.9623 55.8777C60.9093 55.9957 60.8319 56.102 60.7347 56.1901C60.6375 56.2783 60.5227 56.3463 60.3972 56.3901C60.2717 56.4339 60.1382 56.4525 60.0049 56.4448ZM59.4415 55.9566H60.0049C60.0701 55.962 60.1357 55.9544 60.1976 55.9341C60.2595 55.9138 60.3164 55.8814 60.3646 55.8388C60.4128 55.7962 60.4512 55.7445 60.4776 55.6869C60.5039 55.6292 60.5175 55.5669 60.5175 55.504C60.5175 55.441 60.5039 55.3787 60.4776 55.3211C60.4512 55.2634 60.4128 55.2117 60.3646 55.1691C60.3164 55.1266 60.2595 55.0941 60.1976 55.0738C60.1357 55.0536 60.0701 55.0459 60.0049 55.0513H59.4415V55.9566Z" fill="#5D4037"/>
<path d="M62.9095 56.9127H61.8003L61.575 57.4857C61.5552 57.5304 61.5224 57.5686 61.4805 57.5957C61.4386 57.6228 61.3895 57.6376 61.3391 57.6383C61.31 57.6434 61.2801 57.6434 61.251 57.6383C61.1878 57.6154 61.1365 57.5695 61.1082 57.5105C61.0799 57.4515 61.0768 57.3841 61.0996 57.323L62.1102 54.7326C62.1304 54.6869 62.1643 54.648 62.2076 54.6208C62.2509 54.5936 62.3015 54.5795 62.3532 54.5801C62.4045 54.5787 62.4551 54.5927 62.4979 54.62C62.5407 54.6473 62.5738 54.6866 62.5926 54.7326L63.6032 57.323C63.626 57.3841 63.6229 57.4515 63.5946 57.5105C63.5663 57.5695 63.515 57.6154 63.4518 57.6383C63.4228 57.6442 63.3928 57.6442 63.3638 57.6383C63.3136 57.6382 63.2646 57.6237 63.2232 57.5964C63.1817 57.5692 63.1497 57.5307 63.1314 57.4857L62.9095 56.9127ZM62.7229 56.4313L62.3532 55.4853L62.001 56.4313H62.7229Z" fill="#5D4037"/>
<path d="M64.0509 56.8754C64.0707 56.8495 64.096 56.8279 64.1251 56.8121C64.1543 56.7963 64.1865 56.7866 64.2198 56.7837C64.2531 56.7808 64.2867 56.7848 64.3183 56.7953C64.3498 56.8059 64.3787 56.8228 64.403 56.8449C64.6484 57.0458 64.9548 57.1648 65.2763 57.1839C65.4794 57.188 65.6787 57.1311 65.8467 57.0212C65.9038 56.9881 65.9516 56.9421 65.986 56.8871C66.0204 56.8322 66.0403 56.7699 66.0439 56.7059C66.045 56.6565 66.0302 56.6079 66.0017 56.5669C65.9662 56.5138 65.9194 56.4687 65.8643 56.4346C65.6707 56.3286 65.4581 56.2585 65.2376 56.2278C65.0336 56.1943 64.8349 56.1362 64.646 56.0549C64.4742 55.9834 64.3275 55.8657 64.2235 55.7159C64.1527 55.6085 64.116 55.4836 64.1178 55.3565C64.1208 55.2302 64.1542 55.1063 64.2153 54.9945C64.2764 54.8828 64.3635 54.7861 64.4699 54.7123C64.7014 54.5581 64.9772 54.4774 65.2587 54.4817C65.6185 54.4966 65.9656 54.6146 66.2552 54.8208C66.2807 54.8372 66.3027 54.8583 66.3197 54.8828C66.3367 54.9074 66.3485 54.935 66.3544 54.964C66.3603 54.993 66.3602 55.0229 66.354 55.0518C66.3479 55.0808 66.3358 55.1082 66.3186 55.1327C66.3025 55.1582 66.2811 55.1803 66.2559 55.1976C66.2306 55.2149 66.202 55.2271 66.1717 55.2335C66.1414 55.2398 66.1101 55.2401 66.0796 55.2345C66.0492 55.2288 66.0203 55.2173 65.9946 55.2005C65.7848 55.0368 65.528 54.9386 65.2587 54.9191C65.0765 54.9161 64.8979 54.9683 64.7481 55.0683C64.6976 55.0971 64.6553 55.1376 64.6251 55.1862C64.595 55.2347 64.578 55.2898 64.5756 55.3463C64.5722 55.3892 64.5833 55.432 64.6073 55.4684C64.6402 55.5141 64.682 55.5533 64.7305 55.5836C64.9059 55.6829 65.0996 55.7485 65.3009 55.7769C65.5178 55.814 65.7293 55.8754 65.9312 55.96C66.1164 56.0384 66.275 56.1653 66.389 56.3261C66.4598 56.4386 66.4976 56.5675 66.4982 56.6991C66.4931 56.8342 66.4546 56.9661 66.3861 57.084C66.3175 57.2019 66.2207 57.3024 66.1038 57.3772C65.8583 57.5453 65.5634 57.6333 65.2622 57.6281C64.8327 57.6092 64.4218 57.4543 64.0932 57.1873C64.0464 57.1501 64.0161 57.0973 64.0082 57.0394C64.0004 56.9815 64.0156 56.9229 64.0509 56.8754Z" fill="#5D4037"/>
<path d="M67.0542 56.8754C67.0736 56.8522 67.0977 56.8329 67.1249 56.8188C67.1522 56.8046 67.1821 56.7959 67.213 56.793C67.2438 56.7902 67.2749 56.7933 67.3045 56.8022C67.3341 56.8111 67.3615 56.8256 67.3851 56.8449C67.6305 57.0458 67.9369 57.1648 68.2584 57.1839C68.4616 57.1884 68.661 57.1315 68.8288 57.0212C68.8859 56.9881 68.9337 56.9421 68.9681 56.8871C69.0025 56.8322 69.0224 56.7699 69.026 56.7059C69.0271 56.6565 69.0124 56.6079 68.9838 56.5669C68.9493 56.5131 68.9023 56.4678 68.8465 56.4346C68.6541 56.3285 68.4426 56.2584 68.2232 56.2278C68.0203 56.1948 67.8226 56.1366 67.6352 56.0549C67.4629 55.9827 67.3152 55.8652 67.2091 55.7159C67.1396 55.6079 67.103 55.4834 67.1035 55.3565C67.1064 55.2302 67.1398 55.1063 67.2009 54.9945C67.262 54.8828 67.3492 54.7861 67.4556 54.7123C67.6871 54.5581 67.9629 54.4774 68.2443 54.4817C68.6042 54.4966 68.9512 54.6146 69.2408 54.8208C69.2664 54.8372 69.2883 54.8583 69.3053 54.8828C69.3223 54.9074 69.3341 54.935 69.34 54.964C69.3459 54.993 69.3458 55.0229 69.3396 55.0518C69.3335 55.0808 69.3215 55.1082 69.3042 55.1327C69.2881 55.1582 69.2668 55.1803 69.2415 55.1976C69.2163 55.2149 69.1876 55.2271 69.1573 55.2335C69.127 55.2398 69.0957 55.2401 69.0653 55.2345C69.0348 55.2288 69.0059 55.2173 68.9803 55.2005C68.7704 55.0368 68.5137 54.9386 68.2443 54.9191C68.0621 54.9161 67.8835 54.9683 67.7337 55.0683C67.6832 55.0971 67.6409 55.1376 67.6108 55.1862C67.5806 55.2347 67.5636 55.2898 67.5612 55.3463C67.5579 55.3892 67.569 55.432 67.5929 55.4684C67.6258 55.5141 67.6677 55.5533 67.7161 55.5836C67.8919 55.6823 68.0854 55.7478 68.2866 55.7769C68.5034 55.814 68.7149 55.8754 68.9169 55.96C69.1015 56.0378 69.2591 56.1649 69.3711 56.3261C69.4444 56.4376 69.4823 56.5672 69.4803 56.6991C69.4759 56.8339 69.4381 56.9658 69.3701 57.0837C69.3021 57.2016 69.2059 57.3023 69.0894 57.3772C68.843 57.546 68.5467 57.634 68.2443 57.6281C67.8148 57.6092 67.4039 57.4543 67.0753 57.1873C67.0324 57.147 67.0066 57.0928 67.0027 57.0353C66.9988 56.9777 67.0171 56.9207 67.0542 56.8754Z" fill="#5D4037"/>
<path d="M74.2977 54.9258L73.1779 57.4856C73.1732 57.5008 73.1648 57.5148 73.1533 57.5262C73.1533 57.5262 73.1533 57.5432 73.1321 57.5534C73.111 57.5635 73.1321 57.5534 73.1321 57.5534L73.1004 57.5737C73.1004 57.5737 73.0793 57.5974 73.0582 57.6008H73.0195H72.9103H72.8786C72.8627 57.5967 72.8489 57.587 72.8399 57.5737L72.8082 57.5534C72.8082 57.5534 72.8082 57.5364 72.7906 57.5262C72.7886 57.5128 72.7886 57.4991 72.7906 57.4856L72.192 56.1294L71.5934 57.4856C71.5934 57.4856 71.5934 57.5161 71.5758 57.5262L71.5476 57.5534C71.5368 57.5582 71.5272 57.5651 71.5194 57.5737L71.4842 57.6008C71.4726 57.5985 71.4606 57.5985 71.449 57.6008H71.3363H71.3011C71.2851 57.595 71.2706 57.5857 71.2588 57.5737C71.2588 57.5737 71.2412 57.5737 71.2272 57.5534L71.206 57.5262C71.206 57.5262 71.206 57.4991 71.1814 57.4856L70.0581 54.9224C70.0378 54.8645 70.0412 54.8013 70.0675 54.7457C70.0938 54.6901 70.1411 54.6462 70.1997 54.6229C70.2584 54.5996 70.3241 54.5987 70.3834 54.6203C70.4428 54.6419 70.4914 54.6844 70.5194 54.7393L71.4138 56.7736L72.0053 55.4174C72.0249 55.3728 72.0577 55.3348 72.0998 55.3082C72.1418 55.2817 72.191 55.2677 72.2413 55.2682C72.2917 55.2688 72.341 55.2831 72.3833 55.3095C72.4257 55.3359 72.4595 55.3733 72.4807 55.4174L73.0687 56.7736L73.9596 54.7393C73.986 54.6801 74.0356 54.6334 74.0976 54.6092C74.1596 54.5851 74.2289 54.5856 74.2906 54.6104C74.331 54.6534 74.3539 54.7089 74.3552 54.7668C74.3565 54.8248 74.3361 54.8812 74.2977 54.9258Z" fill="#5D4037"/>
<path d="M77.4949 54.9429C77.7914 55.2434 77.9567 55.6421 77.9567 56.0566C77.9567 56.4711 77.7914 56.8698 77.4949 57.1704C77.3561 57.3164 77.1875 57.4333 76.9997 57.5138C76.8119 57.5943 76.6089 57.6367 76.4033 57.6383C76.1935 57.6372 75.9862 57.5951 75.7937 57.5147C75.6013 57.4343 75.4277 57.3172 75.2836 57.1704C74.9941 56.8665 74.8335 56.469 74.8335 56.0566C74.8335 55.6442 74.9941 55.2468 75.2836 54.9429C75.4272 54.7954 75.6006 54.6779 75.7932 54.5974C75.9858 54.517 76.1934 54.4753 76.4033 54.475C76.609 54.4758 76.8123 54.5178 77.0002 54.5983C77.1882 54.6789 77.3566 54.7962 77.4949 54.9429ZM77.435 56.0549C77.4351 55.7712 77.3245 55.4977 77.1252 55.2887C77.0343 55.1909 76.9231 55.1125 76.7987 55.0588C76.6743 55.005 76.5396 54.9771 76.4033 54.9768C76.2642 54.9758 76.1265 55.0031 75.9991 55.0568C75.8716 55.1106 75.7574 55.1896 75.6639 55.2887C75.4633 55.497 75.3525 55.7709 75.354 56.0549C75.3511 56.3392 75.4621 56.6136 75.6639 56.8212C75.7577 56.9202 75.8718 56.9994 75.9991 57.0537C76.1265 57.108 76.2641 57.1362 76.4033 57.1365C76.5397 57.1347 76.6742 57.1057 76.7985 57.0515C76.9227 56.9972 77.0339 56.9188 77.1252 56.8212C77.3203 56.6106 77.4259 56.3371 77.421 56.0549H77.435Z" fill="#5D4037"/>
<path d="M80.9564 57.2754C80.9674 57.3054 80.972 57.3373 80.9699 57.3691C80.9678 57.4008 80.9591 57.4319 80.9443 57.4603C80.9296 57.4888 80.909 57.5141 80.8838 57.5348C80.8587 57.5554 80.8295 57.571 80.7979 57.5806C80.7641 57.5859 80.7296 57.5859 80.6958 57.5806C80.6335 57.5819 80.5722 57.5654 80.5198 57.5331C80.4576 57.4954 80.4067 57.4428 80.3719 57.3805C80.2992 57.2134 80.2667 57.0326 80.2768 56.8516C80.2762 56.7846 80.2568 56.7189 80.2205 56.6617C80.1865 56.6094 80.1393 56.5662 80.0831 56.5363C80.0053 56.488 79.9196 56.4524 79.8296 56.4312H79.2909V57.3839C79.2904 57.416 79.2834 57.4476 79.2702 57.4771C79.257 57.5065 79.238 57.5332 79.2141 57.5555C79.1903 57.5779 79.162 57.5955 79.1311 57.6074C79.1002 57.6192 79.0671 57.6251 79.0338 57.6246C78.9675 57.6246 78.9039 57.5993 78.857 57.5541C78.8101 57.509 78.7838 57.4478 78.7838 57.3839V54.7902C78.7833 54.7585 78.7895 54.727 78.8019 54.6975C78.8143 54.6681 78.8327 54.6414 78.856 54.619C78.8793 54.5965 78.907 54.5788 78.9376 54.5669C78.9681 54.5549 79.0008 54.549 79.0338 54.5495H79.8507C80.0521 54.5487 80.2488 54.6079 80.4138 54.7191C80.5787 54.8302 80.704 54.9877 80.7723 55.1701C80.8406 55.3525 80.8485 55.5508 80.7951 55.7377C80.7417 55.9247 80.6295 56.0911 80.474 56.2142C80.5346 56.2609 80.588 56.3157 80.6324 56.3769C80.7316 56.5168 80.7844 56.6823 80.7839 56.8516C80.7772 56.939 80.7831 57.0269 80.8015 57.1127C80.8397 57.1246 80.8741 57.1458 80.9012 57.1744C80.9284 57.2029 80.9474 57.2377 80.9564 57.2754ZM80.312 55.5056C80.3125 55.4458 80.3006 55.3865 80.277 55.3312C80.2535 55.2759 80.2188 55.2256 80.1749 55.1833C80.131 55.1411 80.0787 55.1076 80.0213 55.0849C79.9638 55.0623 79.9023 55.0508 79.8402 55.0513H79.2803V55.9565H79.8402C79.9647 55.9565 80.0842 55.9091 80.1726 55.8247C80.261 55.7402 80.3111 55.6255 80.312 55.5056Z" fill="#5D4037"/>
<path d="M81.6997 57.3976V54.8039C81.6992 54.7721 81.7053 54.7406 81.7177 54.7112C81.7301 54.6818 81.7485 54.6551 81.7718 54.6326C81.7951 54.6102 81.8229 54.5925 81.8534 54.5805C81.884 54.5686 81.9167 54.5627 81.9497 54.5632H82.4884C82.899 54.5817 83.2863 54.7518 83.57 55.0381C83.8537 55.3245 84.012 55.705 84.012 56.1007C84.012 56.4965 83.8537 56.877 83.57 57.1633C83.2863 57.4496 82.899 57.6197 82.4884 57.6383H81.9497C81.8834 57.6383 81.8198 57.613 81.7729 57.5678C81.726 57.5227 81.6997 57.4614 81.6997 57.3976ZM82.2067 57.1501H82.4884C82.7667 57.1348 83.0285 57.0176 83.2199 56.8225C83.4113 56.6274 83.518 56.3692 83.518 56.1007C83.518 55.8323 83.4113 55.5741 83.2199 55.3789C83.0285 55.1838 82.7667 55.0666 82.4884 55.0514H82.2067V57.1501Z" fill="#5D4037"/>
<path d="M136.32 17.2338C136.32 17.2338 133.633 37.936 129.218 42.5945C123.936 48.182 120.062 47.3649 117.95 50.2468C115.809 47.3615 111.964 48.182 106.682 42.5911C102.266 37.9326 99.5865 17.2304 99.5865 17.2304C111.206 11.8056 117.967 5.70277 117.967 5.70277C118.143 5.89603 124.869 11.8836 136.32 17.2338Z" fill="#37474F"/>
<path d="M117.936 5.70955V50.2468C115.795 47.3615 111.95 48.182 106.668 42.5911C102.252 37.9326 99.5728 17.2304 99.5728 17.2304C111.193 11.8056 117.954 5.70277 117.954 5.70277L117.936 5.70955Z" fill="#455A64"/>
<path d="M133.482 18.9021C133.482 18.9021 131.214 36.3901 127.496 40.3265C123.014 45.0528 119.749 44.3578 117.957 46.7921C116.151 44.3578 112.901 45.0528 108.418 40.3265C104.693 36.3901 102.432 18.9021 102.432 18.9021C112.256 14.308 117.961 9.16126 117.961 9.16126C117.961 9.16126 123.64 14.308 133.482 18.9021Z" fill="#455A64"/>
<path d="M102.408 18.902C102.408 18.902 104.675 36.3867 108.394 40.3264C112.869 45.0494 116.116 44.3611 117.926 46.7887V9.15442C117.764 9.34089 112.08 14.3791 102.408 18.902Z" fill="#37474F"/>
<path d="M123.029 32.8803C125.841 30.1726 125.841 25.7825 123.029 23.0748C120.217 20.3671 115.658 20.3671 112.846 23.0748C110.033 25.7825 110.033 30.1726 112.846 32.8803C115.658 35.588 120.217 35.588 123.029 32.8803Z" fill="#5D4037"/>
<path d="M117.115 32.4806L113.907 29.2698L115.097 28.1679L116.865 29.9377L120.675 24.3095L122.059 25.1775L117.115 32.4806Z" fill="white"/>
<path d="M11.779 67.0061H36.4838V62.0797L11.779 62.0797V67.0061Z" fill="#C7C7C7"/>
<path d="M29.8531 66.9655L30.5432 73.2616L39.0857 132.202H41.5259L34.7863 73.2616L34.2405 66.9655H29.8531Z" fill="#C7C7C7"/>
<path d="M6.72942 132.202H9.17315L17.7156 73.2616L18.4058 66.9655H14.0183L13.4726 73.2616L6.72942 132.202Z" fill="#C7C7C7"/>
<path d="M10.8527 112.947H38.1034V111.469H10.8527V112.947Z" fill="#C7C7C7"/>
<path d="M34.7863 73.0413H30.5432L29.8531 66.9655H34.2405L34.7863 73.0413Z" fill="#A6A6A6"/>
<path d="M13.4725 73.0413H17.7156L18.4057 66.9655H14.0183L13.4725 73.0413Z" fill="#A6A6A6"/>
<path d="M15.0746 38.4041C16.131 38.9262 16.3141 40.7266 19.6029 40.6282C20.0712 40.6282 20.455 40.435 20.8846 40.5876C21.5149 40.8079 22.0114 41.2928 22.5713 41.6454C23.0216 41.9368 23.5343 42.1269 24.0713 42.2014C25.1017 42.3187 26.1424 42.0874 27.015 41.5471C27.5538 41.2284 28.0045 40.7876 28.5257 40.4418C29.0468 40.0959 32.1912 39.3636 32.7229 37.6616C33.0751 36.58 33.0082 35.3493 31.6666 33.7693C31.3576 33.4875 31.1472 33.1202 31.0644 32.7183C31.0653 32.366 31.1484 32.0184 31.3074 31.7011C31.4919 31.341 31.5594 30.9358 31.5011 30.5382C31.3514 30.158 31.11 29.8175 30.7968 29.5448C30.3039 28.9718 30.3954 28.1445 30.7968 27.1274C30.956 26.6958 31.0102 26.2347 30.9553 25.7798C30.9003 25.3248 30.7377 24.8881 30.4799 24.5031C30.1567 24.0621 29.7756 23.6633 29.3461 23.3165C28.744 22.7672 28.6419 22.2587 28.3707 21.4822C27.8601 19.9904 27.0608 19.3225 26.1207 18.8614C25.272 18.4512 25.3002 18.6071 24.3917 18.7393C23.4713 18.1985 22.3878 17.9738 21.3177 18.1019C20.3247 18.224 19.5043 18.8648 18.7543 19.4785C18.0852 20.0277 17.4726 20.6177 17.4373 21.5433C17.4162 22.0756 17.55 22.6045 17.5254 23.1368C17.4902 23.8149 17.0993 24.2455 16.631 24.6727C15.9327 25.2445 15.451 26.0231 15.2612 26.8866C15.138 27.6088 15.8774 28.7311 15.0112 29.7991C14.2506 30.7416 12.8985 31.8334 12.5464 33.0132C11.4724 36.6987 14.0781 37.9023 15.0746 38.4041Z" fill="#263238"/>
<path d="M27.8108 40.3907C29.3214 40.1703 31.6418 40.4449 32.4447 38.8243C32.7624 38.575 33.014 38.2565 33.1787 37.8951C33.3434 37.5338 33.4164 37.1399 33.3919 36.7459C33.2882 35.9046 32.8836 35.1242 32.2475 34.5387C31.8784 34.2042 31.5565 33.8247 31.2897 33.4097C31.2045 33.0864 31.1421 32.7579 31.1031 32.4265C31.1653 32.0023 31.2837 31.5876 31.4552 31.1923C31.1242 31.8704 30.8179 32.6028 31.1242 33.3487C31.1692 33.4551 31.2222 33.5582 31.2827 33.6572C31.3927 34.0495 31.5437 34.43 31.7334 34.793C32.2299 35.7423 32.6841 36.6001 32.6172 37.7088C32.6055 38.0792 32.5132 38.443 32.3461 38.7768C31.6926 39.3287 30.8764 39.6701 30.0115 39.7533C29.9904 39.7533 29.9904 39.7906 30.0115 39.7872C30.7936 39.711 31.5438 39.4489 32.1947 39.0243C31.3179 40.2347 29.2791 40.0686 27.8037 40.35C27.765 40.35 27.7791 40.3941 27.8108 40.3907ZM32.5609 38.5497V38.5191C32.8224 37.6208 32.7552 36.6632 32.3707 35.8068C32.1313 35.2406 31.7721 34.732 31.5362 34.1624C31.4975 34.0641 31.4587 33.9657 31.4235 33.864C31.7756 34.3082 32.2193 34.6777 32.5503 35.1117C33.2546 36.0543 33.4799 37.1765 32.8074 38.197C32.7346 38.3204 32.6522 38.4383 32.5609 38.5497Z" fill="#263238"/>
<path d="M29.1492 23.096C29.7129 23.5676 30.2501 24.0679 30.7584 24.5946C31.1131 24.9403 31.3257 25.398 31.357 25.883C31.3701 26.3716 31.2099 26.85 30.9028 27.2392C30.7901 27.4019 30.6739 27.5782 30.5718 27.7376C30.5477 28.0532 30.5995 28.37 30.7232 28.6632C30.9697 29.2226 31.5155 29.5684 31.7796 30.1347C32.188 31.0501 31.7338 31.8028 31.3324 32.6199C31.6246 31.9418 32.0366 31.2874 31.8042 30.5279C31.6211 29.9075 31.1493 29.5718 30.7936 29.0667C30.5772 28.7458 30.4554 28.3743 30.4415 27.9919C30.1246 28.6089 30.0154 29.2599 30.5753 29.9075C30.5999 29.938 30.5753 29.9787 30.533 29.9516C29.8288 29.2735 30.0119 28.4225 30.445 27.6935C30.4717 27.2629 30.5704 26.8393 30.7373 26.439C30.7373 26.3984 30.8183 26.439 30.8112 26.4695C30.7478 26.7883 30.6633 27.107 30.6176 27.4223L30.6915 27.3172C31.2549 26.5408 31.4767 25.6219 30.8288 24.8082C30.3429 24.1878 29.6809 23.6995 29.1386 23.113C29.114 23.1062 29.1351 23.0825 29.1492 23.096Z" fill="#263238"/>
<path d="M33.3849 87.115C33.3849 87.115 27.0784 100.602 27.0714 100.612C25.853 103.186 24.8284 105.461 24.4164 106.688C24.4136 106.695 24.4136 106.702 24.4164 106.709C24.2862 106.985 24.2247 107.287 24.2368 107.59C24.2368 107.59 24.2368 107.607 24.2368 107.61C24.7861 108.482 45.8571 118.46 46.7162 118.579C47.5754 118.697 47.9663 116.348 47.4698 115.33C46.9733 114.313 40.6774 107.017 40.6774 107.017L46.8606 93.4755L33.3849 87.115Z" fill="#EB9481"/>
<path d="M28.3676 97.8323C28.3676 97.8323 27.0789 100.592 27.0718 100.602C25.8535 103.176 24.8288 105.451 24.4168 106.678C24.4141 106.685 24.4141 106.692 24.4168 106.698C24.32 106.984 24.2597 107.28 24.2373 107.58C24.2373 107.58 24.2373 107.597 24.2373 107.6C24.7866 108.472 45.8575 118.45 46.7167 118.568C47.5759 118.687 47.9667 116.338 47.4702 115.32C46.9738 114.303 40.6778 107.007 40.6778 107.007L42.0335 104.213L28.3676 97.8323Z" fill="#EBEBEB"/>
<path d="M46.7101 118.552C45.8509 118.443 24.7729 108.475 24.2201 107.604C24.0053 107.265 25.3328 104.234 27.037 100.602L27.0898 100.487L40.7663 106.773L40.6465 106.993C40.6465 106.993 46.946 114.286 47.446 115.303C47.946 116.321 47.5657 118.663 46.7101 118.552Z" fill="#263238"/>
<path d="M47.4037 117.975C47.7101 118.294 47.0058 119.477 46.6995 119.446C46.3931 119.416 23.4594 108.448 23.1073 108.177C22.7552 107.905 23.5897 106.627 24.0792 106.773C24.5686 106.919 47.4037 117.975 47.4037 117.975Z" fill="#5D4037"/>
<path d="M41.7832 107.573C40.5121 106.661 38.6987 106.057 37.1388 106.512C37.0789 106.512 37.1071 106.613 37.1599 106.62C38.708 106.836 40.2274 107.213 41.6917 107.742C41.7139 107.748 41.7373 107.746 41.7582 107.737C41.779 107.727 41.7961 107.712 41.8066 107.692C41.8172 107.673 41.8206 107.65 41.8164 107.629C41.8121 107.607 41.8005 107.587 41.7832 107.573Z" fill="white"/>
<path d="M42.4944 108.638C41.2232 107.722 39.4098 107.122 37.8499 107.576C37.79 107.593 37.8182 107.675 37.871 107.685C39.419 107.9 40.9384 108.275 42.4028 108.804C42.4252 108.812 42.4497 108.811 42.472 108.803C42.4942 108.795 42.5126 108.779 42.5237 108.759C42.5349 108.739 42.5381 108.715 42.5327 108.693C42.5273 108.671 42.5137 108.651 42.4944 108.638Z" fill="white"/>
<path d="M43.2062 109.699C41.935 108.787 40.118 108.183 38.5617 108.638C38.5018 108.658 38.5265 108.739 38.5617 108.746C40.111 108.962 41.6316 109.338 43.097 109.869C43.1203 109.882 43.1485 109.887 43.1752 109.881C43.202 109.875 43.2251 109.859 43.2396 109.836C43.2541 109.814 43.2587 109.787 43.2524 109.761C43.2461 109.735 43.2295 109.713 43.2062 109.699Z" fill="white"/>
<path d="M29.4276 104.406C28.2726 102.949 25.9064 104.671 27.0719 106.132C28.2374 107.593 30.5825 105.868 29.4276 104.406Z" fill="white"/>
<path d="M37.1037 75.3907C36.9629 79.3134 29.1106 96.2556 29.1106 96.2556L42.882 102.358C42.882 102.358 53.9985 83.5176 52.9668 74.838C52.0865 67.4739 32.8431 53.8544 29.755 50.0164C29.2972 49.4468 29.4521 47.1548 29.4521 47.1548H16.9588V50.0265C21.7301 59.7775 36.0016 71.4747 37.058 74.9092C37.0996 75.0664 37.1151 75.2289 37.1037 75.3907Z" fill="#37474F"/>
<path d="M42.8045 99.5275C40.5368 98.4799 41.2023 98.7477 38.9311 97.7272C37.8149 97.2288 32.2162 94.7029 31.0894 94.4215C31.0833 94.4188 31.0764 94.4185 31.0701 94.4208C31.0638 94.423 31.0587 94.4275 31.0559 94.4334C31.0531 94.4392 31.0529 94.4459 31.0552 94.4519C31.0575 94.458 31.0622 94.4629 31.0683 94.4656C32.0331 95.0962 37.6917 97.4933 38.8149 97.9713C41.1143 98.9478 40.4664 98.6494 42.7763 99.592C42.815 99.6123 42.8467 99.5445 42.8045 99.5275Z" fill="#263238"/>
<path d="M20.0993 52.0776C23.8703 57.6118 28.0864 62.8526 32.7087 67.7518C33.8426 68.9419 35.0081 70.098 36.1736 71.2576C37.1595 72.2374 38.1666 73.3257 38.4096 74.7192C38.6842 76.2721 38.0575 77.8181 37.5539 79.2658C37.0011 80.8594 36.4447 82.4495 35.8567 84.0328C35.2229 85.7281 32.6313 91.8954 32.2052 92.726C31.9904 93.1397 35.6349 84.2498 36.2264 82.6089C36.818 80.9679 37.4166 79.337 37.9201 77.6757C38.2118 76.8298 38.3314 75.9376 38.2723 75.0481C38.1579 74.1905 37.8023 73.3792 37.2441 72.7019C36.2299 71.4 34.913 70.2947 33.7616 69.108C31.3742 66.6465 29.0983 64.0901 26.9339 61.4387C24.4708 58.4439 22.1718 55.3272 20.0464 52.1014C20.0448 52.098 20.0439 52.0944 20.0437 52.0907C20.0436 52.0871 20.0441 52.0834 20.0455 52.0799C20.0468 52.0765 20.0488 52.0733 20.0513 52.0706C20.0539 52.0678 20.057 52.0656 20.0605 52.0641C20.064 52.0625 20.0677 52.0616 20.0716 52.0615C20.0754 52.0613 20.0792 52.0619 20.0828 52.0631C20.0864 52.0644 20.0897 52.0663 20.0925 52.0688C20.0953 52.0713 20.0976 52.0743 20.0993 52.0776Z" fill="#263238"/>
<path d="M12.7046 116.52C12.7046 116.52 12.0919 131.306 12.0883 131.316C12.1588 134.144 12.2714 136.623 12.4405 137.897C12.439 137.905 12.439 137.913 12.4405 137.921C12.4567 138.226 12.5472 138.524 12.7046 138.789V138.806C13.5919 139.355 37.0784 139.484 37.8989 139.223C38.7193 138.962 38.0115 136.687 37.1066 135.982C36.2016 135.277 27.2225 131.357 27.2225 131.357L27.6909 116.581L12.7046 116.52Z" fill="#EB9481"/>
<path d="M12.2018 128.391C12.2018 128.391 12.0821 131.307 12.0786 131.317C12.149 134.144 12.2617 136.623 12.4307 137.898C12.4292 137.905 12.4292 137.913 12.4307 137.921C12.487 138.22 12.5792 138.511 12.7054 138.789V138.806C13.5927 139.356 37.0792 139.484 37.8997 139.223C38.7201 138.962 38.0123 136.687 37.1074 135.982C36.2024 135.277 27.2233 131.357 27.2233 131.357L27.3184 128.367L12.2018 128.391Z" fill="#EBEBEB"/>
<path d="M37.8817 139.196C37.0612 139.457 13.5853 139.352 12.6839 138.803C12.3317 138.599 12.1592 135.304 12.0571 131.313V131.188L27.1983 131.093V131.34C27.1983 131.34 36.1704 135.253 37.0859 135.958C38.0014 136.663 38.7057 138.938 37.8817 139.196Z" fill="#263238"/>
<path d="M38.2439 138.389C38.6629 138.549 38.5679 139.908 38.2615 140.013C37.9552 140.118 12.3524 139.898 11.9158 139.803C11.4792 139.708 11.6482 138.203 12.1552 138.128C12.6623 138.054 38.2439 138.389 38.2439 138.389Z" fill="#5D4037"/>
<path d="M28.4728 131.398C26.9165 131.11 25.008 131.334 23.8143 132.395C23.7685 132.436 23.8143 132.5 23.8777 132.483C25.366 132.029 26.9006 131.728 28.4552 131.588C28.4814 131.59 28.5074 131.582 28.5275 131.566C28.5477 131.55 28.5603 131.527 28.5626 131.502C28.565 131.476 28.5568 131.451 28.54 131.432C28.5231 131.413 28.499 131.4 28.4728 131.398Z" fill="white"/>
<path d="M29.6069 132.052C28.0505 131.764 26.1455 131.988 24.9483 133.049C24.9025 133.09 24.9483 133.154 25.0152 133.137C26.5034 132.682 28.0381 132.382 29.5928 132.242C29.6189 132.244 29.6448 132.236 29.6646 132.219C29.6844 132.203 29.6965 132.179 29.6984 132.154C29.7003 132.129 29.6917 132.104 29.6745 132.085C29.6574 132.066 29.633 132.054 29.6069 132.052Z" fill="white"/>
<path d="M30.7162 132.71C29.1598 132.422 27.2513 132.642 26.0576 133.707C26.0083 133.747 26.0576 133.812 26.121 133.795C27.6093 133.34 29.1439 133.04 30.6986 132.9C30.7248 132.902 30.7508 132.894 30.7709 132.878C30.791 132.862 30.8037 132.839 30.806 132.813C30.8083 132.788 30.8002 132.763 30.7834 132.744C30.7665 132.724 30.7424 132.712 30.7162 132.71Z" fill="white"/>
<path d="M15.9201 133.741C14.2194 132.913 12.8813 135.456 14.5821 136.284C16.2828 137.111 17.635 134.571 15.9201 133.741Z" fill="white"/>
<path d="M27.6356 126.604L12.2831 126.726C12.2831 126.726 14.8395 66.3517 13.1282 64.3784C9.0577 59.6894 9.70561 53.4374 12.4486 47.1582H26.4384C26.4384 47.1582 25.7659 56.6922 25.8328 56.9703C30.1357 75.0415 27.6356 126.604 27.6356 126.604Z" fill="#37474F"/>
<path d="M26.7903 123.576C23.4416 123.325 14.621 123.6 13.5083 123.763C13.5031 123.765 13.4987 123.769 13.4957 123.774C13.4927 123.779 13.4911 123.784 13.4911 123.79C13.4911 123.795 13.4927 123.801 13.4957 123.806C13.4987 123.811 13.5031 123.814 13.5083 123.817C14.6104 124.031 24.7233 123.725 26.7868 123.647C26.7948 123.645 26.8019 123.641 26.8072 123.635C26.8124 123.629 26.8154 123.621 26.8158 123.613C26.8162 123.605 26.8139 123.597 26.8093 123.591C26.8048 123.584 26.7981 123.579 26.7903 123.576Z" fill="#263238"/>
<path d="M26.7687 50.8639C26.6279 52.5592 26.6983 55.4818 25.6736 55.5258C24.6489 55.5699 24.8285 52.0099 24.8004 51.1894C24.7722 50.4469 24.5081 50.5486 24.4799 51.4234C24.4025 53.7967 24.4799 55.8954 25.7757 55.7971C27.0715 55.6988 27.0751 52.0201 27.0434 51.1793C27.0258 50.7453 26.811 50.3249 26.7687 50.8639Z" fill="#263238"/>
<path d="M25.7335 55.6378C25.6697 56.2372 25.6827 56.8418 25.7722 57.4381C25.7898 57.4856 25.987 57.4381 26.0081 57.4076C26.1278 57.1601 26.0328 55.9938 26.0645 55.6785C26.0701 55.6362 26.058 55.5935 26.0309 55.5598C26.0175 55.5431 26.0008 55.5292 25.9818 55.5187C25.9628 55.5082 25.9418 55.5014 25.9201 55.4988C25.8762 55.4934 25.8319 55.505 25.7969 55.5311C25.7619 55.5571 25.7391 55.5955 25.7335 55.6378Z" fill="#263238"/>
<path d="M26.1736 57.7397C26.6103 59.2316 27.0575 62.0863 26.9518 62.8255C26.9518 62.8933 26.8391 62.917 26.8251 62.8458C26.6842 62.0456 26.0645 58.1975 26.0011 57.794C25.9377 57.3905 26.0504 57.3227 26.1736 57.7397Z" fill="#263238"/>
<path d="M23.4801 58.9164C23.6844 58.7236 23.9034 58.5457 24.135 58.3841C24.3639 58.2111 24.5928 58.045 24.8393 57.8789C25.3252 57.5398 25.8252 57.2482 26.3358 56.9567C26.8464 56.6651 27.3464 56.4108 27.8675 56.1565C28.3887 55.9022 28.9873 55.692 29.5296 55.431C29.5612 55.414 29.5894 55.4581 29.5577 55.475C29.0436 55.7497 28.5647 56.0921 28.0647 56.3938C27.5647 56.6956 27.0647 57.0075 26.5612 57.3093C26.0576 57.611 25.5823 57.906 25.0893 58.1976C24.8334 58.3513 24.5729 58.5005 24.3076 58.6451C24.0702 58.7925 23.8232 58.925 23.5681 59.0418C23.4836 59.0723 23.4343 58.9672 23.4801 58.9164Z" fill="#263238"/>
<path d="M14.5956 95.191C14.8174 90.3528 15.1695 84.9484 15.254 80.1169C15.2939 77.6961 15.3127 75.2742 15.3104 72.8511C15.3104 70.4473 15.3104 67.2365 15.1977 64.8361C15.1308 63.6155 12.8983 62.6729 12.4441 59.1197C12.1294 57.0961 12.2968 55.0301 12.9335 53.0779C13.092 52.6034 13.2789 52.1381 13.4934 51.6844C13.4934 51.6539 13.5533 51.6844 13.5392 51.7115C12.6456 53.7068 12.2744 55.8827 12.4582 58.0483C12.5231 59.1401 12.7606 60.216 13.1624 61.2388C13.761 62.6729 15.2364 63.8359 15.3139 64.5987C15.4301 65.7345 15.4477 66.7178 15.4618 67.8604C15.4759 69.003 15.49 70.2337 15.497 71.4204C15.5111 73.8434 15.504 76.2654 15.4759 78.6861C15.4195 83.5074 15.2881 88.3264 15.0815 93.1431C14.8702 97.961 13.5744 122.084 13.4899 122.64C13.4899 122.701 13.3772 122.688 13.3807 122.64C13.5357 120.209 14.3702 100.029 14.5956 95.191Z" fill="#263238"/>
<path d="M22.8886 36.0309C26.2197 42.6491 30.4487 49.8165 34.4065 50.9489C38.1742 52.0169 45.4772 43.1102 47.7872 40.7775C48.6111 39.9299 41.9173 35.0815 40.8785 35.8173C38.9207 37.204 35.403 40.9809 34.8115 40.8487C34.2199 40.7165 29.2796 36.1936 24.8288 32.3963C22.1316 30.0941 20.5822 31.4435 22.8886 36.0309Z" fill="#EB9481"/>
<path d="M53.579 36.5767C54.4945 36.2072 61.544 35.9902 61.544 34.5187C61.544 33.0472 52.5684 33.4609 52.5684 33.4609L53.579 36.5767Z" fill="#EB9481"/>
<path d="M40.0581 36.7494C41.2905 35.2746 42.3751 33.698 43.4455 33.3929C44.1885 33.1894 52.1676 33.5217 53.4176 33.4505C54.6676 33.3793 59.1114 33.4878 59.217 34.5388C59.3614 36.0273 54.0937 36.0137 53.5338 36.7766C51.5936 39.4008 44.2167 43.2863 44.2167 43.2863L40.0581 36.7494Z" fill="#EB9481"/>
<path d="M59.3328 34.5626C59.2557 34.2835 59.0737 34.0419 58.8222 33.8845C58.2764 33.5183 57.5581 33.4844 56.9172 33.437C55.9455 33.3495 54.9678 33.3415 53.9946 33.4132C53.99 33.4132 53.9855 33.415 53.9822 33.4182C53.9789 33.4214 53.977 33.4257 53.977 33.4302C53.977 33.4347 53.9789 33.439 53.9822 33.4422C53.9855 33.4453 53.99 33.4471 53.9946 33.4471C54.7235 33.4471 55.4524 33.4641 56.1813 33.5217C56.8489 33.5487 57.5114 33.6465 58.1567 33.8133C58.4484 33.888 58.7122 34.0408 58.9173 34.2541C58.99 34.3285 59.042 34.4195 59.0685 34.5185C59.0949 34.6174 59.095 34.7213 59.0687 34.8203C58.8539 35.4679 57.5264 35.6611 56.9137 35.7933C56.1144 35.9663 55.2834 36.1324 54.477 36.2748C54.4418 36.2748 54.477 36.3358 54.4946 36.329C55.3292 36.1697 56.213 36.1053 57.051 35.9595C57.7306 35.8408 58.4595 35.7086 59.0088 35.2814C59.1271 35.2026 59.2201 35.0935 59.2773 34.9665C59.3345 34.8395 59.3538 34.6996 59.3328 34.5626Z" fill="#263238"/>
<path d="M46.9243 31.3577L47.1564 30.213L61.0286 32.8214C61.1541 32.845 61.2648 32.9157 61.3363 33.0179C61.4077 33.1201 61.4341 33.2454 61.4096 33.3663L61.3623 33.5992C61.3378 33.7202 61.2644 33.8267 61.1583 33.8955C61.0521 33.9643 60.922 33.9897 60.7964 33.9661L46.9243 31.3577Z" fill="#5D4037"/>
<path opacity="0.1" d="M47.1555 30.2152L46.9233 31.3599L48.596 31.6744L48.8281 30.5297L47.1555 30.2152Z" fill="black"/>
<path d="M41.8503 28.7582L41.4418 30.7924C41.3017 31.4803 41.4512 32.1936 41.8573 32.7754C42.2634 33.3572 42.8929 33.7598 43.6073 33.8947C44.3218 34.0296 45.0626 33.8857 45.6668 33.4946C46.271 33.1036 46.6892 32.4975 46.8293 31.8096L47.2412 29.7753C47.3106 29.4345 47.3096 29.0838 47.2382 28.7434C47.1668 28.4029 47.0265 28.0793 46.8252 27.7911C46.624 27.5029 46.3657 27.2556 46.0653 27.0635C45.7648 26.8714 45.4279 26.7381 45.0739 26.6713C44.72 26.6045 44.3558 26.6055 44.0022 26.6743C43.6486 26.743 43.3126 26.8781 43.0132 27.0719C42.4087 27.4632 41.9903 28.0698 41.8503 28.7582ZM46.3785 29.2633C46.3046 29.5644 46.1356 29.8359 45.8947 30.0405C45.6537 30.2452 45.3529 30.3728 45.0334 30.4059C45.315 30.5541 45.5427 30.7816 45.6862 31.0579C45.8297 31.3343 45.8821 31.6462 45.8363 31.952C45.6708 32.7589 44.7482 33.2675 43.7728 33.0844C42.7975 32.9013 42.139 32.0944 42.301 31.2908C42.3765 30.99 42.5465 30.7189 42.7878 30.5144C43.0292 30.31 43.3301 30.1821 43.6496 30.1482C43.3667 30.0015 43.1378 29.7743 42.9941 29.4976C42.8504 29.2208 42.7989 28.9081 42.8468 28.6022C43.0123 27.7919 43.9348 27.2901 44.9102 27.4732C45.8856 27.6562 46.544 28.4564 46.3785 29.2633Z" fill="#5D4037"/>
<path d="M47.2604 29.6974L46.8183 31.877C46.7948 31.9928 46.8733 32.105 46.9935 32.1276L47.1041 32.1484C47.2244 32.171 47.3409 32.0954 47.3643 31.9797L47.8064 29.8001C47.8299 29.6843 47.7514 29.5721 47.6312 29.5495L47.5206 29.5287C47.4004 29.5061 47.2839 29.5816 47.2604 29.6974Z" fill="#5D4037"/>
<path d="M47.8064 29.8009L47.3644 31.9805C47.3409 32.0963 47.4193 32.2085 47.5396 32.2311L47.6502 32.2519C47.7704 32.2745 47.8869 32.199 47.9104 32.0832L48.3525 29.9036C48.3759 29.7878 48.2975 29.6756 48.1772 29.653L48.0667 29.6322C47.9464 29.6096 47.8299 29.6852 47.8064 29.8009Z" fill="#5D4037"/>
<path d="M57.7066 31.7079L58.1186 31.7858L58.351 30.6297L58.7066 30.6975L58.5834 31.301L58.9954 31.379L59.1186 30.7755L59.4285 30.8331L59.2383 31.7858L59.6503 31.8638L59.844 30.9111L60.2877 30.9959L60.0306 32.2673L60.4426 32.3453L60.6996 31.0738L61.1187 31.1518L60.7912 32.7759L57.1009 32.0842L57.4284 30.4568L57.939 30.5551L57.7066 31.7079Z" fill="#5D4037"/>
<path d="M10.4375 49.1993L30.0929 49.5112L28.5506 43.8424C29.0634 43.131 29.4083 42.3201 29.5609 41.4667C29.7136 40.6133 29.6705 39.7381 29.4345 38.9025C28.9626 37.2343 26.7266 34.7356 25.3534 33.1387C22.0153 29.2735 19.1138 31.0196 18.1877 32.013C14.6559 35.8205 10.4375 49.1993 10.4375 49.1993Z" fill="#5D4037"/>
<path d="M20.1167 34.2168V33.1387L20.8597 33.9388L21.6626 33.6981L21.2717 34.3762L21.6485 34.7559L21.0639 34.8136V35.5459L20.4231 35.0306L19.9019 35.4476L19.9618 34.8305L19.2012 34.4915L20.1167 34.2168ZM28.4902 46.331L27.8705 46.8769L27.3 46.5853L27.5007 47.2125L26.7613 47.5821L27.4655 47.8737L27.293 48.4161L27.8071 48.2263L28.3141 48.8433L28.3916 48.0364L29.448 47.6974L28.4198 47.2668L28.4902 46.331ZM21.3034 42.3065L21.9055 43.4593L22.5006 42.3574L23.6344 42.5472L23.0323 41.3877L23.8739 40.6147L22.6802 40.6554L22.4407 39.5297L21.814 40.696L20.2224 40.5774L21.159 41.5098L20.2928 42.1506L21.3034 42.3065ZM25.9901 35.6442L26.2789 35.1763L25.7366 35.2238L25.55 34.7932L25.2577 35.2611L24.7824 35.1492L25.0676 35.5493L24.7154 35.8883L25.2894 35.8375L25.6063 36.4071L25.7366 35.8782L26.1662 36.0274L25.9901 35.6442ZM16.7716 47.9923L17.0603 47.5278L16.5216 47.5719L16.3314 47.1413L16.0427 47.6126L15.5673 47.4973L15.8525 47.8974L15.5004 48.2365L16.0744 48.189L16.3913 48.7586L16.5216 48.2263L16.9547 48.3788L16.7716 47.9923ZM20.0041 39.5874L20.2928 39.1229L19.7505 39.1669L19.5639 38.7363L19.2752 39.2076L18.7963 39.0923L19.0815 39.4924L18.7294 39.8315L19.3033 39.784L19.6202 40.3502L19.7505 39.8213L20.1836 39.9705L20.0041 39.5874ZM16.504 40.8486L16.4054 40.5435L16.2152 40.791L15.9441 40.6994L16.0427 41.008L15.8068 41.1639L16.099 41.2012V41.486L16.2997 41.2216L16.6836 41.3131L16.4934 41.0486L16.7328 40.9232L16.504 40.8486ZM25.6274 48.1212L25.5288 47.816L25.3352 48.0635L25.0676 47.9754L25.1662 48.2805L24.9267 48.4399L25.2225 48.4738V48.7586L25.4232 48.4975L25.807 48.5857L25.6169 48.3212L25.8563 48.1992L25.6274 48.1212ZM28.3564 39.2585L28.6064 39.0449L28.293 38.9805L28.2648 38.7058L28.0148 38.9194L27.7683 38.777L27.8564 39.0483L27.5923 39.1771L27.9233 39.2449L27.9972 39.6213L28.1698 39.3432L28.3846 39.5026L28.3564 39.2585ZM23.4267 44.985L23.6732 44.7714L23.3598 44.707L23.3316 44.4323L23.0851 44.6459L22.8351 44.5035L22.9231 44.7748L22.6591 44.9036L22.99 44.9714L23.064 45.3478L23.2365 45.0697L23.4513 45.2291L23.4267 44.985ZM13.2785 46.7819L13.525 46.5683L13.2116 46.5005L13.187 46.2259L12.937 46.4429L12.7046 46.2971L12.7891 46.5717L12.525 46.6972L12.856 46.7684L12.9335 47.1413L13.1025 46.8667L13.3173 47.026L13.2785 46.7819Z" fill="white"/>
<path d="M23.2936 43.5102C24.1341 43.4357 24.9792 43.4221 25.8218 43.4695C26.2408 43.4967 26.6563 43.5441 27.0718 43.6018C27.2761 43.6289 27.4838 43.6492 27.6916 43.6696C27.9091 43.695 28.129 43.695 28.3465 43.6696C28.3465 43.6696 28.3712 43.6933 28.3465 43.7001C28.1456 43.7435 27.9422 43.7752 27.7373 43.795C27.5368 43.8069 27.3357 43.8069 27.1352 43.795C26.7127 43.7679 26.2866 43.7238 25.864 43.6967C25.0084 43.6357 24.1527 43.578 23.2936 43.578C23.2689 43.5848 23.2689 43.5136 23.2936 43.5102Z" fill="#263238"/>
<path d="M21.3853 44.5714C22.0533 44.384 22.7316 44.2323 23.417 44.117C23.7692 44.0628 24.1213 44.0255 24.4523 43.9984L24.9488 43.9645C25.1319 43.9645 25.3009 43.9645 25.4981 43.9645C25.5192 43.9645 25.5227 43.9916 25.4981 43.995C25.3255 44.0119 25.146 44.056 24.984 44.0797L24.4699 44.1577L23.4417 44.3137C22.7562 44.4086 22.0708 44.5148 21.3853 44.6324C21.3571 44.6324 21.3501 44.5815 21.3853 44.5714Z" fill="#263238"/>
<path d="M20.0993 31.7992C20.1838 32.1383 21.8599 34.3251 23.462 34.2505C23.9832 34.2234 23.9691 31.4771 23.9691 31.4771L24.0148 31.2737L24.6768 28.4291L21.212 26.2931L20.7119 26.0117C20.7119 26.0117 20.5852 26.8017 20.4373 27.7849C20.4373 27.8324 20.4373 27.8764 20.4373 27.9239C20.4373 27.9714 20.4162 28.0324 20.4091 28.0866C20.3845 28.2324 20.3598 28.3816 20.3422 28.5308C20.3246 28.68 20.3105 28.758 20.2964 28.8698L20.2542 29.2292C20.1428 30.0816 20.091 30.9402 20.0993 31.7992Z" fill="#EB9481"/>
<path d="M20.452 27.7815C20.7525 28.5792 21.2293 29.3046 21.8494 29.9075C22.4695 30.5105 23.2182 30.9766 24.0437 31.2737L24.6775 28.4291L21.2126 26.2931L20.7126 26.0117C20.7126 26.0117 20.5858 26.7983 20.452 27.7815Z" fill="#263238"/>
<path d="M28.8429 23.7877C29.8746 28.8056 26.8675 29.9652 25.7442 30.1788C24.7266 30.372 21.2265 30.9009 19.6631 26.0153C18.0997 21.1296 20.1983 19.0818 22.5082 18.5223C24.8182 17.9629 27.8147 18.7732 28.8429 23.7877Z" fill="#EB9481"/>
<path d="M27.3218 23.0214C27.2057 23.0468 27.0881 23.066 26.9697 23.079C26.8462 23.1181 26.7129 23.1181 26.5894 23.079C26.5537 23.0582 26.5261 23.0267 26.5109 22.9894C26.4956 22.952 26.4935 22.9108 26.5049 22.8722C26.5399 22.799 26.5946 22.7362 26.6634 22.6903C26.7321 22.6444 26.8124 22.6171 26.8958 22.6111C27.062 22.5737 27.2367 22.598 27.3852 22.6789C27.4157 22.7002 27.4394 22.7294 27.4535 22.7631C27.4676 22.7967 27.4716 22.8335 27.465 22.8693C27.4584 22.905 27.4414 22.9382 27.4161 22.9651C27.3908 22.992 27.3581 23.0115 27.3218 23.0214Z" fill="#263238"/>
<path d="M23.6209 24.0488C23.7396 24.0313 23.8571 24.0075 23.973 23.9776C24.1032 23.9703 24.2272 23.9214 24.3252 23.8386C24.3518 23.8076 24.3664 23.7686 24.3664 23.7284C24.3664 23.6881 24.3518 23.6492 24.3252 23.6182C24.2659 23.5612 24.1916 23.521 24.1103 23.5018C24.029 23.4827 23.9437 23.4854 23.8639 23.5097C23.6943 23.5307 23.5395 23.6132 23.4308 23.7402C23.4064 23.7709 23.3921 23.8078 23.3897 23.8464C23.3873 23.8849 23.397 23.9232 23.4175 23.9564C23.4379 23.9896 23.4682 24.0162 23.5045 24.0326C23.5408 24.0491 23.5813 24.0547 23.6209 24.0488Z" fill="#263238"/>
<path d="M24.4027 24.6929C24.4027 24.6929 24.378 24.6929 24.3815 24.7269C24.4449 25.0659 24.459 25.4728 24.1562 25.6321C24.1562 25.6321 24.1562 25.6558 24.1562 25.6525C24.547 25.5406 24.5224 25.0049 24.4027 24.6929Z" fill="#263238"/>
<path d="M24.0296 24.3777C23.4486 24.4184 23.5753 25.5372 24.1141 25.4966C24.6528 25.4559 24.5155 24.3438 24.0296 24.3777Z" fill="#263238"/>
<path d="M23.8075 24.4624C23.7125 24.5336 23.628 24.6557 23.5047 24.6828C23.3815 24.7099 23.2477 24.6048 23.1526 24.5031C23.1526 24.5031 23.1315 24.5031 23.1526 24.5031C23.1737 24.7167 23.2829 24.9269 23.5258 24.9337C23.7688 24.9405 23.878 24.7337 23.9097 24.5133C23.8885 24.4862 23.8463 24.4319 23.8075 24.4624Z" fill="#263238"/>
<path d="M26.6102 24.3674C26.6102 24.3674 26.6384 24.3674 26.6384 24.3945C26.6665 24.7336 26.7546 25.1371 27.0926 25.2184V25.2388C26.6877 25.2252 26.575 24.6997 26.6102 24.3674Z" fill="#263238"/>
<path d="M26.8921 23.9743C27.4661 23.8759 27.628 24.9914 27.0963 25.0796C26.5646 25.1677 26.4097 24.059 26.8921 23.9743Z" fill="#263238"/>
<path d="M27.1417 24.0149C27.2438 24.0623 27.3495 24.1573 27.4586 24.1471C27.5678 24.1369 27.6629 24.0047 27.7262 23.8792C27.7262 23.8792 27.7262 23.8792 27.7474 23.8792C27.7826 24.0895 27.7474 24.3234 27.5361 24.3912C27.3248 24.459 27.184 24.2929 27.0959 24.0861C27.0819 24.0589 27.103 23.9945 27.1417 24.0149Z" fill="#263238"/>
<path d="M25.0576 27.6157C25.1492 27.6937 25.2443 27.7988 25.3745 27.8022C25.5091 27.7904 25.6397 27.7523 25.7584 27.6903C25.7584 27.6903 25.7795 27.6903 25.7584 27.6903C25.7116 27.7616 25.6457 27.8194 25.5676 27.8576C25.4895 27.8958 25.4021 27.913 25.3147 27.9073C25.2474 27.8932 25.1853 27.8618 25.135 27.8165C25.0848 27.7711 25.0483 27.7134 25.0295 27.6496C25.0295 27.6496 25.0295 27.6055 25.0576 27.6157Z" fill="#263238"/>
<path d="M26.3996 26.1915C26.3996 26.1915 26.5404 26.6966 26.5721 26.9408C26.5721 26.9645 26.5158 26.9814 26.4278 26.9984C26.215 27.0617 25.9883 27.0678 25.7723 27.0157C25.5562 26.9637 25.3591 26.8557 25.2024 26.7034C25.2024 26.6831 25.2024 26.6526 25.2376 26.6661C25.5873 26.8407 25.9864 26.9014 26.3749 26.839C26.3749 26.7712 26.1038 25.9779 26.1425 25.9711C26.3415 25.9648 26.5405 25.9842 26.7341 26.0287C26.477 24.9641 26.0299 23.947 25.801 22.8824C25.801 22.8451 25.8503 22.8247 25.8644 22.8586C26.3651 23.9339 26.7521 25.055 27.0193 26.205C27.051 26.3406 26.5087 26.2186 26.3996 26.1915Z" fill="#263238"/>
<path d="M26.392 26.9103C26.2771 27.1261 26.106 27.3095 25.8955 27.4426C25.7787 27.5126 25.642 27.5458 25.5047 27.5376C25.2089 27.5138 25.1526 27.2629 25.1526 27.0392C25.1617 26.9241 25.1841 26.8104 25.2195 26.7001C25.5766 26.8899 25.9879 26.9636 26.392 26.9103Z" fill="#263238"/>
<path d="M25.8955 27.4426C25.7787 27.5126 25.642 27.5458 25.5047 27.5376C25.2089 27.5138 25.1526 27.2629 25.1526 27.0392C25.3056 27.0146 25.4628 27.0413 25.598 27.1147C25.7331 27.1881 25.8381 27.3038 25.8955 27.4426Z" fill="#FF9ABB"/>
<path d="M20.2443 26.4561C21.2408 26.4561 21.1739 24.2523 21.1739 24.2523C21.1739 24.2523 25.2444 23.0012 25.1176 19.6887C25.8391 20.9458 27.0359 21.8869 28.4593 22.3164C28.4593 22.3164 27.7867 18.7564 24.7338 18.4614C24.7338 18.4614 20.8851 17.6782 19.2372 20.7567C17.5893 23.8353 19.5752 26.4663 20.2443 26.4561Z" fill="#263238"/>
<path d="M25.0966 19.4444C25.2181 19.9418 25.2289 20.4583 25.1283 20.9599C25.0369 21.4703 24.8354 21.9566 24.5368 22.3873C24.4629 22.4952 24.3817 22.5983 24.2938 22.6959L24.1706 22.8484C24.1248 22.8959 24.0755 22.94 24.0262 22.9841C23.9769 23.0281 23.836 23.1638 23.7374 23.2485L23.4135 23.4791C23.3607 23.5164 23.3079 23.5537 23.2515 23.5876L23.079 23.6825L22.7269 23.869C22.4874 23.9707 22.2409 24.0588 21.9944 24.1436C22.2198 24.0114 22.4522 23.9029 22.6705 23.7707L22.9945 23.5604L23.1529 23.4553C23.2057 23.418 23.2515 23.3774 23.3008 23.3367L23.5931 23.0993C23.6881 23.0146 23.7727 22.923 23.8607 22.8349L23.9945 22.7027L24.1107 22.5569C24.1909 22.463 24.2649 22.3645 24.3325 22.2619C24.6182 21.8477 24.8267 21.3888 24.9487 20.9057C25.0118 20.6664 25.0554 20.4226 25.079 20.1768C25.1051 19.9335 25.111 19.6886 25.0966 19.4444Z" fill="#263238"/>
<path d="M18.6911 23.4419L18.4446 23.9233L20.0925 25.0829L20.6207 24.0013L18.6911 23.4419ZM19.9763 24.5878L18.839 23.8758L18.8918 23.764L20.17 24.2081L19.9763 24.5878Z" fill="#5D4037"/>
<path d="M18.7617 22.5907L18.723 23.1264L20.7055 23.6045L20.7724 22.4076L18.7617 22.5907ZM20.4026 23.1841L19.0681 22.9399V22.8145L20.4273 22.7636L20.4026 23.1841Z" fill="#5D4037"/>
<path d="M21.0079 26.0255C21.0079 26.0255 19.6733 24.5575 18.9726 25.0321C18.2719 25.5068 19.3952 27.7174 20.3071 27.9378C20.4222 27.9747 20.5438 27.9887 20.6647 27.9789C20.7855 27.9691 20.903 27.9358 21.01 27.8809C21.1171 27.826 21.2114 27.7508 21.2873 27.6597C21.3632 27.5687 21.4191 27.4637 21.4515 27.3512L21.0079 26.0255Z" fill="#EB9481"/>
<path d="M19.3111 25.6592C19.3111 25.6592 19.3111 25.6761 19.3111 25.6795C19.6083 25.7855 19.8791 25.9505 20.106 26.1637C20.3329 26.3768 20.5107 26.6335 20.628 26.917C20.5857 26.8615 20.5313 26.8155 20.4687 26.7823C20.406 26.749 20.3366 26.7292 20.2652 26.7244C20.1939 26.7196 20.1223 26.7297 20.0554 26.7542C19.9885 26.7787 19.928 26.8169 19.878 26.8662C19.878 26.8662 19.878 26.9001 19.8991 26.8967C20.003 26.8519 20.1187 26.8392 20.2304 26.8605C20.342 26.8817 20.444 26.9359 20.5224 27.0154C20.6556 27.1499 20.7736 27.2977 20.8745 27.4561C20.9062 27.507 21.0048 27.4561 20.9766 27.4087C20.8921 26.6322 20.1632 25.6456 19.3111 25.6592Z" fill="#263238"/>
<path d="M17.0183 33.1422C12.5393 40.5809 5.8455 57.6553 4.6342 60.0964C3.81375 61.7544 12.814 66.1247 13.1978 64.9177C13.6837 63.375 19.9304 43.4865 20.3388 34.6136C20.529 30.5044 18.4515 30.762 17.0183 33.1422Z" fill="#EB9481"/>
<path d="M9.53573 68.7148C10.0111 68.3147 10.24 68.552 10.0252 69.6098C9.81039 70.6677 8.07091 74.6955 9.57799 75.1533C11.0851 75.611 13.4513 69.9184 13.6696 68.1316C13.888 66.3448 13.5499 63.3849 13.5499 63.3849C12.8562 64.4089 10.9442 66.7279 9.53573 68.7148Z" fill="#EB9481"/>
<path d="M12.1766 74.933L0.908736 72.9801C0.556615 72.953 0.341821 72.7292 0.401682 72.4783L1.4334 68.0436C1.48985 67.9125 1.59012 67.8033 1.71833 67.7333C1.84653 67.6632 1.99534 67.6364 2.14116 67.6571L13.4091 69.5998C13.7612 69.6303 13.976 69.8541 13.9161 70.1016L12.8844 74.5363C12.8313 74.6704 12.7322 74.783 12.6033 74.8552C12.4745 74.9273 12.3239 74.9548 12.1766 74.933Z" fill="#A6A6A6"/>
<path d="M12.3072 74.4107L1.0182 72.4578C0.666077 72.4273 0.454804 72.2035 0.511143 71.956L1.54638 67.5213C1.59876 67.3875 1.6973 67.275 1.82551 67.2028C1.95372 67.1306 2.1038 67.103 2.25063 67.1246L13.5396 69.0775C13.8918 69.1046 14.103 69.3284 14.0467 69.5759L13.022 74.014C12.9682 74.1491 12.8678 74.2622 12.7376 74.3344C12.6075 74.4066 12.4555 74.4336 12.3072 74.4107Z" fill="#C7C7C7"/>
<path d="M12.0961 73.0038C11.8355 72.9089 11.589 73.0038 11.5468 73.214C11.5411 73.3346 11.5771 73.4535 11.6491 73.5523C11.7211 73.651 11.825 73.7241 11.9447 73.7599C12.2052 73.8548 12.4517 73.7599 12.494 73.5531C12.5004 73.432 12.4648 73.3123 12.3928 73.2128C12.3207 73.1133 12.2164 73.0398 12.0961 73.0038Z" fill="#263238"/>
<path d="M5.23683 59.3164C2.93748 62.3 0.902213 65.8126 0.852916 69.6947C0.838 70.1258 0.973085 70.5494 1.23673 70.8983C1.18391 72.6342 2.01844 73.1834 2.01844 73.1834C2.48324 74.8143 3.42693 75.2618 3.42693 75.2618C3.42693 75.2618 3.56073 76.6621 4.58541 76.6417C5.61008 76.6214 6.17348 74.326 7.05026 72.6511C9.10313 68.8064 12.8356 64.4394 13.5399 63.3884L5.23683 59.3164Z" fill="#EB9481"/>
<path d="M5.96872 67.7112C5.35624 68.8301 4.82331 69.9878 4.37361 71.1762C3.96423 72.5087 3.65822 73.8687 3.45809 75.2448C3.45809 75.2538 3.45438 75.2624 3.44778 75.2688C3.44117 75.2751 3.43222 75.2787 3.42288 75.2787C3.41354 75.2787 3.40458 75.2751 3.39798 75.2688C3.39138 75.2624 3.38767 75.2538 3.38767 75.2448C3.49976 72.5562 4.3741 69.9485 5.9159 67.7044C5.95111 67.6332 6.01449 67.6569 5.96872 67.7112Z" fill="#263238"/>
<path d="M3.73944 66.1821C3.23942 67.3247 2.3732 69.3353 2.05982 73.1868C2.05982 73.1868 2.03869 73.1868 2.03517 73.1868C1.89817 70.7423 2.46866 68.3092 3.6831 66.1584C3.72183 66.0906 3.77465 66.1041 3.73944 66.1821Z" fill="#263238"/>
<path d="M2.52937 65.382C1.7547 67.3553 1.5223 68.6945 1.24765 70.8882H1.223C1.26525 68.3623 1.57512 67.4468 2.46247 65.3448C2.49416 65.2837 2.55754 65.3041 2.52937 65.382Z" fill="#263238"/>
</svg>
