<svg width="73" height="84" viewBox="0 0 73 84" fill="none" xmlns="http://www.w3.org/2000/svg">
<path d="M8.87783 80.0362L3.34588 40.8275C3.09514 39.0504 4.4502 37.452 6.24444 37.4086L66.9576 35.939C68.7683 35.8951 70.2048 37.4533 70.0142 39.2544L65.8663 78.4527C65.7083 79.9461 64.4705 81.0927 62.9694 81.1363L11.936 82.6163C10.4083 82.6606 9.09135 81.5495 8.87783 80.0362Z" fill="#CEAF8E"/>
<path d="M69.3225 17.9L3.29485 18.4126C2.07652 18.4221 0.916139 17.6669 1.00454 16.4517C1.16068 14.3053 2.50239 11.837 3.76592 10.1105C4.46161 9.15997 4.66591 7.92673 4.49203 6.76169C4.08651 4.04464 5.38134 2.25357 6.51785 1.38849C6.89645 1.1003 7.37504 1.0002 7.85085 1.0002H64.4597C65.1885 1.0002 65.9124 1.24959 66.3838 1.80534C67.3543 2.94943 67.8156 4.20266 67.9846 5.35056C68.2432 7.10729 69.362 8.932 70.5567 10.2456C71.9572 11.7856 72.1529 13.99 71.9141 15.8279C71.7507 17.0853 70.5904 17.8902 69.3225 17.9Z" fill="#CEAF8E"/>
<path d="M8.87783 80.0362L3.34588 40.8275C3.09514 39.0504 4.4502 37.452 6.24444 37.4086L66.9576 35.939C68.7683 35.8951 70.2048 37.4533 70.0142 39.2544L65.8663 78.4527C65.7083 79.9461 64.4705 81.0927 62.9694 81.1363L11.936 82.6163C10.4083 82.6606 9.09135 81.5495 8.87783 80.0362Z" stroke="#302318" stroke-width="2"/>
<path d="M69.3225 17.9L3.29485 18.4126C2.07652 18.4221 0.916139 17.6669 1.00454 16.4517C1.16068 14.3053 2.50239 11.837 3.76592 10.1105C4.46161 9.15997 4.66591 7.92673 4.49203 6.76169C4.08651 4.04464 5.38134 2.25357 6.51785 1.38849C6.89645 1.1003 7.37504 1.0002 7.85085 1.0002H64.4597C65.1885 1.0002 65.9124 1.24959 66.3838 1.80534C67.3543 2.94943 67.8156 4.20266 67.9846 5.35056C68.2432 7.10729 69.362 8.932 70.5567 10.2456C71.9572 11.7856 72.1529 13.99 71.9141 15.8279C71.7507 17.0853 70.5904 17.8902 69.3225 17.9Z" stroke="#302318" stroke-width="2"/>
</svg>
