<svg width="10" height="19" viewBox="0 0 10 19" fill="none" xmlns="http://www.w3.org/2000/svg">
<path d="M3.58729 19C1.21526 17.8704 -2.3781 14.8755 2.22464 11.9336C2.91101 11.543 3.87193 9.99755 2.22464 6.94024C4.16263 7.77547 7.14835 10.2283 3.58729 13.3577C2.36595 14.0247 0.656069 16.0869 3.58729 19Z" fill="#CEAF8E"/>
<path d="M6.49428 0C4.65723 1.29191 2.63646 4.94289 9.24987 9.21159C9.94634 10.0408 10.5641 12.2833 7.46328 14.6196C6.23185 15.1483 4.24742 16.7647 6.16119 19C4.46544 18.2189 2.15802 15.9968 6.49428 13.3577C7.61469 12.6487 8.78354 10.3725 4.49573 6.94024C3.20373 5.32986 1.79465 1.68729 6.49428 0Z" fill="#CEAF8E"/>
</svg>
