<svg width="241" height="240" viewBox="0 0 241 240" fill="none" xmlns="http://www.w3.org/2000/svg">
<path d="M50.6424 63.3994C56.6551 67.2095 62.6001 71.1889 68.4942 75.2021C72.6608 78.047 76.7426 81.0442 80.8415 83.9907C82.4674 85.176 83.9918 86.4461 85.9734 88.004C84.2797 88.3765 83.128 88.6474 81.9593 88.8676C76.0821 90.0191 72.0002 93.2364 70.9671 99.2987C70.3065 103.075 70.1541 107.003 70.0016 110.847C69.8661 114.742 69.8492 114.844 66.2585 113.337C62.0411 111.592 57.8915 111.779 53.9451 113.997C49.1519 116.673 46.8993 121.905 48.3389 127.205C49.9649 133.132 53.9113 137.484 59.111 140.498C63.5486 143.089 68.3248 145.256 73.0673 147.339C77.6234 149.321 81.2988 152.436 84.6354 155.891C91.2409 162.8 98.236 169.234 106.112 174.636C107.467 175.568 109.025 176.245 110.532 176.905C111.007 177.092 111.65 176.922 112.226 176.922C112.311 176.753 112.396 176.55 112.48 176.38C112.057 176.11 111.684 175.788 111.244 175.551C106.908 173.299 103.927 169.505 100.743 165.983C94.8147 159.43 90.8005 151.691 87.1082 143.732C82.9586 134.808 80.5366 125.427 79.4695 115.69C79.0969 112.473 79.9607 111.83 83.1618 112.558C93.8831 115.013 104.689 116.723 115.732 116.588C118.967 116.554 122.219 116.774 125.454 116.723C131.568 116.639 137.717 116.673 143.797 116.198C148.15 115.843 152.435 114.42 156.822 114.099C163.732 113.608 170.321 111.779 176.926 109.984C178.451 109.56 179.84 108.663 181.296 107.986C181.228 107.782 181.178 107.596 181.093 107.427C179.856 107.562 178.569 107.613 177.35 107.884C172.692 108.798 168.085 110.085 163.393 110.695C153.688 111.965 144.051 113.997 134.194 113.574C133.177 113.54 132.178 113.726 131.179 113.794C125.014 114.302 119.374 113.641 114.834 108.561C111.328 104.65 107.433 101.043 103.334 97.7746C90.3094 87.3774 77.1322 77.1664 63.9889 66.9216C61.3298 64.8218 58.5013 62.9253 56.8583 59.7926C54.4025 55.0512 52.8273 50.1065 52.5732 44.7217C52.4208 41.6397 52.1498 38.5578 51.7264 35.4928C51.2521 32.1908 49.5245 30.7006 46.2218 30.4636C42.9529 30.1926 40.9374 32.0892 39.5316 34.697C37.8378 37.8466 37.3636 41.3349 38.2443 44.7894C40.1582 52.4264 43.7151 58.9967 50.6424 63.3994ZM62.3291 129.186C61.7193 127.9 61.3806 126.477 61.1435 125.749C61.2451 122.142 64.4801 118.163 67.207 117.621C69.0531 117.231 69.9678 117.739 70.3404 119.568C70.8654 122.091 71.2889 124.665 71.7292 127.205C71.9494 128.577 71.4921 129.576 70.0863 130.084C69.2395 130.423 68.3757 130.812 67.4949 131.168C64.8019 132.235 63.6163 131.828 62.3291 129.186ZM74.5916 140.735C74.3206 140.938 73.5754 140.888 73.2366 140.651C71.78 139.736 70.3234 138.805 68.9515 137.755C67.8845 136.925 66.4109 135.808 67.2578 134.419C68.003 133.149 69.646 132.438 71.2381 131.269C72.1188 132.302 72.9148 132.861 73.1858 133.606C73.8803 135.486 74.3714 137.45 74.8626 139.414C74.9642 139.821 74.8626 140.549 74.5916 140.735ZM91.7152 92.4914C92.833 93.6936 94.2896 94.5403 95.5599 95.6071C96.6269 96.5216 97.6093 97.4868 98.9812 98.7737C97.7279 99.2479 96.9996 99.468 96.2882 99.7897C92.7991 101.314 89.2423 102.685 85.8718 104.446C83.8902 105.479 82.0609 105.886 80.2317 104.514C78.4702 103.176 76.7596 101.686 75.303 100.078C73.9819 98.6383 74.4731 96.9788 75.5062 95.4886C77.4709 92.7623 80.3333 91.4753 83.5006 90.7811C83.8393 90.7133 84.2289 90.7472 84.5507 90.5779C87.5147 89.1046 89.6657 90.3239 91.7152 92.4914Z" fill="black"/>
<path d="M125.505 211.772C119.255 211.484 113.005 210.739 106.789 209.926C101.437 209.215 96.1696 207.962 90.8174 207.25C82.6706 206.167 74.8287 203.83 67.3255 200.697C61.1773 198.123 55.2493 194.855 49.5584 191.35C44.1554 188.014 40.1582 183.323 38.9557 176.719C36.9063 165.492 45.4765 153.351 52.2853 149.083C53.5725 148.271 54.8428 148.338 56.1639 149.083C57.8576 150.049 59.5344 151.048 61.3128 151.844C66.106 154.011 71.0178 155.942 75.7602 158.245C80.6212 160.598 85.5669 162.918 88.768 167.626C89.1237 168.151 89.7335 168.523 90.2416 168.964C90.4448 168.845 90.665 168.71 90.8682 168.591C90.3771 167.473 90.1569 166.102 89.3608 165.306C86.7694 162.715 84.2119 160.006 81.1971 157.974C77.6403 155.569 73.6262 153.842 69.8322 151.793C68.816 151.251 67.8336 150.641 66.8513 150.032C63.5146 147.881 60.2627 145.595 56.8414 143.597C51.4723 140.43 47.7969 135.977 45.2224 130.321C41.0728 121.194 47.2041 107.986 59.5683 109.035C62.6508 109.34 65.8689 109.29 65.8689 109.29C64.6156 108.392 63.2606 107.952 62.2443 107.715C62.1935 107.698 62.1258 107.681 62.075 107.664C62.0242 107.664 61.9564 107.647 61.9056 107.647C61.3128 107.528 60.9232 107.495 60.8047 107.495C58.298 107.122 55.7743 106.699 53.2676 106.783C49.6431 106.919 46.2895 108.409 43.9352 111.22C39.0573 117.028 39.142 124.022 40.751 130.744C41.6148 134.368 44.4095 137.535 46.3572 140.888C46.7299 141.548 47.238 142.124 47.7292 142.835C46.9839 143.258 46.4419 143.631 45.8491 143.885C40.8526 146.086 36.6183 149.371 33.3833 153.689C31.029 156.822 28.5054 160.175 27.4045 163.85C23.8646 175.466 28.607 184.796 37.3636 191.993C41.8519 195.685 47.4073 198.191 52.7426 200.714C60.3135 204.287 68.2909 206.946 76.4039 209.012C81.9085 210.417 87.4469 212.077 93.0701 212.601C102.826 213.516 112.65 213.787 122.439 214.024C127.165 214.142 131.924 213.533 136.667 213.296C138.394 213.211 140.139 213.279 141.866 213.194C142.595 213.16 143.323 212.957 144.034 212.822C144.051 212.551 144.085 212.28 144.102 212.026C143.306 211.856 142.51 211.518 141.714 211.535C136.311 211.585 130.891 212.026 125.505 211.772Z" fill="black"/>
<path d="M57.0278 49.7509C58.9925 54.1367 60.6863 58.6749 64.6157 61.9262C69.0024 65.55 73.169 69.4447 77.4202 73.2209C81.9425 77.2511 86.2445 81.5861 91.0547 85.2268C97.6941 90.2392 104.147 95.3701 110.058 101.229C113.361 104.497 117.324 107.139 121.017 110.018C121.965 110.746 122.693 110.56 122.931 109.019C122.812 108.934 122.524 108.815 122.338 108.595C119.662 105.801 119.729 104.531 122.744 102.144C123.354 101.652 124.048 101.161 124.777 100.941C128.367 99.8744 131.958 98.7907 135.6 97.927C137.022 97.5884 138.597 97.8254 140.088 97.8085C141.883 97.7916 143.679 97.8085 145.474 97.8085C145.491 97.5714 145.525 97.3344 145.542 97.0804C144.102 96.7925 142.679 96.42 141.223 96.2506C139.444 96.0474 137.632 96.0474 135.837 95.9119C127.792 95.3362 119.746 94.5911 111.735 96.4538C110.566 96.7248 108.89 96.7078 108.043 96.0474C104.74 93.5243 101.674 90.6964 98.3208 87.8007C99.3031 87.1573 99.8959 86.4969 100.59 86.3445C105.163 85.4131 109.72 84.0584 114.326 83.8552C121.711 83.5335 129.13 83.9907 136.531 84.1092C136.751 84.1092 136.955 84.1431 137.175 84.16C144.068 84.7019 150.962 85.2607 157.855 85.7687C159.108 85.8534 160.362 85.7856 161.632 85.7856C161.632 85.4808 161.632 85.176 161.632 84.8712C154.874 84.3124 148.099 83.7875 141.341 83.1779C131.569 82.2973 121.796 81.4676 112.006 82.4328C106.891 82.9408 101.827 84.177 96.7456 85.0067C96.085 85.1083 95.1704 85.0067 94.6793 84.6172C91.6306 82.1957 88.5819 79.7573 85.7025 77.1326C79.9439 71.9001 74.3207 66.4983 68.5959 61.2319C65.2593 58.1669 62.6171 54.6447 60.6524 50.5468C59.4498 48.0237 57.8916 45.653 56.4011 43.2654C56.3673 43.2146 56.3334 43.1807 56.3165 43.1468H56.3334L53.7251 38.6594C53.7251 38.6594 53.9114 40.8439 54.2501 41.9615C55.1647 44.5862 55.91 47.2448 57.0278 49.7509Z" fill="black"/>
<path d="M64.7339 172.13C64.7339 171.283 64.7509 170.403 64.7339 169.539C64.7001 166.864 63.4975 164.866 61.6852 164.341C59.3818 163.697 56.892 164.849 55.4693 167.219C53.4029 170.623 53.0981 174.399 53.0642 178.277C53.0472 179.987 53.6231 181.257 55.0458 182.324C56.0113 183.018 57.0783 183.967 57.417 185C58.2639 187.607 60.2794 189.148 62.2442 190.655C63.1926 191.367 64.5646 191.841 65.784 191.892C70.4926 192.095 73.3042 189.064 75.6076 185.542C76.7424 183.814 77.0473 181.816 76.6239 179.699C76.0988 177.075 75.1503 175.974 72.4912 176.025C70.8144 176.042 69.1207 176.601 67.4947 177.041C65.3945 177.6 64.6662 177.092 64.6662 174.941V172.113H64.7339V172.13ZM59.7205 174.128C59.3309 175.771 58.8398 177.38 57.8066 178.887C57.434 177.092 57.6542 175.415 57.9421 173.756C58.3147 172.096 58.8059 170.504 59.856 168.997C60.2286 170.792 60.0254 172.469 59.7205 174.128ZM66.5801 184.898C67.0374 184.153 67.5794 183.509 68.1552 182.917C68.765 182.324 69.4086 181.765 70.1538 181.342C70.8821 180.868 71.6951 180.495 72.6775 180.292C72.4912 181.274 72.1016 182.087 71.6274 182.815C71.2039 183.56 70.645 184.204 70.0522 184.796C69.4594 185.389 68.8158 185.931 68.0706 186.388C67.3423 186.828 66.5293 187.201 65.5469 187.421C65.7502 186.422 66.1397 185.626 66.5801 184.898Z" fill="black"/>
<path d="M79.4525 178.565C83.3819 180.953 87.4807 183.103 91.6303 185.084C93.9507 186.185 96.4744 186.998 98.998 187.523C102.589 188.251 106.298 188.403 109.889 189.148C115.326 190.266 120.745 190.3 126.216 189.775C126.504 189.741 126.775 189.504 127.436 189.182C123.794 188.81 120.61 188.2 117.409 188.217C113.242 188.234 109.245 187.607 105.265 186.439C102.843 185.728 100.353 185.237 97.9649 184.458C94.3403 183.289 90.5802 182.324 87.2097 180.614C78.1991 176.042 75.9973 169.505 76.6748 161.36C76.4715 161.242 76.2683 161.123 76.082 161.005C75.4045 162.258 74.4391 163.46 74.0834 164.798C72.9486 169.116 75.6077 176.211 79.4525 178.565Z" fill="black"/>
<path d="M79.605 44.3491C79.7574 45.1958 79.9607 46.0763 80.1809 46.9569C80.1809 46.9738 80.1978 47.0077 80.1978 47.0246C80.2147 47.0585 80.2147 47.1093 80.2317 47.1432C80.8414 49.3107 81.7391 51.4104 82.9586 53.4594C85.7024 57.9807 89.8351 60.9948 94.2726 63.5518C102.453 67.074 112.514 67.1756 120.644 66.3797C126.013 65.8379 130.552 64.9065 133.127 64.28C133.448 64.2292 133.736 64.1614 134.041 64.0768H134.058C134.143 64.0429 134.244 64.026 134.329 64.009C134.431 63.9921 134.532 63.9752 134.668 63.9413C134.702 63.9244 134.753 63.9244 134.803 63.8905C134.871 63.8736 134.939 63.8566 134.99 63.8397C135.142 63.7889 135.261 63.755 135.362 63.7381C135.447 63.7212 135.481 63.7042 135.481 63.7042C135.481 63.7042 135.498 63.7042 135.532 63.6873C136.395 63.4333 137.276 63.0777 138.123 62.7221C138.157 62.7051 138.174 62.7051 138.208 62.6882C145.22 60.2667 163.631 55.0342 169.034 64.6356C169.034 64.6525 169.05 64.6525 169.05 64.6694C171.337 68.7843 169.525 74.9989 166.12 81.4168C166.12 81.4337 166.12 81.4337 166.12 81.4337C163.292 86.8186 159.362 92.322 155.839 96.8264C153.18 100.23 150.741 103.058 149.2 104.802C148.319 105.801 147.726 106.428 147.523 106.665C149.2 105.53 176.164 86.8863 178.908 66.4644C178.908 66.4136 178.925 66.3628 178.925 66.312C181.398 47.3633 169.152 41.9784 157.804 43.1638C156.602 43.2823 155.416 43.4855 154.264 43.7395C144.271 46.0086 126.606 58.6411 107.026 56.9816C102.775 56.6091 95.0856 54.3399 93.629 53.2562C88.3107 50.496 71.8816 23.1144 95.3735 7.02745C95.1534 7.11211 93.4088 7.90799 91.1392 9.60135C90.9191 9.75376 90.6819 9.94003 90.4617 10.1094C84.5507 14.7322 75.9127 25.0279 79.6219 44.1798C79.588 44.2475 79.5881 44.2983 79.605 44.3491Z" fill="black"/>
<path d="M138.818 38.8457C137.615 38.9642 136.396 39.032 135.278 39.4214C118.628 45.1111 90.4619 37.6773 100.743 12.8357C92.596 32.5125 101.471 52.9345 114.648 53.307C140.952 54.0521 144.644 50.7161 150.047 60.3175C150.047 60.3344 150.064 60.3344 150.064 60.3514C152.35 64.4662 150.538 70.6978 147.134 77.0987C147.134 77.1156 147.134 77.1156 147.134 77.1156C144.322 82.5005 140.376 88.0209 136.853 92.5083C134.194 95.912 157.178 82.5683 159.921 62.1463C159.921 62.0955 159.938 62.0447 159.938 61.9939C162.428 43.0452 150.166 37.6603 138.818 38.8457Z" fill="black"/>
<path d="M203.416 207.233C203.552 205.76 203.823 204.287 204.145 202.848C204.28 202.204 204.433 201.578 204.636 200.934C205.059 198.902 205.551 196.87 206.093 194.889C206.651 192.908 207.363 190.943 208.091 189.013C209.006 186.625 209.937 184.255 210.733 181.85C213.409 173.671 214.883 165.391 212.884 156.754C211.75 151.827 208.21 147.797 203.789 145.917H203.806C203.772 145.9 203.738 145.9 203.704 145.883C202.078 145.206 200.334 144.816 198.539 144.782C180.839 142.564 173.37 158.397 173.37 158.397C163.749 152.182 147.286 152.809 147.286 152.809H147.303C135.684 154.299 129.994 157.381 127.063 161.225C122.711 166.931 120.576 173.569 124.523 180.224C126.894 184.255 129.892 187.523 133.686 190.368C142.019 196.599 150.86 201.984 160.735 205.151C167.205 207.2 173.607 209.435 179.891 211.89C181.703 212.584 183.515 213.313 185.327 214.075C190.984 216.428 196.472 219.222 200.842 223.744C201.079 223.998 201.333 224.252 201.587 224.506C201.638 224.54 201.672 224.573 201.706 224.607C202.265 225.065 202.807 225.539 203.349 226.013C204.517 227.012 205.601 228.113 206.618 229.247C206.634 229.264 206.651 229.281 206.651 229.281C207.702 230.449 208.684 231.669 209.666 232.922C209.226 232.109 208.802 231.279 208.345 230.466C207.431 228.858 206.482 227.3 205.364 225.81C205.364 225.793 205.364 225.776 205.347 225.776C201.299 221.119 196.811 216.903 191.391 213.956C187.885 212.043 184.277 210.315 180.636 208.656C177.384 207.183 174.098 205.743 170.863 204.27C163.902 201.12 156.653 198.547 151.047 193.009C146.626 188.64 142.104 184.373 139.546 178.531C137.954 174.924 138.801 169.133 139.445 167.66C142.442 160.869 149.048 157.855 156.094 158.448C159.922 158.786 163.817 159.328 167.493 160.581C168.627 160.971 169.762 161.394 170.863 161.936C171.202 162.088 171.541 162.275 171.913 162.461C174.132 163.613 176.503 164.967 177.384 165.492L177.638 165.645C177.689 165.661 177.706 165.678 177.74 165.678C177.706 165.645 177.672 165.628 177.638 165.594C177.824 164.578 182.042 143.326 204.365 153.808C205.042 154.164 207.447 155.603 208.464 157.635C209.582 160.006 210.174 162.596 209.988 165.391C209.599 170.962 208.786 176.499 206.736 181.782C205.991 183.713 205.263 185.677 204.602 187.641C202.959 192.467 201.672 197.395 201.13 202.577C200.944 204.422 200.91 206.217 201.062 208.012C201.181 208.757 201.333 209.52 201.536 210.265C201.909 211.789 202.417 213.245 203.128 214.6C203.603 215.531 206.347 225.488 206.99 226.267C205.872 223.998 203.298 212.449 203.264 210.028C203.247 209.096 203.281 208.182 203.399 207.267C203.399 207.25 203.416 207.233 203.416 207.233Z" fill="black"/>
</svg>
