<svg width="86" height="94" viewBox="0 0 86 94" fill="none" xmlns="http://www.w3.org/2000/svg">
<path d="M12.8178 25.5133L59.9288 0.74524L79.8798 66.7213C75.7503 76.0891 58.8823 82.425 50.9645 84.4221L12.8178 25.5133Z" fill="#F1DCC4" stroke="#E8CDAD"/>
<path d="M5.53959 28.3402L50.7102 7.09117L24.6738 23.7781C18.3865 28.6829 20.5721 33.5977 22.4508 35.442L47.4887 75.7542C52.1559 85.295 69.7339 76.0536 77.9395 70.2403C68.0677 80.6279 57.549 84.1256 53.5236 84.576L42.4083 82.4233L5.53959 28.3402Z" fill="#CEAF8E" stroke="#CEAF8E"/>
<path d="M12.9605 26.6718L25.1946 19.5058L0.800315 27.8329L42.147 84.5595C49.8234 86.9208 57.1683 84.3254 59.8812 82.7326C51.3231 86.4322 44.2538 81.6194 41.789 78.7505L11.4211 33.5544C9.84124 31.2031 10.5372 28.0913 12.9605 26.6718Z" fill="#B79674" stroke="#B79674"/>
<path d="M64.0829 14.0542C48.18 28.4121 30.1019 34.4181 23.0506 35.6263L43.6922 68.2544C59.2561 63.6702 70.867 54.1342 74.727 49.9392L64.0829 14.0542Z" fill="#A1887F" stroke="#8D6E63"/>
<path d="M14.5732 38.0843L36.1351 69.7288L32.056 70.374L9.3543 39.3288L14.5732 38.0843Z" fill="#5D4037"/>
<path d="M14.5732 38.0843L14.9945 37.818L14.792 37.5209L14.4417 37.6044L14.5732 38.0843ZM36.1351 69.7288L36.2278 70.2163L36.9881 70.0961L36.5564 69.4625L36.1351 69.7288ZM32.056 70.374L31.6445 70.6541L31.8328 70.9115L32.1487 70.8616L32.056 70.374ZM9.3543 39.3288L9.2228 38.8489L8.51113 39.0186L8.9428 39.6089L9.3543 39.3288ZM14.1519 38.3506L35.7139 69.995L36.5564 69.4625L14.9945 37.818L14.1519 38.3506ZM36.0425 69.2412L31.9634 69.8864L32.1487 70.8616L36.2278 70.2163L36.0425 69.2412ZM32.4675 70.0938L9.76579 39.0486L8.9428 39.6089L31.6445 70.6541L32.4675 70.0938ZM9.4858 39.8087L14.7047 38.5642L14.4417 37.6044L9.2228 38.8489L9.4858 39.8087Z" fill="#5D4037"/>
<path d="M14.573 38.0843L22.6708 35.8261L42.7127 68.2697L36.7343 69.9134L14.573 38.0843Z" fill="#A1887F" stroke="#8D6E63"/>
<path d="M8.34953 38.858L1.62139 29.6005C0.882387 28.5837 1.25478 27.185 2.39858 26.6815L29.4158 14.7886L58.893 0.661663V0.661663C59.9111 0.193545 61.1375 0.747701 61.4502 1.81708L64.7756 13.1909M8.34953 38.858L31.4765 70.6792M8.34953 38.858C9.97406 38.6197 11.9414 38.2551 14.1754 37.7529C16.66 37.1943 19.4744 36.4655 22.5138 35.5508C35.2231 31.7261 51.8657 24.6521 64.7756 13.1909M64.7756 13.1909L75.6677 50.4448M31.4765 70.6792L41.4967 84.4663C41.8117 84.8997 42.2873 85.201 42.8231 85.2773C47.3535 85.9226 54.5415 85.6742 61.8858 82.7785C68.3951 80.212 75.0271 75.5659 80.0404 67.619C80.3259 67.1663 80.3947 66.6126 80.2429 66.0934L75.6677 50.4448M31.4765 70.6792C32.8181 70.6784 34.5033 70.5617 36.4565 70.2901C38.4263 70.0163 40.6687 69.5848 43.106 68.9557C52.5392 66.5208 64.8929 61.1251 75.6677 50.4448" stroke="#342C26"/>
<path d="M18.4151 64.646L37.2041 89.7585C38.7341 91.8034 41.1809 93.0137 43.7853 93.0137L55.7004 93.0137M62.0108 91.3771C65.2613 90.6497 74.2863 86.3582 84.382 75.0112" stroke="#302318" stroke-width="2" stroke-linecap="round"/>
</svg>
