<svg width="168" height="113" viewBox="0 0 168 113" fill="none" xmlns="http://www.w3.org/2000/svg">
<path d="M38.0069 16.3576L11.5641 19.7016L13.8523 35.2437L40.2951 31.8996L38.0069 16.3576Z" fill="#EBEBEB"/>
<path d="M38.01 16.365C37.0802 17.4459 36.1264 18.4897 35.2046 19.5557C34.2828 20.6218 33.2969 21.6544 32.339 22.6945C31.3812 23.7345 30.3351 24.8563 29.3252 25.926L29.233 26.03C28.3433 26.9735 27.4482 27.9182 26.5478 28.8642L26.4155 28.9979L26.2512 28.9013C25.113 28.2141 23.9828 27.527 22.8486 26.8324C22.8068 26.8115 22.7666 26.7879 22.7284 26.7618C21.4459 25.978 20.1634 25.1906 18.8849 24.3882C17.6064 23.5859 16.4402 22.8579 15.2218 22.0816C14.0034 21.3053 12.7891 20.5178 11.5827 19.7043C12.8372 20.3729 14.0796 21.0824 15.322 21.7733C16.5644 22.4642 17.8108 23.1848 19.0532 23.9054C20.4319 24.7003 21.8106 25.5088 23.1893 26.3309C24.2233 26.9401 25.2559 27.5591 26.2873 28.1881C27.0888 27.3375 27.9184 26.4869 28.74 25.6474C29.8342 24.5331 30.9243 23.3965 32.0264 22.2822C33.0123 21.2916 34.0036 20.3011 35.0002 19.3106C36.0021 18.3114 36.9921 17.3196 38.01 16.365Z" fill="white"/>
<path d="M23.2649 26.68L23.2368 26.7097C23.1166 26.836 22.9924 26.966 22.8681 27.0811C22.283 27.6829 21.6658 28.2661 21.0566 28.8381C20.3031 29.5401 19.5256 30.2199 18.7401 30.8959C17.9546 31.5719 17.161 32.2219 16.3354 32.8645C15.5098 33.5071 14.6923 34.1423 13.8306 34.7218C14.5359 33.9789 15.2814 33.2583 16.0349 32.56C16.7883 31.8616 17.5698 31.1782 18.3514 30.5022C19.1329 29.8261 19.9545 29.1687 20.756 28.5261C21.4053 28.0135 22.0666 27.5046 22.7599 27.0217C22.9162 26.9066 23.0765 26.7988 23.2368 26.6874L23.2649 26.68Z" fill="white"/>
<path d="M40.1423 31.4159C39.1404 31.0445 38.1585 30.6731 37.1926 30.2385C36.2267 29.8039 35.2648 29.3767 34.311 28.9347C33.3571 28.4927 32.4153 28.0135 31.5055 27.5232C30.7481 27.1295 29.9946 26.7209 29.2612 26.2863L28.7883 26.0077L28.7562 25.9854H28.7963L29.3534 26.1934C30.1549 26.4869 30.9284 26.8137 31.7059 27.148C32.6798 27.5641 33.6337 28.0061 34.5835 28.4555C35.5334 28.905 36.4792 29.373 37.389 29.8633C38.2987 30.3536 39.2606 30.8662 40.1423 31.4159Z" fill="white"/>
<path d="M123.994 69.961L119.174 88.8288L151.275 95.8726L156.095 77.0048L123.994 69.961Z" fill="#EBEBEB"/>
<path d="M156.087 76.9959C154.484 77.8614 152.881 78.6711 151.302 79.518C149.723 80.3649 148.096 81.1524 146.493 81.9547C144.817 82.7942 143.142 83.6225 141.467 84.4397L141.31 84.5251L136.854 86.7018L136.637 86.7984L136.493 86.6201C135.51 85.3621 134.533 84.0992 133.563 82.8313C133.527 82.7905 133.491 82.7459 133.459 82.7013C132.353 81.2675 131.251 79.8338 130.161 78.3814C129.119 77.0034 128.081 75.6067 127.047 74.2101C126.013 72.8135 124.991 71.402 123.989 69.9682C125.115 71.2571 126.205 72.5869 127.311 73.8981C128.417 75.2093 129.508 76.5465 130.59 77.8911C131.795 79.3769 132.997 80.8775 134.197 82.393L136.89 85.7917C138.232 85.1491 139.587 84.4991 140.934 83.8714C142.732 83.022 144.534 82.1801 146.34 81.3455C147.943 80.6027 149.561 79.8684 151.194 79.1429C152.841 78.4148 154.46 77.6794 156.087 76.9959Z" fill="white"/>
<path d="M134.137 82.8202L134.089 82.8425L133.484 83.1285C132.518 83.5816 131.54 84.0051 130.55 84.4062C129.347 84.904 128.121 85.3683 126.895 85.8252C125.668 86.282 124.434 86.7055 123.184 87.1104C121.933 87.5152 120.683 87.9053 119.4 88.2247C120.578 87.6452 121.777 87.1326 122.983 86.6349C124.189 86.1372 125.416 85.6729 126.638 85.216C127.861 84.7591 129.103 84.332 130.353 83.9271C131.347 83.6002 132.357 83.2882 133.371 83.0133L134.081 82.8239L134.137 82.8202Z" fill="white"/>
<path d="M151.346 95.245C150.36 94.4204 149.422 93.5512 148.508 92.6709C147.595 91.7906 146.697 90.888 145.811 89.9779C144.925 89.0679 144.064 88.1393 143.23 87.1921C142.545 86.4232 141.871 85.6432 141.226 84.8371C141.085 84.6663 140.951 84.4954 140.825 84.3245C140.816 84.3103 140.805 84.2966 140.793 84.2837C140.806 84.2968 140.821 84.308 140.837 84.3171L141.379 84.7851C142.156 85.4537 142.897 86.152 143.635 86.8541C144.557 87.7344 145.442 88.6407 146.328 89.5508C147.214 90.4608 148.072 91.3894 148.909 92.3366C149.747 93.2838 150.576 94.2384 151.346 95.245Z" fill="white"/>
<path d="M16.7326 107.595L11.4743 107.699L8.80516 107.74C7.91143 107.759 7.01369 107.74 6.11995 107.759H5.94361V107.592L5.91956 103.435V103.25H6.11995L11.4263 103.272C13.1977 103.272 14.9651 103.313 16.7326 103.335H16.8448V103.435C16.8448 104.141 16.8087 104.843 16.7927 105.534L16.7326 107.595ZM16.7326 107.595L16.6764 105.493C16.6764 104.802 16.6324 104.119 16.6243 103.439L16.7326 103.539C14.9651 103.558 13.1977 103.599 11.4263 103.602L6.11995 103.625L6.32034 103.439V107.595L6.13999 107.428C7.01369 107.428 7.88738 107.428 8.76509 107.451L11.4022 107.491L16.7326 107.595Z" fill="#EBEBEB"/>
<path d="M10.813 112.837L5.55478 112.941L2.8856 112.981C1.99187 113 1.09412 112.981 0.200389 113H0.0240472V112.833L0 108.676V108.491H0.200389L5.50669 108.513C7.27412 108.513 9.04556 108.554 10.813 108.576H10.9252V108.676C10.9252 109.382 10.8931 110.084 10.8731 110.775L10.813 112.837ZM10.813 112.837L10.7569 110.734C10.7368 110.043 10.7128 109.36 10.7048 108.68L10.813 108.78C9.04556 108.799 7.27412 108.84 5.50669 108.844L0.200389 108.866L0.400778 108.68L0.380739 112.837L0.200389 112.669C1.07409 112.669 1.94778 112.669 2.82548 112.692L5.46261 112.733L10.813 112.837Z" fill="#EBEBEB"/>
<path d="M97.1208 60.9123L91.8626 61.0163L89.1934 61.0572C88.2997 61.0572 87.4019 61.0572 86.5082 61.0795H86.3318V60.9123L86.3078 56.7559V56.5702H86.5082L91.8145 56.5924C93.5859 56.5924 95.3533 56.637 97.1208 56.6556H97.233V56.7559C97.233 57.4616 97.1969 58.1636 97.1769 58.8582L97.1208 60.9123ZM97.1208 60.9123L97.0647 58.8137C97.0647 58.1191 97.0206 57.4356 97.0126 56.7559L97.1208 56.8562C95.3533 56.8784 93.5859 56.9156 91.8145 56.9193L86.5082 56.9416L86.7086 56.7559L86.6885 60.9123L86.5082 60.7489C87.3819 60.7489 88.2556 60.7489 89.1333 60.7675L91.7704 60.8083L97.1208 60.9123Z" fill="#EBEBEB"/>
<path d="M91.2012 66.1534L85.943 66.2575L83.2738 66.2983C82.3801 66.3169 81.4823 66.2983 80.5886 66.3206H80.4123V66.1534L80.3882 61.997V61.815H80.5886L85.8949 61.8373C87.6623 61.8373 89.4338 61.8818 91.2012 61.9004H91.3134V62.0007C91.3134 62.7064 91.2814 63.4085 91.2613 64.0994L91.2012 66.1534ZM91.2012 66.1534L91.1451 64.0548C91.1251 63.3602 91.101 62.6767 91.093 61.997L91.2012 62.0973C89.4338 62.1196 87.6623 62.1567 85.8949 62.1604L80.5886 62.1827L80.789 61.997V66.1534L80.6086 65.99C81.4823 65.99 82.356 65.99 83.2337 65.99L85.8709 66.0309L91.2012 66.1534Z" fill="#EBEBEB"/>
<path d="M85.3056 60.9123L80.0434 61.0163L77.3742 61.0572C76.4845 61.0572 75.5868 61.0572 74.693 61.0795H74.5127V60.9123V56.7559V56.5702H74.7131L80.0194 56.5924C81.7868 56.5924 83.5543 56.637 85.3257 56.6556H85.4299V56.7559C85.4299 57.4616 85.3938 58.1636 85.3778 58.8582L85.3056 60.9123ZM85.3056 60.9123L85.2495 58.8137C85.2295 58.1191 85.2014 57.4356 85.1934 56.7559L85.3056 56.8562C83.5342 56.8784 81.7668 56.9156 79.9993 56.9193L74.693 56.9416L74.8934 56.7559L74.8694 60.9123L74.693 60.7489C75.5667 60.7489 76.4364 60.7489 77.3141 60.7675L79.9513 60.8083L85.3056 60.9123Z" fill="#EBEBEB"/>
<path d="M167.453 112.837L162.191 112.941L159.521 112.981C158.632 113 157.734 112.981 156.84 113H156.66V112.833L156.64 108.676V108.491H156.84L162.147 108.513C163.914 108.513 165.685 108.554 167.453 108.576H167.561V108.676C167.561 109.382 167.529 110.084 167.509 110.775L167.453 112.837ZM167.453 112.837L167.397 110.734C167.397 110.043 167.349 109.36 167.345 108.68L167.453 108.78C165.685 108.799 163.914 108.84 162.147 108.844L156.84 108.866L157.041 108.68L157.017 112.837L156.84 112.669C157.714 112.669 158.588 112.669 159.461 112.692L162.098 112.733L167.453 112.837Z" fill="#EBEBEB"/>
<path d="M161.533 7.92573L156.271 8.02602L153.602 8.0706C152.712 8.0706 151.815 8.0706 150.921 8.0706H150.757V7.90716V3.75069V3.56125H150.961L156.267 3.58354C158.035 3.58354 159.802 3.6244 161.574 3.64297H161.682V3.74326C161.682 4.44529 161.646 5.14732 161.63 5.84193L161.533 7.92573ZM161.533 7.92573L161.477 5.82335C161.457 5.13247 161.429 4.44901 161.421 3.76926L161.533 3.86955C159.762 3.86955 157.995 3.92899 156.227 3.92899L150.921 3.95499L151.121 3.76926L151.097 7.92573L150.921 7.75858C151.795 7.75858 152.664 7.75858 153.542 7.77715L156.179 7.82173L161.533 7.92573Z" fill="#EBEBEB"/>
<path d="M167.453 13.1556L162.191 13.2559L159.521 13.3005C158.632 13.3005 157.734 13.3005 156.84 13.3005H156.66V13.1556L156.64 8.99918V8.80974H156.84L162.147 8.83203C163.914 8.83203 165.685 8.87289 167.453 8.89146H167.561V8.99175C167.561 9.69378 167.529 10.3958 167.509 11.0904L167.453 13.1556ZM167.453 13.1556L167.397 11.0533C167.397 10.3624 167.349 9.67892 167.345 8.99918L167.453 9.09947C165.685 9.09947 163.914 9.1589 162.147 9.1589L156.84 9.18118L157.041 8.99918L157.017 13.1556L156.84 12.9885C157.714 12.9885 158.588 12.9885 159.461 12.9885L162.098 13.0331L167.453 13.1556Z" fill="#EBEBEB"/>
<path d="M10.813 7.92573L5.55478 8.02602L2.86957 8.0706C1.97584 8.0706 1.07809 8.0706 0.184358 8.0706H0.0240472V7.90716L0 3.75069V3.56125H0.200389L5.50669 3.58354C7.27412 3.58354 9.04556 3.6244 10.813 3.64297H10.9252V3.74326C10.9252 4.44529 10.8931 5.14732 10.8731 5.84193L10.813 7.92573ZM10.813 7.92573L10.7569 5.82335C10.7368 5.13247 10.7128 4.44901 10.7048 3.76926L10.813 3.86955C9.04556 3.86955 7.27412 3.92899 5.50669 3.92899L0.200389 3.95499L0.400778 3.76926L0.380739 7.92573L0.200389 7.75858C1.07409 7.75858 1.94778 7.75858 2.82548 7.77715L5.46261 7.82173L10.813 7.92573Z" fill="#EBEBEB"/>
<path d="M149.258 35.149C151.037 36.1401 153.109 36.5839 155.177 36.4166C157.245 36.2494 159.203 35.4798 160.77 34.218C162.337 32.9562 163.433 31.2671 163.901 29.3926C164.368 27.5181 164.184 25.5545 163.374 23.7832C162.563 22.0119 161.169 20.5237 159.39 19.5319C157.611 18.5402 155.539 18.0957 153.471 18.2623C151.403 18.4288 149.445 19.1978 147.878 20.4591C146.31 21.7203 145.213 23.4091 144.745 25.2834C144.265 27.1589 144.444 29.1273 145.256 30.9019C146.068 32.6764 147.47 34.1644 149.258 35.149Z" fill="#EBEBEB"/>
<path d="M151.321 26.3308C151.328 26.8797 151.51 27.4145 151.844 27.8676C152.178 28.3206 152.65 28.6716 153.2 28.876C153.75 29.0804 154.352 29.1291 154.932 29.016C155.512 28.9029 156.042 28.633 156.456 28.2404C156.87 27.8479 157.149 27.3504 157.258 26.8108C157.367 26.2712 157.3 25.7138 157.067 25.2092C156.834 24.7045 156.445 24.2753 155.949 23.9757C155.452 23.6762 154.871 23.5198 154.279 23.5264C153.486 23.5352 152.729 23.8355 152.174 24.3614C151.62 24.8872 151.313 25.5955 151.321 26.3308Z" fill="white"/>
<path d="M149.242 34.0048V35.1489C150.807 36.0221 152.603 36.4736 154.43 36.4526C156.257 36.4316 158.041 35.9389 159.582 35.03V33.8897C159.532 32.6396 158.957 31.4571 157.979 30.5946C157.001 29.732 155.699 29.2576 154.349 29.2726C153 29.2877 151.71 29.7909 150.755 30.675C149.8 31.5591 149.255 32.754 149.238 34.0048H149.242Z" fill="white"/>
<path d="M7.1783 72.3862C8.39118 73.0636 9.78381 73.4141 11.1998 73.3983C12.6157 73.3826 13.9989 73.0012 15.1939 72.2971C16.5916 71.4735 17.6614 70.25 18.2413 68.8121C18.8211 67.3743 18.8793 65.8003 18.4071 64.329C17.9348 62.8577 16.9578 61.5692 15.6242 60.6589C14.2906 59.7486 12.6732 59.266 11.017 59.2844C9.36088 59.3029 7.75637 59.8212 6.44674 60.761C5.13711 61.7007 4.19377 63.0105 3.75973 64.4919C3.32569 65.9733 3.42463 67.5455 4.04153 68.9701C4.65844 70.3947 5.75968 71.594 7.1783 72.3862Z" fill="#EBEBEB"/>
<path d="M8.77725 65.5629C8.78283 65.9875 8.92413 66.401 9.18328 66.7511C9.44242 67.1013 9.80778 67.3724 10.2332 67.5301C10.6585 67.6878 11.1248 67.7251 11.573 67.6372C12.0212 67.5493 12.4313 67.3402 12.7513 67.0364C13.0713 66.7325 13.2869 66.3475 13.3709 65.9301C13.4548 65.5127 13.4033 65.0815 13.2229 64.6912C13.0425 64.3009 12.7412 63.969 12.3572 63.7374C11.9733 63.5057 11.5238 63.3848 11.0657 63.3899C10.7615 63.3933 10.461 63.4522 10.1813 63.5633C9.90166 63.6743 9.64836 63.8353 9.43585 64.0371C9.22334 64.2389 9.05581 64.4775 8.9428 64.7393C8.8298 65.0011 8.77354 65.2809 8.77725 65.5629Z" fill="white"/>
<path d="M7.16953 71.5023V72.3863C8.3824 73.0637 9.77504 73.4141 11.191 73.3984C12.6069 73.3826 13.9901 73.0013 15.1851 72.2972V71.4131C15.1723 70.428 14.7379 69.4879 13.9772 68.7997C13.2166 68.1114 12.1921 67.7314 11.1292 67.7432C10.0663 67.7551 9.05195 68.1577 8.30937 68.8627C7.56678 69.5676 7.15677 70.5171 7.16953 71.5023Z" fill="white"/>
<path d="M49.8246 7.98148C50.5619 8.394 51.4088 8.60737 52.2699 8.59752C53.1311 8.58768 53.9721 8.35501 54.6981 7.92577C55.5499 7.42456 56.202 6.67953 56.5556 5.80373C56.9092 4.92792 56.945 3.96912 56.6574 3.07279C56.3698 2.17646 55.7747 1.39151 54.9623 0.837032C54.1498 0.28255 53.1644 -0.0112071 52.1555 0.000327132C51.1466 0.0118614 50.1693 0.328058 49.3719 0.900945C48.5744 1.47383 48.0004 2.27215 47.7368 3.17478C47.4732 4.07741 47.5344 5.0351 47.9112 5.90256C48.288 6.77001 48.9598 7.4999 49.8246 7.98148Z" fill="#EBEBEB"/>
<path d="M50.7983 3.82496C50.8015 4.08353 50.8873 4.33542 51.045 4.54877C51.2026 4.76213 51.425 4.92737 51.684 5.0236C51.9429 5.11983 52.2269 5.14272 52.4999 5.08939C52.7729 5.03606 53.0227 4.9089 53.2178 4.72398C53.4128 4.53907 53.5443 4.3047 53.5956 4.05053C53.6469 3.79635 53.6158 3.53378 53.5061 3.29601C53.3964 3.05824 53.2131 2.85595 52.9794 2.71473C52.7457 2.57351 52.472 2.49969 52.193 2.50261C51.8192 2.50751 51.4626 2.64934 51.2013 2.89712C50.94 3.1449 50.7951 3.47847 50.7983 3.82496Z" fill="white"/>
<path d="M49.8169 7.44291V7.98151C50.5541 8.39402 51.4011 8.60739 52.2622 8.59755C53.1233 8.5877 53.9643 8.35503 54.6903 7.92579V7.3872C54.6824 6.78824 54.418 6.21674 53.9554 5.79844C53.4928 5.38013 52.8698 5.14928 52.2236 5.15667C51.5773 5.16406 50.9607 5.40908 50.5093 5.83783C50.058 6.26659 49.8089 6.84395 49.8169 7.44291Z" fill="white"/>
</svg>
