<svg width="58" height="69" viewBox="0 0 58 69" fill="none" xmlns="http://www.w3.org/2000/svg">
<path d="M53.0818 1.6994C52.9411 1.43559 52.8723 1.14384 52.8816 0.849695C52.8731 0.555624 52.9418 0.264053 53.0818 0C53.2202 0.264532 53.2888 0.555763 53.2819 0.849695C53.2873 1.14349 53.2187 1.43441 53.0818 1.6994Z" fill="#263238"/>
<path d="M51.4243 2.35987C51.1205 2.26452 50.8459 2.1029 50.6236 1.88864C50.3939 1.6822 50.2209 1.42772 50.1192 1.14655C50.4152 1.24919 50.6839 1.40968 50.907 1.61712C51.1301 1.82456 51.3025 2.07409 51.4123 2.34874L51.4243 2.35987Z" fill="#263238"/>
<path d="M50.7602 3.91096C50.4725 4.0333 50.1598 4.09663 49.8434 4.09663C49.5269 4.09663 49.2142 4.0333 48.9266 3.91096C49.2113 3.78086 49.526 3.71718 49.8434 3.72544C50.1605 3.71908 50.4747 3.78266 50.7602 3.91096Z" fill="#263238"/>
<path d="M51.4731 5.44326C51.3617 5.71829 51.1879 5.96795 50.9634 6.17535C50.739 6.38276 50.469 6.54307 50.172 6.64545C50.2833 6.37042 50.4571 6.12076 50.6816 5.91336C50.9061 5.70596 51.176 5.54565 51.4731 5.44326Z" fill="#263238"/>
<path d="M53.1458 6.05924C53.2835 6.32521 53.3508 6.61777 53.342 6.91265C53.3504 7.20672 53.2817 7.49829 53.1418 7.76235C53.0057 7.4971 52.9372 7.20636 52.9417 6.91265C52.9362 6.61724 53.0061 6.32482 53.1458 6.05924Z" fill="#263238"/>
<path d="M54.788 5.40245C55.084 5.50509 55.3527 5.66558 55.5758 5.87302C55.7989 6.08046 55.9713 6.32999 56.0811 6.60464C55.7851 6.50201 55.5164 6.34151 55.2933 6.13407C55.0701 5.92663 54.8978 5.67711 54.788 5.40245Z" fill="#263238"/>
<path d="M55.4644 3.8515C55.752 3.72916 56.0648 3.66583 56.3812 3.66583C56.6977 3.66583 57.0104 3.72916 57.298 3.8515C57.0133 3.9816 56.6986 4.04528 56.3812 4.03703C56.0643 4.04159 55.7505 3.97809 55.4644 3.8515Z" fill="#263238"/>
<path d="M54.7518 2.31161C54.8558 2.03056 55.03 1.77628 55.2602 1.56951C55.4825 1.35525 55.7572 1.19364 56.0609 1.09828C55.9495 1.37331 55.7757 1.62297 55.5513 1.83038C55.3268 2.03778 55.0569 2.19809 54.7598 2.30048L54.7518 2.31161Z" fill="#263238"/>
<path d="M4.15591 38.203C4.01686 37.9373 3.94824 37.6448 3.95574 37.3496C3.95125 37.0559 4.01974 36.7651 4.15591 36.4999C4.2963 36.7651 4.365 37.058 4.35608 37.3533C4.36057 37.647 4.29208 37.9377 4.15591 38.203Z" fill="#263238"/>
<path d="M2.50245 38.8599C2.20544 38.7581 1.93572 38.598 1.71181 38.3905C1.4879 38.1829 1.31512 37.933 1.20532 37.6577C1.50141 37.7609 1.7703 37.9216 1.994 38.1289C2.2177 38.3362 2.39104 38.5855 2.50245 38.8599Z" fill="#263238"/>
<path d="M1.8336 40.4108C1.54818 40.5391 1.23395 40.6027 0.916802 40.5963C0.59985 40.6009 0.286057 40.5374 0 40.4108C0.284905 40.2811 0.599509 40.2174 0.916802 40.2253C1.2338 40.2203 1.54768 40.2838 1.8336 40.4108Z" fill="#263238"/>
<path d="M2.54644 41.9432C2.43503 42.2176 2.26169 42.4668 2.03799 42.6741C1.81429 42.8814 1.5454 43.0421 1.24931 43.1453C1.36072 42.8709 1.53407 42.6217 1.75776 42.4144C1.98146 42.2071 2.25035 42.0464 2.54644 41.9432Z" fill="#263238"/>
<path d="M4.21972 42.5628C4.35672 42.8278 4.42525 43.1187 4.41989 43.4125C4.42551 43.7067 4.35552 43.998 4.21571 44.2622C4.07867 43.9973 4.01144 43.7061 4.01954 43.4125C4.01031 43.1183 4.07904 42.8266 4.21972 42.5628Z" fill="#263238"/>
<path d="M5.87314 41.9023C6.16923 42.0056 6.43812 42.1663 6.66182 42.3736C6.88551 42.5809 7.05886 42.8301 7.17027 43.1045C6.86649 43.0092 6.59188 42.8476 6.36957 42.6333C6.14516 42.4286 5.97521 42.1784 5.87314 41.9023Z" fill="#263238"/>
<path d="M6.53788 40.3514C6.82534 40.2248 7.14044 40.1613 7.45868 40.1659C7.77615 40.1607 8.0904 40.2255 8.37548 40.3551C8.08851 40.4827 7.77284 40.545 7.45468 40.5369C7.13739 40.5447 6.82278 40.4811 6.53788 40.3514Z" fill="#263238"/>
<path d="M5.82915 38.8189C5.93894 38.5437 6.11173 38.2937 6.33563 38.0862C6.55954 37.8786 6.82927 37.7185 7.12628 37.6167C7.02339 37.8983 6.84901 38.1528 6.61783 38.3588C6.397 38.5668 6.12699 38.7243 5.82915 38.8189Z" fill="#263238"/>
<path d="M45.9801 65.872C45.9155 65.8153 45.8643 65.7468 45.8298 65.6708C45.7953 65.5948 45.7784 65.5129 45.7799 65.4305C45.7784 65.3486 45.7955 65.2673 45.8299 65.1919C45.8644 65.1165 45.9156 65.0486 45.9801 64.9926C46.0431 65.0497 46.0932 65.1178 46.1276 65.1929C46.162 65.2681 46.1799 65.3488 46.1803 65.4305C46.1799 65.5127 46.1621 65.594 46.1277 65.6698C46.0934 65.7456 46.0432 65.8143 45.9801 65.872Z" fill="#263238"/>
<path d="M45.1151 66.2096C45.0268 66.2113 44.939 66.1965 44.8571 66.1658C44.7753 66.1352 44.7009 66.0895 44.6386 66.0315C44.5766 65.9734 44.5277 65.9045 44.4947 65.8287C44.4617 65.7528 44.4453 65.6717 44.4465 65.59C44.5348 65.588 44.6226 65.6028 44.7045 65.6334C44.7864 65.6641 44.8607 65.7099 44.9229 65.7681C44.9855 65.8258 45.0348 65.8947 45.0678 65.9706C45.1009 66.0465 45.1169 66.1278 45.1151 66.2096Z" fill="#263238"/>
<path d="M44.7793 67.0112C44.7181 67.07 44.6447 67.1167 44.5635 67.1487C44.4823 67.1806 44.3951 67.1971 44.3069 67.1971C44.2187 67.1971 44.1314 67.1806 44.0503 67.1487C43.9691 67.1167 43.8957 67.07 43.8345 67.0112C43.8949 66.9514 43.9681 66.904 44.0495 66.872C44.1308 66.8401 44.2185 66.8243 44.3069 66.8256C44.395 66.8256 44.4823 66.842 44.5635 66.8739C44.6446 66.9057 44.718 66.9524 44.7793 67.0112Z" fill="#263238"/>
<path d="M45.1397 67.8015C45.1409 67.8832 45.1245 67.9644 45.0915 68.0402C45.0585 68.116 45.0096 68.1849 44.9476 68.243C44.8858 68.3019 44.8116 68.3484 44.7296 68.3797C44.6477 68.4109 44.5597 68.4263 44.4711 68.4248C44.4686 68.3429 44.4843 68.2614 44.5174 68.1854C44.5504 68.1094 44.6001 68.0406 44.6633 67.9833C44.7251 67.9244 44.7992 67.8779 44.8812 67.8467C44.9631 67.8154 45.0511 67.8 45.1397 67.8015Z" fill="#263238"/>
<path d="M46.0035 68.1206C46.0666 68.1783 46.1168 68.247 46.1511 68.3228C46.1855 68.3986 46.2033 68.4799 46.2037 68.5621C46.2033 68.6437 46.1854 68.7245 46.151 68.7997C46.1166 68.8748 46.0665 68.9429 46.0035 69C45.9394 68.9437 45.8885 68.8758 45.854 68.8004C45.8196 68.7251 45.8023 68.6439 45.8033 68.5621C45.8027 68.4798 45.8201 68.3982 45.8545 68.3223C45.889 68.2464 45.9396 68.1778 46.0035 68.1206Z" fill="#263238"/>
<path d="M46.8571 67.7829C46.9454 67.7809 47.0332 67.7957 47.1152 67.8263C47.1971 67.857 47.2714 67.9028 47.3335 67.961C47.3971 68.018 47.447 68.0868 47.4802 68.1629C47.5133 68.2389 47.5288 68.3206 47.5257 68.4025C47.4375 68.4036 47.35 68.3884 47.2682 68.3579C47.1864 68.3273 47.112 68.2819 47.0493 68.2244C46.9874 68.1662 46.9386 68.0972 46.9056 68.0214C46.8726 67.9456 46.8561 67.8646 46.8571 67.7829Z" fill="#263238"/>
<path d="M47.2012 66.9814C47.2623 66.9225 47.3357 66.8757 47.4169 66.8438C47.4981 66.8119 47.5854 66.7956 47.6736 66.7959C47.713 66.7601 47.7629 66.7359 47.8171 66.7263C47.8714 66.7167 47.9274 66.7222 47.9783 66.742C48.0291 66.7618 48.0726 66.7951 48.1031 66.8377C48.1337 66.8803 48.15 66.9303 48.15 66.9814C48.15 67.0326 48.1337 67.0826 48.1031 67.1252C48.0726 67.1678 48.0291 67.2011 47.9783 67.2209C47.9274 67.2407 47.8714 67.2461 47.8171 67.2365C47.7629 67.227 47.713 67.2027 47.6736 67.167C47.4959 67.1654 47.326 67.0987 47.2012 66.9814Z" fill="#263238"/>
<path d="M46.8332 66.1911C46.6787 66.1904 46.5292 66.1401 46.4102 66.0488C46.2911 65.9575 46.2099 65.8308 46.1803 65.6902C46.1507 65.5497 46.1745 65.404 46.2477 65.2778C46.3209 65.1517 46.439 65.053 46.5819 64.9985C46.7248 64.944 46.8836 64.937 47.0314 64.9788C47.1792 65.0205 47.3069 65.1084 47.3926 65.2276C47.4784 65.3467 47.517 65.4897 47.5018 65.6322C47.4867 65.7747 47.4188 65.908 47.3096 66.0093C47.2478 66.0682 47.1736 66.1147 47.0917 66.1459C47.0098 66.1772 46.9218 66.1926 46.8332 66.1911Z" fill="#263238"/>
</svg>
