<svg width="16" height="16" viewBox="0 0 16 16" fill="none" xmlns="http://www.w3.org/2000/svg">
<path d="M6 10L10 6" stroke="#3C3C3C" stroke-width="2" stroke-linecap="round" stroke-linejoin="round"/>
<path d="M6.33333 6.66667C6.51743 6.66667 6.66667 6.51743 6.66667 6.33333C6.66667 6.14924 6.51743 6 6.33333 6C6.14924 6 6 6.14924 6 6.33333C6 6.51743 6.14924 6.66667 6.33333 6.66667Z" fill="#3C3C3C" stroke="#3C3C3C" stroke-width="2" stroke-linecap="round" stroke-linejoin="round"/>
<path d="M9.66732 9.99967C9.85141 9.99967 10.0007 9.85044 10.0007 9.66634C10.0007 9.48225 9.85141 9.33301 9.66732 9.33301C9.48322 9.33301 9.33398 9.48225 9.33398 9.66634C9.33398 9.85044 9.48322 9.99967 9.66732 9.99967Z" fill="#3C3C3C" stroke="#3C3C3C" stroke-width="2" stroke-linecap="round" stroke-linejoin="round"/>
<path d="M3.33364 4.79982C3.33364 4.41083 3.48816 4.03778 3.76322 3.76273C4.03827 3.48768 4.41132 3.33315 4.80031 3.33315H5.46697C5.85424 3.33293 6.2257 3.17955 6.50031 2.90649L6.96697 2.43982C7.10327 2.30275 7.26532 2.19398 7.4438 2.11976C7.62228 2.04553 7.81368 2.00732 8.00697 2.00732C8.20027 2.00732 8.39166 2.04553 8.57015 2.11976C8.74863 2.19398 8.91068 2.30275 9.04697 2.43982L9.51364 2.90649C9.78825 3.17955 10.1597 3.33293 10.547 3.33315H11.2136C11.6026 3.33315 11.9757 3.48768 12.2507 3.76273C12.5258 4.03778 12.6803 4.41083 12.6803 4.79982V5.46649C12.6805 5.85375 12.8339 6.22521 13.107 6.49982L13.5736 6.96649C13.7107 7.10278 13.8195 7.26483 13.8937 7.44331C13.9679 7.62179 14.0061 7.81319 14.0061 8.00649C14.0061 8.19978 13.9679 8.39118 13.8937 8.56966C13.8195 8.74814 13.7107 8.91019 13.5736 9.04649L13.107 9.51315C12.8339 9.78776 12.6805 10.1592 12.6803 10.5465V11.2132C12.6803 11.6021 12.5258 11.9752 12.2507 12.2502C11.9757 12.5253 11.6026 12.6798 11.2136 12.6798H10.547C10.1597 12.68 9.78825 12.8334 9.51364 13.1065L9.04697 13.5732C8.91068 13.7102 8.74863 13.819 8.57015 13.8932C8.39166 13.9674 8.20027 14.0056 8.00697 14.0056C7.81368 14.0056 7.62228 13.9674 7.4438 13.8932C7.26532 13.819 7.10327 13.7102 6.96697 13.5732L6.50031 13.1065C6.2257 12.8334 5.85424 12.68 5.46697 12.6798H4.80031C4.41132 12.6798 4.03827 12.5253 3.76322 12.2502C3.48816 11.9752 3.33364 11.6021 3.33364 11.2132V10.5465C3.33342 10.1592 3.18004 9.78776 2.90697 9.51315L2.44031 9.04649C2.30324 8.91019 2.19447 8.74814 2.12025 8.56966C2.04602 8.39118 2.00781 8.19978 2.00781 8.00649C2.00781 7.81319 2.04602 7.62179 2.12025 7.44331C2.19447 7.26483 2.30324 7.10278 2.44031 6.96649L2.90697 6.49982C3.18004 6.22521 3.33342 5.85375 3.33364 5.46649V4.79982" stroke="#3C3C3C" stroke-width="2" stroke-linecap="round" stroke-linejoin="round"/>
</svg>
