<svg width="230" height="222" viewBox="0 0 230 222" fill="none" xmlns="http://www.w3.org/2000/svg">
<ellipse cx="125.199" cy="111.181" rx="104.564" ry="99.8788" fill="#F4E4D6"/>
<path d="M198.249 118.621C198.249 155.247 168.19 184.988 131.048 184.988C93.905 184.988 63.8466 155.247 63.8466 118.621C63.8466 81.9959 93.905 52.254 131.048 52.254C168.19 52.254 198.249 81.9959 198.249 118.621Z" fill="#795548" stroke="#302318" stroke-width="5"/>
<path d="M195.32 113.037C197.583 153.056 168.639 182.373 130.142 182.373C100.722 179.581 91.6693 168.412 88.9535 166.551L195.32 113.037Z" fill="#5D4037"/>
<path d="M143.433 44.1671C145.092 44.1671 146.437 42.8224 146.437 41.1636V29.4877C146.437 27.8289 145.092 26.4842 143.433 26.4842H116.399C114.74 26.4842 113.395 27.8289 113.395 29.4877V41.1636C113.395 42.8224 114.74 44.1671 116.399 44.1671H129.69H138.063H143.433Z" fill="#382621"/>
<path d="M173.141 58.5926L183.017 64.6091C184.345 65.4181 186.071 65.0799 186.995 63.8296L192.146 56.8609C193.144 55.5111 192.842 53.6054 191.475 52.6305L174.277 40.3615C172.908 39.3849 171.004 39.7224 170.054 41.1101L164.811 48.7702C163.901 50.0987 164.201 51.908 165.491 52.872L173.141 58.5926Z" fill="#382621"/>
<path d="M170.426 62.7806L173.141 58.5926M173.141 58.5926L183.017 64.6091C184.345 65.4181 186.071 65.0799 186.995 63.8296L192.146 56.8609C193.144 55.5111 192.842 53.6054 191.475 52.6305L174.277 40.3615C172.908 39.3849 171.004 39.7224 170.054 41.1101L164.811 48.7702C163.901 50.0987 164.201 51.908 165.491 52.872L173.141 58.5926ZM129.69 51.1472V44.1671M129.69 44.1671H116.399C114.74 44.1671 113.395 42.8224 113.395 41.1636V29.4877C113.395 27.8289 114.74 26.4842 116.399 26.4842H143.433C145.092 26.4842 146.437 27.8289 146.437 29.4877V41.1636C146.437 42.8224 145.092 44.1671 143.433 44.1671H138.063H129.69ZM61.3438 85.1169H33.7338M52.7439 101.869H21.513M50.4808 119.552H2.50287M52.7439 139.096H24.2287" stroke="#302318" stroke-width="5" stroke-linecap="round"/>
<path d="M64.7578 151.849C70.802 160.452 73.2197 166.597 87.7257 177.044M93.7698 182.575C114.924 195.48 172.586 202.486 200.147 146.932" stroke="#302318" stroke-width="3" stroke-linecap="round"/>
<mask id="path-7-inside-1_16_1711" fill="white">
<path d="M179.026 119.087C179.026 145.558 157.545 167.016 131.048 167.016C104.55 167.016 83.0698 145.558 83.0698 119.087C83.0698 92.6156 104.55 71.1567 131.048 71.1567C157.545 71.1567 179.026 92.6156 179.026 119.087Z"/>
</mask>
<path d="M179.026 119.087C179.026 145.558 157.545 167.016 131.048 167.016C104.55 167.016 83.0698 145.558 83.0698 119.087C83.0698 92.6156 104.55 71.1567 131.048 71.1567C157.545 71.1567 179.026 92.6156 179.026 119.087Z" fill="#FEFEFE"/>
<path d="M127.187 85.5822C127.187 86.9645 128.308 88.0851 129.69 88.0851C131.072 88.0851 132.193 86.9645 132.193 85.5822H127.187ZM155.236 92.0429C154.178 92.9327 154.042 94.5116 154.932 95.5694C155.822 96.6273 157.401 96.7635 158.458 95.8737L155.236 92.0429ZM164.542 118.91C163.16 118.91 162.039 120.031 162.039 121.413C162.039 122.796 163.16 123.916 164.542 123.916V118.91ZM155.704 143.199C154.629 142.33 153.053 142.497 152.185 143.573C151.316 144.648 151.483 146.224 152.559 147.093L155.704 143.199ZM132.193 150.264C132.193 148.882 131.072 147.761 129.69 147.761C128.308 147.761 127.187 148.882 127.187 150.264H132.193ZM106.137 148.752C107.101 147.761 107.079 146.177 106.088 145.213C105.097 144.249 103.513 144.271 102.549 145.262L106.137 148.752ZM98.0064 123.916C99.3887 123.916 100.509 122.796 100.509 121.413C100.509 120.031 99.3887 118.91 98.0064 118.91V123.916ZM101.605 96.0463C102.758 96.8085 104.311 96.4915 105.073 95.3383C105.835 94.1851 105.518 92.6324 104.365 91.8703L101.605 96.0463ZM132.193 106.988C132.193 105.605 131.072 104.485 129.69 104.485C128.308 104.485 127.187 105.605 127.187 106.988H132.193ZM129.69 121.413V123.916C131.072 123.916 132.193 122.796 132.193 121.413H129.69ZM118.374 118.91C116.992 118.91 115.872 120.031 115.872 121.413C115.872 122.796 116.992 123.916 118.374 123.916V118.91ZM127.187 74.4141V85.5822H132.193V74.4141H127.187ZM160.215 87.8549L155.236 92.0429L158.458 95.8737L163.437 91.6856L160.215 87.8549ZM174.952 118.91H164.542V123.916H174.952V118.91ZM162.041 148.317L155.704 143.199L152.559 147.093L158.895 152.211L162.041 148.317ZM132.193 162.828V150.264H127.187V162.828H132.193ZM102.969 152.009L106.137 148.752L102.549 145.262L99.3806 148.519L102.969 152.009ZM87.1434 123.916H98.0064V118.91H87.1434V123.916ZM95.2685 91.8583L101.605 96.0463L104.365 91.8703L98.0285 87.6822L95.2685 91.8583ZM127.187 106.988V121.413H132.193V106.988H127.187ZM129.69 118.91H118.374V123.916H129.69V118.91ZM174.02 119.087C174.02 142.788 154.785 162.011 131.048 162.011V172.022C160.305 172.022 184.031 148.327 184.031 119.087H174.02ZM131.048 162.011C107.31 162.011 88.0756 142.788 88.0756 119.087H78.0641C78.0641 148.327 101.79 172.022 131.048 172.022V162.011ZM88.0756 119.087C88.0756 95.385 107.31 76.1624 131.048 76.1624V66.151C101.79 66.151 78.0641 89.8463 78.0641 119.087H88.0756ZM131.048 76.1624C154.785 76.1624 174.02 95.385 174.02 119.087H184.031C184.031 89.8463 160.305 66.151 131.048 66.151V76.1624Z" fill="#302318" mask="url(#path-7-inside-1_16_1711)"/>
<path d="M82.9945 38.7541C82.9945 40.7197 81.3407 42.3421 79.2642 42.3421C77.1877 42.3421 75.5339 40.7197 75.5339 38.7541C75.5339 36.7885 77.1877 35.166 79.2642 35.166C81.3407 35.166 82.9945 36.7885 82.9945 38.7541Z" stroke="#302318"/>
<path d="M207.503 30.5769C207.503 32.5425 205.85 34.1649 203.773 34.1649C201.697 34.1649 200.043 32.5425 200.043 30.5769C200.043 28.6112 201.697 26.9888 203.773 26.9888C205.85 26.9888 207.503 28.6112 207.503 30.5769Z" stroke="#302318"/>
<path d="M190.58 189.448C190.58 191.414 188.926 193.036 186.849 193.036C184.773 193.036 183.119 191.414 183.119 189.448C183.119 187.483 184.773 185.86 186.849 185.86C188.926 185.86 190.58 187.483 190.58 189.448Z" stroke="#302318"/>
<path d="M55.1913 170.758C55.1913 172.078 54.0787 173.177 52.6698 173.177C51.2609 173.177 50.1483 172.078 50.1483 170.758C50.1483 169.437 51.2609 168.338 52.6698 168.338C54.0787 168.338 55.1913 169.437 55.1913 170.758Z" stroke="#302318"/>
<path d="M216.466 108.26L218.784 107.14C220.203 106.455 221.909 106.982 222.695 108.348L222.869 108.651C223.679 110.06 225.462 110.569 226.894 109.801L229.763 108.26" stroke="#302318"/>
<path d="M87.5738 221.589L88.4252 219.33C88.9838 217.848 90.6512 217.055 92.2097 217.53L92.4485 217.603C94.0561 218.094 95.7686 217.234 96.2756 215.682L97.2315 212.756" stroke="#302318"/>
<path d="M125.048 8.98177L125.9 6.72281C126.458 5.24045 128.126 4.44744 129.684 4.92292L129.923 4.99579C131.531 5.48627 133.243 4.62665 133.75 3.07467L134.706 0.148946" stroke="#302318"/>
<path d="M22.8511 49.1039L25.1661 49.9446C26.7004 50.5019 27.5101 52.1284 27.0014 53.6317L26.9283 53.8478C26.4036 55.3985 27.2821 57.0697 28.889 57.5774L31.8923 58.5264" stroke="#302318"/>
</svg>
