<svg width="60" height="131" viewBox="0 0 60 131" fill="none" xmlns="http://www.w3.org/2000/svg">
<path d="M49.3137 130.656C48.4102 130.924 22.7073 130.615 21.7356 130.027C21.3622 129.811 21.1935 126.335 21.1172 122.133V122C21.1172 121.136 21.0891 120.243 21.0851 119.339C21.0851 119.216 21.0851 119.089 21.0851 118.966L22.3339 106.607L39.528 106.767L37.8295 119.011V119.495L37.7251 122.029V122.29C37.7251 122.29 47.5067 126.488 48.5026 127.236C49.4984 127.984 50.2131 130.388 49.3137 130.656Z" fill="#EB9481"/>
<path d="M49.3137 130.656C48.4102 130.924 22.7073 130.615 21.7356 130.027C21.3622 129.811 21.1935 126.335 21.1172 122.133V121.999C21.1172 121.136 21.0891 120.243 21.0851 119.339C21.0851 119.216 21.0851 119.089 21.0851 118.966L37.8295 119.011V119.495L37.7251 122.029V122.29C37.7251 122.29 47.5067 126.488 48.5026 127.236C49.4984 127.984 50.2131 130.388 49.3137 130.656Z" fill="#EBEBEB"/>
<path d="M49.3137 130.652C48.8519 130.793 41.8691 130.779 35.0428 130.652C33.6695 130.626 32.3043 130.6 31.0033 130.566C26.1366 130.444 22.1131 130.258 21.7397 130.031C21.3662 129.804 21.2016 126.436 21.1253 122.312C21.1253 122.253 21.1253 122.193 21.1253 122.137C21.1253 122.081 21.1253 122.044 21.1253 122.003L37.693 122.029V122.293C37.693 122.293 47.4747 126.488 48.4665 127.239C49.4583 127.991 50.2172 130.388 49.3137 130.652Z" fill="#5D4037"/>
<path d="M49.0363 129.729C44.7036 129.577 27.2163 129.357 22.9359 129.506C22.8997 129.506 22.8997 129.528 22.9359 129.528C27.2284 129.766 44.7157 129.863 49.0363 129.792C49.1447 129.792 49.1447 129.729 49.0363 129.729Z" fill="#263238"/>
<path d="M39.5483 122.096C37.8498 121.78 35.7577 121.996 34.4407 123.109C34.3885 123.149 34.4407 123.216 34.513 123.202C36.149 122.734 37.8344 122.429 39.5403 122.293C39.5652 122.29 39.588 122.279 39.6048 122.261C39.6216 122.244 39.6313 122.221 39.6323 122.198C39.6332 122.175 39.6254 122.152 39.6101 122.133C39.5947 122.115 39.5729 122.102 39.5483 122.096Z" fill="#263238"/>
<path d="M40.769 122.796C39.0705 122.48 36.9824 122.699 35.6614 123.808C35.6092 123.853 35.6614 123.92 35.7336 123.905C37.3697 123.439 39.0553 123.138 40.761 123.008C40.7913 123.009 40.8209 122.999 40.8431 122.98C40.8653 122.96 40.8784 122.934 40.8794 122.906C40.8805 122.877 40.8695 122.85 40.8488 122.83C40.8281 122.809 40.7994 122.797 40.769 122.796Z" fill="#263238"/>
<path d="M41.9899 123.499C40.2914 123.183 38.2034 123.402 36.8823 124.511C36.8341 124.556 36.8823 124.619 36.9545 124.605C38.5908 124.138 40.2761 123.835 41.9819 123.7C42.0106 123.701 42.0386 123.692 42.0597 123.673C42.0808 123.655 42.0933 123.63 42.0943 123.603C42.0954 123.577 42.085 123.551 42.0654 123.531C42.0458 123.512 42.0187 123.5 41.9899 123.499Z" fill="#263238"/>
<path d="M35.0428 130.648C33.6695 130.622 32.3043 130.596 31.0033 130.563C26.1366 130.44 22.1131 130.254 21.7397 130.027C21.3662 129.8 21.2016 126.432 21.1253 122.308C21.1253 122.249 21.1253 122.189 21.1253 122.133C21.1253 122.078 21.1253 122.04 21.1253 121.999C23.4061 123.473 31.4048 128.408 35.0428 130.648Z" fill="#263238"/>
<path d="M38.8337 122.081H20.3185C20.3185 122.081 24.0488 82.0076 23.9003 81.3266C23.7156 80.4297 22.6234 76.3732 21.1698 71.0737C20.712 69.4176 20.2221 67.6387 19.7081 65.7928C18.3308 60.8097 16.809 55.3725 15.4839 50.6201C13.4762 43.5156 11.9382 37.9965 11.9382 37.9965H27.6306C27.6306 37.9965 29.4697 43.3667 31.7625 50.3409C35.517 61.6991 40.5363 77.3371 41.0302 81.1368C41.8333 87.2811 38.8337 122.081 38.8337 122.081Z" fill="#37474F"/>
<path d="M38.0104 119.153C35.1996 119.1 36.0027 119.078 33.1678 119.052C31.7865 119.052 22.6915 118.966 21.3985 119.167C21.3911 119.167 21.3839 119.17 21.3786 119.175C21.3734 119.18 21.3704 119.187 21.3704 119.193C21.3704 119.2 21.3734 119.207 21.3786 119.212C21.3839 119.217 21.3911 119.22 21.3985 119.22C22.6915 119.417 31.7865 119.342 33.1678 119.331C35.9786 119.305 35.1755 119.287 38.0104 119.231C38.017 119.233 38.024 119.233 38.0309 119.232C38.0377 119.231 38.0442 119.228 38.0497 119.225C38.0553 119.221 38.0599 119.216 38.063 119.21C38.0661 119.204 38.0678 119.198 38.0678 119.192C38.0678 119.185 38.0661 119.179 38.063 119.173C38.0599 119.167 38.0553 119.162 38.0497 119.159C38.0442 119.155 38.0377 119.152 38.0309 119.151C38.024 119.15 38.017 119.151 38.0104 119.153Z" fill="#263238"/>
<path d="M27.3854 78.8592C26.779 76.3769 25.8715 73.9467 25.0805 71.5128C23.4743 66.5656 21.8601 61.6222 20.2379 56.6824C19.4348 54.2014 18.621 51.7303 17.7965 49.2691C17.3949 48.0261 16.9693 46.7756 16.5477 45.5475C16.126 44.3194 15.6683 43.1062 15.2948 41.8781C15.1423 41.3794 15.062 41.6548 15.2547 42.2875C15.6562 43.5677 16.0297 44.8479 16.4352 46.1244C17.2383 48.655 18.0414 51.182 18.8445 53.7052C20.4507 58.7342 22.0702 63.7571 23.7032 68.7737C24.5063 71.2945 25.3228 73.8115 26.1526 76.3248C26.5658 77.523 26.8997 78.7434 27.1525 79.9794C27.3718 81.2715 27.4271 82.583 27.3171 83.887C27.1404 86.5107 26.8112 89.1307 26.5501 91.7506C26.2891 94.3706 26.0241 97.0017 25.7471 99.6254C25.2117 104.836 24.695 110.058 24.1971 115.293C24.1328 115.956 24.0686 116.618 24.0124 117.28C24.0124 117.504 24.165 117.53 24.1891 117.318C24.7994 112.152 25.462 106.927 25.984 101.754C26.506 96.5812 27.024 91.4603 27.542 86.3134C27.6745 85.0221 27.823 83.727 27.823 82.4281C27.8202 81.2271 27.6734 80.0301 27.3854 78.8592Z" fill="#263238"/>
<path d="M25.8557 37.9779C24.7675 45.7932 22.6915 60.4338 21.1777 71.0551C17.6361 58.1822 11.9422 37.9779 11.9422 37.9779H25.8557Z" fill="#263238"/>
<path d="M29.7018 130.883C28.7984 131.158 3.09548 130.935 2.12374 130.351C1.7503 130.135 1.56559 126.659 1.47324 122.457V122.327C1.44914 121.46 1.4371 120.567 1.42907 119.662C1.42907 119.54 1.42907 119.417 1.42907 119.29C1.36883 113.224 1.83061 106.931 1.83061 106.931L18.6353 107.031L18.1695 119.287V119.77L18.0731 122.305V122.565C18.0731 122.565 27.8628 126.73 28.8425 127.474C29.8223 128.218 30.6013 130.615 29.7018 130.883Z" fill="#EB9481"/>
<path d="M29.7023 130.883C28.7988 131.158 3.09594 130.935 2.1242 130.351C1.75077 130.135 1.56606 126.659 1.4737 122.457V122.327C1.44961 121.46 1.43756 120.567 1.42953 119.662C1.42953 119.54 1.42953 119.417 1.42953 119.29H18.1739V119.774L18.0776 122.308V122.569C18.0776 122.569 27.8632 126.73 28.843 127.474C29.8228 128.218 30.6018 130.615 29.7023 130.883Z" fill="#EBEBEB"/>
<path d="M29.7022 130.883C28.7988 131.158 3.09589 130.935 2.12416 130.351C1.75072 130.135 1.56601 126.659 1.47365 122.457V122.327L18.0574 122.297V122.558C18.0574 122.558 27.8632 126.73 28.8429 127.474C29.8227 128.218 30.6017 130.615 29.7022 130.883Z" fill="#5D4037"/>
<path d="M29.4209 129.96C25.0882 129.822 7.60091 129.651 3.32045 129.822C3.28832 129.822 3.28832 129.844 3.32045 129.848C7.61296 130.072 25.1002 130.109 29.4209 130.023C29.5092 130.023 29.5092 129.96 29.4209 129.96Z" fill="#263238"/>
<path d="M19.9045 122.357C18.202 122.048 16.114 122.271 14.8009 123.388C14.7487 123.429 14.8009 123.496 14.8692 123.481C16.5048 123.008 18.1901 122.699 19.8965 122.558C19.9253 122.559 19.9533 122.549 19.9743 122.531C19.9954 122.513 20.0079 122.488 20.0089 122.461C20.01 122.434 19.9996 122.408 19.98 122.389C19.9604 122.369 19.9333 122.358 19.9045 122.357Z" fill="#263238"/>
<path d="M21.1294 123.056C19.4268 122.744 17.3388 122.971 16.0217 124.084C15.9735 124.128 16.0217 124.195 16.094 124.18C17.7275 123.704 19.4117 123.394 21.1173 123.254C21.1424 123.251 21.1656 123.24 21.1828 123.222C21.2001 123.205 21.2103 123.183 21.2117 123.16C21.2132 123.136 21.2057 123.113 21.1907 123.094C21.1756 123.075 21.1539 123.062 21.1294 123.056Z" fill="#263238"/>
<path d="M22.35 123.752C20.6514 123.443 18.5634 123.667 17.2463 124.783C17.1981 124.828 17.2463 124.891 17.3186 124.876C18.9527 124.403 20.6368 124.094 22.3419 123.953C22.3707 123.954 22.3987 123.945 22.4198 123.927C22.4408 123.908 22.4533 123.883 22.4544 123.857C22.4554 123.83 22.445 123.804 22.4254 123.784C22.4059 123.765 22.3787 123.753 22.35 123.752Z" fill="#263238"/>
<path d="M27.1203 37.9779C27.1203 37.9779 26.7589 44.9372 25.0403 50.4451C24.9038 50.9029 24.7552 51.3495 24.5946 51.7812C23.019 52.3686 21.5054 53.09 20.0732 53.9359C20.0732 53.9359 19.8885 59.5183 19.7078 65.7742C19.507 72.7558 19.3063 80.5376 19.3424 82.19C19.503 88.3678 18.5112 122.334 18.5112 122.334L0 122.401C0 122.401 3.34888 84.4713 3.32479 82.2086C3.28865 78.5726 4.22023 62.4843 4.93097 50.7726C5.37267 43.5491 5.73406 37.9779 5.73406 37.9779H27.1203Z" fill="#37474F"/>
<path d="M17.8772 119.286C15.0664 119.242 15.8695 119.216 13.0346 119.205C11.6492 119.205 2.55426 119.16 1.2653 119.361C1.23719 119.361 1.23719 119.413 1.2653 119.417C2.55828 119.61 11.6492 119.499 13.0346 119.484C15.8454 119.446 15.0423 119.428 17.8772 119.361C17.8879 119.361 17.8981 119.357 17.9056 119.35C17.9131 119.343 17.9174 119.334 17.9174 119.324C17.9174 119.314 17.9131 119.304 17.9056 119.297C17.8981 119.29 17.8879 119.286 17.8772 119.286Z" fill="#263238"/>
<path d="M7.29586 40.4639C6.95856 50.0357 6.59717 59.6076 6.1354 69.172C5.67362 78.7364 3.24026 113.131 2.61787 118.471C2.61787 118.505 2.67007 118.52 2.67408 118.471C4.02327 108.978 4.77416 94.9251 5.43671 85.3719C6.09926 75.8187 6.54899 66.2505 6.90235 56.6824C7.0991 51.2713 7.25169 45.8602 7.42435 40.449C7.42837 40.3895 7.29988 40.3895 7.29586 40.4639Z" fill="#263238"/>
<path d="M25.3618 51.3644C23.5222 52.0785 21.7528 52.9389 20.0734 53.936C20.0598 53.9428 20.0496 53.9543 20.0448 53.9679C20.04 53.9816 20.0411 53.9964 20.0478 54.0093C20.0545 54.0223 20.0664 54.0323 20.0809 54.0374C20.0954 54.0424 20.1114 54.0421 20.1256 54.0365C21.9125 53.2326 23.7395 52.4586 25.4702 51.5654C25.4844 51.5588 25.4971 51.5497 25.5076 51.5385C25.518 51.5274 25.5259 51.5144 25.531 51.5004C25.536 51.4864 25.538 51.4717 25.5369 51.4569C25.5358 51.4422 25.5315 51.4279 25.5244 51.4147C25.5173 51.4015 25.5074 51.3897 25.4954 51.38C25.4834 51.3704 25.4694 51.363 25.4543 51.3583C25.4392 51.3537 25.4233 51.3518 25.4074 51.3528C25.3915 51.3539 25.376 51.3578 25.3618 51.3644Z" fill="#263238"/>
<path d="M25.4541 45.462C25.3337 46.0723 25.1731 46.6752 25.0526 47.2818C24.9321 47.8885 24.8197 48.4318 24.6511 48.9938C24.5169 49.538 24.2173 50.0352 23.7877 50.4266C23.5508 50.635 23.2818 50.8173 23.0288 51.0071C22.8883 51.1113 22.7397 51.2081 22.5951 51.3123C22.6158 51.2312 22.6319 51.1493 22.6433 51.0667C22.6875 50.8359 22.7317 50.6052 22.7718 50.3745C22.8642 49.8609 22.9565 49.3473 23.0409 48.83C23.2055 47.8177 23.3581 46.798 23.587 45.7969C23.5879 45.7891 23.5858 45.7813 23.5811 45.7747C23.5764 45.7682 23.5694 45.7634 23.5612 45.7611C23.5531 45.7589 23.5444 45.7594 23.5366 45.7626C23.5288 45.7657 23.5225 45.7713 23.5187 45.7783C23.2497 46.772 22.9485 47.7545 22.7156 48.7556C22.5992 49.2468 22.1856 51.6696 22.1655 51.8407C22.1454 52.0119 22.1294 52.1943 22.1253 52.3729C22.0992 52.5532 22.0992 52.736 22.1253 52.9163C22.1253 52.9609 22.1936 52.9535 22.2137 52.9163C22.294 52.7475 22.3507 52.5699 22.3823 52.3878C22.4305 52.2166 22.4707 52.0417 22.5068 51.8631C22.5068 51.7998 22.5068 51.7365 22.5349 51.6733C22.7959 51.5281 23.0328 51.3346 23.2738 51.1746C23.5147 51.0146 23.7998 50.8285 24.0447 50.6387C24.4977 50.2818 24.825 49.8074 24.9843 49.2766C25.1425 48.7058 25.2447 48.1228 25.2895 47.5349C25.3738 46.8464 25.4341 46.1542 25.5385 45.4694C25.5425 45.4397 25.4742 45.4211 25.4541 45.462Z" fill="#263238"/>
<path d="M16.977 19.3739C19.9243 23.0954 29.1237 29.3365 32.9705 29.1988C35.7532 29.102 44.3985 20.8551 46.7234 18.1532C48.964 15.5481 39.8329 10.5687 38.4636 12.0648C36.2551 14.4838 32.6653 19.9172 31.6133 20.1815C30.8785 20.3675 26.2647 19.0203 19.2658 16.5083C14.9893 14.9787 15.2142 17.1633 16.977 19.3739Z" fill="#EB9481"/>
<path d="M50.4656 14.5135C49.3734 16.3185 45.5748 19.2027 44.3701 19.5711C43.1655 19.9395 37.6643 14.119 37.9133 12.9356C38.1623 11.7521 42.3544 5.93533 44.4705 5.14264C46.5867 4.34995 51.602 12.6416 50.4656 14.5135Z" fill="#EB9481"/>
<path d="M38.44 11.8303C38.6755 10.1706 38.6471 8.48795 38.3557 6.83595C37.9541 4.87841 37.0707 1.99793 38.1991 1.76347C40.512 1.25362 42.6642 8.39156 42.6642 8.39156C42.6642 8.39156 43.0658 11.6851 40.8252 12.3773C40.4119 12.4991 39.9702 12.5125 39.5492 12.4159C39.1283 12.3193 38.7443 12.1166 38.44 11.8303Z" fill="#EB9481"/>
<path d="M41.4837 6.96617C41.5198 8.08264 42.8931 7.39415 42.8931 7.39415C42.8931 7.39415 41.1665 8.8009 41.6885 9.91736C42.2105 11.0338 43.8127 10.1295 43.9291 10.0662C43.8367 10.1444 42.2908 11.473 42.9293 12.5448C43.5677 13.6166 45.0655 12.5448 45.1618 12.4629C45.0976 12.556 44.3066 13.8362 44.9932 14.5507C46.1697 15.7751 48.2899 12.5559 49.6953 12.2954C49.6953 12.2954 50.4422 14.4539 50.4743 14.5284C50.4743 14.5284 52.5583 11.5028 52.0805 9.76479C52.0147 9.51105 51.8575 9.2857 51.6348 9.12601C51.4121 8.96631 51.1373 8.88182 50.8557 8.8865C50.8557 8.8865 51.6588 7.98216 51.169 7.12248C50.924 6.67961 49.9643 6.64984 49.9643 6.64984C50.1311 6.43647 50.231 6.1845 50.253 5.9218C50.275 5.65909 50.2181 5.39587 50.0888 5.16122C49.7113 4.56949 48.7878 4.63276 48.7878 4.63276C48.7878 4.63276 49.0046 3.66516 48.4063 3.17391C47.1816 2.17281 41.4034 4.61787 41.4837 6.96617Z" fill="#EB9481"/>
<path d="M49.9484 6.61263C49.9725 6.61263 49.9484 6.5717 49.9484 6.57542C47.5315 7.01961 45.3654 8.24975 43.8409 10.0439C43.7887 10.1072 43.8128 10.2151 43.8771 10.1444C44.9652 8.9721 48.025 7.26763 49.9484 6.61263Z" fill="#263238"/>
<path d="M45.0971 12.6267C46.6029 10.885 48.5624 9.76478 50.7508 8.88277C50.7789 8.88277 50.7508 8.83811 50.7508 8.83811C49.5462 9.00186 48.2171 9.69779 47.2333 10.3267C46.3037 10.8883 45.5491 11.6659 45.0449 12.582C45.0087 12.6118 45.0649 12.6639 45.0971 12.6267Z" fill="#263238"/>
<path d="M42.8524 7.39044C42.7962 7.44627 42.9488 7.46115 42.8926 7.5207C42.6557 7.77004 41.3707 9.38148 41.8285 9.96204C42.1939 10.4235 43.1175 10.2858 43.4347 10.1035L44.2699 9.6457L43.6555 10.3454C43.3817 10.6545 43.1634 11.0026 43.009 11.3762C42.9267 11.5452 42.8841 11.7285 42.8841 11.914C42.8841 12.0994 42.9267 12.2828 43.009 12.4518C43.0853 12.6094 43.2183 12.7376 43.3853 12.8144C43.5524 12.8911 43.743 12.9116 43.9246 12.8723C44.3289 12.7792 44.7017 12.5937 45.0087 12.3327L45.8801 11.633L45.3059 12.5522C45.1444 12.8076 45.0202 13.0817 44.9365 13.3673C44.8483 13.6353 44.8483 13.9217 44.9365 14.1897C44.9796 14.3091 45.0576 14.4151 45.1618 14.496C45.266 14.5768 45.3923 14.6292 45.5267 14.6475C45.8349 14.6456 46.136 14.5616 46.3941 14.4056C46.9609 14.074 47.4981 13.7006 48.0002 13.2891C48.2653 13.0919 48.5263 12.8946 48.8033 12.7085C49.0656 12.5077 49.3708 12.3605 49.6988 12.2768C49.3876 12.3925 49.1028 12.5617 48.8596 12.7755C48.6066 12.9802 48.3616 13.1923 48.1167 13.4082C47.6333 13.8532 47.1064 14.2556 46.5426 14.6103C46.2409 14.8075 45.8837 14.9187 45.5147 14.9303C45.3129 14.9156 45.1202 14.8465 44.9603 14.7314C44.8005 14.6163 44.6805 14.4603 44.6152 14.2828C44.503 13.9508 44.503 13.595 44.6152 13.2631C44.7049 12.944 44.8399 12.6374 45.0168 12.3513L45.3099 12.5708C44.9546 12.8876 44.5156 13.1123 44.037 13.2221C43.7654 13.279 43.4808 13.2447 43.2339 13.1254C42.9995 13.0048 42.8094 12.8221 42.6878 12.6006C42.5836 12.3866 42.5297 12.1544 42.5297 11.9196C42.5297 11.6847 42.5836 11.4526 42.6878 11.2385C42.8633 10.8315 43.1102 10.4543 43.4186 10.1221L43.6435 10.364C43.2098 10.5835 42.1979 10.8403 41.5314 10.1891C40.7885 9.23634 42.5151 7.6584 42.8524 7.39044Z" fill="#263238"/>
<path d="M42.8926 7.3942C42.6593 7.45801 42.4171 7.48937 42.1738 7.48724C42.0763 7.48718 41.9805 7.46345 41.896 7.41839C41.8114 7.37334 41.7411 7.30854 41.692 7.23045C41.6125 7.04357 41.593 6.83937 41.6358 6.64245C41.67 6.41307 41.7182 6.18569 41.7803 5.9614C41.6004 6.14122 41.4635 6.35429 41.3788 6.58662C41.2666 6.83804 41.2666 7.12045 41.3788 7.37187C41.4556 7.50216 41.5751 7.60643 41.7201 7.6696C41.8602 7.726 42.0145 7.74533 42.1658 7.72542C42.4409 7.69237 42.6964 7.57591 42.8926 7.3942Z" fill="#263238"/>
<path d="M29.3088 19.5823L27.1244 28.4582C27.1244 28.4582 21.6031 24.3422 18.0414 20.963C14.4797 17.5838 13.6565 14.6661 18.6919 16.084C23.7273 17.5019 29.3088 19.5823 29.3088 19.5823Z" fill="#5D4037"/>
<path opacity="0.1" d="M22.9607 17.3866L21.2782 23.8249L21.5955 24.0891L23.3141 17.502L22.9607 17.3866ZM24.7436 17.9746L22.8724 25.1312L23.1896 25.388L25.0929 18.0863L24.7436 17.9746ZM26.5184 18.585L24.4705 26.4002L24.7877 26.6496L26.8677 18.6929L26.5184 18.585ZM28.2892 19.2102L26.0807 27.6656L26.3979 27.9112L28.6386 19.3516L28.2892 19.2102Z" fill="#030402"/>
<path d="M27.3053 19.4484C27.0925 20.0736 26.9559 20.7249 26.8034 21.365C26.6508 22.0051 26.5102 22.6229 26.3697 23.2518C26.0846 24.5246 25.7955 25.7936 25.6188 27.085C25.6188 27.1222 25.663 27.1297 25.675 27.085C26.0766 25.8346 26.3295 24.5618 26.6106 23.2853C26.7471 22.6564 26.8837 22.0274 27.0122 21.3948C27.1407 20.7621 27.2932 20.1034 27.3615 19.4484C27.3615 19.4415 27.3585 19.4348 27.3533 19.43C27.348 19.4251 27.3408 19.4223 27.3334 19.4223C27.3259 19.4223 27.3188 19.4251 27.3135 19.43C27.3082 19.4348 27.3053 19.4415 27.3053 19.4484Z" fill="#263238"/>
<path opacity="0.1" d="M28.1002 24.4873L27.1245 28.4544C27.1245 28.4544 21.6032 24.3421 18.0415 20.9629C15.2066 18.2723 14.1064 15.8756 16.3149 15.723L28.1002 24.4873Z" fill="black"/>
<path d="M3.81488 48.3164C3.87913 48.376 31.0035 46.6566 31.2283 46.3812C31.5456 46.0091 22.9645 20.4532 20.8123 16.7018C19.8927 15.1016 15.5079 14.8708 13.7772 16.3818C9.4365 20.1666 6.41287 32.3845 5.77843 36.0651C4.72639 42.1089 3.56994 48.0931 3.81488 48.3164Z" fill="#5D4037"/>
<path opacity="0.1" d="M20.8443 16.754L12.9018 17.275C13.0142 17.1484 13.1226 17.0256 13.2351 16.9028L20.6034 16.419C20.6843 16.5044 20.7543 16.598 20.8122 16.6981C20.8212 16.7175 20.8319 16.7362 20.8443 16.754ZM21.4949 18.1123L11.8257 18.745C11.7453 18.8641 11.6691 18.9869 11.5968 19.1171L21.6354 18.4584C21.5912 18.3319 21.543 18.2202 21.4949 18.1123ZM22.2056 19.8094L10.7736 20.5537L10.5929 20.9258L22.3421 20.1555C22.2979 20.0364 22.2417 19.921 22.2056 19.8094ZM22.8762 21.5138L9.91029 22.3623L9.75368 22.7345L23.0047 21.8636C22.9645 21.7371 22.9203 21.6255 22.8762 21.5138ZM23.5227 23.2183L9.16341 24.1598C9.11523 24.2789 9.07106 24.398 9.02689 24.532L23.6511 23.5718C23.607 23.4416 23.5668 23.3299 23.5227 23.2183ZM24.1531 24.9228L8.49283 25.9499C8.44866 26.0653 8.40851 26.1844 8.36835 26.3221L24.2695 25.2763C24.2494 25.1498 24.1972 25.0344 24.1531 24.9228ZM24.7715 26.6198L7.90658 27.7363C7.86642 27.8554 7.83028 27.9707 7.79414 28.0898L24.8999 26.9733C24.8558 26.8543 24.8156 26.7426 24.7715 26.6198ZM25.3818 28.3243L7.36048 29.5077C7.32434 29.6268 7.2882 29.7459 7.25608 29.8799L25.5063 28.6853C25.4541 28.5624 25.426 28.4508 25.3818 28.3354V28.3243ZM25.9841 30.0325L6.86256 31.2978C6.83044 31.4169 6.80233 31.536 6.77021 31.6699L26.1046 30.4009L25.9841 30.0325ZM26.5824 31.7407L6.41283 33.0618C6.38472 33.1809 6.35661 33.3 6.33252 33.4154L26.6989 32.0793C26.6587 31.9788 26.6186 31.8635 26.5824 31.7518V31.7407ZM27.1727 33.4488L6.0153 34.837C5.98719 34.9598 5.9631 35.0752 5.94303 35.1868L27.2851 33.7875C27.245 33.6907 27.2088 33.5717 27.1727 33.46V33.4488ZM27.7509 35.1608L5.66596 36.6084L5.60573 36.9546L27.8513 35.4957C27.8272 35.3952 27.7911 35.2836 27.7509 35.1794V35.1608ZM28.3291 36.869L5.37685 38.3873L5.31661 38.7335L28.4456 37.2151C28.4054 37.0985 28.3666 36.9868 28.3291 36.8801V36.869ZM28.8953 38.5772L5.05561 40.1402C5.05561 40.2556 5.01546 40.3747 4.99136 40.49L29.0077 38.9158C28.9716 38.8153 28.9315 38.7037 28.8953 38.5883V38.5772ZM29.4535 40.2891L4.73839 41.9079L4.67816 42.2578L29.5739 40.624C29.5298 40.5235 29.4936 40.4119 29.4695 40.3002L29.4535 40.2891ZM30.0036 41.9973L4.4292 43.6757L4.36897 44.0255L30.112 42.3359L30.0036 41.9973ZM30.5376 43.7092L4.12804 45.4434C4.12804 45.5625 4.0919 45.6779 4.07183 45.7895L30.642 44.0478C30.6059 43.9511 30.5738 43.8394 30.5376 43.7389V43.7092ZM31.0355 45.4248L3.86302 47.2074C3.86302 47.334 3.83491 47.4493 3.82287 47.5535L31.1279 45.7635C31.1038 45.6742 31.0757 45.5625 31.0355 45.436V45.4248Z" fill="#030402"/>
<path d="M13.0624 22.9279C13.6447 27.5836 17.7244 41.8074 21.8001 43.0764C25.414 44.1929 34.8503 42.3805 39.1468 41.6362C40.7128 41.3645 38.7452 29.128 37.2113 29.8016C35.3642 30.6092 25.418 32.1313 24.9361 31.908C24.4543 31.6848 20.9568 26.5602 16.7085 20.3712C12.7011 14.5135 12.7011 20.0102 13.0624 22.9279Z" fill="#EB9481"/>
<path d="M35.7049 30.6353C35.7049 30.6353 39.8529 28.3168 42.6436 26.9138C44.1976 26.1359 46.9964 25.0195 48.4219 24.9302C50.5541 24.7999 59.5647 25.5145 59.4242 27.5353C59.2997 29.37 51.6422 27.8479 51.6422 27.8479C51.6422 27.8479 59.5125 28.7522 58.9223 30.9368C58.332 33.1213 49.9477 30.3413 49.9477 30.3413C49.9477 30.3413 57.9786 31.4578 57.0029 33.6088C56.252 35.2463 48.4861 33.1176 48.4861 33.1176C48.4861 33.1176 55.4127 34.1038 54.7181 35.8157C53.9511 37.71 46.651 36.1618 46.651 36.1618C44.0972 40.2555 41.2061 41.4055 38.845 41.6697C38.3029 41.7293 35.7049 30.6353 35.7049 30.6353Z" fill="#EB9481"/>
<path d="M49.31 27.4422C55.1646 27.6953 57.9513 29.4853 57.867 29.4518C55.8592 28.6554 52.5947 28.0674 51.6751 27.9148C50.7556 27.7622 50.2215 27.6245 49.302 27.472C49.2819 27.4682 49.29 27.4385 49.31 27.4422Z" fill="#263238"/>
<path d="M48.2896 30.4529C50.6631 30.4556 53.017 30.8514 55.2403 31.6215C55.3206 31.655 55.2845 31.681 55.1961 31.6624C54.0316 31.4391 49.454 30.6464 48.2855 30.4752C48.2655 30.4752 48.2735 30.4529 48.2896 30.4529Z" fill="#263238"/>
<path d="M47.2218 32.9873C49.061 33.0282 50.876 33.3853 52.5744 34.0405C52.6587 34.0703 52.6025 34.1075 52.5102 34.0889C50.7394 33.7167 49.35 33.3967 47.2178 33.0469C47.1817 33.0394 47.1817 32.9873 47.2218 32.9873Z" fill="#263238"/>
<path d="M22.47 28.2945L14.8407 34.0182C14.8407 34.0182 13.2345 27.6209 12.7045 22.9243C12.1744 18.2277 13.4634 15.4588 16.4709 19.4632C19.4785 23.4676 22.47 28.2945 22.47 28.2945Z" fill="#5D4037"/>
<path opacity="0.1" d="M18.8687 22.82L13.3354 27.0626L13.4077 27.4571L19.0695 23.114L18.8687 22.82ZM19.8806 24.3087L13.7169 29.035C13.741 29.1653 13.7691 29.2955 13.7972 29.4072L20.0774 24.5915L19.8806 24.3087ZM20.8764 25.7973L14.1305 30.9702C14.1546 31.1005 14.1827 31.227 14.2108 31.3424L21.0692 26.0838L20.8764 25.7973ZM21.8522 27.3045L14.5641 32.8868C14.5963 33.0245 14.6244 33.1511 14.6525 33.259L22.0409 27.5911L21.8522 27.3045Z" fill="#030402"/>
<path d="M21.1931 27.0961C20.5988 27.446 20.0407 27.8628 19.4825 28.2647C18.9244 28.6666 18.3863 29.0499 17.8442 29.4519C16.74 30.2595 15.6357 31.0559 14.6078 31.9416C14.6019 31.946 14.5982 31.9525 14.5974 31.9594C14.5967 31.9664 14.599 31.9734 14.6037 31.9788C14.6085 31.9842 14.6155 31.9877 14.623 31.9884C14.6305 31.9891 14.638 31.987 14.6439 31.9825C15.8044 31.2382 16.8966 30.4381 17.9928 29.6268C18.5282 29.2273 19.0636 28.8242 19.599 28.4173C20.1451 28.0042 20.7072 27.5948 21.2051 27.1371C21.208 27.1339 21.2099 27.1301 21.2109 27.126C21.2118 27.1219 21.2117 27.1177 21.2105 27.1137C21.2093 27.1097 21.2071 27.106 21.2041 27.103C21.2011 27.0999 21.1973 27.0976 21.1931 27.0961Z" fill="#263238"/>
<path d="M15.773 33.3186C15.4799 33.5754 15.1747 33.821 14.8736 34.0629L14.7933 34.1262L14.7652 34.0294C14.5564 33.3261 14.3636 32.619 14.1789 31.9081C13.9942 31.1973 13.8296 30.4865 13.6971 29.7682C13.5646 29.05 13.416 28.3317 13.2955 27.6097C13.1751 26.8878 13.0947 26.1621 13.0305 25.4326C13.2032 26.1472 13.3517 26.8617 13.5043 27.5763L13.9621 29.7161L14.8776 33.9997L14.7692 33.9662C15.1145 33.7503 15.4398 33.5233 15.773 33.3186Z" fill="#263238"/>
<path d="M12.7726 26.7575C12.9332 27.0589 13.0738 27.3567 13.2143 27.6544C13.3549 27.9521 13.4914 28.2498 13.6159 28.5736C13.3727 28.3258 13.1747 28.043 13.0296 27.7363C12.9589 27.5831 12.9012 27.4251 12.857 27.2636C12.8041 27.0993 12.7757 26.929 12.7726 26.7575Z" fill="#263238"/>
<path d="M18.3623 22.0906C18.7639 22.5669 19.1654 23.0619 19.5268 23.5606C19.8882 24.0593 20.2576 24.5691 20.6069 25.0827C20.9563 25.5963 21.2936 26.1173 21.6148 26.6495C21.9378 27.1805 22.23 27.7271 22.4902 28.287L22.2814 28.4321L22.4581 28.2572V28.2832C22.1168 27.7622 21.7674 27.2524 21.41 26.7425L20.362 25.2055C20.0207 24.6919 19.6713 24.1746 19.3421 23.6499C19.0128 23.1252 18.6715 22.6265 18.3623 22.0906Z" fill="#263238"/>
<path d="M19.4026 22.861C19.6027 23.0794 19.7542 23.3323 19.8483 23.6053C19.9498 23.8725 19.9882 24.1568 19.9607 24.4389C19.8965 24.3087 19.8523 24.1784 19.8001 24.0481L19.6556 23.676C19.5672 23.3932 19.4709 23.1401 19.4026 22.861Z" fill="#263238"/>
<path d="M19.9565 20.0699C18.5993 20.375 15.941 18.3096 15.0095 16.754C14.9452 16.646 15.1139 15.5147 15.2464 14.1489C15.3267 13.3078 15.3909 12.3737 15.3829 11.514C15.3829 11.3391 16.0294 11.6592 16.0294 11.6592L17.234 11.9159L21.2053 12.7793C20.884 13.8556 20.7046 14.9641 20.6712 16.0804C20.6751 16.1979 20.6899 16.315 20.7154 16.4302C20.7154 16.4302 20.7154 16.4674 20.7154 16.4897C20.8439 17.141 21.2695 19.7684 19.9565 20.0699Z" fill="#EB9481"/>
<path d="M20.7112 16.4153C20.7112 16.4153 20.7112 16.4525 20.7112 16.4749C20.5145 16.5019 20.3157 16.5131 20.1169 16.5084C16.2059 16.4563 15.6758 11.8527 15.6758 11.8527L17.2218 11.9011L21.193 12.7645C20.8717 13.8408 20.6924 14.9492 20.659 16.0655C20.6655 16.1833 20.6829 16.3003 20.7112 16.4153Z" fill="#263238"/>
<path d="M14.3629 5.77905C13.8569 7.7217 15.3025 13.1626 16.8444 14.3089C19.077 15.9687 22.5584 15.9463 24.0361 13.4938C25.4696 11.1158 23.4498 4.05225 21.7473 3.02882C19.2336 1.53276 15.1057 2.92462 14.3629 5.77905Z" fill="#EB9481"/>
<path d="M20.0285 9.28852C20.0285 9.28852 20.0004 9.31085 20.0044 9.32574C20.1128 9.69789 20.1691 10.1259 19.8438 10.3268C19.8438 10.3268 19.8438 10.3492 19.8438 10.3454C20.2735 10.1929 20.1932 9.61602 20.0285 9.28852Z" fill="#263238"/>
<path d="M19.5754 8.98332C18.9249 9.08008 19.1739 10.2747 19.7842 10.1854C20.3946 10.0961 20.1175 8.90145 19.5754 8.98332Z" fill="#263238"/>
<path d="M22.4264 8.75624C22.4264 8.75624 22.4585 8.75624 22.4625 8.78602C22.5308 9.15817 22.6753 9.57499 23.0608 9.63081V9.64941C22.6111 9.67547 22.4264 9.1284 22.4264 8.75624Z" fill="#263238"/>
<path d="M22.6994 8.30603C23.3298 8.14228 23.639 9.32573 23.0528 9.47832C22.4665 9.6309 22.1694 8.44373 22.6994 8.30603Z" fill="#263238"/>
<path d="M18.9489 8.52935C19.1073 8.45219 19.2614 8.36773 19.4107 8.27629C19.5806 8.2031 19.7211 8.08195 19.8122 7.93018C19.8316 7.87638 19.8314 7.8182 19.8119 7.76447C19.7923 7.71073 19.7544 7.66439 19.7038 7.63246C19.5917 7.58493 19.468 7.56575 19.3452 7.57686C19.2225 7.58797 19.1052 7.62898 19.0051 7.69573C18.781 7.80096 18.6077 7.98022 18.5192 8.19814C18.4985 8.25138 18.4959 8.30925 18.5119 8.36389C18.5279 8.41852 18.5617 8.46725 18.6087 8.50346C18.6556 8.53966 18.7135 8.56157 18.7744 8.5662C18.8352 8.57084 18.8962 8.55797 18.9489 8.52935Z" fill="#263238"/>
<path d="M23.0685 7.61007C22.8888 7.61077 22.7092 7.60208 22.5305 7.58402C22.3385 7.59761 22.1469 7.55322 21.9844 7.45749C21.9399 7.41791 21.9106 7.36586 21.9012 7.30937C21.8918 7.25287 21.9027 7.19507 21.9322 7.14488C22.008 7.05503 22.1081 6.98534 22.2223 6.94286C22.3365 6.90038 22.4609 6.88662 22.5827 6.90297C22.8346 6.90269 23.0778 6.98886 23.2653 7.14488C23.3045 7.18284 23.3311 7.23039 23.342 7.28191C23.353 7.33344 23.3478 7.38679 23.3272 7.43569C23.3065 7.48459 23.2711 7.52698 23.2253 7.55788C23.1795 7.58878 23.1251 7.60688 23.0685 7.61007Z" fill="#263238"/>
<path d="M20.3619 12.6379C20.47 12.7346 20.6133 12.7903 20.7635 12.7942C20.9083 12.7626 21.0449 12.7044 21.165 12.623C21.165 12.623 21.1931 12.623 21.165 12.623C21.1235 12.7058 21.0588 12.7768 20.9775 12.8285C20.8963 12.8803 20.8016 12.9108 20.7032 12.917C20.6148 12.9156 20.529 12.8892 20.4572 12.8413C20.3854 12.7934 20.3312 12.7263 20.3017 12.649C20.3137 12.6416 20.3418 12.6267 20.3619 12.6379Z" fill="#263238"/>
<path d="M21.84 11.6666C21.7147 11.9003 21.5266 12.1002 21.2939 12.2471C21.1638 12.3247 21.0107 12.3624 20.8562 12.355C20.5229 12.355 20.4546 12.0685 20.4546 11.8229C20.4623 11.6968 20.4852 11.572 20.5229 11.4507C20.9261 11.6505 21.3874 11.7261 21.84 11.6666Z" fill="#263238"/>
<path d="M21.3056 12.2471C21.1755 12.3247 21.0224 12.3624 20.868 12.355C20.5347 12.355 20.4664 12.0685 20.4664 11.8228C20.6374 11.7958 20.8132 11.8229 20.9655 11.8999C21.1178 11.9769 21.2376 12.0992 21.3056 12.2471Z" fill="#FF98B9"/>
<path d="M14.9219 10.5352C14.9219 10.5352 12.8218 7.46493 12.9704 5.6637C13.0386 4.84868 14.2111 4.29044 14.2111 4.29044C14.1117 3.96048 14.1139 3.6113 14.2175 3.28244C14.3211 2.95358 14.522 2.65817 14.7974 2.42967C15.8133 1.50672 18.327 1.65931 18.327 1.65931C18.327 1.65931 19.905 -0.551297 22.226 0.267445C24.5469 1.08619 23.1054 3.53497 23.1054 3.53497C23.1054 3.53497 23.9727 4.62911 21.9288 5.54089C19.885 6.45267 15.8133 5.67114 15.8133 5.67114C16.0323 6.97771 16.0404 8.3072 15.8374 9.61599C15.7905 9.83233 15.6803 10.0325 15.5188 10.1947C15.3573 10.3568 15.1508 10.4746 14.9219 10.5352Z" fill="#263238"/>
<path d="M18.7323 1.68537C18.2147 1.49932 17.6604 1.41688 17.106 1.44347C16.6102 1.44395 16.1183 1.52455 15.6524 1.68165C15.2319 1.80009 14.8543 2.02291 14.5605 2.32597C14.2668 2.62904 14.0681 3.0008 13.986 3.40101C13.9568 3.60813 13.9726 3.81859 14.0326 4.01994C14.0926 4.22129 14.1956 4.40945 14.3353 4.5733C14.3353 4.5733 14.3675 4.5733 14.3353 4.5733C13.7892 3.97413 14.0462 3.01769 14.5843 2.49667C15.245 1.94104 16.1015 1.62749 16.9936 1.61466C17.5648 1.59603 18.1364 1.64101 18.6961 1.74864C18.7006 1.75084 18.7055 1.7522 18.7106 1.75264C18.7156 1.75308 18.7207 1.7526 18.7256 1.75122C18.7304 1.74984 18.7349 1.74758 18.7388 1.74459C18.7427 1.74159 18.746 1.73791 18.7483 1.73375C18.7507 1.7296 18.7522 1.72505 18.7526 1.72038C18.7531 1.7157 18.7526 1.71097 18.7511 1.70648C18.7496 1.70199 18.7472 1.69781 18.744 1.69419C18.7407 1.69057 18.7367 1.68757 18.7323 1.68537Z" fill="#263238"/>
<path d="M23.9035 1.25366C23.7895 0.973289 23.6034 0.722974 23.3613 0.524497C23.1191 0.32602 22.8283 0.185397 22.5141 0.114865C21.7935 -0.0709988 21.0268 -0.0304313 20.3337 0.230233C19.6391 0.498248 19.0335 0.932316 18.579 1.48812C18.579 1.48812 18.579 1.51789 18.6031 1.48812C19.0118 0.997331 19.5557 0.617694 20.1775 0.389135C20.7993 0.160576 21.4761 0.0915437 22.1367 0.189298C22.4416 0.20849 22.7365 0.298436 22.9941 0.450865C23.2517 0.603294 23.4639 0.813312 23.611 1.06161C23.7582 1.3099 23.8356 1.5885 23.8362 1.87178C23.8368 2.15506 23.7605 2.43393 23.6144 2.68274C23.2824 3.26691 22.7801 3.75302 22.1648 4.08576C22.1648 4.08576 22.1648 4.11181 22.1648 4.08576C22.7497 3.80817 23.2485 3.39703 23.6144 2.89114C23.7839 2.65232 23.8973 2.38307 23.9471 2.10094C23.9969 1.81881 23.9821 1.53011 23.9035 1.25366Z" fill="#263238"/>
<path d="M22.4384 5.61907C21.5288 5.98234 20.5455 6.16003 19.5553 6.14009C18.5255 6.13558 17.4994 6.02574 16.4955 5.81259C15.9133 5.6935 15.3311 5.55581 14.7569 5.40695C14.7569 5.40695 14.7287 5.42927 14.7569 5.433C15.7676 5.81256 16.8188 6.09199 17.8929 6.26662C18.8932 6.42068 19.9163 6.3916 20.9045 6.18103C21.4451 6.06116 21.9672 5.8786 22.4585 5.63768C22.4585 5.63768 22.4505 5.61535 22.4384 5.61907Z" fill="#263238"/>
<path d="M19.7965 11.3614C19.4694 11.3881 19.1407 11.3292 18.8479 11.1913C18.555 11.0535 18.3098 10.8422 18.1401 10.5816C17.9704 10.321 17.8831 10.0215 17.888 9.71714C17.8928 9.41278 17.9898 9.1158 18.1678 8.85999C18.3458 8.60417 18.5976 8.39978 18.8948 8.27007C19.1919 8.14036 19.5223 8.09053 19.8485 8.12625C20.1746 8.16198 20.4834 8.28182 20.7397 8.47215C20.996 8.66248 21.1896 8.91565 21.2983 9.20287C21.386 9.43669 21.4151 9.68595 21.3833 9.93173C21.3516 10.1775 21.2599 10.4134 21.1151 10.6214C20.9704 10.8295 20.7764 11.0042 20.548 11.1324C20.3195 11.2606 20.0625 11.3389 19.7965 11.3614ZM19.5074 8.33575C19.3813 8.34584 19.2572 8.37086 19.138 8.41018C18.7738 8.52917 18.4722 8.77235 18.2947 9.09018C18.1172 9.40802 18.077 9.77662 18.1824 10.1209C18.2878 10.4652 18.5309 10.7594 18.8621 10.9434C19.1933 11.1274 19.5877 11.1876 19.9651 11.1116C20.3424 11.0355 20.6743 10.8291 20.8932 10.5342C21.112 10.2393 21.2014 9.87821 21.143 9.52442C21.0847 9.17062 20.8831 8.85074 20.5792 8.6299C20.2753 8.40906 19.892 8.30387 19.5074 8.33575Z" fill="#5D4037"/>
<path d="M23.7355 10.5649C23.069 10.6208 22.3984 10.0365 22.2137 9.20284C22.1152 8.80726 22.1546 8.39294 22.3261 8.01939C22.3861 7.85343 22.4915 7.70472 22.632 7.58778C22.7725 7.47084 22.9433 7.38966 23.1278 7.35217C23.3122 7.31468 23.504 7.32215 23.6845 7.37387C23.8649 7.42558 24.0277 7.51977 24.1571 7.64723C24.4754 7.92731 24.6904 8.29323 24.7715 8.69299C24.9683 9.57128 24.5547 10.3937 23.852 10.5314L23.7355 10.5649ZM23.2697 7.56536H23.1814C23.036 7.59957 22.9016 7.66581 22.7898 7.75847C22.6779 7.85112 22.5919 7.96745 22.5389 8.09754C22.3907 8.42977 22.357 8.79636 22.4425 9.14702C22.6152 9.89133 23.2215 10.4384 23.8038 10.3268C24.386 10.2151 24.7113 9.50429 24.5426 8.74509C24.4708 8.39131 24.2812 8.06725 24.0005 7.81843C23.9043 7.73155 23.7897 7.66418 23.6639 7.62061C23.5381 7.57705 23.4038 7.55823 23.2697 7.56536Z" fill="#5D4037"/>
<path d="M21.2816 9.38157L21.0969 9.2476C21.3137 8.99453 21.8518 8.60377 22.3657 8.93871L22.2413 9.1285C21.7714 8.81589 21.3016 9.35924 21.2816 9.38157Z" fill="#5D4037"/>
<path d="M13.7172 11.2684L13.4923 11.2126C13.5204 11.1121 13.7935 10.2524 14.2954 10.0738C14.7973 9.89516 17.9093 9.58627 18.0338 9.57139L18.0579 9.78724C17.1584 9.88027 14.7371 10.1594 14.3797 10.2785C14.0223 10.3976 13.8095 11.034 13.7172 11.2684Z" fill="#5D4037"/>
<path d="M15.9209 10.204C15.9209 10.204 14.4272 8.52925 13.596 9.03538C12.7648 9.54152 13.9975 12.0461 15.0496 12.3215C15.1817 12.3656 15.3222 12.3843 15.4624 12.3767C15.6026 12.3691 15.7397 12.3352 15.8654 12.2771C15.9911 12.219 16.1028 12.138 16.1938 12.0388C16.2848 11.9396 16.3531 11.8244 16.3947 11.7L15.9209 10.204Z" fill="#EB9481"/>
<path d="M13.9699 9.74628C13.9699 9.74628 13.9498 9.76488 13.9699 9.77233C14.7087 9.98818 15.1384 10.5725 15.4596 11.194C15.4124 11.1303 15.3508 11.077 15.2791 11.0376C15.2074 10.9982 15.1273 10.9738 15.0444 10.966C14.9615 10.9582 14.8777 10.9673 14.799 10.9925C14.7202 11.0177 14.6483 11.0585 14.5883 11.1121C14.5883 11.1121 14.5883 11.1493 14.6124 11.1456C14.7345 11.099 14.8692 11.0887 14.9979 11.116C15.1266 11.1433 15.2431 11.207 15.3311 11.2982C15.4836 11.4521 15.6182 11.6205 15.7327 11.8006C15.7728 11.8564 15.8853 11.8006 15.8571 11.7522C15.7688 10.8888 14.9577 9.75744 13.9699 9.74628Z" fill="#263238"/>
</svg>
