<svg width="71" height="43" viewBox="0 0 71 43" fill="none" xmlns="http://www.w3.org/2000/svg">
<path d="M66.0985 5.49262L70.3717 11.2354C61.8186 22.5231 12.4121 43.7043 1.52643 41.9372L0.509543 34.9817M66.0985 5.49262C56.5269 15.518 26.5582 32.8716 0.509543 34.9817M66.0985 5.49262C65.2798 4.92435 62.4158 4.23295 57.5092 6.01356M0.509543 34.9817C0.449931 34.0144 1.51342 31.5578 6.24428 29.4701M6.24428 29.4701L7.12307 31.0054C12.3213 30.0131 17.3486 28.6209 22.1066 26.9888C39.1878 21.1297 52.7981 12.1801 58.3876 7.54909L57.5092 6.01356M6.24428 29.4701L5.54815 21.3473M57.5092 6.01356L50.8988 0.500846M5.54815 21.3473C21.3422 5.45389 42.3627 0.827408 50.8988 0.500846M5.54815 21.3473C9.22076 21.2315 15.4331 20.2339 22.7025 17.673C31.4329 14.5974 41.6878 9.26692 50.8988 0.500846" stroke="#4A3F35"/>
</svg>
