<svg width="61" height="68" viewBox="0 0 61 68" fill="none" xmlns="http://www.w3.org/2000/svg">
<path d="M60.8323 68H0V20.3071L30.4101 2.40689L60.8323 20.3071V68Z" fill="#5D4037"/>
<path opacity="0.2" d="M60.8323 68H0V20.3071L30.4101 2.40689L60.8323 20.3071V68Z" fill="black"/>
<path d="M57.4017 0.138126H3.43006V64.3506H57.4017V0.138126Z" fill="white"/>
<path d="M57.4018 64.3505L3.45034 64.4364H3.35371V64.3505L3.29734 0.138065V0H3.45034L57.4018 0.0373177H57.5065V0.138065L57.4018 64.3505ZM57.4018 64.3505L57.2931 0.138065L57.4018 0.235089L3.45034 0.276137L3.59931 0.138065L3.52281 64.3505L3.43021 64.261L57.4018 64.3505Z" fill="#DBDBDB"/>
<path d="M55.232 39.7558C55.283 41.6341 55.322 43.5098 55.3488 45.383C55.3488 47.2488 55.4092 49.137 55.4092 51.0139L55.4333 56.6411L55.4092 62.272V62.4362H55.232C53.1142 62.4362 50.9964 62.4063 48.8786 62.3839C46.7608 62.3616 44.643 62.3205 42.5253 62.272C44.643 62.2235 46.7608 62.1787 48.8786 62.1601C50.9964 62.1414 53.1142 62.1078 55.232 62.1078L55.0549 62.272L55.0307 56.6411L55.0549 51.0139C55.0549 49.1482 55.0951 47.26 55.1153 45.383C55.1354 43.5061 55.1797 41.6328 55.232 39.7558Z" fill="#5D4037"/>
<path d="M5.5966 24.7327C5.5456 22.857 5.50668 20.9801 5.47984 19.1018C5.45971 17.2361 5.41945 15.3516 5.41945 13.4747L5.39529 7.84376L5.41945 2.21659V2.04867H5.5966C7.7144 2.04867 9.83219 2.07852 11.95 2.10091C14.0678 2.1233 16.1856 2.16434 18.3034 2.21285C16.1856 2.26136 14.0678 2.30614 11.95 2.3248C9.83219 2.34346 7.7144 2.37704 5.5966 2.37704L5.77375 2.21285L5.79791 7.84003L5.77375 13.4859C5.77375 15.3516 5.7335 17.2398 5.71336 19.113C5.69323 20.9863 5.64894 22.8558 5.5966 24.7327Z" fill="#5D4037"/>
<path d="M30.4468 2.21652L36.6432 2.12323L42.8395 2.07099C44.905 2.0486 46.9705 2.07098 49.0359 2.04486H55.2323H55.4336V2.23144L55.4135 7.85861L55.3853 13.4858C55.3531 17.2397 55.3168 20.9899 55.2323 24.7439C55.1477 20.9899 55.1115 17.2397 55.0793 13.4858L55.0591 7.84369L55.039 2.21652L55.2403 2.40309L49.0198 2.38443C46.9543 2.38443 44.8889 2.38443 42.8234 2.35831L36.6432 2.29114L30.4468 2.21652Z" fill="#5D4037"/>
<path d="M30.382 62.272C26.2511 62.3429 22.1201 62.3803 17.9892 62.4064C13.8583 62.4325 9.72741 62.4362 5.5965 62.4549H5.39922V62.272V55.7083L5.42338 49.1482L5.47974 42.5844L5.58442 36.0243L5.68911 42.5844L5.74548 49.1482L5.76963 55.7083V62.272L5.57235 62.0892C9.70326 62.1079 13.8342 62.0892 17.9651 62.134C22.096 62.1788 26.2511 62.2011 30.382 62.272Z" fill="#5D4037"/>
<path d="M49.8041 19.8966H11.1966V20.2287H49.8041V19.8966Z" fill="#EBEBEB"/>
<path d="M49.8041 22.046H11.1966V22.3781H49.8041V22.046Z" fill="#EBEBEB"/>
<path d="M49.8041 24.199H11.1966V24.5312H49.8041V24.199Z" fill="#EBEBEB"/>
<path d="M49.8041 26.3485H11.1966V26.6806H49.8041V26.3485Z" fill="#EBEBEB"/>
<path d="M49.8041 28.4978H11.1966V28.8299H49.8041V28.4978Z" fill="#EBEBEB"/>
<path d="M44.0391 30.6509H16.9547V30.983H44.0391V30.6509Z" fill="#EBEBEB"/>
<path d="M49.8041 34.9534H11.1966V35.2855H49.8041V34.9534Z" fill="#EBEBEB"/>
<path d="M49.8041 37.1028H11.1966V37.4349H49.8041V37.1028Z" fill="#EBEBEB"/>
<path d="M49.8041 39.2559H11.1966V39.588H49.8041V39.2559Z" fill="#EBEBEB"/>
<path d="M49.8041 41.4052H11.1966V41.7374H49.8041V41.4052Z" fill="#EBEBEB"/>
<path d="M49.8041 43.5584H11.1966V43.8905H49.8041V43.5584Z" fill="#EBEBEB"/>
<path d="M60.8323 32.2443V68H0V32.2443C2.609 33.6138 5.17773 35.0542 7.76257 36.4609C10.3474 37.8677 12.9161 39.323 15.4728 40.7783C18.3234 42.3879 21.1712 44.0186 24.0165 45.6704L24.105 45.6219C24.0809 45.6219 24.0607 45.6629 24.0326 45.6816C26.1638 46.9105 28.2923 48.1432 30.4182 49.3796C32.54 48.1444 34.6658 46.8981 36.7957 45.6816C36.7675 45.6816 36.7514 45.6368 36.7232 45.6219C36.7524 45.6386 36.7835 45.6523 36.8158 45.6629C39.653 44.0211 42.4995 42.3904 45.3555 40.7709C47.9135 39.323 50.4809 37.8864 53.0576 36.4609C55.6505 35.0542 58.2193 33.6138 60.8323 32.2443Z" fill="#5D4037"/>
<g opacity="0.2">
<path d="M60.8323 32.2443C58.3723 33.8451 55.872 35.3751 53.3958 36.9498C50.9197 38.5245 48.3993 40.032 45.8869 41.5582C43.2618 43.1479 40.6327 44.7251 37.9995 46.2898L37.762 46.4428C35.4348 47.8235 33.0996 49.2029 30.7564 50.5811L30.4101 50.7789L30.0719 50.5811C27.7313 49.2029 25.3988 47.821 23.0743 46.4354C22.9938 46.3906 22.9092 46.3421 22.8287 46.2898C20.1875 44.7226 17.5557 43.1417 14.9333 41.547C12.433 40.032 9.92868 38.4909 7.43242 36.9498C4.93616 35.4086 2.456 33.8451 0 32.2443C2.609 33.6138 5.17773 35.0542 7.76257 36.4609C10.3474 37.8677 12.9161 39.323 15.4728 40.7783C18.3234 42.3879 21.1712 44.0186 24.0165 45.6704C26.1477 46.8993 28.2762 48.132 30.4021 49.3684C32.5239 48.1332 34.6497 46.8869 36.7796 45.6704C36.7796 45.6704 36.7796 45.6704 36.7997 45.6704C39.6369 44.0285 42.4834 42.3978 45.3394 40.7783C47.8974 39.3305 50.4647 37.8939 53.0415 36.4684C55.6505 35.0541 58.2193 33.6138 60.8323 32.2443Z" fill="black"/>
<path d="M24.1046 45.6219C24.0804 45.6219 24.0603 45.663 24.0321 45.6816C23.7141 45.9354 23.392 46.1891 23.0739 46.4279C21.5479 47.622 19.9858 48.7639 18.3954 49.8722C16.4588 51.2454 14.4779 52.5551 12.4849 53.8612C10.4919 55.1672 8.45868 56.4098 6.42141 57.63C4.38413 58.8502 2.2905 60.0406 0.144517 61.134C1.98853 59.6413 3.90904 58.2383 5.84566 56.8763C7.78227 55.5142 9.77123 54.1895 11.7562 52.8872C13.7411 51.5849 15.7824 50.3311 17.8317 49.1109C19.4664 48.137 21.1292 47.1817 22.8283 46.2824C23.2309 46.0697 23.6335 45.8682 24.0362 45.663L24.1046 45.6219Z" fill="black"/>
<path d="M60.6958 61.1414C58.5499 60.048 56.4683 58.8539 54.423 57.6374C52.3776 56.421 50.3565 55.1448 48.3474 53.8686C46.3383 52.5924 44.3735 51.2565 42.4369 49.8796C40.8546 48.7601 39.2924 47.6406 37.7745 46.4428L36.8082 45.6965C36.78 45.6965 36.7639 45.6517 36.7357 45.6368C36.7649 45.6535 36.796 45.6672 36.8283 45.6778C37.231 45.8905 37.6336 46.092 38.0121 46.3047C39.7152 47.204 41.3659 48.1705 43.0126 49.1332C45.066 50.3535 47.0751 51.6222 49.0761 52.9096C51.0772 54.197 53.05 55.5217 54.9866 56.8986C56.9233 58.2755 58.8397 59.6413 60.6958 61.1414Z" fill="black"/>
</g>
</svg>
