<svg width="85" height="68" viewBox="0 0 85 68" fill="none" xmlns="http://www.w3.org/2000/svg">
<path d="M1.02062 5.79217L43.3578 64.4688C45.4537 68.6644 69.3921 68.3845 83.4422 49.8803C84.4027 48.6153 84.0252 46.821 82.6792 45.8822L79.1623 43.4291L11.648 0.990588L1.02062 5.79217Z" fill="#43352A"/>
<path d="M1.02062 5.79217L0.571105 4.89232C0.302011 5.0139 0.10449 5.24541 0.0309135 5.52546C-0.0426635 5.80552 0.0151359 6.10584 0.188987 6.34678L1.02062 5.79217ZM43.3578 64.4688L44.2745 64.0547C44.2501 64.0058 44.2216 63.9588 44.1895 63.9142L43.3578 64.4688ZM79.1623 43.4291L79.7447 42.6296C79.7308 42.62 79.7168 42.6106 79.7025 42.6017L79.1623 43.4291ZM11.648 0.990588L12.1882 0.163123C11.8891 -0.0248787 11.515 -0.0522438 11.1985 0.0907335L11.648 0.990588ZM83.4422 49.8803L84.2694 50.4804L83.4422 49.8803ZM82.6792 45.8822L82.0968 46.6817L82.6792 45.8822ZM0.188987 6.34678L42.5262 65.0234L44.1895 63.9142L1.85225 5.23756L0.188987 6.34678ZM42.4412 64.883C42.8685 65.7385 43.7559 66.3225 44.732 66.7182C45.7381 67.126 47.007 67.4032 48.45 67.5469C51.3419 67.8348 55.0859 67.6009 59.1778 66.6507C67.3683 64.7485 77.0834 59.9445 84.2694 50.4804L82.615 49.2802C75.7509 58.3203 66.4718 62.9083 58.6566 64.7233C54.7457 65.6315 51.2339 65.8375 48.6089 65.5761C47.2933 65.4451 46.2384 65.2005 45.4793 64.8928C44.6902 64.573 44.3711 64.248 44.2745 64.0547L42.4412 64.883ZM83.2616 45.0827L79.7447 42.6296L78.5799 44.2286L82.0968 46.6817L83.2616 45.0827ZM79.7025 42.6017L12.1882 0.163123L11.1079 1.81805L78.6222 44.2566L79.7025 42.6017ZM11.1985 0.0907335L0.571105 4.89232L1.47013 6.69203L12.0975 1.89044L11.1985 0.0907335ZM84.2694 50.4804C85.5884 48.7433 85.0434 46.3255 83.2616 45.0827L82.0968 46.6817C83.007 47.3165 83.2171 48.4872 82.615 49.2802L84.2694 50.4804Z" fill="#584B41"/>
</svg>
