<svg width="125" height="63" viewBox="0 0 125 63" fill="none" xmlns="http://www.w3.org/2000/svg">
<path d="M11.0606 33.6046L10.8525 33.4043L11.4368 32.8925L11.6409 33.0965L11.0606 33.6046Z" fill="#263238"/>
<path d="M13.6894 63C13.1452 63 12.601 62.9592 12.0888 62.9072L12.1208 62.6328C12.641 62.681 13.1732 62.7107 13.7215 62.7218L13.6894 63ZM15.6902 62.9703V62.6921C16.2104 62.6625 16.7467 62.6217 17.2909 62.5623L17.3269 62.8405C16.7827 62.8961 16.2425 62.948 15.7143 62.9703H15.6902ZM10.088 62.6254C9.5518 62.5215 9.02359 62.3917 8.51939 62.2545L8.61142 61.9912C9.10362 62.1321 9.61982 62.2582 10.148 62.3621L10.088 62.6254ZM19.3197 62.5586L19.2677 62.2842C19.7799 62.1952 20.3081 62.095 20.8283 61.9801L20.9003 62.2508C20.3681 62.3658 19.8359 62.4696 19.3157 62.5772L19.3197 62.5586ZM22.8451 61.7724L22.7611 61.5053C23.2693 61.3681 23.7815 61.2161 24.2857 61.0566L24.3817 61.3199C23.8695 61.4645 23.3533 61.6314 22.8411 61.7724H22.8451ZM6.63064 61.5684C6.14185 61.354 5.66747 61.1125 5.21007 60.8452L5.37014 60.6115C5.8169 60.8727 6.28062 61.108 6.75869 61.3162L6.63064 61.5684ZM26.2745 60.682L26.1664 60.4224C26.6546 60.2444 27.1548 60.0515 27.647 59.8587L27.763 60.1146C27.2668 60.3111 26.7626 60.504 26.2705 60.682H26.2745ZM3.59343 59.7066C3.19264 59.3681 2.81821 59.0038 2.47298 58.6163L2.70508 58.4382C3.04094 58.8171 3.40605 59.1728 3.79751 59.5026L3.59343 59.7066ZM29.6038 59.3357L29.4757 59.0873C29.9479 58.8759 30.4281 58.6533 30.9083 58.4234L31.0443 58.6719C30.5522 58.9055 30.068 59.1281 29.5918 59.3395L29.6038 59.3357ZM32.8051 57.7855L32.657 57.5444C33.1238 57.2972 33.584 57.0499 34.0375 56.8027L34.1936 57.0401C33.7374 57.296 33.2732 57.5444 32.8051 57.7892V57.7855ZM1.34053 57.0438C1.08349 56.6011 0.862782 56.1412 0.680269 55.6678L0.964382 55.5751C1.14336 56.0349 1.35732 56.4823 1.60464 56.914L1.34053 57.0438ZM35.8983 56.0498L35.7342 55.8162C36.1851 55.5467 36.6292 55.2722 37.0667 54.9928L37.2348 55.2228C36.7946 55.5084 36.3505 55.7828 35.8983 56.0535V56.0498ZM38.8715 54.1436L38.6954 53.921C39.1276 53.6243 39.5517 53.3276 39.9719 53.0235L40.156 53.2423C39.7318 53.5502 39.2996 53.8506 38.8715 54.1473V54.1436ZM0.168066 53.8468C0.0775217 53.3562 0.0213825 52.8607 0 52.3634H0.296117C0.319166 52.8532 0.375297 53.3412 0.464183 53.8246L0.168066 53.8468ZM41.7246 52.0815L41.5325 51.8664C41.9327 51.5512 42.3568 51.2322 42.761 50.9096L42.9571 51.1209C42.5489 51.451 42.1408 51.77 41.7246 52.0852V52.0815ZM0.352139 50.5016L0.0520196 50.4756C0.10404 49.9898 0.180072 49.4928 0.288115 48.9921L0.58023 49.0441C0.484191 49.541 0.400158 50.0306 0.352139 50.5053V50.5016ZM44.4657 49.8897L44.2656 49.6857C44.6658 49.3519 45.0659 49.0181 45.4421 48.6806L45.6462 48.8846C45.254 49.2258 44.8618 49.5633 44.4657 49.8934V49.8897ZM47.0987 47.6051L46.8907 47.4048L48.0351 46.3664L48.2472 46.5629L47.0987 47.6051ZM1.08043 47.2528L0.792314 47.1712C0.948376 46.7076 1.12445 46.2329 1.32453 45.7581L1.60064 45.8583C1.39255 46.3293 1.21648 46.8003 1.06442 47.2565L1.08043 47.2528ZM49.6798 45.2426L49.4637 45.0498C49.8398 44.6975 50.212 44.3414 50.5841 43.9854L50.8002 44.1782L49.6798 45.2426ZM2.39695 44.1634L2.12885 44.041C2.35694 43.6034 2.60504 43.1546 2.86914 42.7133L3.13324 42.8468C2.85313 43.2919 2.60904 43.7332 2.38095 44.1671L2.39695 44.1634ZM52.1928 42.8394L51.9767 42.6465L53.0851 41.571L53.3012 41.7639L52.1928 42.8394ZM4.17366 41.2558L3.92156 41.1074C4.20167 40.6957 4.50579 40.2804 4.81792 39.865L5.06201 40.0282C4.71788 40.4399 4.41776 40.8515 4.13765 41.2595L4.17366 41.2558ZM54.7058 40.4139L54.4857 40.2248L55.5941 39.1455L55.8102 39.3384L54.7058 40.4139ZM6.25449 38.5373L6.01839 38.3667C6.33852 37.9958 6.67866 37.5953 7.0308 37.2059L7.25888 37.3839C6.88674 37.7733 6.5346 38.1627 6.21847 38.541L6.25449 38.5373ZM57.1988 37.9958L56.9827 37.803C57.3508 37.4469 57.723 37.0909 58.0991 36.7349L58.3152 36.9277C57.9097 37.2862 57.5256 37.6435 57.1627 37.9995L57.1988 37.9958ZM8.57941 35.9894L8.35932 35.804C8.71546 35.4331 9.08361 35.0808 9.46377 34.7173L9.67585 34.9102C9.26369 35.2736 8.88754 35.6371 8.5434 35.9931L8.57941 35.9894ZM59.7158 35.6185L59.5037 35.4257C59.8798 35.0733 60.256 34.721 60.6401 34.3687L60.8482 34.569L59.7158 35.6185ZM62.2808 33.2672L62.0727 33.0669C62.4528 32.722 62.841 32.3771 63.2291 32.0359L63.4372 32.2362C63.0091 32.5663 62.6249 32.9075 62.2448 33.2524L62.2808 33.2672ZM64.8978 30.9678L64.6977 30.7638C65.0979 30.43 65.4981 30.0963 65.8982 29.7588L66.1023 29.9665L64.8978 30.9678ZM67.5869 28.7426L67.3868 28.5312C67.787 28.2085 68.1871 27.8859 68.5873 27.5632L68.7834 27.7746C68.3552 28.0861 67.951 28.4014 67.5509 28.724L67.5869 28.7426ZM70.344 26.5878L70.1559 26.3727C70.5561 26.0612 70.9842 25.7496 71.4084 25.4418L71.5925 25.6569L70.344 26.5878ZM73.1771 24.5221L72.993 24.2995C73.4172 24.0028 73.8454 23.7024 74.2816 23.4057L74.4576 23.632C73.9894 23.9101 73.5613 24.2068 73.1411 24.5035L73.1771 24.5221ZM76.0823 22.5453L75.9102 22.3154C76.3424 22.0335 76.7825 21.7479 77.2267 21.4661L77.3948 21.6923C76.9146 21.9593 76.4784 22.2412 76.0462 22.5231L76.0823 22.5453ZM79.0594 20.6576L78.8954 20.4276C79.3356 20.1569 79.7877 19.8862 80.2439 19.6154L80.404 19.8491C79.9118 20.1013 79.4636 20.3683 79.0234 20.639L79.0594 20.6576ZM82.1047 18.8663L81.9446 18.6289C82.3968 18.373 82.857 18.1171 83.3212 17.8612L83.4732 18.1023C82.977 18.3359 82.5168 18.5918 82.0687 18.8477L82.1047 18.8663ZM85.2059 17.1677L85.0578 16.9266C85.522 16.6818 85.9862 16.4408 86.4624 16.1849L86.6065 16.4259C86.1183 16.6633 85.6301 16.9081 85.1699 17.1491L85.2059 17.1677ZM88.3712 15.5618L88.2271 15.3133C88.6993 15.0834 89.1715 14.8534 89.6557 14.6272L89.7917 14.8757C89.2755 15.0834 88.7993 15.3133 88.3351 15.5433L88.3712 15.5618ZM91.5724 14.0412L91.4404 13.7928C91.9166 13.5739 92.3968 13.3588 92.885 13.1437L93.017 13.3922C92.5208 13.5888 92.0206 13.8076 91.5444 14.0227L91.5724 14.0412ZM94.8297 12.606L94.7057 12.3538L96.1703 11.7418L96.2943 11.994L94.8297 12.606ZM98.131 11.2523L98.011 10.9964C98.5032 10.8035 98.9954 10.6255 99.4956 10.4215L99.6076 10.6774L98.131 11.2523Z" fill="#263238"/>
<path d="M101.536 9.91347L101.424 9.65386L102.168 9.38312L102.28 9.63902L101.536 9.91347Z" fill="#263238"/>
<path d="M100.584 5.27757L97.9387 12.0089L103.493 7.99235L124.717 0.856786L100.584 5.27757Z" fill="#5D4037"/>
<path opacity="0.1" d="M100.584 5.27757L97.9387 12.0089L103.493 7.99235L124.717 0.856786L100.584 5.27757Z" fill="black"/>
<path d="M104.201 9.56114L97.9387 12.0089L103.493 7.99236L104.201 9.56114Z" fill="#263238"/>
<path d="M103.493 7.99235L124.718 0.856786L107.307 16.604L103.493 7.99235Z" fill="#5D4037"/>
<path d="M100.584 5.2775L91.7645 0L124.718 0.856712L100.584 5.2775Z" fill="#5D4037"/>
</svg>
