<svg width="120" height="104" viewBox="0 0 120 104" fill="none" xmlns="http://www.w3.org/2000/svg">
<path d="M113.745 76.351C113.745 86.2754 94.6287 99.766 78.8175 99.766C63.0063 99.766 57.0597 96.6216 57.0597 86.6972C57.0597 84.1157 58.0163 83.4711 60.495 80.7073C67.5458 72.8455 83.1511 63.2821 94.8496 63.2821C110.661 63.2821 113.745 66.4266 113.745 76.351Z" fill="#43352A"/>
<path d="M60.495 80.7073C67.5458 72.8455 83.1511 63.2821 94.8496 63.2821L61.0254 42.0452L12.3987 2.29409L2.66497 7.73945C-0.541454 7.73945 -0.197909 9.91759 0.374666 11.0067C8.61975 15.363 17.9337 22.9865 21.56 26.2537C16.9794 26.2537 16.025 34.6032 16.4067 37.1444C22.7734 61.364 43.5877 69.6966 54.5327 74.0782L58.2047 77.4401L60.495 80.7073Z" fill="#43352A"/>
<path d="M117.378 67.4286C123.677 78.3194 103.293 105.437 69.8545 102.823M57.2579 99.0117L62.4111 102.823" stroke="#43352A" stroke-width="2" stroke-linecap="round" stroke-linejoin="round"/>
<path d="M98.4527 70.0926C99.8007 71.9917 100.322 74.4198 99.3035 76.5142C96.5045 82.2712 89.6999 89.5122 76.8467 89.5915C74.4687 89.6062 72.3171 88.2835 70.9772 86.3188L60.6941 71.242C59.8107 69.9469 58.6352 68.8776 57.2625 68.1204L35.9735 56.3774C32.5477 54.4877 29.7513 51.6347 27.9306 48.1717L20.4172 33.8807C20.0399 33.1631 19.8428 32.3645 19.8428 31.5538V30.9309C19.8428 29.4923 21.316 28.5242 22.6365 29.095L25.0723 30.148C25.7754 30.4519 26.3993 30.9133 26.8958 31.4966L35.8749 42.0452L26.0179 25.0824C24.5896 22.6243 22.6536 20.499 20.3391 18.8481L12.3993 13.1848L8.28305 10.3888C5.71802 8.64647 2.45116 6.22218 3.3567 3.25653C3.72315 2.0564 4.93421 1.12535 7.72483 1.00781C10.0592 0.909493 12.3152 1.75546 14.3892 2.83134L21.3327 6.43325C23.0031 7.29973 24.5428 8.39759 25.9063 9.69437L32.4393 15.9075C33.3936 14.0924 36.4472 11.0067 41.0278 13.1848L43.3181 15.1067C43.6999 13.377 45.723 10.2443 50.7616 11.5512L55.3422 16.1798C55.9148 14.6476 57.9761 12.288 61.6405 15.1067C68.0429 19.1898 81.2125 30.6878 84.7159 48.8956C85.0184 50.4677 85.5994 51.9837 86.526 53.2892L98.4527 70.0926Z" fill="#FFE7CC"/>
<path d="M41.0278 24.0756L32.4393 15.9075M32.4393 15.9075L25.9063 9.69437C24.5428 8.39759 23.0031 7.29973 21.3327 6.43325L14.3892 2.83134C12.3152 1.75546 10.0592 0.909493 7.72483 1.00781C4.93421 1.12535 3.72315 2.0564 3.3567 3.25653C2.45116 6.22218 5.71802 8.64647 8.28305 10.3888L12.3993 13.1848L20.3391 18.8481C22.6536 20.499 24.5896 22.6243 26.0179 25.0824L35.8749 42.0452L26.8958 31.4966C26.3993 30.9133 25.7754 30.4519 25.0723 30.148L22.6365 29.095C21.316 28.5242 19.8428 29.4923 19.8428 30.9309V31.5538C19.8428 32.3645 20.0399 33.1631 20.4172 33.8807L27.9306 48.1717C29.7513 51.6347 32.5477 54.4877 35.9735 56.3774L57.2625 68.1204C58.6352 68.8776 59.8107 69.9469 60.6941 71.242L70.9772 86.3188C72.3171 88.2835 74.4687 89.6062 76.8467 89.5915C89.6999 89.5122 96.5045 82.2712 99.3035 76.5142C100.322 74.4198 99.8007 71.9917 98.4527 70.0926L86.526 53.2892C85.5994 51.9837 85.0184 50.4677 84.7159 48.8956C81.2125 30.6878 68.0429 19.1898 61.6405 15.1067C57.9761 12.288 55.9148 14.6476 55.3422 16.1798M32.4393 15.9075C33.3936 14.0924 36.4472 11.0067 41.0278 13.1848L43.3181 15.1067M50.7616 21.3529L43.3181 15.1067M43.3181 15.1067C43.6999 13.377 45.723 10.2443 50.7616 11.5512L55.3422 16.1798M59.9228 20.8083L55.3422 16.1798" stroke="#B79674" stroke-width="2"/>
</svg>
