<svg width="48" height="48" viewBox="0 0 48 48" fill="none" xmlns="http://www.w3.org/2000/svg">
<g clip-path="url(#clip0_0_313)">
<path d="M8.59787 44.55C8.36387 45.882 9.67787 46.923 10.8359 46.329L24.0059 39.561L37.1729 46.329C38.3309 46.923 39.6449 45.882 39.4109 44.553L36.9209 30.363L47.4869 20.295C48.4769 19.353 47.9669 17.631 46.6409 17.445L31.9469 15.357L25.3949 2.37601C25.2701 2.11288 25.0731 1.89056 24.827 1.73489C24.5809 1.57922 24.2956 1.49658 24.0044 1.49658C23.7131 1.49658 23.4279 1.57922 23.1817 1.73489C22.9356 1.89056 22.7387 2.11288 22.6139 2.37601L16.0619 15.36L1.36787 17.448C0.0448665 17.634 -0.468133 19.356 0.518867 20.298L11.0879 30.366L8.59787 44.556V44.55ZM23.3129 36.249L12.2549 41.931L14.3369 30.06C14.3856 29.7868 14.3666 29.5057 14.2813 29.2415C14.196 28.9774 14.0472 28.7382 13.8479 28.545L5.12987 20.235L17.2859 18.507C17.5376 18.469 17.7763 18.3705 17.9817 18.2201C18.187 18.0696 18.3528 17.8716 18.4649 17.643L23.9999 6.66901L29.5409 17.643C29.6529 17.8716 29.8187 18.0696 30.0241 18.2201C30.2294 18.3705 30.4682 18.469 30.7199 18.507L42.8759 20.232L34.1579 28.542C33.9581 28.7355 33.809 28.9752 33.7237 29.2399C33.6384 29.5046 33.6196 29.7863 33.6689 30.06L35.7509 41.931L24.6929 36.249C24.479 36.1388 24.2419 36.0812 24.0014 36.0812C23.7608 36.0812 23.5237 36.1388 23.3099 36.249H23.3129Z" fill="#868686"/>
</g>
<defs>
<clipPath id="clip0_0_313">
<rect width="48" height="48" fill="white"/>
</clipPath>
</defs>
</svg>
