<svg width="207" height="250" viewBox="0 0 207 250" fill="none" xmlns="http://www.w3.org/2000/svg">
<path d="M131.527 51.4441L77.8919 70.6979C75.7801 71.4564 73.8508 72.6492 72.2285 74.1995C70.6063 75.7498 69.3272 77.623 68.4737 79.6983L21.0582 195.075C20.2522 197.035 19.8427 199.136 19.8534 201.255C19.8641 203.375 20.2949 205.471 21.1208 207.423C21.9466 209.375 23.1512 211.144 24.6649 212.628C26.1786 214.111 27.9713 215.28 29.9395 216.066L111.955 248.853C113.913 249.636 116.006 250.025 118.115 249.999C120.224 249.972 122.307 249.53 124.244 248.697C126.182 247.864 127.936 246.657 129.407 245.146C130.877 243.634 132.035 241.847 132.814 239.888L178.745 124.379C179.598 122.247 179.982 119.957 179.872 117.664C179.763 115.371 179.162 113.128 178.111 111.087L151.222 59.1758C149.435 55.7178 146.452 53.027 142.829 51.6047C139.206 50.1823 135.189 50.1252 131.527 51.4441ZM137.888 76.7326C139.769 78.5517 141.068 80.8877 141.622 83.4453C142.175 86.0028 141.958 88.6671 140.997 91.101C140.036 93.535 138.375 95.6293 136.224 97.1192C134.073 98.6091 131.528 99.4276 128.911 99.4713C126.295 99.5149 123.725 98.7816 121.525 97.3643C119.325 95.9469 117.595 93.9091 116.554 91.5085C115.512 89.108 115.206 86.4525 115.674 83.8779C116.142 81.3033 117.363 78.9252 119.182 77.0445C121.619 74.528 124.955 73.0811 128.458 73.021C131.961 72.961 135.345 74.2927 137.867 76.7241L137.888 76.7326Z" fill="#5D4037"/>
<g opacity="0.4">
<path d="M131.527 51.4441L77.8919 70.6979C75.7801 71.4564 73.8508 72.6492 72.2285 74.1995C70.6063 75.7498 69.3272 77.623 68.4737 79.6983L21.0582 195.075C20.2522 197.035 19.8427 199.136 19.8534 201.255C19.8641 203.375 20.2949 205.471 21.1208 207.423C21.9466 209.375 23.1512 211.144 24.6649 212.628C26.1786 214.111 27.9713 215.28 29.9395 216.066L111.955 248.853C113.913 249.636 116.006 250.025 118.115 249.999C120.224 249.972 122.307 249.53 124.244 248.697C126.182 247.864 127.936 246.657 129.407 245.146C130.877 243.634 132.035 241.847 132.814 239.888L178.745 124.379C179.598 122.247 179.982 119.957 179.872 117.664C179.763 115.371 179.162 113.128 178.111 111.087L151.222 59.1758C149.435 55.7178 146.452 53.027 142.829 51.6047C139.206 50.1823 135.189 50.1252 131.527 51.4441ZM137.888 76.7326C139.769 78.5517 141.068 80.8877 141.622 83.4453C142.175 86.0028 141.958 88.6671 140.997 91.101C140.036 93.535 138.375 95.6293 136.224 97.1192C134.073 98.6091 131.528 99.4276 128.911 99.4713C126.295 99.5149 123.725 98.7816 121.525 97.3643C119.325 95.9469 117.595 93.9091 116.554 91.5085C115.512 89.108 115.206 86.4525 115.674 83.8779C116.142 81.3033 117.363 78.9252 119.182 77.0445C121.619 74.528 124.955 73.0811 128.458 73.021C131.961 72.961 135.345 74.2927 137.867 76.7241L137.888 76.7326Z" fill="black"/>
</g>
<path d="M133.978 45.3549L80.3368 64.6246C78.2253 65.3836 76.2963 66.5767 74.6742 68.1269C73.052 69.6771 71.7727 71.5501 70.9186 73.6249L23.5031 189.002C22.6963 190.962 22.2862 193.062 22.2965 195.182C22.3069 197.302 22.7375 199.398 23.5635 201.351C24.3894 203.303 25.5943 205.072 27.1084 206.555C28.6225 208.039 30.4158 209.207 32.3844 209.993L114.398 242.785C116.36 243.569 118.458 243.958 120.572 243.929C122.685 243.9 124.772 243.454 126.712 242.616C128.653 241.778 130.408 240.564 131.878 239.046C133.348 237.527 134.504 235.733 135.278 233.767L181.207 118.263C182.059 116.131 182.443 113.842 182.333 111.549C182.223 109.255 181.623 107.013 180.572 104.971L153.682 53.0656C151.892 49.6086 148.906 46.9202 145.281 45.5016C141.656 44.0829 137.639 44.0308 133.978 45.3549ZM140.341 70.6382C142.222 72.4573 143.522 74.7933 144.075 77.3509C144.629 79.9084 144.411 82.5727 143.45 85.0066C142.489 87.4406 140.828 89.5349 138.677 91.0248C136.526 92.5147 133.981 93.3332 131.365 93.3768C128.748 93.4205 126.178 92.6872 123.978 91.2699C121.779 89.8525 120.049 87.8147 119.007 85.4141C117.966 83.0135 117.66 80.358 118.127 77.7834C118.595 75.2089 119.816 72.8308 121.635 70.9501C124.073 68.4336 127.409 66.9867 130.912 66.9266C134.414 66.8666 137.798 68.1983 140.32 70.6297L140.341 70.6382Z" fill="#5D4037"/>
<path d="M75.535 182.617C65.6387 178.529 61.8446 169.89 65.3837 161.341C68.9228 152.792 77.5848 149.399 87.5601 153.519C97.5355 157.638 101.28 166.172 97.7485 174.718C94.2168 183.263 85.4292 186.71 75.535 182.617ZM84.0974 161.908C77.7944 159.304 73.7827 160.489 72.2592 164.182C70.7666 167.784 72.8267 171.584 79.0348 174.15C85.2429 176.717 89.3804 175.478 90.873 171.877C92.3965 168.183 90.3846 164.506 84.0974 161.908ZM80.5204 126.658L84.6472 116.68L126.752 181.013L122.625 190.992L80.5204 126.658ZM119.73 154.154C109.836 150.061 106.04 141.427 109.542 132.955C113.081 124.406 121.864 120.97 131.755 125.056C141.646 129.141 145.419 137.772 141.873 146.324C138.394 154.769 129.6 158.231 119.73 154.154ZM128.253 133.528C122.05 130.963 117.944 132.11 116.42 135.804C114.928 139.405 116.905 143.166 123.198 145.767C129.49 148.367 133.541 147.1 135.034 143.498C136.536 139.796 134.435 136.083 128.225 133.522L128.253 133.528Z" fill="#FEFEFE"/>
<path d="M156.801 59.0138C157.194 58.684 157.628 58.4078 158.094 58.1924C158.959 57.7014 160.248 56.9951 161.929 56.1218C163.61 55.2484 165.676 54.1934 168.113 53.0547C170.55 51.916 173.361 50.6706 176.569 49.5051C180.058 48.2091 183.651 47.2104 187.309 46.5197L188.807 46.2528L190.341 46.0493C191.393 45.8995 192.453 45.8067 193.516 45.7712C195.786 45.6544 198.057 45.9739 200.206 46.7123C201.345 47.1313 202.402 47.7473 203.327 48.5321C204.283 49.3468 205.062 50.3483 205.616 51.4751C206.733 53.7778 207.09 56.3754 206.636 58.894C206.154 61.4395 205.117 63.8477 203.601 65.9485C202.091 68.0639 200.34 69.9969 198.385 71.7087C194.528 75.0677 190.133 77.7535 185.385 79.6534C183.15 80.5705 180.86 81.349 178.529 81.9844C176.264 82.6085 174.034 83.1728 171.838 83.6774C163.074 85.6635 154.999 86.7013 148.171 86.6484C146.467 86.6363 144.852 86.5684 143.318 86.4532C142.553 86.3904 141.808 86.3233 141.083 86.2215C140.374 86.1448 139.672 86.0117 138.983 85.8233C137.662 85.5047 136.518 84.6813 135.796 83.5295C135.234 82.5616 134.978 81.4463 135.062 80.3303C135.091 79.8675 135.163 79.4084 135.277 78.9589C135.388 78.5682 135.531 78.1873 135.705 77.8201C135.97 77.2417 136.331 76.7118 136.771 76.2521C137.044 75.9751 137.359 75.7422 137.704 75.5618C137.94 75.4484 138.061 75.4054 138.076 75.4297C138.091 75.454 137.988 75.5413 137.786 75.6929C137.492 75.9122 137.227 76.1676 136.996 76.4531C136.623 76.9184 136.323 77.438 136.106 77.994C135.968 78.3484 135.854 78.7121 135.766 79.0824C135.685 79.5029 135.64 79.9297 135.633 80.3579C135.603 81.3472 135.866 82.3231 136.391 83.1625C137.045 84.1267 138.052 84.7958 139.194 85.0259C139.849 85.1883 140.516 85.297 141.189 85.3511C141.891 85.4317 142.622 85.4745 143.375 85.5205C144.889 85.5948 146.486 85.625 148.166 85.6111C154.874 85.5359 162.866 84.4156 171.527 82.3639C173.695 81.848 175.902 81.272 178.146 80.636C180.421 80.0019 182.655 79.2297 184.836 78.3235C189.428 76.4706 193.68 73.8679 197.419 70.6217C199.293 68.979 200.972 67.1265 202.423 65.1007C203.82 63.1767 204.781 60.9711 205.239 58.6377C205.646 56.4201 205.346 54.1307 204.381 52.0929C203.423 50.1781 201.766 48.7042 199.753 47.9756C197.759 47.2893 195.653 46.9903 193.547 47.0946C192.524 47.1178 191.503 47.1955 190.488 47.3276L189.005 47.4964L187.525 47.7338C183.92 48.3658 180.373 49.2924 176.92 50.5041C173.739 51.5884 170.919 52.7505 168.449 53.8332C165.98 54.9159 163.892 55.8706 162.18 56.67L158.246 58.4682C157.789 58.7091 157.304 58.8923 156.801 59.0138Z" fill="#263238"/>
<path d="M52.8693 80.9951C52.8396 81.0689 41.9388 78.3964 28.4972 75.0198C15.0556 71.6432 4.17724 68.8388 4.19853 68.7555C4.21982 68.6722 15.1291 71.3542 28.5706 74.7308C42.0122 78.1074 52.8906 80.9118 52.8693 80.9951Z" fill="#263238"/>
<path d="M13.9403 14.8153C13.9911 14.8464 14.0379 14.8838 14.0794 14.9264L14.4702 15.2798L15.9562 16.656L21.3884 21.7586C25.9803 26.0573 32.3457 31.9767 39.4773 38.4127C46.6088 44.8487 53.1446 50.5732 57.9004 54.6929C60.2672 56.7422 62.1896 58.4042 63.541 59.5669C64.1888 60.134 64.7018 60.5794 65.0694 60.8989C65.2316 61.0438 65.3558 61.1612 65.4601 61.2522C65.5069 61.2892 65.5496 61.331 65.5875 61.377C65.5331 61.3505 65.483 61.3159 65.439 61.2743L65.0271 60.9431C64.6531 60.6394 64.1021 60.1971 63.4617 59.6575C62.1059 58.5359 60.1571 56.8939 57.7629 54.8519C52.9743 50.768 46.391 45.055 39.2805 38.6275C32.1701 32.2 25.7952 26.2585 21.2404 21.9134C18.955 19.7682 17.1311 17.9681 15.8758 16.7339L14.4321 15.3134C14.2794 15.1601 14.1594 15.0321 14.0625 14.938L13.9403 14.8153Z" fill="#263238"/>
<path d="M67.0504 7.28323e-05C67.1275 -0.0240319 70.0007 9.89897 73.4397 22.1755C76.8787 34.452 79.6495 44.4012 79.5671 44.4232C79.4847 44.4452 76.6189 34.519 73.1778 22.2478C69.7367 9.97651 66.9702 0.0167816 67.0504 7.28323e-05Z" fill="#263238"/>
<path d="M47.4276 100.069C47.4496 100.151 42.5383 101.562 36.4961 103.24C30.454 104.919 25.4997 106.208 25.4776 106.157C25.4556 106.105 30.3669 104.663 36.4091 102.985C42.4512 101.306 47.4035 99.9915 47.4276 100.069Z" fill="#263238"/>
<path d="M112.452 22.4164C112.526 22.4461 109.37 26.5729 105.427 31.5897C101.484 36.6066 98.2351 40.6287 98.1698 40.5779C98.1045 40.5271 101.252 36.4214 105.195 31.4045C109.138 26.3877 112.389 22.3603 112.452 22.4164Z" fill="#263238"/>
<path d="M85.5431 88.7804L84.9508 84.5599L82.1717 81.3278L86.3943 80.7302L89.6317 77.9533L90.2241 82.1737L93.0009 85.4111L88.7805 86.0035L85.5431 88.7804Z" fill="#FEFEFE"/>
<path d="M72.6452 105.116L72.4384 103.636L71.4668 102.504L72.9416 102.295L74.0739 101.323L74.2807 102.803L75.2523 103.936L73.7776 104.144L72.6452 105.116Z" fill="#FEFEFE"/>
<path d="M101.621 103.032L101.221 100.176L99.3401 97.9852L102.197 97.5851L104.387 95.704L104.787 98.5606L106.669 100.751L103.812 101.151L101.621 103.032Z" fill="#FEFEFE"/>
<path d="M68.0015 65.039L62.7731 55.8212C66.0051 50.5738 67.1575 44.3073 66.0038 38.2534C64.8502 32.1994 61.4739 26.7959 56.5386 23.1049C51.6033 19.4139 45.4659 17.7023 39.3327 18.3066C33.1995 18.9109 27.5142 21.7873 23.394 26.3704C19.2739 30.9536 17.0171 36.9121 17.067 43.0748C17.117 49.2374 19.4701 55.1585 23.664 59.6743C27.8579 64.1901 33.5891 66.974 39.7313 67.4787C45.8734 67.9835 51.9823 66.1726 56.8571 62.4021L68.0015 65.039Z" fill="white"/>
<path d="M68.002 65.0391L56.8348 62.4817C56.8252 62.4804 56.816 62.4771 56.8078 62.472C56.7996 62.4668 56.7925 62.46 56.7871 62.4519C56.7818 62.4439 56.7782 62.4347 56.7766 62.4252C56.775 62.4156 56.7755 62.4058 56.778 62.3965C56.778 62.3965 56.778 62.3965 56.778 62.368L56.8803 62.4703C55.3173 63.6862 53.6157 64.7125 51.8111 65.5278C49.6697 66.4904 47.4021 67.1429 45.0767 67.4657C43.7855 67.6457 42.4808 67.7103 41.1781 67.6589C40.5019 67.6248 39.8199 67.6078 39.1322 67.551L37.0466 67.2327C30.8405 66.0155 25.3313 62.4795 21.6399 57.3443C19.5888 54.5023 18.1685 51.2549 17.4743 47.8195C16.762 44.1867 16.861 40.4414 17.7641 36.8513C18.6961 33.1002 20.5078 29.6249 23.0493 26.7128L24.0552 25.5762C24.3905 25.2011 24.7826 24.8942 25.1407 24.5533C25.4987 24.2123 25.8567 23.8656 26.2773 23.5815L27.4593 22.6949C27.8489 22.3954 28.2591 22.1239 28.6869 21.8822L29.9371 21.1264L31.2442 20.4899C31.6733 20.2729 32.1155 20.0831 32.5684 19.9216C36.0762 18.5307 39.8522 17.948 43.6161 18.2167C47.1766 18.4572 50.6402 19.4798 53.7603 21.2116C59.3604 24.3447 63.5417 29.5108 65.4389 35.6408C66.2046 38.2432 66.5668 40.9475 66.513 43.6596C66.4444 46.0126 66.0387 48.3436 65.3082 50.5815C64.6926 52.4416 63.861 54.223 62.8304 55.8894V55.8155L67.9963 65.0675L62.694 55.8553C62.6886 55.8448 62.6857 55.8331 62.6857 55.8212C62.6857 55.8093 62.6886 55.7976 62.694 55.7871C63.7049 54.1253 64.5193 52.3517 65.1207 50.5019C65.8389 48.2778 66.2332 45.9619 66.2914 43.6255C66.3343 40.9337 65.9683 38.2511 65.2059 35.6692C63.3005 29.6145 59.1476 24.52 53.6012 21.4333C50.5145 19.7263 47.0901 18.7194 43.5707 18.4838C39.848 18.2256 36.1149 18.8083 32.6479 20.1887C32.201 20.3512 31.7645 20.541 31.3408 20.757L30.0508 21.3821L28.8119 22.1323C28.3906 22.3715 27.9862 22.6392 27.6014 22.9336L26.4307 23.8088C26.0329 24.0929 25.6976 24.4566 25.3282 24.7749C24.9588 25.0931 24.5837 25.4114 24.2598 25.7808L23.2653 26.8776C20.7516 29.7548 18.9594 33.1893 18.0369 36.8968C17.1433 40.4437 17.0424 44.1439 17.7414 47.7343C18.4261 51.1313 19.8268 54.3434 21.8502 57.1567C25.4974 62.2438 30.9419 65.7543 37.0807 66.977L39.1436 67.2952C39.8256 67.352 40.5019 67.3691 41.1668 67.4089C42.4615 67.4639 43.7587 67.4031 45.0426 67.227C47.3583 66.9212 49.6184 66.2858 51.7542 65.3403C53.5507 64.5403 55.2464 63.5312 56.8064 62.3339C56.8133 62.3265 56.8217 62.3206 56.831 62.3166C56.8403 62.3126 56.8503 62.3105 56.8604 62.3105C56.8705 62.3105 56.8806 62.3126 56.8899 62.3166C56.8991 62.3206 56.9075 62.3265 56.9144 62.3339C56.923 62.3476 56.9276 62.3633 56.9276 62.3794C56.9276 62.3955 56.923 62.4113 56.9144 62.4249L56.8746 62.3055L68.002 65.0391Z" fill="#263238"/>
<path d="M34.5343 38.2209C34.1487 38.039 33.7323 37.931 33.3068 37.9026C32.6832 37.8026 32.0444 37.8651 31.4521 38.0841C30.8597 38.3031 30.3339 38.6712 29.9254 39.1529C32.5908 40.6987 36.2222 42.7502 38.8193 44.2335L42.0984 42.3581C39.7343 41.0567 36.7678 39.42 34.5343 38.2209Z" fill="#5D4037"/>
<g opacity="0.3">
<path d="M34.5343 38.2209C34.1487 38.039 33.7323 37.931 33.3068 37.9026C32.6832 37.8026 32.0444 37.8651 31.4521 38.0841C30.8597 38.3031 30.3339 38.6712 29.9254 39.1529C32.5908 40.6987 36.2222 42.7502 38.8193 44.2335L42.0984 42.3581C39.7343 41.0567 36.7678 39.42 34.5343 38.2209Z" fill="black"/>
</g>
<path d="M44.5766 47.6888L44.4572 47.5865C43.6389 47.1148 42.7523 46.2169 41.9454 46.2339C41.6328 46.2339 41.2918 46.5124 40.4791 46.967C39.1266 47.7342 36.8477 49.0698 35.4838 49.8085C34.3472 50.4507 32.9037 50.9452 31.5795 50.5132C30.9039 50.2651 30.2826 49.8888 29.7496 49.4051L44.5709 40.8123C44.497 40.5907 44.4175 40.3804 44.3436 40.1645C44.0451 39.2949 44.0369 38.352 44.3203 37.4774C44.6037 36.6029 45.1634 35.8439 45.9152 35.3148C46.6669 34.7856 47.5702 34.5147 48.4891 34.5429C49.408 34.5711 50.2929 34.8969 51.0108 35.4712C51.7287 36.0455 52.2407 36.8373 52.4699 37.7276C52.6992 38.6179 52.6332 39.5586 52.2819 40.4082C51.9307 41.2577 51.3131 41.9703 50.5221 42.4388C49.731 42.9073 48.8093 43.1063 47.8955 43.006C47.5541 42.9838 47.2129 43.0525 46.9066 43.2049C46.3383 43.4777 45.8155 43.8243 45.1392 44.2108C46.2758 44.7223 47.0544 45.5406 48.3899 45.4156C50.2312 45.2451 51.8622 46.5806 52.4248 48.3594C52.6899 49.2094 52.6798 50.1213 52.3961 50.9652C52.1124 51.8091 51.5696 52.5419 50.845 53.0592C50.1157 53.5828 49.2393 53.8617 48.3416 53.8559C47.4439 53.8501 46.5712 53.5598 45.8488 53.0269C45.1264 52.4939 44.5916 51.7457 44.3211 50.8897C44.0507 50.0337 44.0585 49.114 44.3436 48.2628C44.4118 48.098 44.5084 47.9047 44.5766 47.6888ZM48.3615 40.8692C48.6332 40.8723 48.9028 40.8208 49.1542 40.7177C49.4056 40.6146 49.6338 40.4621 49.8251 40.2691C50.0165 40.0762 50.1671 39.8468 50.2681 39.5945C50.3691 39.3422 50.4184 39.0722 50.413 38.8005C50.4042 38.2648 50.1867 37.7536 49.8067 37.3758C49.4267 36.9979 48.9143 36.7832 48.3785 36.7774C47.8298 36.7834 47.3054 37.0048 46.9184 37.3939C46.5314 37.783 46.3129 38.3086 46.3099 38.8574C46.3261 39.3916 46.549 39.8988 46.9317 40.2719C47.3144 40.6451 47.827 40.8551 48.3615 40.8578V40.8692ZM48.3615 51.7124C48.8975 51.7171 49.4142 51.5126 49.8016 51.1421C50.189 50.7717 50.4165 50.2647 50.4358 49.729C50.4472 49.4572 50.4038 49.1858 50.308 48.9312C50.2121 48.6766 50.066 48.4439 49.8781 48.2471C49.6903 48.0502 49.4648 47.8933 49.2149 47.7857C48.965 47.678 48.696 47.6219 48.424 47.6206C47.8878 47.6141 47.37 47.8161 46.9799 48.184C46.5897 48.5519 46.3577 49.0569 46.3326 49.5926C46.3278 50.1357 46.5344 50.6595 46.9088 51.053C47.2832 51.4465 47.796 51.6789 48.3387 51.701L48.3615 51.7124Z" fill="#5D4037"/>
<path d="M42.849 44.1654C42.7979 44.1654 42.8206 43.7846 42.4001 43.4834C42.2845 43.4033 42.1511 43.3526 42.0114 43.3357C41.8718 43.3189 41.7301 43.3364 41.5988 43.3868C41.4424 43.4491 41.3083 43.5568 41.2138 43.6961C41.1193 43.8354 41.0688 43.9999 41.0688 44.1682C41.0688 44.3365 41.1193 44.501 41.2138 44.6403C41.3083 44.7796 41.4424 44.8873 41.5988 44.9496C41.7301 45 41.8718 45.0175 42.0114 45.0006C42.1511 44.9838 42.2845 44.9331 42.4001 44.853C42.8206 44.5518 42.7979 44.154 42.849 44.1654C42.9002 44.1767 42.8945 44.2563 42.849 44.4154C42.8153 44.652 42.6935 44.8671 42.5081 45.0178C42.3679 45.1341 42.2002 45.2124 42.0211 45.2453C41.842 45.2781 41.6574 45.2644 41.4851 45.2053C41.2691 45.131 41.0818 44.9912 40.9491 44.8052C40.8164 44.6193 40.7451 44.3966 40.7451 44.1682C40.7451 43.9398 40.8164 43.7171 40.9491 43.5312C41.0818 43.3452 41.2691 43.2053 41.4851 43.131C41.6574 43.072 41.842 43.0583 42.0211 43.0911C42.2002 43.124 42.3679 43.2023 42.5081 43.3186C42.6931 43.4672 42.815 43.6804 42.849 43.9153C42.8945 44.0744 42.8661 44.1654 42.849 44.1654Z" fill="#263238"/>
<path d="M46.4746 43.4436C46.3784 43.516 46.2778 43.5825 46.1734 43.6425L45.3266 44.154L42.5249 45.8021L39.6834 47.416L38.8196 47.8934C38.7165 47.9576 38.6082 48.0127 38.4956 48.0582C38.5907 47.9825 38.6914 47.9141 38.7968 47.8536L39.6436 47.3422L42.4453 45.6998L45.2868 44.0858L46.1507 43.6027C46.2544 43.5415 46.3627 43.4883 46.4746 43.4436Z" fill="#263238"/>
<path d="M44.0087 41.1704C43.9657 41.2059 43.9201 41.2382 43.8723 41.267L43.4632 41.5228L41.9515 42.4605C40.6785 43.2333 38.9111 44.2904 36.9277 45.4099L31.8641 48.2855L30.3013 49.1153L29.8807 49.3426L29.733 49.4165C29.733 49.4165 29.7785 49.3824 29.8694 49.3255L30.2786 49.0755L31.8016 48.1833L36.8538 45.2792C38.8315 44.1426 40.6046 43.114 41.8946 42.3638L43.4234 41.483L43.8439 41.2443L44.0087 41.1704Z" fill="#263238"/>
<path d="M3.05178 73.6302L4.13155 75.6022L6.10355 76.682L4.13155 77.7617L3.05178 79.7337L1.97201 77.7617L0 76.682L1.97201 75.6022L3.05178 73.6302Z" fill="#5D4037"/>
<path d="M10.2581 46.6245L11.3776 46.5506L12.2812 45.88L12.3551 47.0053L13.0257 47.9089L11.9005 47.9828L10.9969 48.6477L10.923 47.5281L10.2581 46.6245Z" fill="#5D4037"/>
<path d="M192.035 136.302L193.154 136.229L194.058 135.558L194.132 136.683L194.802 137.587L193.677 137.661L192.773 138.326L192.7 137.206L192.035 136.302Z" fill="#5D4037"/>
<path d="M63.9904 80.1941L65.11 80.1202L66.0192 79.4553L66.0931 80.5749L66.758 81.4785L65.6385 81.5523L64.7292 82.2172L64.661 81.0977L63.9904 80.1941Z" fill="#5D4037"/>
<path d="M70.822 32.1726L71.9415 32.0987L72.8451 31.4338L72.919 32.5534L73.5839 33.457L72.4643 33.5308L71.5607 34.2014L71.4869 33.0762L70.822 32.1726Z" fill="#5D4037"/>
<path d="M36.4112 61.9743L38.1161 60.9911L39.0197 59.2465L40.0029 60.9514L41.7532 61.8606L40.0483 62.8381L39.1391 64.5885L38.1559 62.8836L36.4112 61.9743Z" fill="#5D4037"/>
<path d="M179.651 158.875L181.356 157.892L182.26 156.148L183.243 157.852L184.988 158.756L183.283 159.739L182.379 161.484L181.396 159.779L179.651 158.875Z" fill="#5D4037"/>
<path d="M171.087 127.704L172.792 126.721L173.701 124.976L174.684 126.681L176.429 127.585L174.724 128.568L173.815 130.318L172.837 128.608L171.087 127.704Z" fill="#5D4037"/>
</svg>
