<svg width="14" height="14" viewBox="0 0 14 14" fill="none" xmlns="http://www.w3.org/2000/svg">
<path d="M6.29474 1.83828C6.35979 1.70654 6.46039 1.59563 6.58517 1.51807C6.70996 1.44051 6.85395 1.39941 7.00087 1.39941C7.14779 1.39941 7.29178 1.44051 7.41657 1.51807C7.54135 1.59563 7.64195 1.70654 7.70699 1.83828L9.03787 4.53503L12.0137 4.96816C12.1592 4.98914 12.2959 5.05042 12.4084 5.14506C12.5209 5.2397 12.6046 5.36393 12.6501 5.50369C12.6956 5.64345 12.7011 5.79316 12.666 5.93588C12.6308 6.0786 12.5565 6.20864 12.4512 6.31128L10.297 8.41041L10.8054 11.374C10.8303 11.5189 10.8141 11.6678 10.7588 11.804C10.7034 11.9402 10.6111 12.0581 10.4922 12.1445C10.3733 12.2309 10.2326 12.2823 10.0859 12.2929C9.93934 12.3035 9.7927 12.2728 9.66262 12.2044L7.00087 10.8044L4.33912 12.2044C4.20903 12.2728 4.06239 12.3035 3.91579 12.2929C3.76918 12.2823 3.62847 12.2309 3.50956 12.1445C3.39065 12.0581 3.2983 11.9402 3.24295 11.804C3.1876 11.6678 3.17146 11.5189 3.19637 11.374L3.70387 8.41041L1.55137 6.31041C1.44643 6.20779 1.37226 6.07789 1.33722 5.93536C1.30218 5.79283 1.30768 5.64334 1.35308 5.50376C1.39848 5.36419 1.48199 5.24008 1.59417 5.14544C1.70636 5.0508 1.84276 4.9894 1.98799 4.96816L4.96299 4.53503L6.29474 1.83828Z" fill="#FFB800"/>
</svg>
