<svg width="53" height="44" viewBox="0 0 53 44" fill="none" xmlns="http://www.w3.org/2000/svg">
<path d="M14.048 1.73177C8.82348 2.26713 -0.593207 3.4312 0.606948 7.99242C0.660134 8.19455 0.715115 8.40115 0.742864 8.60831L4.3736 35.7143C4.41649 36.0345 4.49946 36.3525 4.70471 36.6019C6.27073 38.5048 13.1492 41.6808 35.4031 43.3096L45.4354 42.7956C45.8608 42.7738 46.2815 42.6701 46.6956 42.5709C47.8071 42.3047 49.2839 41.8356 49.2839 34.5564L52.4872 4.46716C52.4872 3.42133 52.78 0.0764528 50.1952 0.547297C49.9436 0.593135 49.6886 0.641606 49.433 0.649426L14.048 1.73177Z" fill="#EFDAC2" stroke="#EFDAC2"/>
</svg>
