<svg width="143" height="144" viewBox="0 0 143 144" fill="none" xmlns="http://www.w3.org/2000/svg">
<path d="M128.169 76.641L132.87 76.5461L135.186 76.5088C135.958 76.4919 136.722 76.5088 137.493 76.4885L137.334 76.641L137.317 72.8471L137.493 73.0166L132.831 72.9929C131.274 72.9929 129.722 72.9556 128.169 72.9387L128.264 72.8471C128.264 73.4676 128.232 74.0914 128.218 74.722L128.169 76.641ZM128.169 76.641L128.116 74.7627C128.116 74.1287 128.077 73.4913 128.07 72.8471V72.742H128.169C129.722 72.742 131.274 72.6912 132.831 72.6878L137.493 72.6674H137.669V72.837L137.648 76.6309V76.8106H137.493C136.704 76.8106 135.919 76.8106 135.134 76.7936L132.789 76.7563L128.169 76.641Z" fill="#EBEBEB"/>
<path d="M133.369 81.4251L138.07 81.3301L140.387 81.2928C141.158 81.2759 141.926 81.2928 142.693 81.2725L142.535 81.4251V77.6311L142.711 77.8007L138.049 77.7769C136.493 77.7769 134.94 77.7396 133.387 77.7227L133.482 77.6311C133.482 78.2516 133.45 78.8754 133.436 79.5061L133.369 81.4251ZM133.369 81.4251L133.32 79.5467C133.302 78.9127 133.278 78.2753 133.271 77.6311V77.5396H133.369C134.922 77.5226 136.475 77.4887 138.031 77.4854L142.693 77.465H142.87V77.6345L142.848 81.4284V81.581H142.693C141.908 81.581 141.12 81.581 140.334 81.5641L137.989 81.5268L133.369 81.4251Z" fill="#EBEBEB"/>
<path d="M122.946 81.4217H132.271V77.6278H122.946V81.4217Z" fill="#EBEBEB"/>
<path d="M0.32365 107.613L5.02796 107.518L7.34491 107.481C8.11253 107.481 8.88015 107.481 9.64777 107.46L9.49284 107.613L9.47171 103.819L9.64777 103.988L4.98571 103.965C3.43286 103.965 1.88002 103.927 0.32365 103.91L0.418723 103.819C0.418723 104.439 0.390553 105.063 0.372947 105.694L0.32365 107.613ZM0.32365 107.613L0.274354 105.735C0.256748 105.101 0.23562 104.463 0.228578 103.819V103.727H0.32365C1.88002 103.71 3.43286 103.677 4.98571 103.673L9.64777 103.653H9.82383V103.822V107.616V107.769H9.66538C8.88015 107.769 8.0914 107.769 7.3097 107.752L4.95754 107.708L0.32365 107.613Z" fill="#EBEBEB"/>
<path d="M5.52759 112.393H14.8517V108.599H5.52759V112.393Z" fill="#EBEBEB"/>
<path d="M24.4826 36.7558L29.1869 36.6609L31.5039 36.6236C32.2715 36.6067 33.0391 36.6236 33.8067 36.6067L33.6518 36.7558L33.6306 32.9619L33.8067 33.1314L29.1447 33.1111C27.5918 33.1111 26.0354 33.0738 24.4826 33.0535L24.5777 32.9619C24.5777 33.5824 24.5495 34.2096 24.5319 34.8402L24.4826 36.7558ZM24.4826 36.7558L24.4333 34.8809C24.4333 34.2469 24.3946 33.6061 24.3875 32.9619V32.8704H24.4826C26.0354 32.8534 27.5918 32.8161 29.1447 32.8161L33.8067 32.7924H33.9828V32.9619L33.9652 36.7558V36.9084H33.8102C33.025 36.9084 32.2363 36.9084 31.4546 36.8881L29.1094 36.8508L24.4826 36.7558Z" fill="#EBEBEB"/>
<path d="M5.47875 3.96336L14.8029 3.96336V0.16945L5.47875 0.16945V3.96336Z" fill="#EBEBEB"/>
<path d="M0.282238 8.74734L4.98303 8.66257L7.29998 8.62528C8.07112 8.62528 8.83521 8.62528 9.60636 8.62528L9.4479 8.77446V4.98055L9.62396 5.15007L4.95838 5.1026C3.40201 5.1026 1.84917 5.06531 0.296322 5.04496L0.391394 4.95342C0.391394 5.57387 0.359705 6.19772 0.34562 6.83173L0.282238 8.74734ZM0.282238 8.74734L0.22942 6.87242C0.22942 6.2384 0.190686 5.59761 0.183644 4.95342V4.86188H0.282238C1.83508 4.86188 3.38793 4.80763 4.9443 4.80424L9.60636 4.7839H9.78242V4.95342L9.76129 8.74734V8.8999H9.60636C8.81761 8.8999 8.03238 8.89991 7.24716 8.87956L4.90204 8.84227L0.282238 8.74734Z" fill="#EBEBEB"/>
<path d="M128.169 3.96344L132.87 3.8685L135.186 3.83121C135.958 3.83121 136.722 3.83121 137.493 3.83121L137.334 3.98039L137.317 0.186474L137.493 0.355997L132.831 0.335654C131.274 0.335654 129.722 0.29836 128.169 0.278017L128.264 0.186474C128.264 0.806927 128.232 1.43077 128.218 2.06478L128.169 3.96344ZM128.169 3.96344L128.116 2.08852C128.116 1.4545 128.077 0.813708 128.07 0.169523V0.0779802H128.169C129.722 0.0779802 131.274 0.0237323 132.831 0.0203419L137.493 0H137.669V0.186474L137.648 3.98039V4.13296H137.493C136.704 4.13296 135.919 4.13296 135.134 4.11262L132.778 4.05837L128.169 3.96344Z" fill="#EBEBEB"/>
<path d="M113.428 51.406H122.752V47.6121H113.428V51.406Z" fill="#EBEBEB"/>
<path d="M14.1944 23.7161C14.3693 23.613 14.5703 23.5585 14.7754 23.5585C14.9804 23.5585 15.1815 23.613 15.3564 23.7161L15.6557 23.8823C15.7578 23.9331 15.8599 23.984 15.9656 24.0314C16.1515 24.1135 16.3103 24.2433 16.4246 24.4066C16.5389 24.5699 16.6042 24.7603 16.6135 24.957L16.6557 26.3336L21.3178 26.1945L21.272 24.818C21.2673 24.6203 21.3194 24.4251 21.4225 24.254C21.5257 24.0829 21.6758 23.9425 21.8565 23.8484C22.0599 23.7457 22.2574 23.6326 22.4481 23.5093C22.6155 23.3956 22.8124 23.3287 23.0169 23.3161C23.2214 23.3036 23.4255 23.3458 23.6065 23.4381L24.8636 24.0857L27.0679 20.129L25.8108 19.4781C25.6306 19.3846 25.4808 19.2448 25.3782 19.0742C25.2756 18.9035 25.2242 18.7089 25.2298 18.5118C25.2373 18.2856 25.2303 18.0591 25.2087 17.8337C25.186 17.6347 25.2223 17.4337 25.3133 17.2537C25.4042 17.0737 25.5462 16.9222 25.7228 16.8166L26.9376 16.1215L24.4728 12.3073L23.2685 13.0227C23.0943 13.1258 22.8938 13.1804 22.6893 13.1804C22.4848 13.1804 22.2842 13.1258 22.11 13.0227C22.015 12.965 21.9129 12.9108 21.8143 12.8599C21.7157 12.8091 21.61 12.7548 21.5044 12.7107C21.318 12.6284 21.1588 12.4981 21.0445 12.3342C20.9301 12.1702 20.8651 11.979 20.8565 11.7817L20.8037 10.3951L16.1416 10.5341L16.1874 11.8902C16.1937 12.0883 16.1423 12.2841 16.039 12.4555C15.9357 12.6268 15.7846 12.7669 15.6029 12.8599C15.3995 12.9626 15.202 13.0757 15.0113 13.199C14.8442 13.3134 14.6473 13.3807 14.4426 13.3933C14.2379 13.4059 14.0337 13.3632 13.8528 13.2702L12.5958 12.6226L10.3915 16.6097L11.6486 17.2607C11.8287 17.354 11.9782 17.4939 12.0802 17.6647C12.1823 17.8354 12.2328 18.0301 12.2261 18.227C12.2216 18.4533 12.2298 18.6796 12.2507 18.9051C12.2729 19.104 12.2365 19.3049 12.1456 19.4848C12.0546 19.6647 11.9129 19.8163 11.7366 19.9222L10.5218 20.6478L12.9866 24.462L14.1944 23.7161ZM15.3599 16.6301C15.7158 15.9882 16.2613 15.4624 16.9276 15.1191C17.5938 14.7757 18.3508 14.6304 19.1029 14.7013C19.8549 14.7723 20.5683 15.0564 21.1526 15.5178C21.737 15.9791 22.1661 16.5969 22.3858 17.2931C22.6054 17.9893 22.6058 18.7325 22.3867 19.4289C22.1676 20.1252 21.739 20.7434 21.1551 21.2052C20.5711 21.667 19.858 21.9517 19.1061 22.0232C18.3541 22.0948 17.5969 21.9501 16.9304 21.6073C16.0374 21.147 15.3706 20.3645 15.0761 19.4314C14.7817 18.4983 14.8838 17.4908 15.3599 16.6301Z" fill="#EBEBEB"/>
<path d="M136.299 69.8737C136.372 69.754 136.478 69.6564 136.605 69.5917C136.733 69.527 136.877 69.4979 137.02 69.5075H137.503C137.643 69.5003 137.783 69.5303 137.908 69.5943C138.032 69.6582 138.135 69.7537 138.207 69.8703L138.707 70.7077L141.524 69.1346L141.024 68.3005C140.952 68.1804 140.917 68.0435 140.922 67.9051C140.927 67.7667 140.972 67.6324 141.052 67.5173C141.141 67.384 141.222 67.2484 141.295 67.1105C141.36 66.9849 141.461 66.8796 141.586 66.8064C141.71 66.7333 141.854 66.6953 141.999 66.6968H142.999V63.5505H141.999C141.854 63.5527 141.711 63.5155 141.586 63.4429C141.461 63.3703 141.361 63.2654 141.295 63.1403C141.223 63.0001 141.141 62.8643 141.052 62.7334C140.972 62.6184 140.927 62.4841 140.922 62.3457C140.917 62.2073 140.952 62.0703 141.024 61.9502L141.524 61.1128L138.707 59.543L138.204 60.3804C138.132 60.4977 138.029 60.5938 137.905 60.6584C137.78 60.7229 137.64 60.7535 137.499 60.7466C137.418 60.7466 137.337 60.7466 137.256 60.7466C137.175 60.7466 137.098 60.7466 137.017 60.7466C136.873 60.7551 136.73 60.7255 136.603 60.6609C136.475 60.5963 136.369 60.4993 136.295 60.3804L135.795 59.543L132.978 61.1128L133.478 61.9468C133.55 62.0669 133.585 62.2039 133.58 62.3423C133.575 62.4807 133.53 62.615 133.45 62.73C133.363 62.8634 133.282 62.999 133.207 63.1369C133.142 63.2627 133.041 63.3683 132.917 63.4415C132.792 63.5146 132.649 63.5524 132.503 63.5505H131.503V66.6968H132.503C132.649 66.6953 132.792 66.7333 132.916 66.8064C133.041 66.8796 133.142 66.9849 133.207 67.1105C133.28 67.2506 133.361 67.3865 133.45 67.5173C133.53 67.6324 133.575 67.7667 133.58 67.9051C133.585 68.0435 133.55 68.1804 133.478 68.3005L132.978 69.1346L135.795 70.7077L136.299 69.8737ZM134.584 65.1271C134.583 64.6173 134.739 64.1188 135.033 63.6946C135.327 63.2704 135.744 62.9396 136.233 62.744C136.722 62.5485 137.26 62.497 137.78 62.596C138.299 62.6951 138.776 62.9402 139.151 63.3004C139.526 63.6607 139.781 64.1198 139.884 64.6197C139.988 65.1197 139.935 65.6379 139.733 66.109C139.53 66.58 139.187 66.9826 138.747 67.2659C138.307 67.5492 137.789 67.7004 137.26 67.7004C136.552 67.6986 135.873 67.4269 135.372 66.9447C134.871 66.4625 134.589 65.809 134.587 65.1271H134.584Z" fill="#EBEBEB"/>
<path d="M0.866215 29.9106C0.990762 29.9806 1.09242 30.0828 1.15964 30.2057C1.22687 30.3286 1.25696 30.4671 1.2465 30.6056C1.2465 30.6802 1.2465 30.7582 1.2465 30.8362C1.2465 30.9141 1.2465 30.9921 1.2465 31.0701C1.25397 31.2055 1.22281 31.3402 1.1564 31.4598C1.08998 31.5793 0.990842 31.6791 0.869735 31.7482L0 32.2296L1.63383 34.942L2.49301 34.4843C2.61798 34.4161 2.76012 34.3825 2.90368 34.3873C3.04724 34.3921 3.18663 34.435 3.3064 34.5114C3.44373 34.5962 3.58457 34.6775 3.72894 34.7487C3.85718 34.8097 3.96528 34.9039 4.04114 35.0206C4.117 35.1374 4.15765 35.2722 4.15853 35.4099V36.3728H7.42268V35.4099C7.42283 35.2724 7.46278 35.1378 7.53804 35.021C7.61331 34.9042 7.7209 34.8099 7.84874 34.7487C7.99432 34.6777 8.13541 34.5985 8.27129 34.5114C8.39106 34.435 8.53044 34.3921 8.67401 34.3873C8.81757 34.3825 8.95971 34.4161 9.08468 34.4843L9.95442 34.9657L11.5847 32.2534L10.715 31.7685C10.594 31.699 10.4948 31.5993 10.4279 31.4799C10.3609 31.3606 10.3287 31.226 10.3347 31.0904C10.3347 31.0125 10.3347 30.9379 10.3347 30.8599C10.3347 30.7819 10.3347 30.7039 10.3347 30.6293C10.3255 30.491 10.3561 30.3529 10.4232 30.2303C10.4903 30.1076 10.5913 30.0052 10.715 29.9343L11.5847 29.4529L9.95442 26.7405L9.0882 27.2219C8.96348 27.2909 8.82122 27.3249 8.67748 27.3201C8.53375 27.3153 8.39427 27.2719 8.2748 27.1948C8.13865 27.1112 7.9978 27.0332 7.85226 26.9609C7.72159 26.8983 7.61194 26.8014 7.53593 26.6815C7.45993 26.5615 7.42067 26.4233 7.42268 26.2828V25.3199H4.16557V26.2828C4.16716 26.4232 4.12773 26.5613 4.05177 26.6812C3.97582 26.8011 3.86639 26.898 3.73599 26.9609C3.59047 27.0308 3.44937 27.1089 3.31344 27.1948C3.19329 27.2719 3.05325 27.3152 2.90898 27.32C2.76472 27.3248 2.62191 27.2908 2.49653 27.2219L1.63383 26.7405L0 29.4529L0.866215 29.9106ZM5.79589 28.2594C6.32532 28.2588 6.84306 28.4093 7.28361 28.692C7.72416 28.9748 8.06771 29.377 8.27079 29.8477C8.47388 30.3185 8.52738 30.8367 8.42452 31.3368C8.32166 31.8368 8.06706 32.2963 7.69294 32.657C7.31883 33.0177 6.84199 33.2634 6.32278 33.3631C5.80357 33.4628 5.26532 33.412 4.77612 33.2171C4.28692 33.0222 3.86876 32.6919 3.57455 32.2681C3.28034 31.8443 3.1233 31.3459 3.1233 30.8362C3.12423 30.1536 3.40599 29.4993 3.90689 29.0163C4.4078 28.5334 5.08703 28.2612 5.79589 28.2594Z" fill="#EBEBEB"/>
<path d="M29.944 143.592C44.0625 143.592 55.5078 142.015 55.5078 140.07C55.5078 138.124 44.0625 136.547 29.944 136.547C15.8254 136.547 4.3801 138.124 4.3801 140.07C4.3801 142.015 15.8254 143.592 29.944 143.592Z" fill="#EBEBEB"/>
<path d="M0.183644 132.217L18.015 132.136L35.8463 132.106L71.5089 132.048L107.172 132.102L125.003 132.133L142.834 132.217L125.003 132.299L107.172 132.329L71.5089 132.387L35.8463 132.329L18.015 132.299L0.183644 132.217Z" fill="#263238"/>
<path d="M101.266 2.41399H41.7579C40.958 2.41886 40.1669 2.57573 39.4301 2.87561C38.6933 3.17549 38.0252 3.61247 37.4642 4.1615C36.9031 4.71053 36.4602 5.3608 36.1607 6.07501C35.8612 6.78923 35.7111 7.55335 35.719 8.32354V126.311C35.705 127.864 36.3317 129.358 37.4615 130.465C38.5913 131.573 40.1316 132.203 41.7438 132.217H101.252C102.052 132.212 102.843 132.055 103.579 131.755C104.316 131.456 104.984 131.019 105.546 130.47C106.107 129.922 106.551 129.272 106.852 128.559C107.152 127.845 107.304 127.081 107.298 126.311V8.32354C107.305 7.55416 107.154 6.79099 106.855 6.07761C106.556 5.36423 106.113 4.71462 105.553 4.16586C104.993 3.6171 104.326 3.17995 103.591 2.87936C102.855 2.57877 102.065 2.42064 101.266 2.41399ZM103.53 122.663C103.53 125.769 101.115 128.281 98.1357 128.281H44.8847C41.8987 128.281 39.4832 125.769 39.4832 122.663V12.7922C39.4832 6.46558 41.8987 6.15705 44.8847 6.15705H55.5504C56.1701 6.15705 56.6772 6.83513 56.6772 7.67597V8.03875C56.6772 10.0188 57.7969 10.0188 59.1843 10.0188H83.8326C85.2164 10.0188 86.3291 10.0188 86.3291 8.04214V7.67597C86.3291 6.83513 86.8256 6.15705 87.4559 6.15705H98.1251C101.104 6.15705 103.52 6.99788 103.52 12.7922L103.53 122.663Z" fill="#263238"/>
<path d="M74.872 7.55394H68.143C68.0884 7.55394 68.0344 7.54359 67.984 7.52349C67.9336 7.50338 67.8878 7.47391 67.8492 7.43676C67.8106 7.39961 67.78 7.35551 67.7591 7.30697C67.7382 7.25843 67.7275 7.20641 67.7275 7.15387C67.7275 7.04777 67.7713 6.946 67.8492 6.87098C67.9271 6.79595 68.0328 6.7538 68.143 6.7538H74.872C74.9822 6.7538 75.0879 6.79595 75.1658 6.87098C75.2437 6.946 75.2875 7.04777 75.2875 7.15387C75.2875 7.20641 75.2767 7.25843 75.2559 7.30697C75.235 7.35551 75.2044 7.39961 75.1658 7.43676C75.1272 7.47391 75.0814 7.50338 75.031 7.52349C74.9806 7.54359 74.9265 7.55394 74.872 7.55394Z" fill="white"/>
<path d="M103.552 12.7922V122.663C103.552 125.769 101.136 128.281 98.1571 128.281H44.885C41.899 128.281 39.4834 125.769 39.4834 122.663V12.7922C39.4834 6.46561 41.899 6.15708 44.885 6.15708H55.5506C56.1704 6.15708 56.6774 6.83517 56.6774 7.676V8.03878C56.6774 10.0188 57.7972 10.0188 59.1845 10.0188H83.8329C85.2202 10.0188 86.3294 10.0188 86.3294 8.04217V7.676C86.3294 6.83517 86.8294 6.15708 87.4597 6.15708H98.1289C101.118 6.15708 103.552 6.99791 103.552 12.7922Z" fill="white"/>
<path d="M45.965 16.9861L44.0706 15.2807L45.965 13.5719L46.2573 13.8737L44.7009 15.2807L46.2573 16.6878L45.965 16.9861Z" fill="#C7C7C7"/>
<path d="M98.572 14.2161C98.572 14.2872 98.5502 14.3567 98.5091 14.4158C98.4681 14.4749 98.4098 14.5209 98.3416 14.5481C98.2734 14.5753 98.1984 14.5824 98.126 14.5686C98.0536 14.5547 97.9871 14.5205 97.9349 14.4702C97.8827 14.42 97.8471 14.3559 97.8327 14.2862C97.8183 14.2165 97.8257 14.1442 97.854 14.0786C97.8822 14.0129 97.93 13.9568 97.9914 13.9173C98.0528 13.8778 98.125 13.8567 98.1988 13.8567C98.2479 13.8563 98.2967 13.8652 98.3422 13.8831C98.3877 13.901 98.429 13.9275 98.4638 13.961C98.4985 13.9944 98.526 14.0342 98.5446 14.078C98.5632 14.1218 98.5725 14.1688 98.572 14.2161Z" fill="#C7C7C7"/>
<path d="M98.572 15.491C98.572 15.5621 98.5502 15.6315 98.5091 15.6906C98.4681 15.7497 98.4098 15.7958 98.3416 15.823C98.2734 15.8502 98.1984 15.8573 98.126 15.8435C98.0536 15.8296 97.9871 15.7954 97.9349 15.7451C97.8827 15.6948 97.8471 15.6308 97.8327 15.5611C97.8183 15.4914 97.8257 15.4191 97.854 15.3534C97.8822 15.2878 97.93 15.2316 97.9914 15.1922C98.0528 15.1527 98.125 15.1316 98.1988 15.1316C98.2479 15.1311 98.2967 15.1401 98.3422 15.158C98.3877 15.1759 98.429 15.2024 98.4638 15.2358C98.4985 15.2693 98.526 15.3091 98.5446 15.3529C98.5632 15.3967 98.5725 15.4437 98.572 15.491Z" fill="#C7C7C7"/>
<path d="M98.572 16.7657C98.572 16.8368 98.5502 16.9063 98.5091 16.9654C98.4681 17.0245 98.4098 17.0706 98.3416 17.0978C98.2734 17.125 98.1984 17.1321 98.126 17.1182C98.0536 17.1044 97.9871 17.0701 97.9349 17.0199C97.8827 16.9696 97.8471 16.9056 97.8327 16.8359C97.8183 16.7661 97.8257 16.6939 97.854 16.6282C97.8822 16.5625 97.93 16.5064 97.9914 16.4669C98.0528 16.4274 98.125 16.4064 98.1988 16.4064C98.2479 16.4059 98.2967 16.4149 98.3422 16.4328C98.3877 16.4507 98.429 16.4771 98.4638 16.5106C98.4985 16.5441 98.526 16.5839 98.5446 16.6277C98.5632 16.6715 98.5725 16.7184 98.572 16.7657Z" fill="#C7C7C7"/>
<path d="M53.7091 8.62525L53.607 8.72358L53.5471 8.77782C53.2832 8.52523 52.9262 8.38345 52.5541 8.38345C52.182 8.38345 51.8251 8.52523 51.5612 8.77782L51.5048 8.72018L51.4027 8.62186L51.533 8.50998C51.6274 8.43951 51.7289 8.37819 51.8358 8.32689C51.9624 8.26538 52.0976 8.22197 52.2372 8.19805C52.3024 8.18544 52.3682 8.17638 52.4344 8.17093H52.6105H52.7443C52.8705 8.18548 52.9945 8.21392 53.114 8.25569C53.1991 8.28673 53.2815 8.32413 53.3605 8.36758C53.444 8.41365 53.523 8.46699 53.5964 8.52693L53.7056 8.62186L53.7091 8.62525Z" fill="#C7C7C7"/>
<path d="M51.8886 9.08969L51.7231 8.93373C51.9441 8.72255 52.2428 8.60403 52.5541 8.60403C52.8654 8.60403 53.1642 8.72255 53.3851 8.93373L53.2196 9.08969C53.0428 8.92033 52.8035 8.82526 52.5541 8.82526C52.3047 8.82526 52.0654 8.92033 51.8886 9.08969Z" fill="#C7C7C7"/>
<path d="M53.058 9.2491L52.8961 9.40167C52.8496 9.3578 52.7945 9.32323 52.7341 9.29996C52.6736 9.27668 52.609 9.26516 52.5439 9.26605C52.4785 9.26482 52.4135 9.27652 52.3529 9.30043C52.2924 9.32434 52.2375 9.35995 52.1918 9.40506C52.139 9.35082 52.0827 9.29996 52.0298 9.2491C52.0957 9.18135 52.1753 9.12735 52.2638 9.09042C52.3522 9.0535 52.4475 9.03445 52.5439 9.03445C52.6403 9.03445 52.7357 9.0535 52.8241 9.09042C52.9125 9.12735 52.9922 9.18135 53.058 9.2491Z" fill="#C7C7C7"/>
<path d="M52.7031 9.54408C52.7031 9.58185 52.6875 9.61807 52.6598 9.64478C52.6321 9.67148 52.5944 9.68648 52.5552 9.68648C52.536 9.68649 52.5169 9.68278 52.4991 9.67559C52.4814 9.66839 52.4653 9.65785 52.4519 9.64458C52.4384 9.63131 52.4279 9.61558 52.4208 9.59832C52.4138 9.58106 52.4104 9.56262 52.4108 9.54408C52.4108 9.50722 52.4261 9.47186 52.4531 9.44579C52.4802 9.41972 52.5169 9.40508 52.5552 9.40508C52.5745 9.40462 52.5936 9.40788 52.6115 9.41467C52.6295 9.42145 52.6458 9.43162 52.6596 9.44457C52.6734 9.45753 52.6843 9.473 52.6918 9.49009C52.6993 9.50718 52.7031 9.52554 52.7031 9.54408Z" fill="#C7C7C7"/>
<path d="M43.6584 8.92366C43.6584 8.84238 43.6835 8.76293 43.7305 8.6954C43.7775 8.62786 43.8442 8.57528 43.9223 8.54434C44.0003 8.51339 44.0862 8.50546 44.1689 8.52157C44.2517 8.53767 44.3276 8.57709 44.387 8.6348C44.4465 8.69251 44.4867 8.76593 44.5028 8.84573C44.5188 8.92553 44.5099 9.00812 44.4771 9.08302C44.4443 9.15792 44.3892 9.22176 44.3186 9.26643C44.2481 9.31109 44.1654 9.33458 44.081 9.33391C44.0252 9.33391 43.9699 9.32328 43.9184 9.30262C43.867 9.28196 43.8202 9.25169 43.7809 9.21355C43.7416 9.17541 43.7106 9.13016 43.6896 9.0804C43.6685 9.03065 43.658 8.97738 43.6584 8.92366Z" fill="#C7C7C7"/>
<path d="M44.9948 8.92374C44.9962 8.8429 45.0223 8.76426 45.07 8.69769C45.1176 8.63113 45.1846 8.5796 45.2626 8.54959C45.3406 8.51958 45.426 8.51241 45.5082 8.529C45.5904 8.54559 45.6656 8.58518 45.7245 8.64282C45.7834 8.70045 45.8233 8.77356 45.8392 8.85294C45.855 8.93233 45.8462 9.01447 45.8137 9.08904C45.7813 9.1636 45.7267 9.22728 45.6568 9.27207C45.5869 9.31685 45.5048 9.34075 45.4208 9.34076C45.3643 9.34077 45.3083 9.32994 45.2561 9.3089C45.204 9.28786 45.1567 9.25703 45.117 9.21822C45.0774 9.1794 45.0462 9.13337 45.0252 9.08281C45.0042 9.03225 44.9938 8.97818 44.9948 8.92374Z" fill="#C7C7C7"/>
<path d="M46.3311 8.92374C46.3325 8.8429 46.3586 8.76426 46.4063 8.69769C46.4539 8.63113 46.5209 8.5796 46.5989 8.54959C46.6769 8.51958 46.7623 8.51241 46.8445 8.529C46.9267 8.54559 47.0019 8.58518 47.0608 8.64282C47.1197 8.70045 47.1596 8.77356 47.1755 8.85294C47.1913 8.93233 47.1825 9.01447 47.1501 9.08904C47.1176 9.1636 47.063 9.22728 46.9931 9.27207C46.9232 9.31685 46.8411 9.34075 46.7571 9.34076C46.7006 9.34077 46.6446 9.32994 46.5924 9.3089C46.5403 9.28786 46.493 9.25703 46.4533 9.21822C46.4137 9.1794 46.3825 9.13337 46.3615 9.08281C46.3405 9.03225 46.3301 8.97818 46.3311 8.92374Z" fill="#C7C7C7"/>
<path d="M47.6694 8.92372C47.6708 8.84274 47.6971 8.76397 47.7449 8.69733C47.7927 8.6307 47.8599 8.57918 47.9381 8.54927C48.0162 8.51936 48.1019 8.5124 48.1841 8.52926C48.2664 8.54613 48.3416 8.58606 48.4004 8.64403C48.4591 8.702 48.4987 8.77542 48.5142 8.85503C48.5297 8.93464 48.5203 9.01688 48.4873 9.09138C48.4544 9.16589 48.3992 9.22932 48.3289 9.2737C48.2585 9.31808 48.1761 9.34141 48.0919 9.34075C48.0356 9.34076 47.9797 9.32991 47.9278 9.30883C47.8758 9.28776 47.8287 9.25687 47.7894 9.21801C47.75 9.17914 47.7191 9.13309 47.6985 9.08254C47.6779 9.032 47.668 8.978 47.6694 8.92372Z" fill="#C7C7C7"/>
<path d="M49.0077 8.92372C49.0091 8.84274 49.0353 8.76397 49.0831 8.69733C49.1309 8.6307 49.1982 8.57918 49.2763 8.54927C49.3545 8.51936 49.4401 8.5124 49.5224 8.52926C49.6046 8.54613 49.6799 8.58606 49.7386 8.64403C49.7974 8.702 49.837 8.77542 49.8525 8.85503C49.8679 8.93464 49.8586 9.01688 49.8256 9.09138C49.7926 9.16589 49.7375 9.22932 49.6671 9.2737C49.5967 9.31808 49.5143 9.34141 49.4302 9.34075C49.3738 9.34076 49.318 9.32991 49.266 9.30883C49.2141 9.28776 49.167 9.25687 49.1276 9.21801C49.0882 9.17914 49.0573 9.13309 49.0367 9.08254C49.0161 9.032 49.0063 8.978 49.0077 8.92372Z" fill="#C7C7C7"/>
<path d="M98.7315 9.81869H95.2702V8.27265H98.7315V9.81869ZM95.4533 9.64578H98.5519V8.44556H95.4533V9.64578Z" fill="#C7C7C7"/>
<path d="M97.7863 8.53712H95.5574V9.55426H97.7863V8.53712Z" fill="#C7C7C7"/>
<path d="M99.0364 8.63212H98.7301V9.456H99.0364V8.63212Z" fill="#C7C7C7"/>
<path d="M49.2161 121.564H48.7266V123.717H47.8182V122.619H46.2055V123.717H45.297V121.564H44.8111L47.0118 119.371L49.2161 121.564Z" fill="#EBEBEB"/>
<path d="M98.2103 119.371H92.9004V120.1H98.2103V119.371Z" fill="#EBEBEB"/>
<path d="M98.2103 121.178H92.9004V121.907H98.2103V121.178Z" fill="#EBEBEB"/>
<path d="M98.2103 122.985H92.9004V123.714H98.2103V122.985Z" fill="#EBEBEB"/>
<path d="M73.0188 121.253L71.5082 122.806L69.9976 121.253L70.2652 121.015L71.5082 122.29L72.7512 121.015L73.0188 121.253Z" fill="#EBEBEB"/>
<path d="M71.5079 124.409C70.9654 124.409 70.435 124.254 69.984 123.964C69.5329 123.674 69.1813 123.261 68.9737 122.779C68.7661 122.296 68.7117 121.765 68.8176 121.253C68.9234 120.74 69.1847 120.27 69.5683 119.9C69.9519 119.531 70.4407 119.28 70.9728 119.178C71.5048 119.076 72.0564 119.128 72.5576 119.328C73.0588 119.528 73.4872 119.866 73.7886 120.301C74.09 120.735 74.2509 121.246 74.2509 121.768C74.249 122.468 73.9594 123.139 73.4454 123.634C72.9314 124.129 72.2348 124.407 71.5079 124.409ZM71.5079 119.476C71.0371 119.476 70.5769 119.611 70.1854 119.862C69.794 120.114 69.4889 120.472 69.3088 120.891C69.1286 121.31 69.0815 121.771 69.1733 122.215C69.2651 122.66 69.4918 123.068 69.8247 123.389C70.1576 123.709 70.5818 123.928 71.0435 124.016C71.5052 124.104 71.9839 124.059 72.4188 123.886C72.8538 123.712 73.2255 123.418 73.4871 123.041C73.7486 122.664 73.8882 122.221 73.8882 121.768C73.8882 121.16 73.6374 120.577 73.191 120.147C72.7446 119.718 72.1392 119.476 71.5079 119.476Z" fill="#EBEBEB"/>
<path d="M67.4134 112.278C67.4134 112.452 67.3597 112.623 67.2591 112.768C67.1585 112.913 67.0155 113.026 66.8482 113.092C66.6809 113.159 66.4969 113.177 66.3193 113.143C66.1417 113.109 65.9786 113.025 65.8505 112.901C65.7225 112.778 65.6353 112.621 65.6 112.45C65.5646 112.279 65.5828 112.102 65.6521 111.941C65.7214 111.78 65.8387 111.642 65.9892 111.545C66.1398 111.448 66.3168 111.397 66.4979 111.397C66.6182 111.396 66.7375 111.419 66.8488 111.463C66.9601 111.507 67.0612 111.572 67.1463 111.654C67.2314 111.736 67.2988 111.833 67.3446 111.94C67.3905 112.047 67.4139 112.162 67.4134 112.278Z" fill="#DBDBDB"/>
<path d="M72.9951 112.278C72.9951 112.542 72.9137 112.801 72.7612 113.02C72.6088 113.24 72.3921 113.411 72.1386 113.512C71.8851 113.613 71.6062 113.64 71.337 113.588C71.0679 113.537 70.8207 113.41 70.6267 113.223C70.4327 113.036 70.3005 112.798 70.247 112.539C70.1935 112.28 70.221 112.011 70.326 111.767C70.431 111.523 70.6088 111.314 70.8369 111.167C71.0651 111.021 71.3333 110.942 71.6077 110.942C71.9757 110.942 72.3285 111.083 72.5887 111.334C72.8489 111.584 72.9951 111.924 72.9951 112.278Z" fill="#5D4037"/>
<path d="M77.631 112.278C77.631 112.452 77.5773 112.623 77.4767 112.768C77.3761 112.913 77.2332 113.026 77.0659 113.092C76.8986 113.159 76.7145 113.177 76.5369 113.143C76.3593 113.109 76.1962 113.025 76.0681 112.901C75.9401 112.778 75.8529 112.621 75.8176 112.45C75.7823 112.279 75.8004 112.102 75.8697 111.941C75.939 111.78 76.0563 111.642 76.2069 111.545C76.3574 111.448 76.5344 111.397 76.7155 111.397C76.8359 111.396 76.9551 111.419 77.0664 111.463C77.1777 111.507 77.2788 111.572 77.3639 111.654C77.449 111.736 77.5164 111.833 77.5623 111.94C77.6081 112.047 77.6315 112.162 77.631 112.278Z" fill="#DBDBDB"/>
<path d="M83.6673 87.7177H58.9556V95.2852H83.6673V87.7177Z" fill="#5D4037"/>
<path d="M65.8743 92.5627V90.5284C65.8738 90.5034 65.8785 90.4785 65.8883 90.4552C65.898 90.432 65.9125 90.4109 65.9309 90.3931C65.9493 90.3754 65.9713 90.3614 65.9954 90.3521C66.0196 90.3427 66.0454 90.3381 66.0714 90.3386C66.0976 90.3381 66.1236 90.3427 66.148 90.352C66.1723 90.3614 66.1945 90.3753 66.2132 90.393C66.2318 90.4106 66.2467 90.4317 66.2568 90.455C66.2669 90.4782 66.2722 90.5032 66.2721 90.5284V92.383H67.251C67.3043 92.383 67.3553 92.4034 67.393 92.4396C67.4306 92.4758 67.4517 92.525 67.4517 92.5763C67.4517 92.6275 67.4306 92.6767 67.393 92.7129C67.3553 92.7491 67.3043 92.7695 67.251 92.7695H66.0714C66.044 92.7696 66.0168 92.7642 65.9917 92.7536C65.9665 92.743 65.944 92.7275 65.9254 92.708C65.9068 92.6886 65.8927 92.6656 65.8839 92.6406C65.8751 92.6155 65.8718 92.589 65.8743 92.5627Z" fill="white"/>
<path d="M69.7474 90.6233C69.982 90.8598 70.1129 91.1743 70.1129 91.5014C70.1129 91.8285 69.982 92.143 69.7474 92.3796C69.6389 92.4957 69.5065 92.5889 69.3585 92.6531C69.2106 92.7173 69.0504 92.7512 68.8882 92.7525C68.7222 92.7522 68.558 92.7189 68.4059 92.6547C68.2539 92.5906 68.1172 92.4969 68.0044 92.3796C67.7737 92.1411 67.6454 91.8273 67.6454 91.5014C67.6454 91.1755 67.7737 90.8618 68.0044 90.6233C68.1166 90.5053 68.2532 90.4112 68.4054 90.347C68.5576 90.2828 68.722 90.2499 68.8882 90.2504C69.0505 90.2511 69.2109 90.2847 69.3589 90.3489C69.507 90.4132 69.6393 90.5066 69.7474 90.6233ZM69.7016 91.5014C69.7015 91.2765 69.6135 91.0598 69.4551 90.8945C69.3835 90.8178 69.2962 90.7562 69.1986 90.7136C69.101 90.671 68.9953 90.6483 68.8882 90.647C68.7782 90.6466 68.6693 90.6684 68.5686 90.711C68.4679 90.7536 68.3777 90.8162 68.3037 90.8945C68.144 91.0591 68.0558 91.2762 68.0572 91.5014C68.0549 91.7258 68.1433 91.9422 68.3037 92.1049C68.3775 92.1838 68.4676 92.2468 68.5683 92.29C68.669 92.3332 68.778 92.3557 68.8882 92.3558C68.9956 92.3539 69.1013 92.3307 69.1989 92.2875C69.2965 92.2443 69.3837 92.1821 69.4551 92.1049C69.6088 91.9392 69.6918 91.7236 69.6875 91.5014H69.7016Z" fill="white"/>
<path d="M70.699 91.5049C70.7048 91.2668 70.7791 91.0349 70.9138 90.8352C71.0485 90.6354 71.2382 90.4756 71.4617 90.3737C71.6852 90.2717 71.9338 90.2315 72.1796 90.2576C72.4255 90.2838 72.6589 90.3752 72.854 90.5217C72.8969 90.554 72.9248 90.6015 72.9314 90.6536C72.938 90.7058 72.9228 90.7583 72.8892 90.7997C72.8556 90.841 72.8063 90.8679 72.7521 90.8742C72.698 90.8806 72.6434 90.866 72.6004 90.8336C72.4382 90.7127 72.2387 90.6471 72.0335 90.6471C71.9128 90.6453 71.7929 90.6669 71.681 90.7106C71.5691 90.7543 71.4675 90.8192 71.3821 90.9014C71.2966 90.9782 71.2284 91.0711 71.1818 91.1743C71.1352 91.2775 71.1111 91.3889 71.1111 91.5015C71.1111 91.6141 71.1352 91.7255 71.1818 91.8287C71.2284 91.9319 71.2966 92.0248 71.3821 92.1016C71.4675 92.1838 71.5691 92.2487 71.681 92.2924C71.7929 92.3361 71.9128 92.3577 72.0335 92.3559C72.2071 92.3547 72.3773 92.3091 72.5265 92.2237V91.749H72.0089C71.9547 91.7473 71.9033 91.7255 71.8652 91.6883C71.8272 91.6511 71.8055 91.6012 71.8047 91.549C71.8056 91.4974 71.8275 91.4483 71.8657 91.4121C71.9039 91.376 71.9553 91.3557 72.0089 91.3557H72.7131C72.7402 91.3548 72.7673 91.3591 72.7926 91.3684C72.818 91.3776 72.8412 91.3917 72.8609 91.4097C72.8805 91.4277 72.8963 91.4493 72.9072 91.4732C72.9181 91.4971 72.9239 91.5229 72.9244 91.549V92.3186C72.9264 92.3378 72.9264 92.3571 72.9244 92.3762C72.9117 92.4114 72.8868 92.4413 72.854 92.461C72.6598 92.6075 72.4271 92.6992 72.1819 92.7257C71.9368 92.7523 71.6888 92.7127 71.4656 92.6114C71.2424 92.5101 71.0529 92.3511 70.9182 92.1521C70.7834 91.9532 70.7088 91.722 70.7025 91.4846L70.699 91.5049Z" fill="white"/>
<path d="M73.776 90.5116C73.7756 90.4865 73.7803 90.4616 73.7901 90.4384C73.7998 90.4151 73.8143 90.394 73.8327 90.3763C73.8511 90.3586 73.8731 90.3446 73.8972 90.3352C73.9213 90.3258 73.9472 90.3212 73.9732 90.3217C73.9996 90.3213 74.0258 90.3258 74.0503 90.3351C74.0748 90.3444 74.0972 90.3583 74.1162 90.3759C74.1352 90.3935 74.1503 90.4146 74.1608 90.4379C74.1714 90.4611 74.177 90.4862 74.1775 90.5116V92.5458C74.1756 92.5968 74.1533 92.6451 74.1152 92.6805C74.0771 92.7159 74.0262 92.7357 73.9732 92.7357C73.9472 92.7362 73.9213 92.7316 73.8972 92.7222C73.8731 92.7128 73.8511 92.6988 73.8327 92.6811C73.8143 92.6634 73.7998 92.6423 73.7901 92.619C73.7803 92.5958 73.7756 92.5709 73.776 92.5458V90.5116Z" fill="white"/>
<path d="M75.2489 92.5627C75.2489 92.6131 75.2281 92.6614 75.1911 92.697C75.1541 92.7326 75.104 92.7526 75.0517 92.7526C74.9994 92.7526 74.9492 92.7326 74.9122 92.697C74.8753 92.6614 74.8545 92.6131 74.8545 92.5627V90.5284C74.8538 90.4976 74.8608 90.467 74.8749 90.4393C74.889 90.4116 74.9097 90.3875 74.9355 90.3691C74.9781 90.3412 75.0301 90.33 75.0811 90.3375C75.132 90.3451 75.1781 90.3709 75.2101 90.4098L76.3756 91.9626V90.542C76.3756 90.5175 76.3806 90.4933 76.3904 90.4706C76.4001 90.448 76.4144 90.4275 76.4324 90.4101C76.4503 90.3928 76.4717 90.3791 76.4952 90.3697C76.5187 90.3603 76.5439 90.3555 76.5693 90.3555C76.621 90.3555 76.6706 90.3751 76.7075 90.4099C76.7444 90.4448 76.7656 90.4922 76.7665 90.542V92.5763C76.7656 92.6263 76.7445 92.6741 76.7077 92.7096C76.6709 92.745 76.6213 92.7653 76.5693 92.7661C76.5407 92.7657 76.5125 92.7592 76.4869 92.7468C76.4613 92.7345 76.4389 92.7168 76.4214 92.6949L76.4038 92.6746L75.2489 91.1319V92.5627Z" fill="white"/>
<path d="M77.4939 29.1375V31.6159H75.6734V29.1375C75.6734 26.7642 73.8107 24.8621 71.5219 24.8621C69.2331 24.8621 67.3704 26.7777 67.3704 29.1375V35.342H65.5218V29.1375C65.5218 25.747 68.2014 23.0109 71.5078 23.0109C74.8142 23.0109 77.4939 25.7606 77.4939 29.1375Z" fill="#C7C7C7"/>
<path d="M65.5374 31.6228L67.3579 31.694V35.3421H65.5374V31.6228Z" fill="#A6A6A6"/>
<path d="M79.8158 33.2637H63.2028V47.7749H79.8158V33.2637Z" fill="#5D4037"/>
<path opacity="0.1" d="M79.8143 33.2637H71.5078V47.7749H79.8143V33.2637Z" fill="black"/>
<path d="M72.2129 41.0516L72.9171 44.225H69.9664L70.6706 41.0516C70.3974 40.8883 70.187 40.6438 70.0711 40.355C69.9552 40.0662 69.9402 39.749 70.0283 39.4513C70.1165 39.1535 70.303 38.8916 70.5597 38.7051C70.8163 38.5186 71.129 38.4177 71.4506 38.4177C71.7721 38.4177 72.0848 38.5186 72.3415 38.7051C72.5981 38.8916 72.7846 39.1535 72.8728 39.4513C72.9609 39.749 72.9459 40.0662 72.83 40.355C72.7141 40.6438 72.5037 40.8883 72.2305 41.0516H72.2129Z" fill="#263238"/>
<path d="M92.9032 63.7879H50.1172V70.8401H92.9032V63.7879Z" fill="white"/>
<path d="M93.076 71.0095H49.9414V63.6183H93.076V71.0095ZM50.2935 70.6705H92.7239V63.9574H50.2935V70.6705Z" fill="#EBEBEB"/>
<path d="M54.5583 65.734H54.2062V68.7481H54.5583V65.734Z" fill="#37474F"/>
<path d="M55.9475 67.07H52.8172V67.409H55.9475V67.07Z" fill="#37474F"/>
<path d="M55.3655 66.0523L53.1512 68.1828L53.4001 68.4226L55.6144 66.2921L55.3655 66.0523Z" fill="#37474F"/>
<path d="M53.3983 66.054L53.1493 66.2937L55.3628 68.425L55.6118 68.1853L53.3983 66.054Z" fill="#37474F"/>
<path d="M59.8664 65.734H59.5143V68.7481H59.8664V65.734Z" fill="#37474F"/>
<path d="M61.2575 67.07H58.1272V67.409H61.2575V67.07Z" fill="#37474F"/>
<path d="M60.6755 66.0558L58.4613 68.1864L58.7102 68.4262L60.9244 66.2956L60.6755 66.0558Z" fill="#37474F"/>
<path d="M58.7083 66.0529L58.4593 66.2926L60.6728 68.4239L60.9218 68.1842L58.7083 66.0529Z" fill="#37474F"/>
<path d="M65.1765 65.734H64.8243V68.7481H65.1765V65.734Z" fill="#37474F"/>
<path d="M66.5676 67.07H63.4373V67.409H66.5676V67.07Z" fill="#37474F"/>
<path d="M65.9836 66.056L63.7694 68.1866L64.0183 68.4264L66.2325 66.2959L65.9836 66.056Z" fill="#37474F"/>
<path d="M64.0203 66.0518L63.7713 66.2915L65.9848 68.4228L66.2338 68.1831L64.0203 66.0518Z" fill="#37474F"/>
<path d="M70.4904 65.734H70.1383V68.7481H70.4904V65.734Z" fill="#37474F"/>
<path d="M71.8776 67.07H68.7473V67.409H71.8776V67.07Z" fill="#37474F"/>
<path d="M71.2956 66.0562L69.0814 68.1867L69.3303 68.4265L71.5445 66.296L71.2956 66.0562Z" fill="#37474F"/>
<path d="M69.3343 66.0551L69.0853 66.2948L71.2988 68.4261L71.5477 68.1864L69.3343 66.0551Z" fill="#37474F"/>
<path d="M75.8005 65.734H75.4483V68.7481H75.8005V65.734Z" fill="#37474F"/>
<path d="M77.1877 67.07H74.0573V67.409H77.1877V67.07Z" fill="#37474F"/>
<path d="M76.6057 66.0564L74.3914 68.187L74.6403 68.4268L76.8546 66.2962L76.6057 66.0564Z" fill="#37474F"/>
<path d="M74.6404 66.0507L74.3914 66.2904L76.6049 68.4217L76.8539 68.182L74.6404 66.0507Z" fill="#37474F"/>
<path d="M81.1105 65.734H80.7584V68.7481H81.1105V65.734Z" fill="#37474F"/>
<path d="M82.5016 67.07H79.3713V67.409H82.5016V67.07Z" fill="#37474F"/>
<path d="M81.9157 66.0541L79.7015 68.1846L79.9504 68.4245L82.1646 66.2939L81.9157 66.0541Z" fill="#37474F"/>
<path d="M79.9524 66.0496L79.7034 66.2893L81.9169 68.4206L82.1659 68.1809L79.9524 66.0496Z" fill="#37474F"/>
<path d="M89.2477 68.4023C88.8656 68.3803 88.4932 68.2777 88.1568 68.102C87.8203 67.9263 87.528 67.6816 87.3005 67.3852L87.223 67.2835L87.3005 67.1852C87.5136 66.8789 87.8018 66.6278 88.1395 66.4542C88.4773 66.2806 88.8543 66.1898 89.2372 66.1898C89.62 66.1898 89.997 66.2806 90.3348 66.4542C90.6726 66.6278 90.9607 66.8789 91.1738 67.1852L91.2478 67.2835L91.1738 67.3852C90.9487 67.6792 90.6598 67.9225 90.3272 68.0981C89.9946 68.2738 89.6262 68.3776 89.2477 68.4023ZM87.6702 67.297C87.8518 67.538 88.09 67.734 88.3655 67.8693C88.6409 68.0045 88.9456 68.075 89.2548 68.075C89.5639 68.075 89.8687 68.0045 90.1441 67.8693C90.4195 67.734 90.6577 67.538 90.8393 67.297C90.6577 67.0561 90.4195 66.86 90.1441 66.7248C89.8687 66.5896 89.5639 66.5191 89.2548 66.5191C88.9456 66.5191 88.6409 66.5896 88.3655 66.7248C88.09 66.86 87.8518 67.0561 87.6702 67.297Z" fill="#EBEBEB"/>
<path d="M89.2442 68.0599C89.6817 68.0599 90.0364 67.7183 90.0364 67.297C90.0364 66.8757 89.6817 66.5342 89.2442 66.5342C88.8066 66.5342 88.4519 66.8757 88.4519 67.297C88.4519 67.7183 88.8066 68.0599 89.2442 68.0599Z" fill="#EBEBEB"/>
<path d="M90.5484 65.7673L87.7349 68.4763L87.9839 68.7161L90.7974 66.007L90.5484 65.7673Z" fill="#EBEBEB"/>
<path d="M60.0045 56.4442H59.4411V57.3969C59.4411 57.4617 59.4144 57.5237 59.3669 57.5695C59.3193 57.6153 59.2548 57.641 59.1876 57.641C59.1204 57.641 59.0559 57.6153 59.0083 57.5695C58.9608 57.5237 58.9341 57.4617 58.9341 57.3969V54.8032C58.9341 54.7713 58.9406 54.7397 58.9534 54.7103C58.9662 54.6809 58.9849 54.6542 59.0085 54.6318C59.0321 54.6094 59.0601 54.5917 59.0908 54.5798C59.1216 54.5679 59.1545 54.562 59.1876 54.5625H60.0045C60.1378 54.5548 60.2712 54.5734 60.3968 54.6172C60.5223 54.661 60.6371 54.7291 60.7343 54.8172C60.8315 54.9053 60.9089 55.0116 60.9619 55.1296C61.0148 55.2476 61.0421 55.3748 61.0421 55.5033C61.0421 55.6319 61.0148 55.7591 60.9619 55.8771C60.9089 55.9951 60.8315 56.1014 60.7343 56.1895C60.6371 56.2776 60.5223 56.3457 60.3968 56.3895C60.2712 56.4333 60.1378 56.4519 60.0045 56.4442ZM59.4411 55.956H60.0045C60.0697 55.9614 60.1353 55.9537 60.1972 55.9335C60.2591 55.9132 60.316 55.8807 60.3642 55.8382C60.4124 55.7956 60.4508 55.7439 60.4772 55.6862C60.5035 55.6286 60.5171 55.5663 60.5171 55.5033C60.5171 55.4404 60.5035 55.3781 60.4772 55.3205C60.4508 55.2628 60.4124 55.2111 60.3642 55.1685C60.316 55.126 60.2591 55.0935 60.1972 55.0732C60.1353 55.0529 60.0697 55.0453 60.0045 55.0507H59.4411V55.956Z" fill="#5D4037"/>
<path d="M62.9101 56.9121H61.8009L61.5755 57.4851C61.5558 57.5298 61.523 57.568 61.4811 57.5951C61.4392 57.6221 61.3901 57.6369 61.3396 57.6376C61.3105 57.6428 61.2807 57.6428 61.2516 57.6376C61.1884 57.6148 61.1371 57.5689 61.1088 57.5099C61.0804 57.4509 61.0774 57.3835 61.1002 57.3223L62.1108 54.732C62.131 54.6863 62.1649 54.6473 62.2082 54.6202C62.2514 54.593 62.3021 54.5788 62.3537 54.5795C62.4051 54.5781 62.4556 54.592 62.4985 54.6193C62.5413 54.6466 62.5744 54.686 62.5932 54.732L63.6037 57.3223C63.6266 57.3835 63.6235 57.4509 63.5951 57.5099C63.5668 57.5689 63.5155 57.6148 63.4523 57.6376C63.4233 57.6436 63.3933 57.6436 63.3643 57.6376C63.3141 57.6376 63.2652 57.623 63.2237 57.5958C63.1823 57.5686 63.1503 57.53 63.1319 57.4851L62.9101 56.9121ZM62.7234 56.4306L62.3537 55.4847L62.0016 56.4306H62.7234Z" fill="#5D4037"/>
<path d="M64.0505 56.8748C64.0703 56.8488 64.0956 56.8273 64.1247 56.8114C64.1538 56.7956 64.1861 56.786 64.2194 56.7831C64.2527 56.7802 64.2862 56.7842 64.3178 56.7947C64.3494 56.8053 64.3783 56.8221 64.4026 56.8443C64.648 57.0452 64.9544 57.1642 65.2759 57.1833C65.4789 57.1874 65.6783 57.1305 65.8463 57.0206C65.9034 56.9875 65.9512 56.9414 65.9856 56.8865C66.0199 56.8315 66.0398 56.7693 66.0435 56.7052C66.0445 56.6558 66.0298 56.6073 66.0012 56.5662C65.9658 56.5132 65.919 56.4681 65.8639 56.434C65.6702 56.328 65.4576 56.2579 65.2371 56.2272C65.0332 56.1937 64.8344 56.1356 64.6456 56.0543C64.4737 55.9828 64.327 55.8651 64.223 55.7152C64.1523 55.6079 64.1156 55.483 64.1174 55.3558C64.1204 55.2296 64.1537 55.1057 64.2148 54.9939C64.2759 54.8821 64.3631 54.7855 64.4695 54.7117C64.701 54.5574 64.9768 54.4768 65.2582 54.4811C65.6181 54.4959 65.9651 54.614 66.2547 54.8202C66.2803 54.8365 66.3022 54.8576 66.3192 54.8822C66.3363 54.9068 66.348 54.9344 66.3539 54.9634C66.3598 54.9924 66.3597 55.0222 66.3536 55.0512C66.3474 55.0801 66.3354 55.1076 66.3181 55.1321C66.302 55.1576 66.2807 55.1797 66.2554 55.197C66.2302 55.2143 66.2015 55.2265 66.1712 55.2328C66.141 55.2392 66.1096 55.2395 66.0792 55.2339C66.0488 55.2282 66.0198 55.2166 65.9942 55.1999C65.7843 55.0362 65.5276 54.938 65.2582 54.9185C65.076 54.9155 64.8974 54.9677 64.7477 55.0677C64.6971 55.0965 64.6548 55.137 64.6247 55.1855C64.5946 55.2341 64.5775 55.2892 64.5751 55.3457C64.5718 55.3886 64.5829 55.4314 64.6068 55.4677C64.6397 55.5135 64.6816 55.5527 64.7301 55.583C64.9055 55.6822 65.0992 55.7479 65.3005 55.7763C65.5173 55.8134 65.7289 55.8748 65.9308 55.9593C66.116 56.0378 66.2746 56.1646 66.3886 56.3255C66.4594 56.438 66.4971 56.5669 66.4977 56.6985C66.4926 56.8335 66.4542 56.9655 66.3856 57.0834C66.317 57.2013 66.2203 57.3018 66.1033 57.3766C65.8579 57.5447 65.5629 57.6326 65.2618 57.6274C64.8323 57.6086 64.4213 57.4536 64.0927 57.1867C64.046 57.1495 64.0156 57.0966 64.0078 57.0387C63.9999 56.9808 64.0152 56.9222 64.0505 56.8748Z" fill="#5D4037"/>
<path d="M67.0547 56.8748C67.0741 56.8515 67.0982 56.8323 67.1254 56.8181C67.1527 56.804 67.1827 56.7952 67.2135 56.7924C67.2443 56.7896 67.2755 56.7927 67.305 56.8016C67.3346 56.8105 67.362 56.825 67.3857 56.8443C67.631 57.0452 67.9374 57.1642 68.2589 57.1833C68.4621 57.1878 68.6616 57.1309 68.8294 57.0206C68.8864 56.9875 68.9343 56.9414 68.9686 56.8865C69.003 56.8315 69.0229 56.7693 69.0265 56.7052C69.0276 56.6558 69.0129 56.6073 68.9843 56.5662C68.9498 56.5125 68.9028 56.4672 68.847 56.434C68.6546 56.3279 68.4431 56.2577 68.2237 56.2272C68.0208 56.1941 67.8232 56.136 67.6357 56.0543C67.4634 55.9821 67.3157 55.8645 67.2096 55.7152C67.1401 55.6073 67.1035 55.4828 67.104 55.3558C67.107 55.2296 67.1403 55.1057 67.2014 54.9939C67.2625 54.8821 67.3497 54.7855 67.4561 54.7117C67.6876 54.5574 67.9634 54.4768 68.2448 54.4811C68.6047 54.4959 68.9517 54.614 69.2413 54.8202C69.2669 54.8365 69.2888 54.8576 69.3058 54.8822C69.3228 54.9068 69.3346 54.9344 69.3405 54.9634C69.3464 54.9924 69.3463 55.0222 69.3401 55.0512C69.334 55.0801 69.322 55.1076 69.3047 55.1321C69.2886 55.1576 69.2673 55.1797 69.242 55.197C69.2168 55.2143 69.1881 55.2265 69.1578 55.2328C69.1275 55.2392 69.0962 55.2395 69.0658 55.2339C69.0354 55.2282 69.0064 55.2166 68.9808 55.1999C68.7709 55.0362 68.5142 54.938 68.2448 54.9185C68.0626 54.9155 67.884 54.9677 67.7343 55.0677C67.6837 55.0965 67.6414 55.137 67.6113 55.1855C67.5812 55.2341 67.5641 55.2892 67.5617 55.3457C67.5584 55.3886 67.5695 55.4314 67.5934 55.4677C67.6263 55.5135 67.6682 55.5527 67.7167 55.583C67.8924 55.6816 68.086 55.7472 68.2871 55.7763C68.5039 55.8134 68.7154 55.8748 68.9174 55.9593C69.102 56.0372 69.2596 56.1642 69.3716 56.3255C69.4449 56.437 69.4828 56.5666 69.4808 56.6985C69.4764 56.8333 69.4386 56.9651 69.3706 57.0831C69.3026 57.201 69.2064 57.3016 69.0899 57.3766C68.8435 57.5454 68.5472 57.6333 68.2448 57.6274C67.8154 57.6086 67.4044 57.4536 67.0758 57.1867C67.033 57.1464 67.0071 57.0922 67.0032 57.0346C66.9993 56.977 67.0176 56.9201 67.0547 56.8748Z" fill="#5D4037"/>
<path d="M74.2972 54.9253L73.1774 57.485C73.1727 57.5003 73.1643 57.5143 73.1528 57.5257C73.1528 57.5257 73.1528 57.5427 73.1316 57.5529C73.1105 57.563 73.1316 57.5529 73.1316 57.5529L73.0999 57.5732C73.0999 57.5732 73.0788 57.5969 73.0577 57.6003H73.019H72.9098H72.8781C72.8622 57.5962 72.8484 57.5865 72.8394 57.5732L72.8077 57.5529C72.8077 57.5529 72.8077 57.5359 72.7901 57.5257C72.7881 57.5122 72.7881 57.4985 72.7901 57.485L72.1915 56.1289L71.5929 57.485C71.5929 57.485 71.5929 57.5156 71.5753 57.5257L71.5471 57.5529C71.5363 57.5577 71.5267 57.5646 71.5189 57.5732L71.4837 57.6003C71.4721 57.5979 71.4601 57.5979 71.4485 57.6003H71.3358H71.3006C71.2846 57.5945 71.2701 57.5852 71.2584 57.5732C71.2584 57.5732 71.2408 57.5732 71.2267 57.5529L71.2055 57.5257C71.2055 57.5257 71.2055 57.4986 71.1809 57.485L70.0576 54.9219C70.0374 54.864 70.0407 54.8008 70.067 54.7452C70.0933 54.6896 70.1406 54.6457 70.1993 54.6224C70.2579 54.5991 70.3236 54.5982 70.383 54.6198C70.4423 54.6414 70.4909 54.6839 70.5189 54.7388L71.4133 56.7731L72.0049 55.4169C72.0244 55.3723 72.0573 55.3343 72.0993 55.3077C72.1413 55.2812 72.1905 55.2672 72.2408 55.2677C72.2912 55.2683 72.3405 55.2826 72.3828 55.309C72.4252 55.3354 72.459 55.3728 72.4802 55.4169L73.0682 56.7731L73.9591 54.7388C73.9855 54.6796 74.0351 54.6329 74.0971 54.6088C74.1591 54.5846 74.2284 54.5851 74.2901 54.6099C74.3305 54.6529 74.3534 54.7084 74.3547 54.7663C74.356 54.8243 74.3356 54.8807 74.2972 54.9253Z" fill="#5D4037"/>
<path d="M77.4944 54.9422C77.7908 55.2428 77.9562 55.6415 77.9562 56.056C77.9562 56.4705 77.7908 56.8692 77.4944 57.1698C77.3556 57.3158 77.187 57.4327 76.9992 57.5132C76.8114 57.5936 76.6084 57.636 76.4028 57.6376C76.193 57.6365 75.9856 57.5945 75.7932 57.5141C75.6007 57.4337 75.4272 57.3165 75.2831 57.1698C74.9936 56.8658 74.8329 56.4684 74.8329 56.056C74.8329 55.6436 74.9936 55.2462 75.2831 54.9422C75.4267 54.7948 75.6001 54.6773 75.7927 54.5968C75.9853 54.5164 76.1929 54.4747 76.4028 54.4744C76.6085 54.4752 76.8118 54.5172 76.9997 54.5977C77.1876 54.6783 77.3561 54.7956 77.4944 54.9422ZM77.4345 56.0543C77.4346 55.7705 77.324 55.4971 77.1247 55.2881C77.0338 55.1902 76.9225 55.1119 76.7982 55.0582C76.6738 55.0044 76.5391 54.9765 76.4028 54.9761C76.2637 54.9752 76.1259 55.0024 75.9985 55.0562C75.8711 55.1099 75.7569 55.1889 75.6633 55.2881C75.4628 55.4963 75.352 55.7703 75.3535 56.0543C75.3506 56.3386 75.4616 56.613 75.6633 56.8205C75.7571 56.9196 75.8713 56.9988 75.9986 57.0531C76.1259 57.1074 76.2636 57.1356 76.4028 57.1359C76.5392 57.134 76.6737 57.1051 76.7979 57.0508C76.9222 56.9966 77.0334 56.9182 77.1247 56.8205C77.3198 56.61 77.4254 56.3364 77.4204 56.0543H77.4345Z" fill="#5D4037"/>
<path d="M80.9558 57.2749C80.9668 57.3049 80.9714 57.3368 80.9693 57.3685C80.9673 57.4003 80.9586 57.4313 80.9438 57.4598C80.929 57.4883 80.9084 57.5136 80.8833 57.5343C80.8581 57.5549 80.8289 57.5705 80.7974 57.58C80.7636 57.5854 80.7291 57.5854 80.6953 57.58C80.633 57.5814 80.5717 57.5649 80.5192 57.5326C80.4571 57.4948 80.4061 57.4423 80.3713 57.38C80.2987 57.2128 80.2662 57.032 80.2762 56.8511C80.2757 56.7841 80.2562 56.7184 80.2199 56.6612C80.186 56.6089 80.1387 56.5657 80.0826 56.5358C80.0047 56.4874 79.919 56.4519 79.8291 56.4307H79.2903V57.3834C79.2899 57.4155 79.2828 57.4471 79.2697 57.4766C79.2565 57.506 79.2375 57.5327 79.2136 57.555C79.1897 57.5774 79.1615 57.595 79.1306 57.6068C79.0996 57.6187 79.0666 57.6246 79.0333 57.6241C78.967 57.6241 78.9034 57.5988 78.8565 57.5536C78.8096 57.5085 78.7833 57.4472 78.7833 57.3834V54.7897C78.7828 54.758 78.7889 54.7265 78.8013 54.697C78.8137 54.6676 78.8321 54.6409 78.8554 54.6185C78.8787 54.596 78.9065 54.5783 78.937 54.5664C78.9676 54.5544 79.0003 54.5485 79.0333 54.549H79.8502C80.0515 54.5482 80.2482 54.6074 80.4132 54.7186C80.5782 54.8297 80.7034 54.9872 80.7717 55.1696C80.84 55.352 80.848 55.5503 80.7946 55.7372C80.7412 55.9242 80.629 56.0906 80.4734 56.2137C80.5341 56.2604 80.5874 56.3152 80.6319 56.3764C80.731 56.5163 80.7838 56.6818 80.7833 56.8511C80.7766 56.9385 80.7826 57.0263 80.8009 57.1122C80.8391 57.1241 80.8735 57.1453 80.9007 57.1739C80.9278 57.2024 80.9468 57.2372 80.9558 57.2749ZM80.3115 55.5051C80.3119 55.4453 80.3 55.386 80.2765 55.3307C80.2529 55.2754 80.2182 55.2251 80.1743 55.1828C80.1304 55.1406 80.0782 55.1071 80.0207 55.0844C79.9633 55.0618 79.9017 55.0503 79.8396 55.0508H79.2798V55.956H79.8396C79.9642 55.956 80.0836 55.9086 80.172 55.8242C80.2604 55.7397 80.3105 55.625 80.3115 55.5051Z" fill="#5D4037"/>
<path d="M81.6981 57.397V54.8033C81.6976 54.7715 81.7038 54.74 81.7162 54.7106C81.7286 54.6812 81.747 54.6545 81.7703 54.632C81.7936 54.6096 81.8214 54.5919 81.8519 54.5799C81.8824 54.568 81.9152 54.5621 81.9481 54.5625H82.4869C82.8974 54.5811 83.2848 54.7512 83.5685 55.0375C83.8522 55.3238 84.0105 55.7044 84.0105 56.1001C84.0105 56.4958 83.8522 56.8764 83.5685 57.1627C83.2848 57.449 82.8974 57.6191 82.4869 57.6377H81.9481C81.8818 57.6377 81.8182 57.6123 81.7713 57.5672C81.7245 57.522 81.6981 57.4608 81.6981 57.397ZM82.2052 57.1494H82.4869C82.7652 57.1342 83.0269 57.017 83.2184 56.8219C83.4098 56.6268 83.5165 56.3685 83.5165 56.1001C83.5165 55.8317 83.4098 55.5734 83.2184 55.3783C83.0269 55.1832 82.7652 55.066 82.4869 55.0508H82.2052V57.1494Z" fill="#5D4037"/>
<path d="M136.319 17.2337C136.319 17.2337 133.632 37.9357 129.217 42.5942C123.935 48.1817 120.062 47.3646 117.949 50.2465C115.808 47.3612 111.963 48.1817 106.681 42.5908C102.265 37.9324 99.5858 17.2303 99.5858 17.2303C111.206 11.8055 117.966 5.70273 117.966 5.70273C118.142 5.89599 124.868 11.8835 136.319 17.2337Z" fill="#37474F"/>
<path d="M117.935 5.70951V50.2465C115.794 47.3612 111.949 48.1817 106.667 42.5908C102.252 37.9324 99.5721 17.2303 99.5721 17.2303C111.192 11.8055 117.953 5.70273 117.953 5.70273L117.935 5.70951Z" fill="#455A64"/>
<path d="M133.48 18.9018C133.48 18.9018 131.213 36.3898 127.494 40.3261C123.012 45.0524 119.748 44.3573 117.955 46.7917C116.149 44.3573 112.899 45.0524 108.416 40.3261C104.691 36.3898 102.43 18.9018 102.43 18.9018C112.254 14.3078 117.959 9.16107 117.959 9.16107C117.959 9.16107 123.638 14.3078 133.48 18.9018Z" fill="#455A64"/>
<path d="M102.407 18.9018C102.407 18.9018 104.675 36.3863 108.393 40.326C112.868 45.0489 116.115 44.3607 117.925 46.7882V9.15423C117.763 9.34071 112.08 14.3789 102.407 18.9018Z" fill="#37474F"/>
<path d="M123.029 32.8801C125.841 30.1724 125.841 25.7824 123.029 23.0747C120.217 20.367 115.658 20.367 112.846 23.0747C110.034 25.7824 110.034 30.1724 112.846 32.8801C115.658 35.5878 120.217 35.5878 123.029 32.8801Z" fill="#5D4037"/>
<path d="M117.114 32.4805L113.906 29.2697L115.096 28.1678L116.864 29.9376L120.674 24.3095L122.058 25.1775L117.114 32.4805Z" fill="white"/>
<path d="M11.7779 67.0055H36.4826V62.0792H11.7779V67.0055Z" fill="#C7C7C7"/>
<path d="M29.8519 66.9648L30.5421 73.2609L39.0845 132.2H41.5247L34.7851 73.2609L34.2393 66.9648H29.8519Z" fill="#C7C7C7"/>
<path d="M6.7284 132.2H9.17211L17.7145 73.2609L18.4047 66.9648H14.0173L13.4715 73.2609L6.7284 132.2Z" fill="#C7C7C7"/>
<path d="M10.8517 112.946H38.1022V111.468H10.8517V112.946Z" fill="#C7C7C7"/>
<path d="M34.7851 73.0405H30.5421L29.8519 66.9648H34.2393L34.7851 73.0405Z" fill="#A6A6A6"/>
<path d="M13.4724 73.0405H17.7155L18.4056 66.9648H14.0182L13.4724 73.0405Z" fill="#A6A6A6"/>
<path d="M15.0735 38.4037C16.1299 38.9258 16.313 40.7262 19.6018 40.6278C20.0701 40.6278 20.4539 40.4346 20.8835 40.5872C21.5138 40.8075 22.0103 41.2924 22.5701 41.645C23.0204 41.9364 23.5331 42.1265 24.0702 42.201C25.1005 42.3183 26.1412 42.087 27.0139 41.5467C27.5526 41.228 28.0033 40.7872 28.5245 40.4414C29.0456 40.0955 32.19 39.3632 32.7217 37.6612C33.0739 36.5796 33.007 35.3489 31.6654 33.769C31.3564 33.4872 31.146 33.1199 31.0633 32.7179C31.0641 32.3656 31.1472 32.018 31.3062 31.7008C31.4907 31.3407 31.5582 30.9354 31.4999 30.5379C31.3502 30.1577 31.1088 29.8172 30.7956 29.5445C30.3027 28.9715 30.3942 28.1442 30.7956 27.1271C30.9548 26.6955 31.009 26.2344 30.9541 25.7795C30.8991 25.3245 30.7365 24.8878 30.4787 24.5029C30.1555 24.0619 29.7744 23.663 29.3449 23.3162C28.7428 22.7669 28.6407 22.2584 28.3695 21.482C27.859 19.9902 27.0597 19.3223 26.1195 18.8611C25.2709 18.4509 25.2991 18.6069 24.3906 18.7391C23.4702 18.1983 22.3866 17.9736 21.3166 18.1017C20.3236 18.2237 19.5032 18.8645 18.7532 19.4782C18.0841 20.0275 17.4715 20.6174 17.4362 21.543C17.4151 22.0753 17.5489 22.6042 17.5243 23.1365C17.4891 23.8146 17.0982 24.2452 16.6299 24.6724C15.9316 25.2442 15.4499 26.0228 15.2601 26.8863C15.1369 27.6085 15.8764 28.7307 15.0101 29.7987C14.2496 30.7413 12.8974 31.833 12.5453 33.0129C11.4713 36.6983 14.077 37.9019 15.0735 38.4037Z" fill="#263238"/>
<path d="M27.8096 40.3904C29.3202 40.17 31.6406 40.4447 32.4435 38.824C32.7612 38.5747 33.0128 38.2562 33.1775 37.8949C33.3422 37.5335 33.4152 37.1396 33.3907 36.7457C33.287 35.9043 32.8824 35.1239 32.2463 34.5385C31.8773 34.204 31.5553 33.8244 31.2885 33.4095C31.2033 33.0862 31.141 32.7577 31.1019 32.4262C31.1642 32.0021 31.2825 31.5874 31.454 31.1921C31.123 31.8702 30.8167 32.6025 31.123 33.3484C31.168 33.4548 31.221 33.558 31.2815 33.657C31.3915 34.0492 31.5425 34.4298 31.7322 34.7928C32.2287 35.7421 32.6829 36.5999 32.616 37.7086C32.6043 38.0789 32.512 38.4428 32.3449 38.7766C31.6914 39.3284 30.8752 39.6698 30.0103 39.753C29.9892 39.753 29.9892 39.7903 30.0103 39.7869C30.7925 39.7108 31.5427 39.4486 32.1935 39.0241C31.3167 40.2344 29.2779 40.0683 27.8025 40.3497C27.7638 40.3497 27.7779 40.3938 27.8096 40.3904ZM32.5597 38.5494V38.5189C32.8212 37.6205 32.754 36.6629 32.3695 35.8065C32.1301 35.2403 31.7709 34.7317 31.535 34.1622C31.4963 34.0638 31.4575 33.9655 31.4223 33.8638C31.7744 34.3079 32.2181 34.6775 32.5491 35.1115C33.2533 36.054 33.4787 37.1763 32.8062 38.1968C32.7334 38.3201 32.651 38.438 32.5597 38.5494Z" fill="#263238"/>
<path d="M29.1471 23.0957C29.7108 23.5674 30.2479 24.0676 30.7562 24.5943C31.1109 24.94 31.3236 25.3977 31.3548 25.8827C31.368 26.3713 31.2078 26.8497 30.9006 27.2389C30.7879 27.4016 30.6717 27.5779 30.5696 27.7373C30.5455 28.0529 30.5973 28.3697 30.721 28.6629C30.9675 29.2223 31.5133 29.5681 31.7774 30.1343C32.1858 31.0497 31.7316 31.8024 31.3302 32.6195C31.6225 31.9414 32.0344 31.2871 31.802 30.5276C31.6189 29.9072 31.1471 29.5715 30.7914 29.0663C30.575 28.7455 30.4533 28.3739 30.4393 27.9916C30.1224 28.6086 30.0133 29.2596 30.5731 29.9072C30.5978 29.9377 30.5731 29.9784 30.5309 29.9512C29.8266 29.2731 30.0097 28.4221 30.4429 27.6932C30.4695 27.2626 30.5682 26.839 30.7351 26.4387C30.7351 26.398 30.8161 26.4387 30.8091 26.4692C30.7457 26.7879 30.6612 27.1067 30.6154 27.422L30.6893 27.3169C31.2527 26.5404 31.4746 25.6216 30.8267 24.8079C30.3407 24.1875 29.6788 23.6993 29.1365 23.1127C29.1118 23.1059 29.133 23.0822 29.1471 23.0957Z" fill="#263238"/>
<path d="M33.3847 87.1143C33.3847 87.1143 27.0782 100.601 27.0712 100.612C25.8529 103.185 24.8282 105.46 24.4162 106.687C24.4135 106.694 24.4135 106.701 24.4162 106.708C24.286 106.984 24.2245 107.286 24.2366 107.589C24.2366 107.589 24.2366 107.606 24.2366 107.61C24.7859 108.481 45.8568 118.459 46.7159 118.578C47.5751 118.696 47.9659 116.347 47.4695 115.33C46.973 114.312 40.6771 107.016 40.6771 107.016L46.8603 93.4747L33.3847 87.1143Z" fill="#EB9481"/>
<path d="M28.3655 97.8315C28.3655 97.8315 27.0767 100.591 27.0697 100.602C25.8514 103.175 24.8267 105.45 24.4147 106.677C24.412 106.684 24.412 106.691 24.4147 106.698C24.3179 106.983 24.2576 107.279 24.2351 107.579C24.2351 107.579 24.2351 107.596 24.2351 107.599C24.7844 108.471 45.8553 118.449 46.7144 118.568C47.5736 118.686 47.9645 116.337 47.468 115.319C46.9715 114.302 40.6756 107.006 40.6756 107.006L42.0312 104.212L28.3655 97.8315Z" fill="#EBEBEB"/>
<path d="M46.7088 118.551C45.8496 118.442 24.7717 108.474 24.2189 107.603C24.0041 107.264 25.3316 104.233 27.0359 100.601L27.0887 100.486L40.765 106.772L40.6453 106.992C40.6453 106.992 46.9447 114.285 47.4447 115.302C47.9447 116.32 47.5644 118.662 46.7088 118.551Z" fill="#263238"/>
<path d="M47.4024 117.974C47.7088 118.293 47.0045 119.476 46.6982 119.446C46.3918 119.415 23.4583 108.447 23.1062 108.176C22.7541 107.904 23.5886 106.626 24.078 106.772C24.5675 106.918 47.4024 117.974 47.4024 117.974Z" fill="#5D4037"/>
<path d="M41.782 107.572C40.5108 106.66 38.6974 106.057 37.1375 106.511C37.0777 106.511 37.1058 106.613 37.1586 106.619C38.7067 106.836 40.2261 107.212 41.6904 107.742C41.7127 107.747 41.7361 107.745 41.7569 107.736C41.7778 107.727 41.7948 107.711 41.8054 107.692C41.8159 107.672 41.8194 107.65 41.8151 107.628C41.8109 107.606 41.7992 107.587 41.782 107.572Z" fill="white"/>
<path d="M42.4931 108.637C41.222 107.721 39.4085 107.121 37.8487 107.576C37.7888 107.593 37.817 107.674 37.8698 107.684C39.4178 107.899 40.9371 108.274 42.4016 108.803C42.4239 108.811 42.4485 108.811 42.4707 108.802C42.4929 108.794 42.5113 108.779 42.5225 108.758C42.5336 108.738 42.5368 108.715 42.5314 108.692C42.526 108.67 42.5124 108.65 42.4931 108.637Z" fill="white"/>
<path d="M43.2049 109.698C41.9337 108.786 40.1168 108.182 38.5604 108.637C38.5006 108.657 38.5252 108.739 38.5604 108.745C40.1098 108.961 41.6303 109.337 43.0957 109.868C43.1191 109.881 43.1472 109.886 43.174 109.88C43.2007 109.874 43.2239 109.858 43.2383 109.835C43.2528 109.813 43.2574 109.786 43.2511 109.76C43.2449 109.734 43.2282 109.712 43.2049 109.698Z" fill="white"/>
<path d="M29.4254 104.405C28.2705 102.948 25.9042 104.67 27.0698 106.131C28.2353 107.592 30.5804 105.867 29.4254 104.405Z" fill="white"/>
<path d="M37.1025 75.3902C36.9617 79.3129 29.1094 96.255 29.1094 96.255L42.8808 102.358C42.8808 102.358 53.9972 83.5171 52.9655 74.8375C52.0852 67.4734 32.8419 53.854 29.7538 50.016C29.296 49.4464 29.4509 47.1545 29.4509 47.1545H16.9578V50.0262C21.729 59.7771 36.0004 71.4742 37.0567 74.9087C37.0984 75.0658 37.1139 75.2283 37.1025 75.3902Z" fill="#37474F"/>
<path d="M42.8022 99.5267C40.5346 98.4791 41.2001 98.7469 38.9289 97.7264C37.8127 97.228 32.214 94.7021 31.0872 94.4207C31.0812 94.418 31.0742 94.4178 31.0679 94.42C31.0617 94.4222 31.0566 94.4267 31.0538 94.4326C31.051 94.4384 31.0507 94.4451 31.053 94.4512C31.0553 94.4572 31.06 94.4621 31.0661 94.4648C32.0309 95.0954 37.6895 97.4925 38.8127 97.9705C41.1121 98.947 40.4642 98.6486 42.7741 99.5912C42.8128 99.6115 42.8445 99.5437 42.8022 99.5267Z" fill="#263238"/>
<path d="M20.0981 52.0773C23.8691 57.6114 28.0852 62.8522 32.7075 67.7513C33.8414 68.9414 35.0069 70.0975 36.1724 71.2571C37.1583 72.2369 38.1654 73.3252 38.4083 74.7187C38.683 76.2715 38.0562 77.8176 37.5527 79.2653C36.9999 80.8588 36.4435 82.4489 35.8555 84.0323C35.2217 85.7275 32.6301 91.8947 32.204 92.7254C31.9892 93.139 35.6336 84.2493 36.2252 82.6083C36.8168 80.9673 37.4154 79.3365 37.9189 77.6752C38.2106 76.8293 38.3301 75.9371 38.271 75.0476C38.1566 74.1899 37.8011 73.3787 37.2428 72.7014C36.2287 71.3995 34.9118 70.2942 33.7604 69.1075C31.373 66.6461 29.0971 64.0897 26.9328 61.4383C24.4697 58.4435 22.1707 55.3268 20.0453 52.101C20.0437 52.0977 20.0428 52.0941 20.0426 52.0904C20.0424 52.0867 20.043 52.083 20.0443 52.0796C20.0456 52.0761 20.0476 52.0729 20.0502 52.0702C20.0528 52.0675 20.0559 52.0653 20.0594 52.0637C20.0629 52.0622 20.0666 52.0613 20.0704 52.0611C20.0743 52.061 20.0781 52.0615 20.0817 52.0628C20.0853 52.064 20.0886 52.066 20.0914 52.0685C20.0942 52.0709 20.0965 52.074 20.0981 52.0773Z" fill="#263238"/>
<path d="M12.7035 116.519C12.7035 116.519 12.0908 131.305 12.0873 131.315C12.1577 134.143 12.2704 136.621 12.4394 137.896C12.438 137.904 12.438 137.912 12.4394 137.92C12.4557 138.225 12.5461 138.523 12.7035 138.788V138.805C13.5908 139.354 37.0772 139.483 37.8976 139.222C38.7181 138.961 38.0103 136.686 37.1054 135.981C36.2004 135.275 27.2214 131.356 27.2214 131.356L27.6897 116.581L12.7035 116.519Z" fill="#EB9481"/>
<path d="M12.2008 128.39C12.2008 128.39 12.081 131.306 12.0775 131.316C12.1479 134.143 12.2606 136.622 12.4296 137.897C12.4282 137.904 12.4282 137.912 12.4296 137.92C12.4859 138.219 12.5781 138.51 12.7043 138.788V138.805C13.5916 139.354 37.078 139.483 37.8984 139.222C38.7189 138.961 38.0111 136.686 37.1062 135.981C36.2012 135.276 27.2222 131.356 27.2222 131.356L27.3172 128.366L12.2008 128.39Z" fill="#EBEBEB"/>
<path d="M37.8805 139.195C37.06 139.456 13.5842 139.351 12.6828 138.802C12.3307 138.598 12.1581 135.303 12.056 131.312V131.187L27.1972 131.092V131.339C27.1972 131.339 36.1692 135.252 37.0847 135.957C38.0002 136.662 38.7044 138.937 37.8805 139.195Z" fill="#263238"/>
<path d="M38.2437 138.388C38.6627 138.547 38.5676 139.907 38.2613 140.012C37.9549 140.117 12.3523 139.897 11.9157 139.802C11.4791 139.707 11.6481 138.202 12.1551 138.127C12.6622 138.052 38.2437 138.388 38.2437 138.388Z" fill="#5D4037"/>
<path d="M28.4726 131.397C26.9163 131.109 25.0078 131.333 23.8141 132.394C23.7683 132.435 23.8141 132.499 23.8775 132.482C25.3659 132.028 26.9004 131.727 28.455 131.587C28.4812 131.589 28.5072 131.581 28.5273 131.565C28.5475 131.549 28.5601 131.526 28.5624 131.5C28.5648 131.475 28.5566 131.45 28.5398 131.431C28.5229 131.411 28.4988 131.399 28.4726 131.397Z" fill="white"/>
<path d="M29.6057 132.051C28.0493 131.763 26.1444 131.987 24.9471 133.048C24.9014 133.089 24.9471 133.153 25.0141 133.136C26.5023 132.681 28.0369 132.381 29.5916 132.241C29.6178 132.243 29.6436 132.235 29.6634 132.218C29.6832 132.202 29.6954 132.178 29.6972 132.153C29.6991 132.128 29.6905 132.103 29.6733 132.084C29.6562 132.065 29.6318 132.053 29.6057 132.051Z" fill="white"/>
<path d="M30.715 132.709C29.1587 132.421 27.2502 132.641 26.0565 133.706C26.0072 133.746 26.0565 133.811 26.1199 133.794C27.6081 133.339 29.1427 133.039 30.6974 132.899C30.7236 132.901 30.7496 132.893 30.7697 132.877C30.7899 132.861 30.8025 132.838 30.8048 132.812C30.8072 132.787 30.799 132.762 30.7822 132.743C30.7653 132.723 30.7412 132.711 30.715 132.709Z" fill="white"/>
<path d="M15.9181 133.74C14.2173 132.912 12.8793 135.455 14.58 136.283C16.2808 137.11 17.6329 134.57 15.9181 133.74Z" fill="white"/>
<path d="M27.6335 126.603L12.2811 126.725C12.2811 126.725 14.8375 66.3511 13.1262 64.3779C9.05569 59.6889 9.70359 53.4369 12.4466 47.1578H26.4363C26.4363 47.1578 25.7637 56.6917 25.8307 56.9697C30.1335 75.0408 27.6335 126.603 27.6335 126.603Z" fill="#37474F"/>
<path d="M26.7891 123.575C23.4405 123.324 14.6199 123.599 13.5072 123.762C13.502 123.764 13.4977 123.768 13.4946 123.773C13.4916 123.778 13.49 123.783 13.49 123.789C13.49 123.794 13.4916 123.8 13.4946 123.805C13.4977 123.81 13.502 123.813 13.5072 123.816C14.6093 124.03 24.7222 123.724 26.7856 123.646C26.7936 123.644 26.8008 123.64 26.806 123.634C26.8112 123.628 26.8143 123.62 26.8147 123.612C26.8151 123.604 26.8128 123.596 26.8082 123.59C26.8036 123.583 26.7969 123.578 26.7891 123.575Z" fill="#263238"/>
<path d="M26.7676 50.8635C26.6267 52.5587 26.6971 55.4813 25.6725 55.5253C24.6478 55.5694 24.8274 52.0094 24.7992 51.189C24.771 50.4464 24.507 50.5482 24.4788 51.4229C24.4013 53.7962 24.4788 55.8949 25.7746 55.7966C27.0704 55.6983 27.0739 52.0196 27.0422 51.1788C27.0246 50.7448 26.8098 50.3244 26.7676 50.8635Z" fill="#263238"/>
<path d="M25.7323 55.6373C25.6685 56.2366 25.6815 56.8413 25.771 57.4376C25.7886 57.4851 25.9858 57.4376 26.007 57.4071C26.1267 57.1596 26.0316 55.9933 26.0633 55.678C26.0689 55.6357 26.0568 55.593 26.0298 55.5593C26.0164 55.5426 25.9997 55.5287 25.9807 55.5182C25.9616 55.5077 25.9407 55.5009 25.9189 55.4983C25.875 55.4929 25.8307 55.5045 25.7957 55.5306C25.7607 55.5566 25.7379 55.595 25.7323 55.6373Z" fill="#263238"/>
<path d="M26.1725 57.7394C26.6091 59.2312 27.0563 62.0859 26.9507 62.825C26.9507 62.8928 26.838 62.9166 26.8239 62.8454C26.683 62.0452 26.0633 58.1971 25.9999 57.7936C25.9366 57.3901 26.0492 57.3223 26.1725 57.7394Z" fill="#263238"/>
<path d="M23.479 58.9158C23.6833 58.7231 23.9022 58.5451 24.1339 58.3835C24.3628 58.2106 24.5917 58.0445 24.8381 57.8784C25.3241 57.5393 25.8241 57.2477 26.3347 56.9562C26.8452 56.6646 27.3452 56.4103 27.8664 56.156C28.3875 55.9017 28.9861 55.6915 29.5284 55.4305C29.5601 55.4135 29.5882 55.4576 29.5565 55.4745C29.0425 55.7492 28.5636 56.0916 28.0636 56.3933C27.5636 56.6951 27.0635 57.007 26.56 57.3088C26.0565 57.6105 25.5811 57.9055 25.0881 58.1971C24.8323 58.3508 24.5717 58.4999 24.3064 58.6446C24.069 58.7919 23.822 58.9244 23.567 59.0413C23.4825 59.0718 23.4332 58.9667 23.479 58.9158Z" fill="#263238"/>
<path d="M14.5945 95.1902C14.8163 90.352 15.1684 84.9477 15.2529 80.1163C15.2929 77.6955 15.3116 75.2736 15.3093 72.8505C15.3093 70.4467 15.3093 67.2359 15.1966 64.8355C15.1297 63.6149 12.8973 62.6724 12.443 59.1192C12.1283 57.0956 12.2957 55.0296 12.9325 53.0774C13.0909 52.6029 13.2778 52.1376 13.4924 51.6839C13.4924 51.6534 13.5522 51.6839 13.5381 51.7111C12.6446 53.7063 12.2734 55.8822 12.4571 58.0478C12.522 59.1396 12.7595 60.2154 13.1614 61.2382C13.76 62.6724 15.2353 63.8353 15.3128 64.5982C15.429 65.734 15.4466 66.7172 15.4607 67.8598C15.4748 69.0024 15.4889 70.2331 15.4959 71.4198C15.51 73.8428 15.503 76.2647 15.4748 78.6855C15.4184 83.5067 15.287 88.3257 15.0804 93.1424C14.8691 97.9602 13.5733 122.083 13.4888 122.639C13.4888 122.7 13.3762 122.687 13.3797 122.639C13.5346 120.208 14.3691 100.028 14.5945 95.1902Z" fill="#263238"/>
<path d="M22.8875 36.0304C26.2185 42.6485 30.4475 49.8159 34.4053 50.9483C38.173 52.0163 45.4759 43.1096 47.7858 40.777C48.6098 39.9294 41.916 35.081 40.8773 35.8168C38.9195 37.2035 35.4018 40.9804 34.8103 40.8482C34.2187 40.716 29.2785 36.1931 24.8277 32.3958C22.1304 30.0937 20.5811 31.4431 22.8875 36.0304Z" fill="#EB9481"/>
<path d="M53.5777 36.5762C54.4932 36.2067 61.5426 35.9897 61.5426 34.5182C61.5426 33.0468 52.5671 33.4604 52.5671 33.4604L53.5777 36.5762Z" fill="#EB9481"/>
<path d="M40.0559 36.7491C41.2883 35.2742 42.3728 33.6977 43.4433 33.3925C44.1862 33.1891 52.1652 33.5214 53.4153 33.4502C54.6653 33.379 59.109 33.4874 59.2147 34.5385C59.359 36.0269 54.0913 36.0133 53.5315 36.7762C51.5913 39.4004 44.2144 43.2858 44.2144 43.2858L40.0559 36.7491Z" fill="#EB9481"/>
<path d="M59.3314 34.5622C59.2543 34.2831 59.0724 34.0415 58.8208 33.8841C58.2751 33.518 57.5567 33.4841 56.9159 33.4366C55.9441 33.3491 54.9664 33.3412 53.9933 33.4129C53.9886 33.4129 53.9841 33.4147 53.9808 33.4178C53.9775 33.421 53.9757 33.4253 53.9757 33.4298C53.9757 33.4343 53.9775 33.4386 53.9808 33.4418C53.9841 33.445 53.9886 33.4468 53.9933 33.4468C54.7222 33.4468 55.4511 33.4637 56.1799 33.5214C56.8475 33.5483 57.51 33.6461 58.1553 33.8129C58.4471 33.8876 58.7108 34.0405 58.9159 34.2537C58.9886 34.3282 59.0406 34.4191 59.0671 34.5181C59.0936 34.6171 59.0936 34.7209 59.0673 34.8199C58.8525 35.4675 57.525 35.6607 56.9124 35.793C56.113 35.9659 55.282 36.132 54.4757 36.2744C54.4405 36.2744 54.4757 36.3354 54.4933 36.3287C55.3278 36.1693 56.2116 36.1049 57.0497 35.9591C57.7293 35.8404 58.4582 35.7082 59.0075 35.281C59.1257 35.2022 59.2187 35.0931 59.2759 34.9661C59.3332 34.8391 59.3524 34.6992 59.3314 34.5622Z" fill="#263238"/>
<path d="M46.923 31.3573L47.1551 30.2126L61.0272 32.8211C61.1527 32.8447 61.2634 32.9153 61.3349 33.0175C61.4063 33.1197 61.4327 33.2451 61.4082 33.366L61.3609 33.5989C61.3364 33.7198 61.263 33.8264 61.1569 33.8952C61.0507 33.964 60.9206 33.9894 60.795 33.9657L46.923 31.3573Z" fill="#5D4037"/>
<path opacity="0.1" d="M47.1532 30.2149L46.921 31.3596L48.5937 31.6742L48.8258 30.5295L47.1532 30.2149Z" fill="black"/>
<path d="M41.848 28.7578L41.4396 30.7921C41.2995 31.48 41.4489 32.1933 41.8551 32.7751C42.2612 33.3569 42.8907 33.7595 43.6051 33.8944C44.3195 34.0292 45.0603 33.8853 45.6645 33.4943C46.2688 33.1033 46.6869 32.4971 46.827 31.8092L47.239 29.775C47.3083 29.4341 47.3073 29.0835 47.2359 28.743C47.1645 28.4026 47.0242 28.079 46.823 27.7908C46.6217 27.5026 46.3635 27.2553 46.063 27.0632C45.7625 26.8711 45.4257 26.7378 45.0717 26.671C44.7177 26.6042 44.3535 26.6052 44 26.6739C43.6464 26.7427 43.3103 26.8778 43.011 27.0716C42.4064 27.4629 41.9881 28.0695 41.848 28.7578ZM46.3763 29.263C46.3024 29.564 46.1333 29.8356 45.8924 30.0402C45.6515 30.2449 45.3506 30.3725 45.0312 30.4056C45.3127 30.5538 45.5405 30.7813 45.684 31.0576C45.8274 31.3339 45.8798 31.6459 45.834 31.9516C45.6685 32.7586 44.746 33.2671 43.7706 33.084C42.7952 32.901 42.1368 32.094 42.2987 31.2905C42.3743 30.9897 42.5443 30.7185 42.7856 30.5141C43.0269 30.3096 43.3278 30.1818 43.6474 30.1479C43.3645 30.0012 43.1355 29.774 42.9918 29.4972C42.8481 29.2205 42.7967 28.9078 42.8445 28.6019C43.01 27.7916 43.9326 27.2898 44.9079 27.4728C45.8833 27.6559 46.5418 28.4561 46.3763 29.263Z" fill="#5D4037"/>
<path d="M47.2591 29.6969L46.817 31.8765C46.7935 31.9923 46.872 32.1045 46.9922 32.1271L47.1028 32.1479C47.2231 32.1705 47.3396 32.095 47.363 31.9792L47.8051 29.7996C47.8286 29.6838 47.7501 29.5717 47.6299 29.549L47.5193 29.5282C47.3991 29.5056 47.2826 29.5812 47.2591 29.6969Z" fill="#5D4037"/>
<path d="M47.8041 29.8007L47.3621 31.9803C47.3386 32.0961 47.417 32.2083 47.5373 32.2309L47.6479 32.2517C47.7681 32.2743 47.8846 32.1988 47.9081 32.083L48.3502 29.9034C48.3737 29.7876 48.2952 29.6754 48.175 29.6528L48.0644 29.632C47.9441 29.6094 47.8276 29.685 47.8041 29.8007Z" fill="#5D4037"/>
<path d="M57.7052 31.7075L58.1172 31.7855L58.3496 30.6294L58.7052 30.6972L58.582 31.3007L58.994 31.3786L59.1172 30.7751L59.4271 30.8328L59.2369 31.7855L59.6489 31.8635L59.8426 30.9108L60.2863 30.9955L60.0292 32.2669L60.4412 32.3449L60.6982 31.0735L61.1173 31.1515L60.7898 32.7755L57.0996 32.0839L57.4271 30.4564L57.9376 30.5548L57.7052 31.7075Z" fill="#5D4037"/>
<path d="M10.4364 49.1989L30.0917 49.5108L28.5495 43.842C29.0622 43.1305 29.4071 42.3197 29.5598 41.4663C29.7124 40.6129 29.6693 39.7377 29.4333 38.9021C28.9614 37.234 26.7255 34.7352 25.3522 33.1383C22.0141 29.2732 19.1127 31.0193 18.1866 32.0127C14.6548 35.8201 10.4364 49.1989 10.4364 49.1989Z" fill="#5D4037"/>
<path d="M20.1166 34.2165V33.1383L20.8596 33.9385L21.6624 33.6977L21.2716 34.3758L21.6483 34.7556L21.0638 34.8132V35.5455L20.4229 35.0302L19.9018 35.4472L19.9617 34.8302L19.2011 34.4911L20.1166 34.2165ZM28.49 46.3306L27.8703 46.8764L27.2998 46.5849L27.5005 47.2121L26.7611 47.5816L27.4653 47.8732L27.2928 48.4157L27.8069 48.2258L28.3139 48.8429L28.3914 48.036L29.4478 47.6969L28.4196 47.2663L28.49 46.3306ZM21.3032 42.3061L21.9054 43.4589L22.5004 42.357L23.6343 42.5468L23.0321 41.3873L23.8737 40.6143L22.68 40.655L22.4406 39.5293L21.8138 40.6956L20.2222 40.577L21.1589 41.5093L20.2927 42.1501L21.3032 42.3061ZM25.99 35.6439L26.2787 35.176L25.7364 35.2234L25.5498 34.7929L25.2575 35.2607L24.7822 35.1489L25.0674 35.5489L24.7153 35.888L25.2892 35.8371L25.6061 36.4067L25.7364 35.8778L26.166 36.027L25.99 35.6439ZM16.7715 47.9919L17.0602 47.5274L16.5215 47.5715L16.3313 47.1409L16.0426 47.6122L15.5672 47.4969L15.8524 47.897L15.5003 48.236L16.0743 48.1885L16.3912 48.7581L16.5215 48.2258L16.9546 48.3784L16.7715 47.9919ZM20.0039 39.587L20.2927 39.1225L19.7504 39.1665L19.5638 38.736L19.275 39.2072L18.7962 39.092L19.0814 39.492L18.7292 39.8311L19.3032 39.7836L19.6201 40.3498L19.7504 39.8209L20.1835 39.9701L20.0039 39.587ZM16.5039 40.8482L16.4053 40.5431L16.2151 40.7906L15.944 40.699L16.0426 41.0076L15.8067 41.1635L16.0989 41.2008V41.4856L16.2996 41.2212L16.6834 41.3127L16.4933 41.0482L16.7327 40.9228L16.5039 40.8482ZM25.6273 48.1207L25.5287 47.8156L25.335 48.0631L25.0674 47.9749L25.166 48.2801L24.9265 48.4394L25.2223 48.4733V48.7581L25.423 48.4971L25.8068 48.5852L25.6167 48.3208L25.8561 48.1987L25.6273 48.1207ZM28.3562 39.2581L28.6062 39.0445L28.2928 38.9801L28.2646 38.7054L28.0146 38.919L27.7682 38.7766L27.8562 39.0479L27.5921 39.1767L27.9231 39.2445L27.997 39.6209L28.1696 39.3428L28.3844 39.5022L28.3562 39.2581ZM23.4265 44.9846L23.673 44.771L23.3596 44.7065L23.3314 44.4319L23.085 44.6455L22.835 44.5031L22.923 44.7743L22.6589 44.9032L22.9899 44.971L23.0638 45.3473L23.2364 45.0693L23.4512 45.2287L23.4265 44.9846ZM13.2784 46.7815L13.5249 46.5679L13.2115 46.5001L13.1869 46.2255L12.9369 46.4424L12.7045 46.2967L12.789 46.5713L12.5249 46.6967L12.8559 46.7679L12.9334 47.1409L13.1024 46.8663L13.3172 47.0256L13.2784 46.7815Z" fill="white"/>
<path d="M23.2924 43.5097C24.1329 43.4351 24.978 43.4215 25.8206 43.469C26.2397 43.4961 26.6552 43.5436 27.0707 43.6012C27.2749 43.6283 27.4826 43.6487 27.6904 43.669C27.9079 43.6944 28.1278 43.6944 28.3453 43.669C28.3453 43.669 28.37 43.6928 28.3453 43.6995C28.1445 43.743 27.941 43.7747 27.7362 43.7945C27.5356 43.8063 27.3346 43.8063 27.134 43.7945C26.7115 43.7673 26.2854 43.7233 25.8629 43.6962C25.0072 43.6351 24.1516 43.5775 23.2924 43.5775C23.2678 43.5843 23.2678 43.5131 23.2924 43.5097Z" fill="#263238"/>
<path d="M21.3832 44.5709C22.0512 44.3836 22.7295 44.2319 23.4149 44.1166C23.767 44.0624 24.1192 44.0251 24.4502 43.9979L24.9466 43.964C25.1297 43.964 25.2988 43.964 25.4959 43.964C25.5171 43.964 25.5206 43.9912 25.4959 43.9946C25.3234 44.0115 25.1438 44.0556 24.9819 44.0793L24.4678 44.1573L23.4396 44.3133C22.7541 44.4082 22.0687 44.5144 21.3832 44.632C21.355 44.632 21.348 44.5811 21.3832 44.5709Z" fill="#263238"/>
<path d="M20.0981 31.799C20.1826 32.138 21.8587 34.3249 23.4609 34.2503C23.982 34.2232 23.9679 31.4769 23.9679 31.4769L24.0137 31.2735L24.6757 28.4289L21.2108 26.2929L20.7108 26.0115C20.7108 26.0115 20.5841 26.8015 20.4362 27.7847C20.4362 27.8322 20.4362 27.8762 20.4362 27.9237C20.4362 27.9712 20.415 28.0322 20.408 28.0865C20.3834 28.2322 20.3587 28.3814 20.3411 28.5306C20.3235 28.6798 20.3094 28.7578 20.2953 28.8697L20.2531 29.229C20.1416 30.0814 20.0899 30.94 20.0981 31.799Z" fill="#EB9481"/>
<path d="M20.4509 27.7813C20.7514 28.579 21.2282 29.3044 21.8483 29.9073C22.4684 30.5102 23.217 30.9764 24.0425 31.2735L24.6763 28.4289L21.2115 26.2929L20.7115 26.0115C20.7115 26.0115 20.5847 26.7981 20.4509 27.7813Z" fill="#263238"/>
<path d="M28.8408 23.7874C29.8725 28.8053 26.8654 29.9648 25.7421 30.1784C24.7245 30.3717 21.2244 30.9006 19.661 26.015C18.0976 21.1293 20.1962 19.0815 22.5061 18.5221C24.816 17.9627 27.8126 18.773 28.8408 23.7874Z" fill="#EB9481"/>
<path d="M27.3197 23.0211C27.2035 23.0465 27.086 23.0658 26.9676 23.0787C26.8441 23.1178 26.7108 23.1178 26.5873 23.0787C26.5516 23.058 26.524 23.0265 26.5087 22.9891C26.4935 22.9517 26.4914 22.9105 26.5028 22.8719C26.5378 22.7988 26.5925 22.736 26.6612 22.69C26.73 22.6441 26.8102 22.6168 26.8936 22.6108C27.0598 22.5735 27.2346 22.5977 27.3831 22.6787C27.4136 22.7 27.4373 22.7291 27.4514 22.7628C27.4655 22.7965 27.4694 22.8333 27.4628 22.869C27.4562 22.9047 27.4393 22.938 27.414 22.9649C27.3887 22.9918 27.356 23.0112 27.3197 23.0211Z" fill="#263238"/>
<path d="M23.6208 24.0485C23.7394 24.031 23.857 24.0073 23.9729 23.9773C24.1031 23.9701 24.227 23.9211 24.325 23.8383C24.3516 23.8073 24.3662 23.7683 24.3662 23.7281C24.3662 23.6879 24.3516 23.6489 24.325 23.6179C24.2658 23.5609 24.1914 23.5207 24.1101 23.5015C24.0288 23.4824 23.9436 23.4851 23.8637 23.5094C23.6942 23.5304 23.5393 23.6129 23.4306 23.7399C23.4062 23.7706 23.3919 23.8075 23.3896 23.8461C23.3872 23.8846 23.3968 23.9229 23.4173 23.9561C23.4378 23.9893 23.4681 24.0159 23.5043 24.0323C23.5406 24.0488 23.5812 24.0544 23.6208 24.0485Z" fill="#263238"/>
<path d="M24.4015 24.6927C24.4015 24.6927 24.3769 24.6927 24.3804 24.7266C24.4438 25.0656 24.4579 25.4725 24.155 25.6318C24.155 25.6318 24.155 25.6555 24.155 25.6522C24.5459 25.5403 24.5212 25.0046 24.4015 24.6927Z" fill="#263238"/>
<path d="M24.0284 24.3773C23.4474 24.418 23.5742 25.5368 24.1129 25.4961C24.6517 25.4555 24.5144 24.3434 24.0284 24.3773Z" fill="#263238"/>
<path d="M23.8074 24.4621C23.7123 24.5333 23.6278 24.6554 23.5045 24.6825C23.3813 24.7096 23.2475 24.6045 23.1524 24.5028C23.1524 24.5028 23.1313 24.5028 23.1524 24.5028C23.1736 24.7164 23.2827 24.9266 23.5257 24.9334C23.7686 24.9402 23.8778 24.7334 23.9095 24.513C23.8884 24.4859 23.8461 24.4316 23.8074 24.4621Z" fill="#263238"/>
<path d="M26.609 24.3671C26.609 24.3671 26.6372 24.3671 26.6372 24.3943C26.6654 24.7333 26.7534 25.1368 27.0914 25.2181V25.2385C26.6865 25.2249 26.5738 24.6994 26.609 24.3671Z" fill="#263238"/>
<path d="M26.8909 23.9739C27.4649 23.8755 27.6269 24.991 27.0952 25.0791C26.5635 25.1673 26.4085 24.0586 26.8909 23.9739Z" fill="#263238"/>
<path d="M27.1415 24.0146C27.2437 24.062 27.3493 24.157 27.4584 24.1468C27.5676 24.1366 27.6627 24.0044 27.7261 23.879C27.7261 23.879 27.7261 23.879 27.7472 23.879C27.7824 24.0892 27.7472 24.3231 27.5359 24.3909C27.3246 24.4587 27.1838 24.2926 27.0958 24.0858C27.0817 24.0587 27.1028 23.9942 27.1415 24.0146Z" fill="#263238"/>
<path d="M25.0565 27.6153C25.148 27.6932 25.2431 27.7984 25.3734 27.8017C25.5079 27.79 25.6385 27.7519 25.7572 27.6899C25.7572 27.6899 25.7783 27.6899 25.7572 27.6899C25.7104 27.7612 25.6445 27.819 25.5664 27.8572C25.4883 27.8954 25.4009 27.9125 25.3135 27.9068C25.2462 27.8928 25.1841 27.8614 25.1339 27.816C25.0837 27.7706 25.0472 27.713 25.0283 27.6492C25.0283 27.6492 25.0283 27.6051 25.0565 27.6153Z" fill="#263238"/>
<path d="M26.3974 26.1913C26.3974 26.1913 26.5383 26.6965 26.57 26.9406C26.57 26.9643 26.5136 26.9813 26.4256 26.9982C26.2129 27.0616 25.9862 27.0676 25.7701 27.0156C25.5541 26.9636 25.357 26.8555 25.2002 26.7032C25.2002 26.6829 25.2002 26.6524 25.2355 26.6659C25.5852 26.8405 25.9842 26.9012 26.3728 26.8389C26.3728 26.771 26.1017 25.9777 26.1404 25.9709C26.3394 25.9647 26.5383 25.9841 26.732 26.0285C26.4749 24.9639 26.0277 23.9468 25.7988 22.8822C25.7988 22.8449 25.8481 22.8246 25.8622 22.8585C26.363 23.9337 26.75 25.0548 27.0172 26.2048C27.0489 26.3405 26.5066 26.2184 26.3974 26.1913Z" fill="#263238"/>
<path d="M26.3909 26.91C26.2759 27.1258 26.1048 27.3091 25.8944 27.4423C25.7775 27.5123 25.6409 27.5455 25.5035 27.5372C25.2077 27.5135 25.1514 27.2626 25.1514 27.0388C25.1605 26.9238 25.183 26.8101 25.2183 26.6998C25.5755 26.8896 25.9867 26.9633 26.3909 26.91Z" fill="#263238"/>
<path d="M25.8944 27.4423C25.7775 27.5123 25.6409 27.5455 25.5035 27.5372C25.2077 27.5135 25.1514 27.2626 25.1514 27.0388C25.3045 27.0143 25.4617 27.041 25.5968 27.1144C25.732 27.1878 25.837 27.3035 25.8944 27.4423Z" fill="#FF9ABB"/>
<path d="M20.2422 26.4557C21.2387 26.4557 21.1718 24.2519 21.1718 24.2519C21.1718 24.2519 25.2423 23.0008 25.1155 19.6884C25.837 20.9454 27.0338 21.8865 28.4571 22.316C28.4571 22.316 27.7846 18.756 24.7317 18.461C24.7317 18.461 20.883 17.6778 19.2351 20.7564C17.5872 23.8349 19.5732 26.4659 20.2422 26.4557Z" fill="#263238"/>
<path d="M25.0945 19.4443C25.216 19.9416 25.2268 20.4581 25.1262 20.9598C25.0348 21.4702 24.8332 21.9564 24.5346 22.3872C24.4608 22.495 24.3796 22.5981 24.2917 22.6957L24.1684 22.8483C24.1227 22.8958 24.0734 22.9398 24.0241 22.9839C23.9748 23.028 23.8339 23.1636 23.7353 23.2484L23.4114 23.4789C23.3586 23.5162 23.3057 23.5535 23.2494 23.5874L23.0769 23.6823L22.7247 23.8688C22.4853 23.9705 22.2388 24.0587 21.9923 24.1434C22.2177 24.0112 22.4501 23.9027 22.6684 23.7705L22.9924 23.5603L23.1508 23.4552C23.2036 23.4179 23.2494 23.3772 23.2987 23.3365L23.591 23.0992C23.686 23.0144 23.7705 22.9229 23.8586 22.8347L23.9924 22.7025L24.1086 22.5567C24.1887 22.4629 24.2628 22.3644 24.3304 22.2617C24.6161 21.8476 24.8246 21.3887 24.9466 20.9056C25.0097 20.6662 25.0532 20.4225 25.0769 20.1766C25.103 19.9333 25.1088 19.6885 25.0945 19.4443Z" fill="#263238"/>
<path d="M18.691 23.4416L18.4445 23.923L20.0924 25.0826L20.6206 24.001L18.691 23.4416ZM19.9762 24.5876L18.8389 23.8756L18.8917 23.7637L20.1699 24.2078L19.9762 24.5876Z" fill="#5D4037"/>
<path d="M18.7606 22.5906L18.7219 23.1263L20.7043 23.6043L20.7712 22.4075L18.7606 22.5906ZM20.4015 23.1839L19.067 22.9398V22.8143L20.4262 22.7635L20.4015 23.1839Z" fill="#5D4037"/>
<path d="M21.0077 26.0251C21.0077 26.0251 19.6732 24.5571 18.9725 25.0317C18.2718 25.5064 19.395 27.717 20.307 27.9373C20.4221 27.9742 20.5437 27.9882 20.6645 27.9784C20.7854 27.9687 20.9029 27.9353 21.0099 27.8805C21.1169 27.8256 21.2113 27.7504 21.2872 27.6593C21.3631 27.5683 21.4189 27.4633 21.4514 27.3508L21.0077 26.0251Z" fill="#EB9481"/>
<path d="M19.31 25.659C19.31 25.659 19.31 25.676 19.31 25.6793C19.6072 25.7854 19.878 25.9503 20.1049 26.1635C20.3317 26.3766 20.5096 26.6333 20.6269 26.9169C20.5846 26.8613 20.5302 26.8153 20.4675 26.7821C20.4049 26.7488 20.3355 26.7291 20.2641 26.7242C20.1927 26.7194 20.1211 26.7296 20.0543 26.754C19.9874 26.7785 19.9269 26.8167 19.8769 26.866C19.8769 26.866 19.8769 26.8999 19.898 26.8965C20.0019 26.8517 20.1176 26.839 20.2293 26.8603C20.3409 26.8816 20.4429 26.9357 20.5213 27.0152C20.6544 27.1497 20.7725 27.2975 20.8734 27.4559C20.9051 27.5068 21.0037 27.4559 20.9755 27.4085C20.891 26.6321 20.1621 25.6454 19.31 25.659Z" fill="#263238"/>
<path d="M17.0182 33.1417C12.5392 40.5803 5.84546 57.6546 4.63417 60.0958C3.81373 61.7537 12.8139 66.124 13.1977 64.917C13.6836 63.3743 19.9302 43.486 20.3387 34.6131C20.5288 30.5039 18.4513 30.7616 17.0182 33.1417Z" fill="#EB9481"/>
<path d="M9.53567 68.7143C10.011 68.3142 10.2399 68.5515 10.0251 69.6094C9.81032 70.6672 8.07085 74.695 9.57792 75.1528C11.085 75.6105 13.4512 69.9179 13.6695 68.1311C13.8879 66.3444 13.5498 63.3845 13.5498 63.3845C12.8562 64.4084 10.9441 66.7275 9.53567 68.7143Z" fill="#EB9481"/>
<path d="M12.1756 74.9324L0.907753 72.9795C0.555634 72.9524 0.340842 72.7286 0.400702 72.4777L1.43241 68.043C1.48886 67.9119 1.58913 67.8027 1.71734 67.7327C1.84554 67.6627 1.99435 67.6358 2.14017 67.6565L13.408 69.5992C13.7601 69.6297 13.9749 69.8535 13.915 70.101L12.8833 74.5357C12.8303 74.6698 12.7311 74.7823 12.6023 74.8545C12.4735 74.9267 12.3229 74.9542 12.1756 74.9324Z" fill="#A6A6A6"/>
<path d="M12.3071 74.4102L1.01819 72.4573C0.666073 72.4268 0.4548 72.203 0.51114 71.9555L1.54637 67.5208C1.59875 67.387 1.69729 67.2746 1.8255 67.2023C1.9537 67.1301 2.10379 67.1025 2.25061 67.1241L13.5396 69.077C13.8917 69.1042 14.1029 69.3279 14.0466 69.5754L13.0219 74.0135C12.9681 74.1486 12.8677 74.2617 12.7376 74.3339C12.6074 74.4061 12.4555 74.4331 12.3071 74.4102Z" fill="#C7C7C7"/>
<path d="M12.096 73.0032C11.8354 72.9083 11.589 73.0032 11.5467 73.2134C11.541 73.334 11.577 73.4529 11.649 73.5517C11.721 73.6504 11.8249 73.7234 11.9446 73.7593C12.2052 73.8542 12.4516 73.7593 12.4939 73.5525C12.5004 73.4314 12.4648 73.3116 12.3927 73.2122C12.3207 73.1127 12.2163 73.0392 12.096 73.0032Z" fill="#263238"/>
<path d="M5.23484 59.3159C2.9355 62.2995 0.900253 65.812 0.850957 69.6941C0.83604 70.1252 0.971124 70.5488 1.23477 70.8977C1.18195 72.6336 2.01647 73.1828 2.01647 73.1828C2.48127 74.8136 3.42495 75.2612 3.42495 75.2612C3.42495 75.2612 3.55875 76.6614 4.58342 76.6411C5.60809 76.6207 6.17148 74.3254 7.04826 72.6505C9.10111 68.8058 12.8336 64.4389 13.5378 63.3878L5.23484 59.3159Z" fill="#EB9481"/>
<path d="M5.96868 67.7107C5.3562 68.8297 4.82328 69.9873 4.37358 71.1758C3.9642 72.5082 3.65819 73.8682 3.45807 75.2443C3.45807 75.2533 3.45436 75.2619 3.44775 75.2683C3.44115 75.2746 3.43219 75.2782 3.42286 75.2782C3.41352 75.2782 3.40456 75.2746 3.39796 75.2683C3.39135 75.2619 3.38764 75.2533 3.38764 75.2443C3.49973 72.5557 4.37407 69.948 5.91586 67.7039C5.95107 67.6327 6.01445 67.6565 5.96868 67.7107Z" fill="#263238"/>
<path d="M3.73843 66.1816C3.23842 67.3241 2.37221 69.3347 2.05882 73.1862C2.05882 73.1862 2.0377 73.1862 2.03418 73.1862C1.89718 70.7417 2.46767 68.3086 3.68209 66.1578C3.72083 66.09 3.77365 66.1036 3.73843 66.1816Z" fill="#263238"/>
<path d="M2.5274 65.3815C1.75274 67.3547 1.52034 68.694 1.24568 70.8876H1.22104C1.26329 68.3617 1.57316 67.4463 2.4605 65.3442C2.49219 65.2832 2.55557 65.3035 2.5274 65.3815Z" fill="#263238"/>
</svg>
